<svg xmlns="http://www.w3.org/2000/svg" xmlns:xlink="http://www.w3.org/1999/xlink" contentStyleType="text/css" data-diagram-type="MINDMAP" height="1992px" preserveAspectRatio="none" style="width:1117px;height:1992px;background:#FFFFFF;" version="1.1" viewBox="0 0 1117 1992" width="1117px" zoomAndPan="magnify"><defs/><g><rect fill="#F1F1F1" height="36.2969" rx="12.5" ry="12.5" style="stroke:#181818;stroke-width:1.5;" width="214.373" x="10" y="977.0469"/><text fill="#000000" font-family="sans-serif" font-size="14" lengthAdjust="spacing" textLength="194.373" x="20" y="1000.042">Text Messaging App Design</text><rect fill="#F1F1F1" height="36.2969" rx="12.5" ry="12.5" style="stroke:#181818;stroke-width:1.5;" width="118.2666" x="274.373" y="301.4844"/><text fill="#000000" font-family="sans-serif" font-size="14" lengthAdjust="spacing" textLength="98.2666" x="284.373" y="324.4795">Requirements</text><rect fill="#F1F1F1" height="36.2969" rx="12.5" ry="12.5" style="stroke:#181818;stroke-width:1.5;" width="92.7822" x="442.6396" y="160.7422"/><text fill="#000000" font-family="sans-serif" font-size="14" lengthAdjust="spacing" textLength="72.7822" x="452.6396" y="183.7373">Functional</text><rect fill="#F1F1F1" height="36.2969" rx="12.5" ry="12.5" style="stroke:#181818;stroke-width:1.5;" width="258.9502" x="585.4219" y="20"/><text fill="#000000" font-family="sans-serif" font-size="14" lengthAdjust="spacing" textLength="238.9502" x="595.4219" y="42.9951">Real-time or eventual consistency</text><path d="M535.4219,178.8906 L545.4219,178.8906 C560.4219,178.8906 560.4219,38.1484 575.4219,38.1484 L585.4219,38.1484 " fill="none" style="stroke:#181818;stroke-width:1;"/><rect fill="#F1F1F1" height="36.2969" rx="12.5" ry="12.5" style="stroke:#181818;stroke-width:1.5;" width="212.6777" x="585.4219" y="76.2969"/><text fill="#000000" font-family="sans-serif" font-size="14" lengthAdjust="spacing" textLength="192.6777" x="595.4219" y="99.292">Chatrooms (2 - 1000 users)</text><path d="M535.4219,178.8906 L545.4219,178.8906 C560.4219,178.8906 560.4219,94.4453 575.4219,94.4453 L585.4219,94.4453 " fill="none" style="stroke:#181818;stroke-width:1;"/><rect fill="#F1F1F1" height="36.2969" rx="12.5" ry="12.5" style="stroke:#181818;stroke-width:1.5;" width="308.5586" x="585.4219" y="132.5938"/><text fill="#000000" font-family="sans-serif" font-size="14" lengthAdjust="spacing" textLength="288.5586" x="595.4219" y="155.5889">Message limit: 1000 UTF-8 chars (~4 KB)</text><path d="M535.4219,178.8906 L545.4219,178.8906 C560.4219,178.8906 560.4219,150.7422 575.4219,150.7422 L585.4219,150.7422 " fill="none" style="stroke:#181818;stroke-width:1;"/><rect fill="#F1F1F1" height="36.2969" rx="12.5" ry="12.5" style="stroke:#181818;stroke-width:1.5;" width="283.6484" x="585.4219" y="188.8906"/><text fill="#000000" font-family="sans-serif" font-size="14" lengthAdjust="spacing" textLength="263.6484" x="595.4219" y="211.8857">Delivery confirmation &amp; read receipts</text><path d="M535.4219,178.8906 L545.4219,178.8906 C560.4219,178.8906 560.4219,207.0391 575.4219,207.0391 L585.4219,207.0391 " fill="none" style="stroke:#181818;stroke-width:1;"/><rect fill="#F1F1F1" height="36.2969" rx="12.5" ry="12.5" style="stroke:#181818;stroke-width:1.5;" width="176.5156" x="585.4219" y="245.1875"/><text fill="#000000" font-family="sans-serif" font-size="14" lengthAdjust="spacing" textLength="156.5156" x="595.4219" y="268.1826">End-to-end encryption</text><path d="M535.4219,178.8906 L545.4219,178.8906 C560.4219,178.8906 560.4219,263.3359 575.4219,263.3359 L585.4219,263.3359 " fill="none" style="stroke:#181818;stroke-width:1;"/><rect fill="#F1F1F1" height="36.2969" rx="12.5" ry="12.5" style="stroke:#181818;stroke-width:1.5;" width="357.791" x="585.4219" y="301.4844"/><text fill="#000000" font-family="sans-serif" font-size="14" lengthAdjust="spacing" textLength="337.791" x="595.4219" y="324.4795">Message history (10MB/user, 10PB for 1B users)</text><path d="M535.4219,178.8906 L545.4219,178.8906 C560.4219,178.8906 560.4219,319.6328 575.4219,319.6328 L585.4219,319.6328 " fill="none" style="stroke:#181818;stroke-width:1;"/><path d="M392.6396,319.6328 L402.6396,319.6328 C417.6396,319.6328 417.6396,178.8906 432.6396,178.8906 L442.6396,178.8906 " fill="none" style="stroke:#181818;stroke-width:1;"/><rect fill="#F1F1F1" height="36.2969" rx="12.5" ry="12.5" style="stroke:#181818;stroke-width:1.5;" width="122.6211" x="442.6396" y="470.375"/><text fill="#000000" font-family="sans-serif" font-size="14" lengthAdjust="spacing" textLength="102.6211" x="452.6396" y="493.3701">Non-functional</text><rect fill="#F1F1F1" height="36.2969" rx="12.5" ry="12.5" style="stroke:#181818;stroke-width:1.5;" width="346.4775" x="615.2607" y="357.7813"/><text fill="#000000" font-family="sans-serif" font-size="14" lengthAdjust="spacing" textLength="326.4775" x="625.2607" y="380.7764">Scalability (100K users, 400MB/min write rate)</text><path d="M565.2607,488.5234 L575.2607,488.5234 C590.2607,488.5234 590.2607,375.9297 605.2607,375.9297 L615.2607,375.9297 " fill="none" style="stroke:#181818;stroke-width:1;"/><rect fill="#F1F1F1" height="36.2969" rx="12.5" ry="12.5" style="stroke:#181818;stroke-width:1.5;" width="219.7256" x="615.2607" y="414.0781"/><text fill="#000000" font-family="sans-serif" font-size="14" lengthAdjust="spacing" textLength="199.7256" x="625.2607" y="437.0732">Availability (99.99% uptime)</text><path d="M565.2607,488.5234 L575.2607,488.5234 C590.2607,488.5234 590.2607,432.2266 605.2607,432.2266 L615.2607,432.2266 " fill="none" style="stroke:#181818;stroke-width:1;"/><rect fill="#F1F1F1" height="36.2969" rx="12.5" ry="12.5" style="stroke:#181818;stroke-width:1.5;" width="320.4189" x="615.2607" y="470.375"/><text fill="#000000" font-family="sans-serif" font-size="14" lengthAdjust="spacing" textLength="300.4189" x="625.2607" y="493.3701">Performance (P99 message delivery &lt;10s)</text><path d="M565.2607,488.5234 L575.2607,488.5234 C590.2607,488.5234 590.2607,488.5234 605.2607,488.5234 L615.2607,488.5234 " fill="none" style="stroke:#181818;stroke-width:1;"/><rect fill="#F1F1F1" height="36.2969" rx="12.5" ry="12.5" style="stroke:#181818;stroke-width:1.5;" width="417.0723" x="615.2607" y="526.6719"/><text fill="#000000" font-family="sans-serif" font-size="14" lengthAdjust="spacing" textLength="397.0723" x="625.2607" y="549.667">Security &amp; privacy (User authentication, E2E encryption)</text><path d="M565.2607,488.5234 L575.2607,488.5234 C590.2607,488.5234 590.2607,544.8203 605.2607,544.8203 L615.2607,544.8203 " fill="none" style="stroke:#181818;stroke-width:1;"/><rect fill="#F1F1F1" height="36.2969" rx="12.5" ry="12.5" style="stroke:#181818;stroke-width:1.5;" width="312.0107" x="615.2607" y="582.9688"/><text fill="#000000" font-family="sans-serif" font-size="14" lengthAdjust="spacing" textLength="292.0107" x="625.2607" y="605.9639">Consistency (Strict ordering not required)</text><path d="M565.2607,488.5234 L575.2607,488.5234 C590.2607,488.5234 590.2607,601.1172 605.2607,601.1172 L615.2607,601.1172 " fill="none" style="stroke:#181818;stroke-width:1;"/><path d="M392.6396,319.6328 L402.6396,319.6328 C417.6396,319.6328 417.6396,488.5234 432.6396,488.5234 L442.6396,488.5234 " fill="none" style="stroke:#181818;stroke-width:1;"/><path d="M224.373,995.1953 L234.373,995.1953 C249.373,995.1953 249.373,319.6328 264.373,319.6328 L274.373,319.6328 " fill="none" style="stroke:#181818;stroke-width:1;"/><rect fill="#F1F1F1" height="36.2969" rx="12.5" ry="12.5" style="stroke:#181818;stroke-width:1.5;" width="176.6865" x="274.373" y="920.75"/><text fill="#000000" font-family="sans-serif" font-size="14" lengthAdjust="spacing" textLength="156.6865" x="284.373" y="943.7451">Architecture Overview</text><rect fill="#F1F1F1" height="36.2969" rx="12.5" ry="12.5" style="stroke:#181818;stroke-width:1.5;" width="108.4434" x="501.0596" y="639.2656"/><text fill="#000000" font-family="sans-serif" font-size="14" lengthAdjust="spacing" textLength="88.4434" x="511.0596" y="662.2607">API Gateway</text><path d="M451.0596,938.8984 L461.0596,938.8984 C476.0596,938.8984 476.0596,657.4141 491.0596,657.4141 L501.0596,657.4141 " fill="none" style="stroke:#181818;stroke-width:1;"/><rect fill="#F1F1F1" height="36.2969" rx="12.5" ry="12.5" style="stroke:#181818;stroke-width:1.5;" width="125.8203" x="501.0596" y="695.5625"/><text fill="#000000" font-family="sans-serif" font-size="14" lengthAdjust="spacing" textLength="105.8203" x="511.0596" y="718.5576">Sender Service</text><rect fill="#F1F1F1" height="36.2969" rx="12.5" ry="12.5" style="stroke:#181818;stroke-width:1.5;" width="336.5791" x="676.8799" y="639.2656"/><text fill="#000000" font-family="sans-serif" font-size="14" lengthAdjust="spacing" textLength="316.5791" x="686.8799" y="662.2607">Encrypts message with recipient&#8217;s public key</text><path d="M626.8799,713.7109 L636.8799,713.7109 C651.8799,713.7109 651.8799,657.4141 666.8799,657.4141 L676.8799,657.4141 " fill="none" style="stroke:#181818;stroke-width:1;"/><rect fill="#F1F1F1" height="36.2969" rx="12.5" ry="12.5" style="stroke:#181818;stroke-width:1.5;" width="240.5615" x="676.8799" y="695.5625"/><text fill="#000000" font-family="sans-serif" font-size="14" lengthAdjust="spacing" textLength="220.5615" x="686.8799" y="718.5576">Sends message to Kafka queue</text><path d="M626.8799,713.7109 L636.8799,713.7109 C651.8799,713.7109 651.8799,713.7109 666.8799,713.7109 L676.8799,713.7109 " fill="none" style="stroke:#181818;stroke-width:1;"/><rect fill="#F1F1F1" height="36.2969" rx="12.5" ry="12.5" style="stroke:#181818;stroke-width:1.5;" width="273.1553" x="676.8799" y="751.8594"/><text fill="#000000" font-family="sans-serif" font-size="14" lengthAdjust="spacing" textLength="253.1553" x="686.8799" y="774.8545">Handles traffic spikes with buffering</text><path d="M626.8799,713.7109 L636.8799,713.7109 C651.8799,713.7109 651.8799,770.0078 666.8799,770.0078 L676.8799,770.0078 " fill="none" style="stroke:#181818;stroke-width:1;"/><path d="M451.0596,938.8984 L461.0596,938.8984 C476.0596,938.8984 476.0596,713.7109 491.0596,713.7109 L501.0596,713.7109 " fill="none" style="stroke:#181818;stroke-width:1;"/><rect fill="#F1F1F1" height="36.2969" rx="12.5" ry="12.5" style="stroke:#181818;stroke-width:1.5;" width="186.5508" x="501.0596" y="836.3047"/><text fill="#000000" font-family="sans-serif" font-size="14" lengthAdjust="spacing" textLength="166.5508" x="511.0596" y="859.2998">Message Queue (Kafka)</text><rect fill="#F1F1F1" height="36.2969" rx="12.5" ry="12.5" style="stroke:#181818;stroke-width:1.5;" width="198.7324" x="737.6104" y="808.1563"/><text fill="#000000" font-family="sans-serif" font-size="14" lengthAdjust="spacing" textLength="178.7324" x="747.6104" y="831.1514">Asynchronous processing</text><path d="M687.6104,854.4531 L697.6104,854.4531 C712.6104,854.4531 712.6104,826.3047 727.6104,826.3047 L737.6104,826.3047 " fill="none" style="stroke:#181818;stroke-width:1;"/><rect fill="#F1F1F1" height="36.2969" rx="12.5" ry="12.5" style="stroke:#181818;stroke-width:1.5;" width="287.8936" x="737.6104" y="864.4531"/><text fill="#000000" font-family="sans-serif" font-size="14" lengthAdjust="spacing" textLength="267.8936" x="747.6104" y="887.4482">Ensures scalability and fault tolerance</text><path d="M687.6104,854.4531 L697.6104,854.4531 C712.6104,854.4531 712.6104,882.6016 727.6104,882.6016 L737.6104,882.6016 " fill="none" style="stroke:#181818;stroke-width:1;"/><path d="M451.0596,938.8984 L461.0596,938.8984 C476.0596,938.8984 476.0596,854.4531 491.0596,854.4531 L501.0596,854.4531 " fill="none" style="stroke:#181818;stroke-width:1;"/><rect fill="#F1F1F1" height="36.2969" rx="12.5" ry="12.5" style="stroke:#181818;stroke-width:1.5;" width="226.541" x="501.0596" y="948.8984"/><text fill="#000000" font-family="sans-serif" font-size="14" lengthAdjust="spacing" textLength="206.541" x="511.0596" y="971.8936">Message Service (Cassandra)</text><rect fill="#F1F1F1" height="36.2969" rx="12.5" ry="12.5" style="stroke:#181818;stroke-width:1.5;" width="269.5801" x="777.6006" y="920.75"/><text fill="#000000" font-family="sans-serif" font-size="14" lengthAdjust="spacing" textLength="249.5801" x="787.6006" y="943.7451">Stores sent and received messages</text><path d="M727.6006,967.0469 L737.6006,967.0469 C752.6006,967.0469 752.6006,938.8984 767.6006,938.8984 L777.6006,938.8984 " fill="none" style="stroke:#181818;stroke-width:1;"/><rect fill="#F1F1F1" height="36.2969" rx="12.5" ry="12.5" style="stroke:#181818;stroke-width:1.5;" width="327.4463" x="777.6006" y="977.0469"/><text fill="#000000" font-family="sans-serif" font-size="14" lengthAdjust="spacing" textLength="307.4463" x="787.6006" y="1000.042">Supports message retrieval for offline users</text><path d="M727.6006,967.0469 L737.6006,967.0469 C752.6006,967.0469 752.6006,995.1953 767.6006,995.1953 L777.6006,995.1953 " fill="none" style="stroke:#181818;stroke-width:1;"/><path d="M451.0596,938.8984 L461.0596,938.8984 C476.0596,938.8984 476.0596,967.0469 491.0596,967.0469 L501.0596,967.0469 " fill="none" style="stroke:#181818;stroke-width:1;"/><rect fill="#F1F1F1" height="36.2969" rx="12.5" ry="12.5" style="stroke:#181818;stroke-width:1.5;" width="155.4063" x="501.0596" y="1061.4922"/><text fill="#000000" font-family="sans-serif" font-size="14" lengthAdjust="spacing" textLength="135.4063" x="511.0596" y="1084.4873">Connection Service</text><rect fill="#F1F1F1" height="36.2969" rx="12.5" ry="12.5" style="stroke:#181818;stroke-width:1.5;" width="332.1699" x="706.4658" y="1033.3438"/><text fill="#000000" font-family="sans-serif" font-size="14" lengthAdjust="spacing" textLength="312.1699" x="716.4658" y="1056.3389">Manages user contacts (add, block, remove)</text><path d="M656.4658,1079.6406 L666.4658,1079.6406 C681.4658,1079.6406 681.4658,1051.4922 696.4658,1051.4922 L706.4658,1051.4922 " fill="none" style="stroke:#181818;stroke-width:1;"/><rect fill="#F1F1F1" height="36.2969" rx="12.5" ry="12.5" style="stroke:#181818;stroke-width:1.5;" width="348.5146" x="706.4658" y="1089.6406"/><text fill="#000000" font-family="sans-serif" font-size="14" lengthAdjust="spacing" textLength="328.5146" x="716.4658" y="1112.6357">Stores metadata (names, public keys, avatars)</text><path d="M656.4658,1079.6406 L666.4658,1079.6406 C681.4658,1079.6406 681.4658,1107.7891 696.4658,1107.7891 L706.4658,1107.7891 " fill="none" style="stroke:#181818;stroke-width:1;"/><path d="M451.0596,938.8984 L461.0596,938.8984 C476.0596,938.8984 476.0596,1079.6406 491.0596,1079.6406 L501.0596,1079.6406 " fill="none" style="stroke:#181818;stroke-width:1;"/><rect fill="#F1F1F1" height="36.2969" rx="12.5" ry="12.5" style="stroke:#181818;stroke-width:1.5;" width="208.5762" x="501.0596" y="1174.0859"/><text fill="#000000" font-family="sans-serif" font-size="14" lengthAdjust="spacing" textLength="188.5762" x="511.0596" y="1197.0811">WebSocket-based Delivery</text><rect fill="#F1F1F1" height="36.2969" rx="12.5" ry="12.5" style="stroke:#181818;stroke-width:1.5;" width="330.9736" x="759.6357" y="1145.9375"/><text fill="#000000" font-family="sans-serif" font-size="14" lengthAdjust="spacing" textLength="310.9736" x="769.6357" y="1168.9326">Persistent connections for real-time delivery</text><path d="M709.6357,1192.2344 L719.6357,1192.2344 C734.6357,1192.2344 734.6357,1164.0859 749.6357,1164.0859 L759.6357,1164.0859 " fill="none" style="stroke:#181818;stroke-width:1;"/><rect fill="#F1F1F1" height="36.2969" rx="12.5" ry="12.5" style="stroke:#181818;stroke-width:1.5;" width="337.8027" x="759.6357" y="1202.2344"/><text fill="#000000" font-family="sans-serif" font-size="14" lengthAdjust="spacing" textLength="317.8027" x="769.6357" y="1225.2295">Uses ZooKeeper for connection management</text><path d="M709.6357,1192.2344 L719.6357,1192.2344 C734.6357,1192.2344 734.6357,1220.3828 749.6357,1220.3828 L759.6357,1220.3828 " fill="none" style="stroke:#181818;stroke-width:1;"/><path d="M451.0596,938.8984 L461.0596,938.8984 C476.0596,938.8984 476.0596,1192.2344 491.0596,1192.2344 L501.0596,1192.2344 " fill="none" style="stroke:#181818;stroke-width:1;"/><path d="M224.373,995.1953 L234.373,995.1953 C249.373,995.1953 249.373,938.8984 264.373,938.8984 L274.373,938.8984 " fill="none" style="stroke:#181818;stroke-width:1;"/><rect fill="#F1F1F1" height="36.2969" rx="12.5" ry="12.5" style="stroke:#181818;stroke-width:1.5;" width="117.7676" x="274.373" y="1371.125"/><text fill="#000000" font-family="sans-serif" font-size="14" lengthAdjust="spacing" textLength="97.7676" x="284.373" y="1394.1201">Message Flow</text><rect fill="#F1F1F1" height="36.2969" rx="12.5" ry="12.5" style="stroke:#181818;stroke-width:1.5;" width="278.542" x="442.1406" y="1258.5313"/><text fill="#000000" font-family="sans-serif" font-size="14" lengthAdjust="spacing" textLength="258.542" x="452.1406" y="1281.5264">Sender encrypts and sends message</text><path d="M392.1406,1389.2734 L402.1406,1389.2734 C417.1406,1389.2734 417.1406,1276.6797 432.1406,1276.6797 L442.1406,1276.6797 " fill="none" style="stroke:#181818;stroke-width:1;"/><rect fill="#F1F1F1" height="36.2969" rx="12.5" ry="12.5" style="stroke:#181818;stroke-width:1.5;" width="182.3467" x="442.1406" y="1314.8281"/><text fill="#000000" font-family="sans-serif" font-size="14" lengthAdjust="spacing" textLength="162.3467" x="452.1406" y="1337.8232">Kafka queues message</text><path d="M392.1406,1389.2734 L402.1406,1389.2734 C417.1406,1389.2734 417.1406,1332.9766 432.1406,1332.9766 L442.1406,1332.9766 " fill="none" style="stroke:#181818;stroke-width:1;"/><rect fill="#F1F1F1" height="36.2969" rx="12.5" ry="12.5" style="stroke:#181818;stroke-width:1.5;" width="265.4307" x="442.1406" y="1371.125"/><text fill="#000000" font-family="sans-serif" font-size="14" lengthAdjust="spacing" textLength="245.4307" x="452.1406" y="1394.1201">Message Service logs the message</text><path d="M392.1406,1389.2734 L402.1406,1389.2734 C417.1406,1389.2734 417.1406,1389.2734 432.1406,1389.2734 L442.1406,1389.2734 " fill="none" style="stroke:#181818;stroke-width:1;"/><rect fill="#F1F1F1" height="36.2969" rx="12.5" ry="12.5" style="stroke:#181818;stroke-width:1.5;" width="237.6494" x="442.1406" y="1427.4219"/><text fill="#000000" font-family="sans-serif" font-size="14" lengthAdjust="spacing" textLength="217.6494" x="452.1406" y="1450.417">WebSocket pushes to recipient</text><path d="M392.1406,1389.2734 L402.1406,1389.2734 C417.1406,1389.2734 417.1406,1445.5703 432.1406,1445.5703 L442.1406,1445.5703 " fill="none" style="stroke:#181818;stroke-width:1;"/><rect fill="#F1F1F1" height="36.2969" rx="12.5" ry="12.5" style="stroke:#181818;stroke-width:1.5;" width="252.6338" x="442.1406" y="1483.7188"/><text fill="#000000" font-family="sans-serif" font-size="14" lengthAdjust="spacing" textLength="232.6338" x="452.1406" y="1506.7139">Read receipt sent back to sender</text><path d="M392.1406,1389.2734 L402.1406,1389.2734 C417.1406,1389.2734 417.1406,1501.8672 432.1406,1501.8672 L442.1406,1501.8672 " fill="none" style="stroke:#181818;stroke-width:1;"/><path d="M224.373,995.1953 L234.373,995.1953 C249.373,995.1953 249.373,1389.2734 264.373,1389.2734 L274.373,1389.2734 " fill="none" style="stroke:#181818;stroke-width:1;"/><rect fill="#F1F1F1" height="36.2969" rx="12.5" ry="12.5" style="stroke:#181818;stroke-width:1.5;" width="163.5" x="274.373" y="1596.3125"/><text fill="#000000" font-family="sans-serif" font-size="14" lengthAdjust="spacing" textLength="143.5" x="284.373" y="1619.3076">Blocking Mechanism</text><rect fill="#F1F1F1" height="36.2969" rx="12.5" ry="12.5" style="stroke:#181818;stroke-width:1.5;" width="362.4395" x="487.873" y="1540.0156"/><text fill="#000000" font-family="sans-serif" font-size="14" lengthAdjust="spacing" textLength="342.4395" x="497.873" y="1563.0107">Implemented at client, server, and recipient side</text><path d="M437.873,1614.4609 L447.873,1614.4609 C462.873,1614.4609 462.873,1558.1641 477.873,1558.1641 L487.873,1558.1641 " fill="none" style="stroke:#181818;stroke-width:1;"/><rect fill="#F1F1F1" height="36.2969" rx="12.5" ry="12.5" style="stroke:#181818;stroke-width:1.5;" width="357.1211" x="487.873" y="1596.3125"/><text fill="#000000" font-family="sans-serif" font-size="14" lengthAdjust="spacing" textLength="337.1211" x="497.873" y="1619.3076">Prevents unwanted messages at multiple layers</text><path d="M437.873,1614.4609 L447.873,1614.4609 C462.873,1614.4609 462.873,1614.4609 477.873,1614.4609 L487.873,1614.4609 " fill="none" style="stroke:#181818;stroke-width:1;"/><rect fill="#F1F1F1" height="36.2969" rx="12.5" ry="12.5" style="stroke:#181818;stroke-width:1.5;" width="241.1016" x="487.873" y="1652.6094"/><text fill="#000000" font-family="sans-serif" font-size="14" lengthAdjust="spacing" textLength="221.1016" x="497.873" y="1675.6045">Ensures performance &amp; privacy</text><path d="M437.873,1614.4609 L447.873,1614.4609 C462.873,1614.4609 462.873,1670.7578 477.873,1670.7578 L487.873,1670.7578 " fill="none" style="stroke:#181818;stroke-width:1;"/><path d="M224.373,995.1953 L234.373,995.1953 C249.373,995.1953 249.373,1614.4609 264.373,1614.4609 L274.373,1614.4609 " fill="none" style="stroke:#181818;stroke-width:1;"/><rect fill="#F1F1F1" height="36.2969" rx="12.5" ry="12.5" style="stroke:#181818;stroke-width:1.5;" width="226.2881" x="274.373" y="1821.5"/><text fill="#000000" font-family="sans-serif" font-size="14" lengthAdjust="spacing" textLength="206.2881" x="284.373" y="1844.4951">Failure Handling &amp; Scalability</text><rect fill="#F1F1F1" height="36.2969" rx="12.5" ry="12.5" style="stroke:#181818;stroke-width:1.5;" width="207.3594" x="550.6611" y="1708.9063"/><text fill="#000000" font-family="sans-serif" font-size="14" lengthAdjust="spacing" textLength="187.3594" x="560.6611" y="1731.9014">Kafka buffers traffic spikes</text><path d="M500.6611,1839.6484 L510.6611,1839.6484 C525.6611,1839.6484 525.6611,1727.0547 540.6611,1727.0547 L550.6611,1727.0547 " fill="none" style="stroke:#181818;stroke-width:1;"/><rect fill="#F1F1F1" height="36.2969" rx="12.5" ry="12.5" style="stroke:#181818;stroke-width:1.5;" width="268.2676" x="550.6611" y="1765.2031"/><text fill="#000000" font-family="sans-serif" font-size="14" lengthAdjust="spacing" textLength="248.2676" x="560.6611" y="1788.1982">Redis caches active user messages</text><path d="M500.6611,1839.6484 L510.6611,1839.6484 C525.6611,1839.6484 525.6611,1783.3516 540.6611,1783.3516 L550.6611,1783.3516 " fill="none" style="stroke:#181818;stroke-width:1;"/><rect fill="#F1F1F1" height="36.2969" rx="12.5" ry="12.5" style="stroke:#181818;stroke-width:1.5;" width="369.002" x="550.6611" y="1821.5"/><text fill="#000000" font-family="sans-serif" font-size="14" lengthAdjust="spacing" textLength="349.002" x="560.6611" y="1844.4951">ZooKeeper manages WebSocket host assignment</text><path d="M500.6611,1839.6484 L510.6611,1839.6484 C525.6611,1839.6484 525.6611,1839.6484 540.6611,1839.6484 L550.6611,1839.6484 " fill="none" style="stroke:#181818;stroke-width:1;"/><rect fill="#F1F1F1" height="36.2969" rx="12.5" ry="12.5" style="stroke:#181818;stroke-width:1.5;" width="306.9385" x="550.6611" y="1877.7969"/><text fill="#000000" font-family="sans-serif" font-size="14" lengthAdjust="spacing" textLength="286.9385" x="560.6611" y="1900.792">Kubernetes auto-scales messaging hosts</text><path d="M500.6611,1839.6484 L510.6611,1839.6484 C525.6611,1839.6484 525.6611,1895.9453 540.6611,1895.9453 L550.6611,1895.9453 " fill="none" style="stroke:#181818;stroke-width:1;"/><rect fill="#F1F1F1" height="36.2969" rx="12.5" ry="12.5" style="stroke:#181818;stroke-width:1.5;" width="315.2783" x="550.6611" y="1934.0938"/><text fill="#000000" font-family="sans-serif" font-size="14" lengthAdjust="spacing" textLength="295.2783" x="560.6611" y="1957.0889">Logging &amp; monitoring for failure detection</text><path d="M500.6611,1839.6484 L510.6611,1839.6484 C525.6611,1839.6484 525.6611,1952.2422 540.6611,1952.2422 L550.6611,1952.2422 " fill="none" style="stroke:#181818;stroke-width:1;"/><path d="M224.373,995.1953 L234.373,995.1953 C249.373,995.1953 249.373,1839.6484 264.373,1839.6484 L274.373,1839.6484 " fill="none" style="stroke:#181818;stroke-width:1;"/><!--SRC=[NLNRSk9647tNL_HBN0e53X0d5LnvMEFBPet9acMzgShRC6h15DACTYvYUKdbD_9x-P9qZoGGVh5BgFlqwTEdM- -S5zQNIcUbg981VCPl7fRedDWglOMxge87T6ghay40Fk7Ne2oMgBsZvm4y1IszCbeK_CW1eXXvLI8O2rXJN105IAETSXwrF3PXzplXhJ6bWtGA8vYCnsC83gtxlddVr4SeLAdyRVF-zVFJw1UGEs4fw-yRMCpRu0SiL8tso6LoPKl1XE0AB8gC_aXKLSDs08yw6tapGfq1aR77YaClI-w8g26mT39UpdzWKaEglvf3JXrDvZsQyBlHe_oD06if2h5HXV8HOhne4ePmCsOyqXaELda4Apos3TpLGfsJPhFhsUmx21NBs4Qiq5BvKcY9aAvcCoXRjbdN-w-JSIVU6cMm37K5bLMra0JwIYH01B-ZYIWP5Hh2u_In9qERVN-U5QHhRvNqDCiCBRj16q-AHWza70ztLkwe6-c3HVX8J6g5XoZEtUe3lASU3oBEd5Xf0g5_52An6qSixaxj79JVySXKfOZeV__yww0Acq99sEEnwqvdvmHlO27olO2l0KEB-flGMO4El1LvJgckKdjwZDYRaEUnbQG_ypyu6TA8rCt47RNSMQDD80xMI0fjqvYtetuTkDwmgIZa8XIUE1LeULGNDTh68RqNz8FER5TfJNPZB6euWaJ7rfXrFRRMNOUgChQdbKKQ3jQqNknCa-U5qjYuBMa7gJ5wyrBqfT2C6YDvPRoGX9gAB1l2fZ1oFoJeqjHuoQz4BpBX1QHQ48LXRp3q86fwrUt5dxXP4mxwqKOuQgHRq9EN6uDvhjvITB49UxeUsKKAkTV1NyOi42iYpQ7dL2XZGtoJafxUJuKvz8s7dTTOOzStKOpgkUZonTlv5MPBrjhXHT2fOrB5xTXxvcpZf3sCfsFKp7eZv9xZNEJ7rEUiFg_P4kdCQUNAcFgXh8hO7aafIBI2GOUKPsi-JgrdcbhWLDPGMjbuVcdE-Y1YRkSd1Yd9g8fWeH37pZ2TgwlUiJcT4ERtH6UAzpmk6FEywf-xdepDbhtTm5Q7J3cGGh9Av3oQSkF4ljjxiovRjvuLtXb7Y-BuarHswYx21gr6pvY13ZmlvccEp9IJ6kWNizqst4kZ5NcR7zXHUTjTXhunLlAE9jDz69DLGIg-Bb-WPl-IxIRNq_7qf-lfXXRZn_HLxxKvQF9bMIdIjJdUwVlL2pWJB4b9VTF2Ra9pQvzfO-1Jq1nt2nyhrCyFY-u76aMjwFR4_fw_BCy1Fz-Cvif7Cv8uNvR90pP7XqwfoQYLs-OxcRm8lGsat2qPFxatX6kFz6xzFm00]--></g></svg>