<svg xmlns="http://www.w3.org/2000/svg" xmlns:xlink="http://www.w3.org/1999/xlink" contentStyleType="text/css" data-diagram-type="MINDMAP" height="2330px" preserveAspectRatio="none" style="width:1289px;height:2330px;background:#FFFFFF;" version="1.1" viewBox="0 0 1289 2330" width="1289px" zoomAndPan="magnify"><defs/><g><rect fill="#F1F1F1" height="36.2969" rx="12.5" ry="12.5" style="stroke:#181818;stroke-width:1.5;" width="270.5234" x="10" y="1145.9375"/><text fill="#000000" font-family="sans-serif" font-size="14" lengthAdjust="spacing" textLength="250.5234" x="20" y="1168.9326">System Design of Flickr-like Service</text><rect fill="#F1F1F1" height="36.2969" rx="12.5" ry="12.5" style="stroke:#181818;stroke-width:1.5;" width="315.5928" x="330.5234" y="273.3359"/><text fill="#000000" font-family="sans-serif" font-size="14" lengthAdjust="spacing" textLength="295.5928" x="340.5234" y="296.3311">User Stories and Functional Requirements</text><rect fill="#F1F1F1" height="36.2969" rx="12.5" ry="12.5" style="stroke:#181818;stroke-width:1.5;" width="105.21" x="696.1162" y="48.1484"/><text fill="#000000" font-family="sans-serif" font-size="14" lengthAdjust="spacing" textLength="85.21" x="706.1162" y="71.1436">View Photos</text><rect fill="#F1F1F1" height="36.2969" rx="12.5" ry="12.5" style="stroke:#181818;stroke-width:1.5;" width="193.0996" x="851.3262" y="20"/><text fill="#000000" font-family="sans-serif" font-size="14" lengthAdjust="spacing" textLength="173.0996" x="861.3262" y="42.9951">Thumbnails for browsing</text><path d="M801.3262,66.2969 L811.3262,66.2969 C826.3262,66.2969 826.3262,38.1484 841.3262,38.1484 L851.3262,38.1484 " fill="none" style="stroke:#181818;stroke-width:1;"/><rect fill="#F1F1F1" height="36.2969" rx="12.5" ry="12.5" style="stroke:#181818;stroke-width:1.5;" width="171.1904" x="851.3262" y="76.2969"/><text fill="#000000" font-family="sans-serif" font-size="14" lengthAdjust="spacing" textLength="151.1904" x="861.3262" y="99.292">Full-resolution access</text><path d="M801.3262,66.2969 L811.3262,66.2969 C826.3262,66.2969 826.3262,94.4453 841.3262,94.4453 L851.3262,94.4453 " fill="none" style="stroke:#181818;stroke-width:1;"/><path d="M646.1162,291.4844 L656.1162,291.4844 C671.1162,291.4844 671.1162,66.2969 686.1162,66.2969 L696.1162,66.2969 " fill="none" style="stroke:#181818;stroke-width:1;"/><rect fill="#F1F1F1" height="36.2969" rx="12.5" ry="12.5" style="stroke:#181818;stroke-width:1.5;" width="120.7344" x="696.1162" y="132.5938"/><text fill="#000000" font-family="sans-serif" font-size="14" lengthAdjust="spacing" textLength="100.7344" x="706.1162" y="155.5889">Upload Photos</text><rect fill="#F1F1F1" height="36.2969" rx="12.5" ry="12.5" style="stroke:#181818;stroke-width:1.5;" width="243.8359" x="866.8506" y="132.5938"/><text fill="#000000" font-family="sans-serif" font-size="14" lengthAdjust="spacing" textLength="223.8359" x="876.8506" y="155.5889">User roles: Sharers and Viewers</text><path d="M816.8506,150.7422 L826.8506,150.7422 C841.8506,150.7422 841.8506,150.7422 856.8506,150.7422 L866.8506,150.7422 " fill="none" style="stroke:#181818;stroke-width:1;"/><path d="M646.1162,291.4844 L656.1162,291.4844 C671.1162,291.4844 671.1162,150.7422 686.1162,150.7422 L696.1162,150.7422 " fill="none" style="stroke:#181818;stroke-width:1;"/><rect fill="#F1F1F1" height="36.2969" rx="12.5" ry="12.5" style="stroke:#181818;stroke-width:1.5;" width="123.5371" x="696.1162" y="188.8906"/><text fill="#000000" font-family="sans-serif" font-size="14" lengthAdjust="spacing" textLength="103.5371" x="706.1162" y="211.8857">Access Control</text><rect fill="#F1F1F1" height="36.2969" rx="12.5" ry="12.5" style="stroke:#181818;stroke-width:1.5;" width="248.1016" x="869.6533" y="188.8906"/><text fill="#000000" font-family="sans-serif" font-size="14" lengthAdjust="spacing" textLength="228.1016" x="879.6533" y="211.8857">Global permissions for simplicity</text><path d="M819.6533,207.0391 L829.6533,207.0391 C844.6533,207.0391 844.6533,207.0391 859.6533,207.0391 L869.6533,207.0391 " fill="none" style="stroke:#181818;stroke-width:1;"/><path d="M646.1162,291.4844 L656.1162,291.4844 C671.1162,291.4844 671.1162,207.0391 686.1162,207.0391 L696.1162,207.0391 " fill="none" style="stroke:#181818;stroke-width:1;"/><rect fill="#F1F1F1" height="36.2969" rx="12.5" ry="12.5" style="stroke:#181818;stroke-width:1.5;" width="182.9688" x="696.1162" y="245.1875"/><text fill="#000000" font-family="sans-serif" font-size="14" lengthAdjust="spacing" textLength="162.9688" x="706.1162" y="268.1826">Metadata Management</text><rect fill="#F1F1F1" height="36.2969" rx="12.5" ry="12.5" style="stroke:#181818;stroke-width:1.5;" width="241.3203" x="929.085" y="245.1875"/><text fill="#000000" font-family="sans-serif" font-size="14" lengthAdjust="spacing" textLength="221.3203" x="939.085" y="268.1826">Predefined fields: location, tags</text><path d="M879.085,263.3359 L889.085,263.3359 C904.085,263.3359 904.085,263.3359 919.085,263.3359 L929.085,263.3359 " fill="none" style="stroke:#181818;stroke-width:1;"/><path d="M646.1162,291.4844 L656.1162,291.4844 C671.1162,291.4844 671.1162,263.3359 686.1162,263.3359 L696.1162,263.3359 " fill="none" style="stroke:#181818;stroke-width:1;"/><rect fill="#F1F1F1" height="36.2969" rx="12.5" ry="12.5" style="stroke:#181818;stroke-width:1.5;" width="233.1035" x="696.1162" y="329.6328"/><text fill="#000000" font-family="sans-serif" font-size="14" lengthAdjust="spacing" textLength="213.1035" x="706.1162" y="352.6279">Commenting and Notifications</text><rect fill="#F1F1F1" height="36.2969" rx="12.5" ry="12.5" style="stroke:#181818;stroke-width:1.5;" width="160.3008" x="979.2197" y="301.4844"/><text fill="#000000" font-family="sans-serif" font-size="14" lengthAdjust="spacing" textLength="140.3008" x="989.2197" y="324.4795">Enable commenting</text><path d="M929.2197,347.7813 L939.2197,347.7813 C954.2197,347.7813 954.2197,319.6328 969.2197,319.6328 L979.2197,319.6328 " fill="none" style="stroke:#181818;stroke-width:1;"/><rect fill="#F1F1F1" height="36.2969" rx="12.5" ry="12.5" style="stroke:#181818;stroke-width:1.5;" width="230.9502" x="979.2197" y="357.7813"/><text fill="#000000" font-family="sans-serif" font-size="14" lengthAdjust="spacing" textLength="210.9502" x="989.2197" y="380.7764">Alert users for new comments</text><path d="M929.2197,347.7813 L939.2197,347.7813 C954.2197,347.7813 954.2197,375.9297 969.2197,375.9297 L979.2197,375.9297 " fill="none" style="stroke:#181818;stroke-width:1;"/><path d="M646.1162,291.4844 L656.1162,291.4844 C671.1162,291.4844 671.1162,347.7813 686.1162,347.7813 L696.1162,347.7813 " fill="none" style="stroke:#181818;stroke-width:1;"/><rect fill="#F1F1F1" height="36.2969" rx="12.5" ry="12.5" style="stroke:#181818;stroke-width:1.5;" width="168.1689" x="696.1162" y="442.2266"/><text fill="#000000" font-family="sans-serif" font-size="14" lengthAdjust="spacing" textLength="148.1689" x="706.1162" y="465.2217">Search and Favorites</text><rect fill="#F1F1F1" height="36.2969" rx="12.5" ry="12.5" style="stroke:#181818;stroke-width:1.5;" width="249.5166" x="914.2852" y="414.0781"/><text fill="#000000" font-family="sans-serif" font-size="14" lengthAdjust="spacing" textLength="229.5166" x="924.2852" y="437.0732">Search by titles and descriptions</text><path d="M864.2852,460.375 L874.2852,460.375 C889.2852,460.375 889.2852,432.2266 904.2852,432.2266 L914.2852,432.2266 " fill="none" style="stroke:#181818;stroke-width:1;"/><rect fill="#F1F1F1" height="36.2969" rx="12.5" ry="12.5" style="stroke:#181818;stroke-width:1.5;" width="186.7012" x="914.2852" y="470.375"/><text fill="#000000" font-family="sans-serif" font-size="14" lengthAdjust="spacing" textLength="166.7012" x="924.2852" y="493.3701">Favorite specific photos</text><path d="M864.2852,460.375 L874.2852,460.375 C889.2852,460.375 889.2852,488.5234 904.2852,488.5234 L914.2852,488.5234 " fill="none" style="stroke:#181818;stroke-width:1;"/><path d="M646.1162,291.4844 L656.1162,291.4844 C671.1162,291.4844 671.1162,460.375 686.1162,460.375 L696.1162,460.375 " fill="none" style="stroke:#181818;stroke-width:1;"/><rect fill="#F1F1F1" height="36.2969" rx="12.5" ry="12.5" style="stroke:#181818;stroke-width:1.5;" width="200.25" x="696.1162" y="526.6719"/><text fill="#000000" font-family="sans-serif" font-size="14" lengthAdjust="spacing" textLength="180.25" x="706.1162" y="549.667">Programmatic Downloads</text><rect fill="#F1F1F1" height="36.2969" rx="12.5" ry="12.5" style="stroke:#181818;stroke-width:1.5;" width="223.1914" x="946.3662" y="526.6719"/><text fill="#000000" font-family="sans-serif" font-size="14" lengthAdjust="spacing" textLength="203.1914" x="956.3662" y="549.667">Equivalent to viewing photos</text><path d="M896.3662,544.8203 L906.3662,544.8203 C921.3662,544.8203 921.3662,544.8203 936.3662,544.8203 L946.3662,544.8203 " fill="none" style="stroke:#181818;stroke-width:1;"/><path d="M646.1162,291.4844 L656.1162,291.4844 C671.1162,291.4844 671.1162,544.8203 686.1162,544.8203 L696.1162,544.8203 " fill="none" style="stroke:#181818;stroke-width:1;"/><path d="M280.5234,1164.0859 L290.5234,1164.0859 C305.5234,1164.0859 305.5234,291.4844 320.5234,291.4844 L330.5234,291.4844 " fill="none" style="stroke:#181818;stroke-width:1;"/><rect fill="#F1F1F1" height="36.2969" rx="12.5" ry="12.5" style="stroke:#181818;stroke-width:1.5;" width="228.4619" x="330.5234" y="836.3047"/><text fill="#000000" font-family="sans-serif" font-size="14" lengthAdjust="spacing" textLength="208.4619" x="340.5234" y="859.2998">Non-Functional Requirements</text><rect fill="#F1F1F1" height="36.2969" rx="12.5" ry="12.5" style="stroke:#181818;stroke-width:1.5;" width="91.9619" x="608.9854" y="639.2656"/><text fill="#000000" font-family="sans-serif" font-size="14" lengthAdjust="spacing" textLength="71.9619" x="618.9854" y="662.2607">Scalability</text><rect fill="#F1F1F1" height="36.2969" rx="12.5" ry="12.5" style="stroke:#181818;stroke-width:1.5;" width="117.5215" x="750.9473" y="582.9688"/><text fill="#000000" font-family="sans-serif" font-size="14" lengthAdjust="spacing" textLength="97.5215" x="760.9473" y="605.9639">1 billion users</text><path d="M700.9473,657.4141 L710.9473,657.4141 C725.9473,657.4141 725.9473,601.1172 740.9473,601.1172 L750.9473,601.1172 " fill="none" style="stroke:#181818;stroke-width:1;"/><rect fill="#F1F1F1" height="36.2969" rx="12.5" ry="12.5" style="stroke:#181818;stroke-width:1.5;" width="148.8096" x="750.9473" y="639.2656"/><text fill="#000000" font-family="sans-serif" font-size="14" lengthAdjust="spacing" textLength="128.8096" x="760.9473" y="662.2607">1 PB daily uploads</text><path d="M700.9473,657.4141 L710.9473,657.4141 C725.9473,657.4141 725.9473,657.4141 740.9473,657.4141 L750.9473,657.4141 " fill="none" style="stroke:#181818;stroke-width:1;"/><rect fill="#F1F1F1" height="36.2969" rx="12.5" ry="12.5" style="stroke:#181818;stroke-width:1.5;" width="159.1113" x="750.9473" y="695.5625"/><text fill="#000000" font-family="sans-serif" font-size="14" lengthAdjust="spacing" textLength="139.1113" x="760.9473" y="718.5576">Spikes of 10 GB/sec</text><path d="M700.9473,657.4141 L710.9473,657.4141 C725.9473,657.4141 725.9473,713.7109 740.9473,713.7109 L750.9473,713.7109 " fill="none" style="stroke:#181818;stroke-width:1;"/><path d="M558.9854,854.4531 L568.9854,854.4531 C583.9854,854.4531 583.9854,657.4141 598.9854,657.4141 L608.9854,657.4141 " fill="none" style="stroke:#181818;stroke-width:1;"/><rect fill="#F1F1F1" height="36.2969" rx="12.5" ry="12.5" style="stroke:#181818;stroke-width:1.5;" width="195.2256" x="608.9854" y="780.0078"/><text fill="#000000" font-family="sans-serif" font-size="14" lengthAdjust="spacing" textLength="175.2256" x="618.9854" y="803.0029">Consistency and Latency</text><rect fill="#F1F1F1" height="36.2969" rx="12.5" ry="12.5" style="stroke:#181818;stroke-width:1.5;" width="322.8184" x="854.2109" y="751.8594"/><text fill="#000000" font-family="sans-serif" font-size="14" lengthAdjust="spacing" textLength="302.8184" x="864.2109" y="774.8545">Eventual consistency for photos/comments</text><path d="M804.2109,798.1563 L814.2109,798.1563 C829.2109,798.1563 829.2109,770.0078 844.2109,770.0078 L854.2109,770.0078 " fill="none" style="stroke:#181818;stroke-width:1;"/><rect fill="#F1F1F1" height="36.2969" rx="12.5" ry="12.5" style="stroke:#181818;stroke-width:1.5;" width="280.0049" x="854.2109" y="808.1563"/><text fill="#000000" font-family="sans-serif" font-size="14" lengthAdjust="spacing" textLength="260.0049" x="864.2109" y="831.1514">Immediate effect for privacy settings</text><path d="M804.2109,798.1563 L814.2109,798.1563 C829.2109,798.1563 829.2109,826.3047 844.2109,826.3047 L854.2109,826.3047 " fill="none" style="stroke:#181818;stroke-width:1;"/><path d="M558.9854,854.4531 L568.9854,854.4531 C583.9854,854.4531 583.9854,798.1563 598.9854,798.1563 L608.9854,798.1563 " fill="none" style="stroke:#181818;stroke-width:1;"/><rect fill="#F1F1F1" height="36.2969" rx="12.5" ry="12.5" style="stroke:#181818;stroke-width:1.5;" width="109.4619" x="608.9854" y="892.6016"/><text fill="#000000" font-family="sans-serif" font-size="14" lengthAdjust="spacing" textLength="89.4619" x="618.9854" y="915.5967">Performance</text><rect fill="#F1F1F1" height="36.2969" rx="12.5" ry="12.5" style="stroke:#181818;stroke-width:1.5;" width="305.8379" x="768.4473" y="864.4531"/><text fill="#000000" font-family="sans-serif" font-size="14" lengthAdjust="spacing" textLength="285.8379" x="778.4473" y="887.4482">Thumbnails: P99 latency under 1 second</text><path d="M718.4473,910.75 L728.4473,910.75 C743.4473,910.75 743.4473,882.6016 758.4473,882.6016 L768.4473,882.6016 " fill="none" style="stroke:#181818;stroke-width:1;"/><rect fill="#F1F1F1" height="36.2969" rx="12.5" ry="12.5" style="stroke:#181818;stroke-width:1.5;" width="405.458" x="768.4473" y="920.75"/><text fill="#000000" font-family="sans-serif" font-size="14" lengthAdjust="spacing" textLength="385.458" x="778.4473" y="943.7451">Moderate performance for high-res uploads/downloads</text><path d="M718.4473,910.75 L728.4473,910.75 C743.4473,910.75 743.4473,938.8984 758.4473,938.8984 L768.4473,938.8984 " fill="none" style="stroke:#181818;stroke-width:1;"/><path d="M558.9854,854.4531 L568.9854,854.4531 C583.9854,854.4531 583.9854,910.75 598.9854,910.75 L608.9854,910.75 " fill="none" style="stroke:#181818;stroke-width:1;"/><rect fill="#F1F1F1" height="36.2969" rx="12.5" ry="12.5" style="stroke:#181818;stroke-width:1.5;" width="106.4883" x="608.9854" y="1005.1953"/><text fill="#000000" font-family="sans-serif" font-size="14" lengthAdjust="spacing" textLength="86.4883" x="618.9854" y="1028.1904">Cost Control</text><rect fill="#F1F1F1" height="36.2969" rx="12.5" ry="12.5" style="stroke:#181818;stroke-width:1.5;" width="313.4053" x="765.4736" y="977.0469"/><text fill="#000000" font-family="sans-serif" font-size="14" lengthAdjust="spacing" textLength="293.4053" x="775.4736" y="1000.042">Restrict high-res simultaneous downloads</text><path d="M715.4736,1023.3438 L725.4736,1023.3438 C740.4736,1023.3438 740.4736,995.1953 755.4736,995.1953 L765.4736,995.1953 " fill="none" style="stroke:#181818;stroke-width:1;"/><rect fill="#F1F1F1" height="36.2969" rx="12.5" ry="12.5" style="stroke:#181818;stroke-width:1.5;" width="186.8379" x="765.4736" y="1033.3438"/><text fill="#000000" font-family="sans-serif" font-size="14" lengthAdjust="spacing" textLength="166.8379" x="775.4736" y="1056.3389">Batch upload processes</text><path d="M715.4736,1023.3438 L725.4736,1023.3438 C740.4736,1023.3438 740.4736,1051.4922 755.4736,1051.4922 L765.4736,1051.4922 " fill="none" style="stroke:#181818;stroke-width:1;"/><path d="M558.9854,854.4531 L568.9854,854.4531 C583.9854,854.4531 583.9854,1023.3438 598.9854,1023.3438 L608.9854,1023.3438 " fill="none" style="stroke:#181818;stroke-width:1;"/><rect fill="#F1F1F1" height="36.2969" rx="12.5" ry="12.5" style="stroke:#181818;stroke-width:1.5;" width="97.1299" x="608.9854" y="1089.6406"/><text fill="#000000" font-family="sans-serif" font-size="14" lengthAdjust="spacing" textLength="77.1299" x="618.9854" y="1112.6357">Availability</text><rect fill="#F1F1F1" height="36.2969" rx="12.5" ry="12.5" style="stroke:#181818;stroke-width:1.5;" width="197.8711" x="756.1152" y="1089.6406"/><text fill="#000000" font-family="sans-serif" font-size="14" lengthAdjust="spacing" textLength="177.8711" x="766.1152" y="1112.6357">99.999% uptime (five 9s)</text><path d="M706.1152,1107.7891 L716.1152,1107.7891 C731.1152,1107.7891 731.1152,1107.7891 746.1152,1107.7891 L756.1152,1107.7891 " fill="none" style="stroke:#181818;stroke-width:1;"/><path d="M558.9854,854.4531 L568.9854,854.4531 C583.9854,854.4531 583.9854,1107.7891 598.9854,1107.7891 L608.9854,1107.7891 " fill="none" style="stroke:#181818;stroke-width:1;"/><path d="M280.5234,1164.0859 L290.5234,1164.0859 C305.5234,1164.0859 305.5234,854.4531 320.5234,854.4531 L330.5234,854.4531 " fill="none" style="stroke:#181818;stroke-width:1;"/><rect fill="#F1F1F1" height="36.2969" rx="12.5" ry="12.5" style="stroke:#181818;stroke-width:1.5;" width="196.3398" x="330.5234" y="1399.2734"/><text fill="#000000" font-family="sans-serif" font-size="14" lengthAdjust="spacing" textLength="176.3398" x="340.5234" y="1422.2686">Architecture and Storage</text><rect fill="#F1F1F1" height="36.2969" rx="12.5" ry="12.5" style="stroke:#181818;stroke-width:1.5;" width="108.5732" x="576.8633" y="1230.3828"/><text fill="#000000" font-family="sans-serif" font-size="14" lengthAdjust="spacing" textLength="88.5732" x="586.8633" y="1253.3779">Components</text><rect fill="#F1F1F1" height="36.2969" rx="12.5" ry="12.5" style="stroke:#181818;stroke-width:1.5;" width="136.5527" x="735.4365" y="1145.9375"/><text fill="#000000" font-family="sans-serif" font-size="14" lengthAdjust="spacing" textLength="116.5527" x="745.4365" y="1168.9326">Backend Service</text><path d="M685.4365,1248.5313 L695.4365,1248.5313 C710.4365,1248.5313 710.4365,1164.0859 725.4365,1164.0859 L735.4365,1164.0859 " fill="none" style="stroke:#181818;stroke-width:1;"/><rect fill="#F1F1F1" height="36.2969" rx="12.5" ry="12.5" style="stroke:#181818;stroke-width:1.5;" width="199.9014" x="735.4365" y="1202.2344"/><text fill="#000000" font-family="sans-serif" font-size="14" lengthAdjust="spacing" textLength="179.9014" x="745.4365" y="1225.2295">SQL Service for metadata</text><path d="M685.4365,1248.5313 L695.4365,1248.5313 C710.4365,1248.5313 710.4365,1220.3828 725.4365,1220.3828 L735.4365,1220.3828 " fill="none" style="stroke:#181818;stroke-width:1;"/><rect fill="#F1F1F1" height="36.2969" rx="12.5" ry="12.5" style="stroke:#181818;stroke-width:1.5;" width="159.8633" x="735.4365" y="1258.5313"/><text fill="#000000" font-family="sans-serif" font-size="14" lengthAdjust="spacing" textLength="139.8633" x="745.4365" y="1281.5264">File Storage Service</text><path d="M685.4365,1248.5313 L695.4365,1248.5313 C710.4365,1248.5313 710.4365,1276.6797 725.4365,1276.6797 L735.4365,1276.6797 " fill="none" style="stroke:#181818;stroke-width:1;"/><rect fill="#F1F1F1" height="36.2969" rx="12.5" ry="12.5" style="stroke:#181818;stroke-width:1.5;" width="230.6016" x="735.4365" y="1314.8281"/><text fill="#000000" font-family="sans-serif" font-size="14" lengthAdjust="spacing" textLength="210.6016" x="745.4365" y="1337.8232">CDN for global image delivery</text><path d="M685.4365,1248.5313 L695.4365,1248.5313 C710.4365,1248.5313 710.4365,1332.9766 725.4365,1332.9766 L735.4365,1332.9766 " fill="none" style="stroke:#181818;stroke-width:1;"/><path d="M526.8633,1417.4219 L536.8633,1417.4219 C551.8633,1417.4219 551.8633,1248.5313 566.8633,1248.5313 L576.8633,1248.5313 " fill="none" style="stroke:#181818;stroke-width:1;"/><rect fill="#F1F1F1" height="36.2969" rx="12.5" ry="12.5" style="stroke:#181818;stroke-width:1.5;" width="145.2275" x="576.8633" y="1399.2734"/><text fill="#000000" font-family="sans-serif" font-size="14" lengthAdjust="spacing" textLength="125.2275" x="586.8633" y="1422.2686">CDN Organization</text><rect fill="#F1F1F1" height="36.2969" rx="12.5" ry="12.5" style="stroke:#181818;stroke-width:1.5;" width="418.4736" x="772.0908" y="1371.125"/><text fill="#000000" font-family="sans-serif" font-size="14" lengthAdjust="spacing" textLength="398.4736" x="782.0908" y="1394.1201">Hierarchy: User Directory -&gt; Album -&gt; Resolution -&gt; File</text><path d="M722.0908,1417.4219 L732.0908,1417.4219 C747.0908,1417.4219 747.0908,1389.2734 762.0908,1389.2734 L772.0908,1389.2734 " fill="none" style="stroke:#181818;stroke-width:1;"/><rect fill="#F1F1F1" height="36.2969" rx="12.5" ry="12.5" style="stroke:#181818;stroke-width:1.5;" width="265.3213" x="772.0908" y="1427.4219"/><text fill="#000000" font-family="sans-serif" font-size="14" lengthAdjust="spacing" textLength="245.3213" x="782.0908" y="1450.417">Default album for unsorted images</text><path d="M722.0908,1417.4219 L732.0908,1417.4219 C747.0908,1417.4219 747.0908,1445.5703 762.0908,1445.5703 L772.0908,1445.5703 " fill="none" style="stroke:#181818;stroke-width:1;"/><path d="M526.8633,1417.4219 L536.8633,1417.4219 C551.8633,1417.4219 551.8633,1417.4219 566.8633,1417.4219 L576.8633,1417.4219 " fill="none" style="stroke:#181818;stroke-width:1;"/><rect fill="#F1F1F1" height="36.2969" rx="12.5" ry="12.5" style="stroke:#181818;stroke-width:1.5;" width="176.6045" x="576.8633" y="1511.8672"/><text fill="#000000" font-family="sans-serif" font-size="14" lengthAdjust="spacing" textLength="156.6045" x="586.8633" y="1534.8623">Thumbnail Generation</text><rect fill="#F1F1F1" height="36.2969" rx="12.5" ry="12.5" style="stroke:#181818;stroke-width:1.5;" width="368.9268" x="803.4678" y="1483.7188"/><text fill="#000000" font-family="sans-serif" font-size="14" lengthAdjust="spacing" textLength="348.9268" x="813.4678" y="1506.7139">Client-side: lower backend load, device variability</text><path d="M753.4678,1530.0156 L763.4678,1530.0156 C778.4678,1530.0156 778.4678,1501.8672 793.4678,1501.8672 L803.4678,1501.8672 " fill="none" style="stroke:#181818;stroke-width:1;"/><rect fill="#F1F1F1" height="36.2969" rx="12.5" ry="12.5" style="stroke:#181818;stroke-width:1.5;" width="267.4268" x="803.4678" y="1540.0156"/><text fill="#000000" font-family="sans-serif" font-size="14" lengthAdjust="spacing" textLength="247.4268" x="813.4678" y="1563.0107">Server-side: centralized, consistent</text><path d="M753.4678,1530.0156 L763.4678,1530.0156 C778.4678,1530.0156 778.4678,1558.1641 793.4678,1558.1641 L803.4678,1558.1641 " fill="none" style="stroke:#181818;stroke-width:1;"/><path d="M526.8633,1417.4219 L536.8633,1417.4219 C551.8633,1417.4219 551.8633,1530.0156 566.8633,1530.0156 L576.8633,1530.0156 " fill="none" style="stroke:#181818;stroke-width:1;"/><rect fill="#F1F1F1" height="36.2969" rx="12.5" ry="12.5" style="stroke:#181818;stroke-width:1.5;" width="179.3252" x="576.8633" y="1624.4609"/><text fill="#000000" font-family="sans-serif" font-size="14" lengthAdjust="spacing" textLength="159.3252" x="586.8633" y="1647.4561">Asynchronous Uploads</text><rect fill="#F1F1F1" height="36.2969" rx="12.5" ry="12.5" style="stroke:#181818;stroke-width:1.5;" width="248.7988" x="806.1885" y="1596.3125"/><text fill="#000000" font-family="sans-serif" font-size="14" lengthAdjust="spacing" textLength="228.7988" x="816.1885" y="1619.3076">Saga patterns for fault tolerance</text><path d="M756.1885,1642.6094 L766.1885,1642.6094 C781.1885,1642.6094 781.1885,1614.4609 796.1885,1614.4609 L806.1885,1614.4609 " fill="none" style="stroke:#181818;stroke-width:1;"/><rect fill="#F1F1F1" height="36.2969" rx="12.5" ry="12.5" style="stroke:#181818;stroke-width:1.5;" width="470.8643" x="806.1885" y="1652.6094"/><text fill="#000000" font-family="sans-serif" font-size="14" lengthAdjust="spacing" textLength="450.8643" x="816.1885" y="1675.6045">Steps: Check hash, Upload, Kafka events, Thumbnail generation</text><path d="M756.1885,1642.6094 L766.1885,1642.6094 C781.1885,1642.6094 781.1885,1670.7578 796.1885,1670.7578 L806.1885,1670.7578 " fill="none" style="stroke:#181818;stroke-width:1;"/><path d="M526.8633,1417.4219 L536.8633,1417.4219 C551.8633,1417.4219 551.8633,1642.6094 566.8633,1642.6094 L576.8633,1642.6094 " fill="none" style="stroke:#181818;stroke-width:1;"/><path d="M280.5234,1164.0859 L290.5234,1164.0859 C305.5234,1164.0859 305.5234,1417.4219 320.5234,1417.4219 L330.5234,1417.4219 " fill="none" style="stroke:#181818;stroke-width:1;"/><rect fill="#F1F1F1" height="36.2969" rx="12.5" ry="12.5" style="stroke:#181818;stroke-width:1.5;" width="242.8311" x="330.5234" y="1849.6484"/><text fill="#000000" font-family="sans-serif" font-size="14" lengthAdjust="spacing" textLength="222.8311" x="340.5234" y="1872.6436">Data Management and Security</text><rect fill="#F1F1F1" height="36.2969" rx="12.5" ry="12.5" style="stroke:#181818;stroke-width:1.5;" width="108.4434" x="623.3545" y="1708.9063"/><text fill="#000000" font-family="sans-serif" font-size="14" lengthAdjust="spacing" textLength="88.4434" x="633.3545" y="1731.9014">SQL Schema</text><rect fill="#F1F1F1" height="36.2969" rx="12.5" ry="12.5" style="stroke:#181818;stroke-width:1.5;" width="347.4346" x="781.7979" y="1708.9063"/><text fill="#000000" font-family="sans-serif" font-size="14" lengthAdjust="spacing" textLength="327.4346" x="791.7979" y="1731.9014">Tables: Images, Directories, Sharing, Favorites</text><path d="M731.7979,1727.0547 L741.7979,1727.0547 C756.7979,1727.0547 756.7979,1727.0547 771.7979,1727.0547 L781.7979,1727.0547 " fill="none" style="stroke:#181818;stroke-width:1;"/><path d="M573.3545,1867.7969 L583.3545,1867.7969 C598.3545,1867.7969 598.3545,1727.0547 613.3545,1727.0547 L623.3545,1727.0547 " fill="none" style="stroke:#181818;stroke-width:1;"/><rect fill="#F1F1F1" height="36.2969" rx="12.5" ry="12.5" style="stroke:#181818;stroke-width:1.5;" width="115.3682" x="623.3545" y="1793.3516"/><text fill="#000000" font-family="sans-serif" font-size="14" lengthAdjust="spacing" textLength="95.3682" x="633.3545" y="1816.3467">Data Security</text><rect fill="#F1F1F1" height="36.2969" rx="12.5" ry="12.5" style="stroke:#181818;stroke-width:1.5;" width="278.5693" x="788.7227" y="1765.2031"/><text fill="#000000" font-family="sans-serif" font-size="14" lengthAdjust="spacing" textLength="258.5693" x="798.7227" y="1788.1982">OAuth2 tokens for secure downloads</text><path d="M738.7227,1811.5 L748.7227,1811.5 C763.7227,1811.5 763.7227,1783.3516 778.7227,1783.3516 L788.7227,1783.3516 " fill="none" style="stroke:#181818;stroke-width:1;"/><rect fill="#F1F1F1" height="36.2969" rx="12.5" ry="12.5" style="stroke:#181818;stroke-width:1.5;" width="169.4131" x="788.7227" y="1821.5"/><text fill="#000000" font-family="sans-serif" font-size="14" lengthAdjust="spacing" textLength="149.4131" x="798.7227" y="1844.4951">Strict access controls</text><path d="M738.7227,1811.5 L748.7227,1811.5 C763.7227,1811.5 763.7227,1839.6484 778.7227,1839.6484 L788.7227,1839.6484 " fill="none" style="stroke:#181818;stroke-width:1;"/><path d="M573.3545,1867.7969 L583.3545,1867.7969 C598.3545,1867.7969 598.3545,1811.5 613.3545,1811.5 L623.3545,1811.5 " fill="none" style="stroke:#181818;stroke-width:1;"/><rect fill="#F1F1F1" height="36.2969" rx="12.5" ry="12.5" style="stroke:#181818;stroke-width:1.5;" width="134.3652" x="623.3545" y="1905.9453"/><text fill="#000000" font-family="sans-serif" font-size="14" lengthAdjust="spacing" textLength="114.3652" x="633.3545" y="1928.9404">Metadata Usage</text><rect fill="#F1F1F1" height="36.2969" rx="12.5" ry="12.5" style="stroke:#181818;stroke-width:1.5;" width="304.5938" x="807.7197" y="1877.7969"/><text fill="#000000" font-family="sans-serif" font-size="14" lengthAdjust="spacing" textLength="284.5938" x="817.7197" y="1900.792">Organizing, searching, managing photos</text><path d="M757.7197,1924.0938 L767.7197,1924.0938 C782.7197,1924.0938 782.7197,1895.9453 797.7197,1895.9453 L807.7197,1895.9453 " fill="none" style="stroke:#181818;stroke-width:1;"/><rect fill="#F1F1F1" height="36.2969" rx="12.5" ry="12.5" style="stroke:#181818;stroke-width:1.5;" width="267.1123" x="807.7197" y="1934.0938"/><text fill="#000000" font-family="sans-serif" font-size="14" lengthAdjust="spacing" textLength="242.6621" x="817.7197" y="1957.0889">Fields: Predefined (tags, locations)</text><path d="M757.7197,1924.0938 L767.7197,1924.0938 C782.7197,1924.0938 782.7197,1952.2422 797.7197,1952.2422 L807.7197,1952.2422 " fill="none" style="stroke:#181818;stroke-width:1;"/><path d="M573.3545,1867.7969 L583.3545,1867.7969 C598.3545,1867.7969 598.3545,1924.0938 613.3545,1924.0938 L623.3545,1924.0938 " fill="none" style="stroke:#181818;stroke-width:1;"/><rect fill="#F1F1F1" height="36.2969" rx="12.5" ry="12.5" style="stroke:#181818;stroke-width:1.5;" width="107.2949" x="623.3545" y="1990.3906"/><text fill="#000000" font-family="sans-serif" font-size="14" lengthAdjust="spacing" textLength="87.2949" x="633.3545" y="2013.3857">Redundancy</text><rect fill="#F1F1F1" height="36.2969" rx="12.5" ry="12.5" style="stroke:#181818;stroke-width:1.5;" width="253.0371" x="780.6494" y="1990.3906"/><text fill="#000000" font-family="sans-serif" font-size="14" lengthAdjust="spacing" textLength="233.0371" x="790.6494" y="2013.3857">File Storage and CDN as backups</text><path d="M730.6494,2008.5391 L740.6494,2008.5391 C755.6494,2008.5391 755.6494,2008.5391 770.6494,2008.5391 L780.6494,2008.5391 " fill="none" style="stroke:#181818;stroke-width:1;"/><path d="M573.3545,1867.7969 L583.3545,1867.7969 C598.3545,1867.7969 598.3545,2008.5391 613.3545,2008.5391 L623.3545,2008.5391 " fill="none" style="stroke:#181818;stroke-width:1;"/><path d="M280.5234,1164.0859 L290.5234,1164.0859 C305.5234,1164.0859 305.5234,1867.7969 320.5234,1867.7969 L330.5234,1867.7969 " fill="none" style="stroke:#181818;stroke-width:1;"/><rect fill="#F1F1F1" height="36.2969" rx="12.5" ry="12.5" style="stroke:#181818;stroke-width:1.5;" width="234.3682" x="330.5234" y="2159.2813"/><text fill="#000000" font-family="sans-serif" font-size="14" lengthAdjust="spacing" textLength="214.3682" x="340.5234" y="2182.2764">Monitoring and Enhancements</text><rect fill="#F1F1F1" height="36.2969" rx="12.5" ry="12.5" style="stroke:#181818;stroke-width:1.5;" width="94.8672" x="614.8916" y="2102.9844"/><text fill="#000000" font-family="sans-serif" font-size="14" lengthAdjust="spacing" textLength="74.8672" x="624.8916" y="2125.9795">Monitoring</text><rect fill="#F1F1F1" height="36.2969" rx="12.5" ry="12.5" style="stroke:#181818;stroke-width:1.5;" width="197.8232" x="759.7588" y="2046.6875"/><text fill="#000000" font-family="sans-serif" font-size="14" lengthAdjust="spacing" textLength="177.8232" x="769.7588" y="2069.6826">Track uploads/downloads</text><path d="M709.7588,2121.1328 L719.7588,2121.1328 C734.7588,2121.1328 734.7588,2064.8359 749.7588,2064.8359 L759.7588,2064.8359 " fill="none" style="stroke:#181818;stroke-width:1;"/><rect fill="#F1F1F1" height="36.2969" rx="12.5" ry="12.5" style="stroke:#181818;stroke-width:1.5;" width="186.9268" x="759.7588" y="2102.9844"/><text fill="#000000" font-family="sans-serif" font-size="14" lengthAdjust="spacing" textLength="166.9268" x="769.7588" y="2125.9795">SQL query performance</text><path d="M709.7588,2121.1328 L719.7588,2121.1328 C734.7588,2121.1328 734.7588,2121.1328 749.7588,2121.1328 L759.7588,2121.1328 " fill="none" style="stroke:#181818;stroke-width:1;"/><rect fill="#F1F1F1" height="36.2969" rx="12.5" ry="12.5" style="stroke:#181818;stroke-width:1.5;" width="157.8945" x="759.7588" y="2159.2813"/><text fill="#000000" font-family="sans-serif" font-size="14" lengthAdjust="spacing" textLength="137.8945" x="769.7588" y="2182.2764">Cache performance</text><path d="M709.7588,2121.1328 L719.7588,2121.1328 C734.7588,2121.1328 734.7588,2177.4297 749.7588,2177.4297 L759.7588,2177.4297 " fill="none" style="stroke:#181818;stroke-width:1;"/><path d="M564.8916,2177.4297 L574.8916,2177.4297 C589.8916,2177.4297 589.8916,2121.1328 604.8916,2121.1328 L614.8916,2121.1328 " fill="none" style="stroke:#181818;stroke-width:1;"/><rect fill="#F1F1F1" height="36.2969" rx="12.5" ry="12.5" style="stroke:#181818;stroke-width:1.5;" width="174.3691" x="614.8916" y="2243.7266"/><text fill="#000000" font-family="sans-serif" font-size="14" lengthAdjust="spacing" textLength="154.3691" x="624.8916" y="2266.7217">Future Enhancements</text><rect fill="#F1F1F1" height="36.2969" rx="12.5" ry="12.5" style="stroke:#181818;stroke-width:1.5;" width="214.4893" x="839.2607" y="2215.5781"/><text fill="#000000" font-family="sans-serif" font-size="14" lengthAdjust="spacing" textLength="194.4893" x="849.2607" y="2238.5732">Watermarking for copyright</text><path d="M789.2607,2261.875 L799.2607,2261.875 C814.2607,2261.875 814.2607,2233.7266 829.2607,2233.7266 L839.2607,2233.7266 " fill="none" style="stroke:#181818;stroke-width:1;"/><rect fill="#F1F1F1" height="36.2969" rx="12.5" ry="12.5" style="stroke:#181818;stroke-width:1.5;" width="260.7139" x="839.2607" y="2271.875"/><text fill="#000000" font-family="sans-serif" font-size="14" lengthAdjust="spacing" textLength="240.7139" x="849.2607" y="2294.8701">Support for video/audio streaming</text><path d="M789.2607,2261.875 L799.2607,2261.875 C814.2607,2261.875 814.2607,2290.0234 829.2607,2290.0234 L839.2607,2290.0234 " fill="none" style="stroke:#181818;stroke-width:1;"/><path d="M564.8916,2177.4297 L574.8916,2177.4297 C589.8916,2177.4297 589.8916,2261.875 604.8916,2261.875 L614.8916,2261.875 " fill="none" style="stroke:#181818;stroke-width:1;"/><path d="M280.5234,1164.0859 L290.5234,1164.0859 C305.5234,1164.0859 305.5234,2177.4297 320.5234,2177.4297 L330.5234,2177.4297 " fill="none" style="stroke:#181818;stroke-width:1;"/><!--SRC=[VLPDJoCv4BtdLzHb9OWI6D1eDE6m6Y30pWo1B27isN5NqbRSTey_WZA_VgjivwFHQc_fxYhNgwhtdlFD1-52eqpLYBRNXzdM1snWZ5wj3DWbt6ibrswerHfXXcwZ9FRwVPXxT30BrYdq84m5zz78eAmH6bxmLrGE6pJ1KsmVtXI-mxIsmQRdFhpMiLaOeRI7fNMmSFRTAxFA7- -ZraE7tkh81uAG4dq-QDvgAwhEKGc8inhz5SnguT1bF5oJVgUqwtG2t5eJA3BdFMYx8AmjkaPvJtKo5A-QbZfMOPio9nX49OA0YJ1YbLhAwLE75IwLmGgM2dL5rRMLWW4F88XLBdnh6qwXrXAc9nlKKkMe0l_EY8L6aFl0_FfQemiGFNV3i0mDiCJaasSedAppvCM6rX2md5Y-BBOGLD1bEnLwwLHxL7YN1Rv5oQYWtK-LkhCh9vg6a4eOstV3OzyXfkLkX2Oa42niQCpSNabcQZnPC_m_Dioaq6AXT9bn7ow0dZIlEZMyUpczWOeeieNO7fMVjSH4pyoy-0GFD-SUPHcryOguQ-GsTVmeqk-2UKFL8u6HHr4yrmpx_7YqVVXE3vMYVC3b4cN8aOwwfYoFWTTKveIElZN2955qY7q5qz48T4O1qLH4qmlA9WHLZfrOUiTLsiCfgLIjLZKBODVuUNMy0UhKXowNNz07fmZeFfDe77KG1ctqK7KNU2C2yIEVJMrPrWOMeMm8UcStez7PQ3JwWyA3QX1Ebcg3CFAdQTFNH3IYa0pHOHew6mB9PCVzrfh3L6-4N2F7x4s4j_dtu-v5QhqfUYiSLIIDScOtxtRybE9NMSMguOWADQ5pMRaSyUnMmgZVIMyvxoz58oVKswji76DYfgG2MnZ-IQ9Rn8P_l1pCXvuOHSuUurBGM46aGAuVZRSka0aa17c8Umx00nhUyBxwhLOqZw5N5R9Ta3_1eao5bp6W3j8aDiAfpXQuTtGbKT8PJcZr6obZJ-YG5-YtHjRE6jxxlACRiHBGYX3G5QlBlGIoJdSWy2nWIzozhL6keHQ-7fHZ1l1JBDS2aANa1qTThWvTCYd6NRlCl40PtSvJqyvbZKtPyYix8DNydaOusEz4yGDREibjq7MvNEJur3uyNyTGNr8_DC_YvVmTFz9_bgMIRnMU7-l8Tzr-xWkB-piE9Gm-MMlwsN23HyPN-9flWgFBuOJlWi7-Rl2dqCkAhSWInDwWEapdYJ5zXK_qY6tsrOarYiTIBfCxK_FQ3hvw-5xcwYZvlpqaB-5N9B4SkqzXgQ3bV7nDjt9I-SUgVVY7B8pYt9g1yTYbRRUEZAZSbBFOjgIHz6b31BRd8bRA0baMYeRHVYC1xFw1zAPQc32VF08Hdgzbk3Yx_7Jv-MoqeELyEPcRjQ5E-39iUMRiIgUzauVf8tWR7OcdKco6YoJVqzuFiH7m4Wt7NS5pY-R7-EVk1NMpKIIMTAt_U9iS0hvy7jweK7G7RvFUJlftHjgAG9D_lDuFl_OUXLb5MjeLeEdTMZhNiRVC_WK0]--></g></svg>