<svg xmlns="http://www.w3.org/2000/svg" xmlns:xlink="http://www.w3.org/1999/xlink" contentStyleType="text/css" data-diagram-type="MINDMAP" height="3793px" preserveAspectRatio="none" style="width:1215px;height:3793px;background:#FFFFFF;" version="1.1" viewBox="0 0 1215 3793" width="1215px" zoomAndPan="magnify"><defs/><g><rect fill="#F1F1F1" height="36.2969" rx="12.5" ry="12.5" style="stroke:#181818;stroke-width:1.5;" width="175.3125" x="10" y="1877.7969"/><text fill="#000000" font-family="sans-serif" font-size="14" lengthAdjust="spacing" textLength="155.3125" x="20" y="1900.792">Airbnb System Design</text><rect fill="#F1F1F1" height="36.2969" rx="12.5" ry="12.5" style="stroke:#181818;stroke-width:1.5;" width="118.2666" x="235.3125" y="385.9297"/><text fill="#000000" font-family="sans-serif" font-size="14" lengthAdjust="spacing" textLength="98.2666" x="245.3125" y="408.9248">Requirements</text><rect fill="#F1F1F1" height="36.2969" rx="12.5" ry="12.5" style="stroke:#181818;stroke-width:1.5;" width="195.499" x="403.5791" y="245.1875"/><text fill="#000000" font-family="sans-serif" font-size="14" lengthAdjust="spacing" textLength="175.499" x="413.5791" y="268.1826">Functional Requirements</text><rect fill="#F1F1F1" height="36.2969" rx="12.5" ry="12.5" style="stroke:#181818;stroke-width:1.5;" width="133.292" x="649.0781" y="132.5938"/><text fill="#000000" font-family="sans-serif" font-size="14" lengthAdjust="spacing" textLength="113.292" x="659.0781" y="155.5889">Host Operations</text><rect fill="#F1F1F1" height="36.2969" rx="12.5" ry="12.5" style="stroke:#181818;stroke-width:1.5;" width="287.5723" x="832.3701" y="20"/><text fill="#000000" font-family="sans-serif" font-size="14" lengthAdjust="spacing" textLength="267.5723" x="842.3701" y="42.9951">List rooms with properties (city, price)</text><path d="M782.3701,150.7422 L792.3701,150.7422 C807.3701,150.7422 807.3701,38.1484 822.3701,38.1484 L832.3701,38.1484" fill="none" style="stroke:#181818;stroke-width:1;"/><rect fill="#F1F1F1" height="36.2969" rx="12.5" ry="12.5" style="stroke:#181818;stroke-width:1.5;" width="371.4424" x="832.3701" y="76.2969"/><text fill="#000000" font-family="sans-serif" font-size="14" lengthAdjust="spacing" textLength="351.4424" x="842.3701" y="99.292">Upload photos (up to 10) and videos (up to 25MB)</text><path d="M782.3701,150.7422 L792.3701,150.7422 C807.3701,150.7422 807.3701,94.4453 822.3701,94.4453 L832.3701,94.4453" fill="none" style="stroke:#181818;stroke-width:1;"/><rect fill="#F1F1F1" height="36.2969" rx="12.5" ry="12.5" style="stroke:#181818;stroke-width:1.5;" width="244" x="832.3701" y="132.5938"/><text fill="#000000" font-family="sans-serif" font-size="14" lengthAdjust="spacing" textLength="224" x="842.3701" y="155.5889">Handle bookings (accept/reject)</text><path d="M782.3701,150.7422 L792.3701,150.7422 C807.3701,150.7422 807.3701,150.7422 822.3701,150.7422 L832.3701,150.7422" fill="none" style="stroke:#181818;stroke-width:1;"/><rect fill="#F1F1F1" height="36.2969" rx="12.5" ry="12.5" style="stroke:#181818;stroke-width:1.5;" width="134.9463" x="832.3701" y="188.8906"/><text fill="#000000" font-family="sans-serif" font-size="14" lengthAdjust="spacing" textLength="114.9463" x="842.3701" y="211.8857">Cancel bookings</text><path d="M782.3701,150.7422 L792.3701,150.7422 C807.3701,150.7422 807.3701,207.0391 822.3701,207.0391 L832.3701,207.0391" fill="none" style="stroke:#181818;stroke-width:1;"/><rect fill="#F1F1F1" height="36.2969" rx="12.5" ry="12.5" style="stroke:#181818;stroke-width:1.5;" width="121.0488" x="832.3701" y="245.1875"/><text fill="#000000" font-family="sans-serif" font-size="14" lengthAdjust="spacing" textLength="101.0488" x="842.3701" y="268.1826">View bookings</text><path d="M782.3701,150.7422 L792.3701,150.7422 C807.3701,150.7422 807.3701,263.3359 822.3701,263.3359 L832.3701,263.3359" fill="none" style="stroke:#181818;stroke-width:1;"/><path d="M599.0781,263.3359 L609.0781,263.3359 C624.0781,263.3359 624.0781,150.7422 639.0781,150.7422 L649.0781,150.7422" fill="none" style="stroke:#181818;stroke-width:1;"/><rect fill="#F1F1F1" height="36.2969" rx="12.5" ry="12.5" style="stroke:#181818;stroke-width:1.5;" width="142.5342" x="649.0781" y="385.9297"/><text fill="#000000" font-family="sans-serif" font-size="14" lengthAdjust="spacing" textLength="122.5342" x="659.0781" y="408.9248">Guest Operations</text><rect fill="#F1F1F1" height="36.2969" rx="12.5" ry="12.5" style="stroke:#181818;stroke-width:1.5;" width="302.7207" x="841.6123" y="301.4844"/><text fill="#000000" font-family="sans-serif" font-size="14" lengthAdjust="spacing" textLength="282.7207" x="851.6123" y="324.4795">Search and filter rooms by city and date</text><path d="M791.6123,404.0781 L801.6123,404.0781 C816.6123,404.0781 816.6123,319.6328 831.6123,319.6328 L841.6123,319.6328" fill="none" style="stroke:#181818;stroke-width:1;"/><rect fill="#F1F1F1" height="36.2969" rx="12.5" ry="12.5" style="stroke:#181818;stroke-width:1.5;" width="294.2852" x="841.6123" y="357.7813"/><text fill="#000000" font-family="sans-serif" font-size="14" lengthAdjust="spacing" textLength="274.2852" x="851.6123" y="380.7764">Book rooms (check-in/check-out dates)</text><path d="M791.6123,404.0781 L801.6123,404.0781 C816.6123,404.0781 816.6123,375.9297 831.6123,375.9297 L841.6123,375.9297" fill="none" style="stroke:#181818;stroke-width:1;"/><rect fill="#F1F1F1" height="36.2969" rx="12.5" ry="12.5" style="stroke:#181818;stroke-width:1.5;" width="134.9463" x="841.6123" y="414.0781"/><text fill="#000000" font-family="sans-serif" font-size="14" lengthAdjust="spacing" textLength="114.9463" x="851.6123" y="437.0732">Cancel bookings</text><path d="M791.6123,404.0781 L801.6123,404.0781 C816.6123,404.0781 816.6123,432.2266 831.6123,432.2266 L841.6123,432.2266" fill="none" style="stroke:#181818;stroke-width:1;"/><rect fill="#F1F1F1" height="36.2969" rx="12.5" ry="12.5" style="stroke:#181818;stroke-width:1.5;" width="121.0488" x="841.6123" y="470.375"/><text fill="#000000" font-family="sans-serif" font-size="14" lengthAdjust="spacing" textLength="101.0488" x="851.6123" y="493.3701">View bookings</text><path d="M791.6123,404.0781 L801.6123,404.0781 C816.6123,404.0781 816.6123,488.5234 831.6123,488.5234 L841.6123,488.5234" fill="none" style="stroke:#181818;stroke-width:1;"/><path d="M599.0781,263.3359 L609.0781,263.3359 C624.0781,263.3359 624.0781,404.0781 639.0781,404.0781 L649.0781,404.0781" fill="none" style="stroke:#181818;stroke-width:1;"/><path d="M353.5791,404.0781 L363.5791,404.0781 C378.5791,404.0781 378.5791,263.3359 393.5791,263.3359 L403.5791,263.3359" fill="none" style="stroke:#181818;stroke-width:1;"/><rect fill="#F1F1F1" height="36.2969" rx="12.5" ry="12.5" style="stroke:#181818;stroke-width:1.5;" width="228.4619" x="403.5791" y="639.2656"/><text fill="#000000" font-family="sans-serif" font-size="14" lengthAdjust="spacing" textLength="208.4619" x="413.5791" y="662.2607">Non-Functional Requirements</text><rect fill="#F1F1F1" height="36.2969" rx="12.5" ry="12.5" style="stroke:#181818;stroke-width:1.5;" width="327.3164" x="682.041" y="526.6719"/><text fill="#000000" font-family="sans-serif" font-size="14" lengthAdjust="spacing" textLength="307.3164" x="692.041" y="549.667">Scalability (1B rooms, 100M daily bookings)</text><path d="M632.041,657.4141 L642.041,657.4141 C657.041,657.4141 657.041,544.8203 672.041,544.8203 L682.041,544.8203" fill="none" style="stroke:#181818;stroke-width:1;"/><rect fill="#F1F1F1" height="36.2969" rx="12.5" ry="12.5" style="stroke:#181818;stroke-width:1.5;" width="244.6973" x="682.041" y="582.9688"/><text fill="#000000" font-family="sans-serif" font-size="14" lengthAdjust="spacing" textLength="224.6973" x="692.041" y="605.9639">Strong consistency for bookings</text><path d="M632.041,657.4141 L642.041,657.4141 C657.041,657.4141 657.041,601.1172 672.041,601.1172 L682.041,601.1172" fill="none" style="stroke:#181818;stroke-width:1;"/><rect fill="#F1F1F1" height="36.2969" rx="12.5" ry="12.5" style="stroke:#181818;stroke-width:1.5;" width="132.7588" x="682.041" y="639.2656"/><text fill="#000000" font-family="sans-serif" font-size="14" lengthAdjust="spacing" textLength="112.7588" x="692.041" y="662.2607">High availability</text><path d="M632.041,657.4141 L642.041,657.4141 C657.041,657.4141 657.041,657.4141 672.041,657.4141 L682.041,657.4141" fill="none" style="stroke:#181818;stroke-width:1;"/><rect fill="#F1F1F1" height="36.2969" rx="12.5" ry="12.5" style="stroke:#181818;stroke-width:1.5;" width="354.5645" x="682.041" y="695.5625"/><text fill="#000000" font-family="sans-serif" font-size="14" lengthAdjust="spacing" textLength="334.5645" x="692.041" y="718.5576">Performance (P99 of a few seconds acceptable)</text><path d="M632.041,657.4141 L642.041,657.4141 C657.041,657.4141 657.041,713.7109 672.041,713.7109 L682.041,713.7109" fill="none" style="stroke:#181818;stroke-width:1;"/><rect fill="#F1F1F1" height="36.2969" rx="12.5" ry="12.5" style="stroke:#181818;stroke-width:1.5;" width="164.1084" x="682.041" y="751.8594"/><text fill="#000000" font-family="sans-serif" font-size="14" lengthAdjust="spacing" textLength="144.1084" x="692.041" y="774.8545">Security and privacy</text><path d="M632.041,657.4141 L642.041,657.4141 C657.041,657.4141 657.041,770.0078 672.041,770.0078 L682.041,770.0078" fill="none" style="stroke:#181818;stroke-width:1;"/><path d="M353.5791,404.0781 L363.5791,404.0781 C378.5791,404.0781 378.5791,657.4141 393.5791,657.4141 L403.5791,657.4141" fill="none" style="stroke:#181818;stroke-width:1;"/><path d="M185.3125,1895.9453 L195.3125,1895.9453 C210.3125,1895.9453 210.3125,404.0781 225.3125,404.0781 L235.3125,404.0781" fill="none" style="stroke:#181818;stroke-width:1;"/><rect fill="#F1F1F1" height="36.2969" rx="12.5" ry="12.5" style="stroke:#181818;stroke-width:1.5;" width="185.2041" x="235.3125" y="1005.1953"/><text fill="#000000" font-family="sans-serif" font-size="14" lengthAdjust="spacing" textLength="165.2041" x="245.3125" y="1028.1904">High-Level Architecture</text><rect fill="#F1F1F1" height="36.2969" rx="12.5" ry="12.5" style="stroke:#181818;stroke-width:1.5;" width="132.6836" x="470.5166" y="808.1563"/><text fill="#000000" font-family="sans-serif" font-size="14" lengthAdjust="spacing" textLength="112.6836" x="480.5166" y="831.1514">Booking Service</text><path d="M420.5166,1023.3438 L430.5166,1023.3438 C445.5166,1023.3438 445.5166,826.3047 460.5166,826.3047 L470.5166,826.3047" fill="none" style="stroke:#181818;stroke-width:1;"/><rect fill="#F1F1F1" height="36.2969" rx="12.5" ry="12.5" style="stroke:#181818;stroke-width:1.5;" width="122.3135" x="470.5166" y="864.4531"/><text fill="#000000" font-family="sans-serif" font-size="14" lengthAdjust="spacing" textLength="102.3135" x="480.5166" y="887.4482">Listing Service</text><path d="M420.5166,1023.3438 L430.5166,1023.3438 C445.5166,1023.3438 445.5166,882.6016 460.5166,882.6016 L470.5166,882.6016" fill="none" style="stroke:#181818;stroke-width:1;"/><rect fill="#F1F1F1" height="36.2969" rx="12.5" ry="12.5" style="stroke:#181818;stroke-width:1.5;" width="153.3213" x="470.5166" y="920.75"/><text fill="#000000" font-family="sans-serif" font-size="14" lengthAdjust="spacing" textLength="133.3213" x="480.5166" y="943.7451">Availability Service</text><path d="M420.5166,1023.3438 L430.5166,1023.3438 C445.5166,1023.3438 445.5166,938.8984 460.5166,938.8984 L470.5166,938.8984" fill="none" style="stroke:#181818;stroke-width:1;"/><rect fill="#F1F1F1" height="36.2969" rx="12.5" ry="12.5" style="stroke:#181818;stroke-width:1.5;" width="138.6172" x="470.5166" y="977.0469"/><text fill="#000000" font-family="sans-serif" font-size="14" lengthAdjust="spacing" textLength="118.6172" x="480.5166" y="1000.042">Approval Service</text><path d="M420.5166,1023.3438 L430.5166,1023.3438 C445.5166,1023.3438 445.5166,995.1953 460.5166,995.1953 L470.5166,995.1953" fill="none" style="stroke:#181818;stroke-width:1;"/><rect fill="#F1F1F1" height="36.2969" rx="12.5" ry="12.5" style="stroke:#181818;stroke-width:1.5;" width="178.8125" x="470.5166" y="1033.3438"/><text fill="#000000" font-family="sans-serif" font-size="14" lengthAdjust="spacing" textLength="158.8125" x="480.5166" y="1056.3389">Recommender Service</text><path d="M420.5166,1023.3438 L430.5166,1023.3438 C445.5166,1023.3438 445.5166,1051.4922 460.5166,1051.4922 L470.5166,1051.4922" fill="none" style="stroke:#181818;stroke-width:1;"/><rect fill="#F1F1F1" height="36.2969" rx="12.5" ry="12.5" style="stroke:#181818;stroke-width:1.5;" width="158.8721" x="470.5166" y="1089.6406"/><text fill="#000000" font-family="sans-serif" font-size="14" lengthAdjust="spacing" textLength="138.8721" x="480.5166" y="1112.6357">Regulations Service</text><path d="M420.5166,1023.3438 L430.5166,1023.3438 C445.5166,1023.3438 445.5166,1107.7891 460.5166,1107.7891 L470.5166,1107.7891" fill="none" style="stroke:#181818;stroke-width:1;"/><rect fill="#F1F1F1" height="36.2969" rx="12.5" ry="12.5" style="stroke:#181818;stroke-width:1.5;" width="138.1113" x="470.5166" y="1145.9375"/><text fill="#000000" font-family="sans-serif" font-size="14" lengthAdjust="spacing" textLength="118.1113" x="480.5166" y="1168.9326">Payment Service</text><path d="M420.5166,1023.3438 L430.5166,1023.3438 C445.5166,1023.3438 445.5166,1164.0859 460.5166,1164.0859 L470.5166,1164.0859" fill="none" style="stroke:#181818;stroke-width:1;"/><rect fill="#F1F1F1" height="36.2969" rx="12.5" ry="12.5" style="stroke:#181818;stroke-width:1.5;" width="142.4863" x="470.5166" y="1202.2344"/><text fill="#000000" font-family="sans-serif" font-size="14" lengthAdjust="spacing" textLength="122.4863" x="480.5166" y="1225.2295">Metadata Service</text><path d="M420.5166,1023.3438 L430.5166,1023.3438 C445.5166,1023.3438 445.5166,1220.3828 460.5166,1220.3828 L470.5166,1220.3828" fill="none" style="stroke:#181818;stroke-width:1;"/><path d="M185.3125,1895.9453 L195.3125,1895.9453 C210.3125,1895.9453 210.3125,1023.3438 225.3125,1023.3438 L235.3125,1023.3438" fill="none" style="stroke:#181818;stroke-width:1;"/><rect fill="#F1F1F1" height="36.2969" rx="12.5" ry="12.5" style="stroke:#181818;stroke-width:1.5;" width="177.8555" x="235.3125" y="1286.6797"/><text fill="#000000" font-family="sans-serif" font-size="14" lengthAdjust="spacing" textLength="157.8555" x="245.3125" y="1309.6748">Functional Partitioning</text><rect fill="#F1F1F1" height="36.2969" rx="12.5" ry="12.5" style="stroke:#181818;stroke-width:1.5;" width="182.4766" x="463.168" y="1258.5313"/><text fill="#000000" font-family="sans-serif" font-size="14" lengthAdjust="spacing" textLength="162.4766" x="473.168" y="1281.5264">By geographical region</text><path d="M413.168,1304.8281 L423.168,1304.8281 C438.168,1304.8281 438.168,1276.6797 453.168,1276.6797 L463.168,1276.6797" fill="none" style="stroke:#181818;stroke-width:1;"/><rect fill="#F1F1F1" height="36.2969" rx="12.5" ry="12.5" style="stroke:#181818;stroke-width:1.5;" width="295.9053" x="463.168" y="1314.8281"/><text fill="#000000" font-family="sans-serif" font-size="14" lengthAdjust="spacing" textLength="275.9053" x="473.168" y="1337.8232">Listings placed in regional data centers</text><path d="M413.168,1304.8281 L423.168,1304.8281 C438.168,1304.8281 438.168,1332.9766 453.168,1332.9766 L463.168,1332.9766" fill="none" style="stroke:#181818;stroke-width:1;"/><path d="M185.3125,1895.9453 L195.3125,1895.9453 C210.3125,1895.9453 210.3125,1304.8281 225.3125,1304.8281 L235.3125,1304.8281" fill="none" style="stroke:#181818;stroke-width:1;"/><rect fill="#F1F1F1" height="36.2969" rx="12.5" ry="12.5" style="stroke:#181818;stroke-width:1.5;" width="230.9297" x="235.3125" y="1455.5703"/><text fill="#000000" font-family="sans-serif" font-size="14" lengthAdjust="spacing" textLength="210.9297" x="245.3125" y="1478.5654">Create/Update Listing Process</text><rect fill="#F1F1F1" height="36.2969" rx="12.5" ry="12.5" style="stroke:#181818;stroke-width:1.5;" width="256.708" x="516.2422" y="1371.125"/><text fill="#000000" font-family="sans-serif" font-size="14" lengthAdjust="spacing" textLength="236.708" x="526.2422" y="1394.1201">Get regulations based on location</text><path d="M466.2422,1473.7188 L476.2422,1473.7188 C491.2422,1473.7188 491.2422,1389.2734 506.2422,1389.2734 L516.2422,1389.2734" fill="none" style="stroke:#181818;stroke-width:1;"/><rect fill="#F1F1F1" height="36.2969" rx="12.5" ry="12.5" style="stroke:#181818;stroke-width:1.5;" width="201.8223" x="516.2422" y="1427.4219"/><text fill="#000000" font-family="sans-serif" font-size="14" lengthAdjust="spacing" textLength="181.8223" x="526.2422" y="1450.417">Submit listing information</text><path d="M466.2422,1473.7188 L476.2422,1473.7188 C491.2422,1473.7188 491.2422,1445.5703 506.2422,1445.5703 L516.2422,1445.5703" fill="none" style="stroke:#181818;stroke-width:1;"/><rect fill="#F1F1F1" height="36.2969" rx="12.5" ry="12.5" style="stroke:#181818;stroke-width:1.5;" width="275.3291" x="516.2422" y="1483.7188"/><text fill="#000000" font-family="sans-serif" font-size="14" lengthAdjust="spacing" textLength="255.3291" x="526.2422" y="1506.7139">If required, send to Approval service</text><path d="M466.2422,1473.7188 L476.2422,1473.7188 C491.2422,1473.7188 491.2422,1501.8672 506.2422,1501.8672 L516.2422,1501.8672" fill="none" style="stroke:#181818;stroke-width:1;"/><rect fill="#F1F1F1" height="36.2969" rx="12.5" ry="12.5" style="stroke:#181818;stroke-width:1.5;" width="275.8691" x="516.2422" y="1540.0156"/><text fill="#000000" font-family="sans-serif" font-size="14" lengthAdjust="spacing" textLength="255.8691" x="526.2422" y="1563.0107">Use CDC for distributed transactions</text><path d="M466.2422,1473.7188 L476.2422,1473.7188 C491.2422,1473.7188 491.2422,1558.1641 506.2422,1558.1641 L516.2422,1558.1641" fill="none" style="stroke:#181818;stroke-width:1;"/><path d="M185.3125,1895.9453 L195.3125,1895.9453 C210.3125,1895.9453 210.3125,1473.7188 225.3125,1473.7188 L235.3125,1473.7188" fill="none" style="stroke:#181818;stroke-width:1;"/><rect fill="#F1F1F1" height="36.2969" rx="12.5" ry="12.5" style="stroke:#181818;stroke-width:1.5;" width="138.6172" x="235.3125" y="1708.9063"/><text fill="#000000" font-family="sans-serif" font-size="14" lengthAdjust="spacing" textLength="118.6172" x="245.3125" y="1731.9014">Approval Service</text><rect fill="#F1F1F1" height="36.2969" rx="12.5" ry="12.5" style="stroke:#181818;stroke-width:1.5;" width="193.749" x="423.9297" y="1596.3125"/><text fill="#000000" font-family="sans-serif" font-size="14" lengthAdjust="spacing" textLength="173.749" x="433.9297" y="1619.3076">Used by Operations staff</text><path d="M373.9297,1727.0547 L383.9297,1727.0547 C398.9297,1727.0547 398.9297,1614.4609 413.9297,1614.4609 L423.9297,1614.4609" fill="none" style="stroke:#181818;stroke-width:1;"/><rect fill="#F1F1F1" height="36.2969" rx="12.5" ry="12.5" style="stroke:#181818;stroke-width:1.5;" width="248.5117" x="423.9297" y="1652.6094"/><text fill="#000000" font-family="sans-serif" font-size="14" lengthAdjust="spacing" textLength="228.5117" x="433.9297" y="1675.6045">Assignment system for Ops staff</text><path d="M373.9297,1727.0547 L383.9297,1727.0547 C398.9297,1727.0547 398.9297,1670.7578 413.9297,1670.7578 L423.9297,1670.7578" fill="none" style="stroke:#181818;stroke-width:1;"/><rect fill="#F1F1F1" height="36.2969" rx="12.5" ry="12.5" style="stroke:#181818;stroke-width:1.5;" width="246.8574" x="423.9297" y="1708.9063"/><text fill="#000000" font-family="sans-serif" font-size="14" lengthAdjust="spacing" textLength="226.8574" x="433.9297" y="1731.9014">Review process (approve/reject)</text><path d="M373.9297,1727.0547 L383.9297,1727.0547 C398.9297,1727.0547 398.9297,1727.0547 413.9297,1727.0547 L423.9297,1727.0547" fill="none" style="stroke:#181818;stroke-width:1;"/><rect fill="#F1F1F1" height="36.2969" rx="12.5" ry="12.5" style="stroke:#181818;stroke-width:1.5;" width="296.0693" x="423.9297" y="1765.2031"/><text fill="#000000" font-family="sans-serif" font-size="14" lengthAdjust="spacing" textLength="276.0693" x="433.9297" y="1788.1982">Updates to listing and booking services</text><path d="M373.9297,1727.0547 L383.9297,1727.0547 C398.9297,1727.0547 398.9297,1783.3516 413.9297,1783.3516 L423.9297,1783.3516" fill="none" style="stroke:#181818;stroke-width:1;"/><rect fill="#F1F1F1" height="36.2969" rx="12.5" ry="12.5" style="stroke:#181818;stroke-width:1.5;" width="168.0938" x="423.9297" y="1821.5"/><text fill="#000000" font-family="sans-serif" font-size="14" lengthAdjust="spacing" textLength="148.0938" x="433.9297" y="1844.4951">Notifications to hosts</text><path d="M373.9297,1727.0547 L383.9297,1727.0547 C398.9297,1727.0547 398.9297,1839.6484 413.9297,1839.6484 L423.9297,1839.6484" fill="none" style="stroke:#181818;stroke-width:1;"/><path d="M185.3125,1895.9453 L195.3125,1895.9453 C210.3125,1895.9453 210.3125,1727.0547 225.3125,1727.0547 L235.3125,1727.0547" fill="none" style="stroke:#181818;stroke-width:1;"/><rect fill="#F1F1F1" height="36.2969" rx="12.5" ry="12.5" style="stroke:#181818;stroke-width:1.5;" width="132.6836" x="235.3125" y="2046.6875"/><text fill="#000000" font-family="sans-serif" font-size="14" lengthAdjust="spacing" textLength="112.6836" x="245.3125" y="2069.6826">Booking Service</text><rect fill="#F1F1F1" height="36.2969" rx="12.5" ry="12.5" style="stroke:#181818;stroke-width:1.5;" width="190.167" x="417.9961" y="1877.7969"/><text fill="#000000" font-family="sans-serif" font-size="14" lengthAdjust="spacing" textLength="170.167" x="427.9961" y="1900.792">Search and filter listings</text><path d="M367.9961,2064.8359 L377.9961,2064.8359 C392.9961,2064.8359 392.9961,1895.9453 407.9961,1895.9453 L417.9961,1895.9453" fill="none" style="stroke:#181818;stroke-width:1;"/><rect fill="#F1F1F1" height="36.2969" rx="12.5" ry="12.5" style="stroke:#181818;stroke-width:1.5;" width="151.2842" x="417.9961" y="1934.0938"/><text fill="#000000" font-family="sans-serif" font-size="14" lengthAdjust="spacing" textLength="131.2842" x="427.9961" y="1957.0889">View listing details</text><path d="M367.9961,2064.8359 L377.9961,2064.8359 C392.9961,2064.8359 392.9961,1952.2422 407.9961,1952.2422 L417.9961,1952.2422" fill="none" style="stroke:#181818;stroke-width:1;"/><rect fill="#F1F1F1" height="36.2969" rx="12.5" ry="12.5" style="stroke:#181818;stroke-width:1.5;" width="187.8633" x="417.9961" y="1990.3906"/><text fill="#000000" font-family="sans-serif" font-size="14" lengthAdjust="spacing" textLength="167.8633" x="427.9961" y="2013.3857">Submit booking request</text><path d="M367.9961,2064.8359 L377.9961,2064.8359 C392.9961,2064.8359 392.9961,2008.5391 407.9961,2008.5391 L417.9961,2008.5391" fill="none" style="stroke:#181818;stroke-width:1;"/><rect fill="#F1F1F1" height="36.2969" rx="12.5" ry="12.5" style="stroke:#181818;stroke-width:1.5;" width="140.4766" x="417.9961" y="2046.6875"/><text fill="#000000" font-family="sans-serif" font-size="14" lengthAdjust="spacing" textLength="120.4766" x="427.9961" y="2069.6826">Process payment</text><path d="M367.9961,2064.8359 L377.9961,2064.8359 C392.9961,2064.8359 392.9961,2064.8359 407.9961,2064.8359 L417.9961,2064.8359" fill="none" style="stroke:#181818;stroke-width:1;"/><rect fill="#F1F1F1" height="36.2969" rx="12.5" ry="12.5" style="stroke:#181818;stroke-width:1.5;" width="165.749" x="417.9961" y="2102.9844"/><text fill="#000000" font-family="sans-serif" font-size="14" lengthAdjust="spacing" textLength="145.749" x="427.9961" y="2125.9795">Handle cancellations</text><path d="M367.9961,2064.8359 L377.9961,2064.8359 C392.9961,2064.8359 392.9961,2121.1328 407.9961,2121.1328 L417.9961,2121.1328" fill="none" style="stroke:#181818;stroke-width:1;"/><rect fill="#F1F1F1" height="36.2969" rx="12.5" ry="12.5" style="stroke:#181818;stroke-width:1.5;" width="295.2559" x="417.9961" y="2159.2813"/><text fill="#000000" font-family="sans-serif" font-size="14" lengthAdjust="spacing" textLength="275.2559" x="427.9961" y="2182.2764">Communicates with Availability service</text><path d="M367.9961,2064.8359 L377.9961,2064.8359 C392.9961,2064.8359 392.9961,2177.4297 407.9961,2177.4297 L417.9961,2177.4297" fill="none" style="stroke:#181818;stroke-width:1;"/><rect fill="#F1F1F1" height="36.2969" rx="12.5" ry="12.5" style="stroke:#181818;stroke-width:1.5;" width="247.8965" x="417.9961" y="2215.5781"/><text fill="#000000" font-family="sans-serif" font-size="14" lengthAdjust="spacing" textLength="227.8965" x="427.9961" y="2238.5732">Handles distributed transactions</text><path d="M367.9961,2064.8359 L377.9961,2064.8359 C392.9961,2064.8359 392.9961,2233.7266 407.9961,2233.7266 L417.9961,2233.7266" fill="none" style="stroke:#181818;stroke-width:1;"/><path d="M185.3125,1895.9453 L195.3125,1895.9453 C210.3125,1895.9453 210.3125,2064.8359 225.3125,2064.8359 L235.3125,2064.8359" fill="none" style="stroke:#181818;stroke-width:1;"/><rect fill="#F1F1F1" height="36.2969" rx="12.5" ry="12.5" style="stroke:#181818;stroke-width:1.5;" width="153.3213" x="235.3125" y="2468.9141"/><text fill="#000000" font-family="sans-serif" font-size="14" lengthAdjust="spacing" textLength="133.3213" x="245.3125" y="2491.9092">Availability Service</text><rect fill="#F1F1F1" height="36.2969" rx="12.5" ry="12.5" style="stroke:#181818;stroke-width:1.5;" width="201.0498" x="438.6338" y="2271.875"/><text fill="#000000" font-family="sans-serif" font-size="14" lengthAdjust="spacing" textLength="181.0498" x="448.6338" y="2294.8701">Prevents double bookings</text><path d="M388.6338,2487.0625 L398.6338,2487.0625 C413.6338,2487.0625 413.6338,2290.0234 428.6338,2290.0234 L438.6338,2290.0234" fill="none" style="stroke:#181818;stroke-width:1;"/><rect fill="#F1F1F1" height="36.2969" rx="12.5" ry="12.5" style="stroke:#181818;stroke-width:1.5;" width="210.1484" x="438.6338" y="2328.1719"/><text fill="#000000" font-family="sans-serif" font-size="14" lengthAdjust="spacing" textLength="190.1484" x="448.6338" y="2351.167">Manages listing availability</text><path d="M388.6338,2487.0625 L398.6338,2487.0625 C413.6338,2487.0625 413.6338,2346.3203 428.6338,2346.3203 L438.6338,2346.3203" fill="none" style="stroke:#181818;stroke-width:1;"/><rect fill="#F1F1F1" height="36.2969" rx="12.5" ry="12.5" style="stroke:#181818;stroke-width:1.5;" width="158.2705" x="438.6338" y="2440.7656"/><text fill="#000000" font-family="sans-serif" font-size="14" lengthAdjust="spacing" textLength="138.2705" x="448.6338" y="2463.7607">Provides endpoints:</text><rect fill="#F1F1F1" height="36.2969" rx="12.5" ry="12.5" style="stroke:#181818;stroke-width:1.5;" width="166.5488" x="646.9043" y="2384.4688"/><text fill="#000000" font-family="sans-serif" font-size="14" lengthAdjust="spacing" textLength="146.5488" x="656.9043" y="2407.4639">Get available listings</text><path d="M596.9043,2458.9141 L606.9043,2458.9141 C621.9043,2458.9141 621.9043,2402.6172 636.9043,2402.6172 L646.9043,2402.6172" fill="none" style="stroke:#181818;stroke-width:1;"/><rect fill="#F1F1F1" height="36.2969" rx="12.5" ry="12.5" style="stroke:#181818;stroke-width:1.5;" width="191.9238" x="646.9043" y="2440.7656"/><text fill="#000000" font-family="sans-serif" font-size="14" lengthAdjust="spacing" textLength="171.9238" x="656.9043" y="2463.7607">Lock listings temporarily</text><path d="M596.9043,2458.9141 L606.9043,2458.9141 C621.9043,2458.9141 621.9043,2458.9141 636.9043,2458.9141 L646.9043,2458.9141" fill="none" style="stroke:#181818;stroke-width:1;"/><rect fill="#F1F1F1" height="36.2969" rx="12.5" ry="12.5" style="stroke:#181818;stroke-width:1.5;" width="151.9883" x="646.9043" y="2497.0625"/><text fill="#000000" font-family="sans-serif" font-size="14" lengthAdjust="spacing" textLength="131.9883" x="656.9043" y="2520.0576">CRUD reservations</text><path d="M596.9043,2458.9141 L606.9043,2458.9141 C621.9043,2458.9141 621.9043,2515.2109 636.9043,2515.2109 L646.9043,2515.2109" fill="none" style="stroke:#181818;stroke-width:1;"/><path d="M388.6338,2487.0625 L398.6338,2487.0625 C413.6338,2487.0625 413.6338,2458.9141 428.6338,2458.9141 L438.6338,2458.9141" fill="none" style="stroke:#181818;stroke-width:1;"/><rect fill="#F1F1F1" height="36.2969" rx="12.5" ry="12.5" style="stroke:#181818;stroke-width:1.5;" width="238.333" x="438.6338" y="2553.3594"/><text fill="#000000" font-family="sans-serif" font-size="14" lengthAdjust="spacing" textLength="218.333" x="448.6338" y="2576.3545">SQL table with availability data</text><path d="M388.6338,2487.0625 L398.6338,2487.0625 C413.6338,2487.0625 413.6338,2571.5078 428.6338,2571.5078 L438.6338,2571.5078" fill="none" style="stroke:#181818;stroke-width:1;"/><rect fill="#F1F1F1" height="36.2969" rx="12.5" ry="12.5" style="stroke:#181818;stroke-width:1.5;" width="252.8662" x="438.6338" y="2609.6563"/><text fill="#000000" font-family="sans-serif" font-size="14" lengthAdjust="spacing" textLength="232.8662" x="448.6338" y="2632.6514">Uses row locking for concurrency</text><path d="M388.6338,2487.0625 L398.6338,2487.0625 C413.6338,2487.0625 413.6338,2627.8047 428.6338,2627.8047 L438.6338,2627.8047" fill="none" style="stroke:#181818;stroke-width:1;"/><rect fill="#F1F1F1" height="36.2969" rx="12.5" ry="12.5" style="stroke:#181818;stroke-width:1.5;" width="218.7344" x="438.6338" y="2665.9531"/><text fill="#000000" font-family="sans-serif" font-size="14" lengthAdjust="spacing" textLength="198.7344" x="448.6338" y="2688.9482">Leader-follower architecture</text><path d="M388.6338,2487.0625 L398.6338,2487.0625 C413.6338,2487.0625 413.6338,2684.1016 428.6338,2684.1016 L438.6338,2684.1016" fill="none" style="stroke:#181818;stroke-width:1;"/><path d="M185.3125,1895.9453 L195.3125,1895.9453 C210.3125,1895.9453 210.3125,2487.0625 225.3125,2487.0625 L235.3125,2487.0625" fill="none" style="stroke:#181818;stroke-width:1;"/><rect fill="#F1F1F1" height="36.2969" rx="12.5" ry="12.5" style="stroke:#181818;stroke-width:1.5;" width="162.5361" x="235.3125" y="2834.8438"/><text fill="#000000" font-family="sans-serif" font-size="14" lengthAdjust="spacing" textLength="142.5361" x="245.3125" y="2857.8389">Replication Strategy</text><rect fill="#F1F1F1" height="36.2969" rx="12.5" ry="12.5" style="stroke:#181818;stroke-width:1.5;" width="191.0078" x="447.8486" y="2722.25"/><text fill="#000000" font-family="sans-serif" font-size="14" lengthAdjust="spacing" textLength="171.0078" x="457.8486" y="2745.2451">Single-leader replication</text><path d="M397.8486,2852.9922 L407.8486,2852.9922 C422.8486,2852.9922 422.8486,2740.3984 437.8486,2740.3984 L447.8486,2740.3984" fill="none" style="stroke:#181818;stroke-width:1;"/><rect fill="#F1F1F1" height="36.2969" rx="12.5" ry="12.5" style="stroke:#181818;stroke-width:1.5;" width="273.0459" x="447.8486" y="2778.5469"/><text fill="#000000" font-family="sans-serif" font-size="14" lengthAdjust="spacing" textLength="253.0459" x="457.8486" y="2801.542">Geographically distributed followers</text><path d="M397.8486,2852.9922 L407.8486,2852.9922 C422.8486,2852.9922 422.8486,2796.6953 437.8486,2796.6953 L447.8486,2796.6953" fill="none" style="stroke:#181818;stroke-width:1;"/><rect fill="#F1F1F1" height="36.2969" rx="12.5" ry="12.5" style="stroke:#181818;stroke-width:1.5;" width="230.6836" x="447.8486" y="2834.8438"/><text fill="#000000" font-family="sans-serif" font-size="14" lengthAdjust="spacing" textLength="210.6836" x="457.8486" y="2857.8389">Metadata service for mapping</text><path d="M397.8486,2852.9922 L407.8486,2852.9922 C422.8486,2852.9922 422.8486,2852.9922 437.8486,2852.9922 L447.8486,2852.9922" fill="none" style="stroke:#181818;stroke-width:1;"/><rect fill="#F1F1F1" height="36.2969" rx="12.5" ry="12.5" style="stroke:#181818;stroke-width:1.5;" width="175.668" x="447.8486" y="2891.1406"/><text fill="#000000" font-family="sans-serif" font-size="14" lengthAdjust="spacing" textLength="155.668" x="457.8486" y="2914.1357">CDN for static content</text><path d="M397.8486,2852.9922 L407.8486,2852.9922 C422.8486,2852.9922 422.8486,2909.2891 437.8486,2909.2891 L447.8486,2909.2891" fill="none" style="stroke:#181818;stroke-width:1;"/><rect fill="#F1F1F1" height="36.2969" rx="12.5" ry="12.5" style="stroke:#181818;stroke-width:1.5;" width="293.9502" x="447.8486" y="2947.4375"/><text fill="#000000" font-family="sans-serif" font-size="14" lengthAdjust="spacing" textLength="273.9502" x="457.8486" y="2970.4326">Minimal caching due to rapid staleness</text><path d="M397.8486,2852.9922 L407.8486,2852.9922 C422.8486,2852.9922 422.8486,2965.5859 437.8486,2965.5859 L447.8486,2965.5859" fill="none" style="stroke:#181818;stroke-width:1;"/><path d="M185.3125,1895.9453 L195.3125,1895.9453 C210.3125,1895.9453 210.3125,2852.9922 225.3125,2852.9922 L235.3125,2852.9922" fill="none" style="stroke:#181818;stroke-width:1;"/><rect fill="#F1F1F1" height="36.2969" rx="12.5" ry="12.5" style="stroke:#181818;stroke-width:1.5;" width="240.6572" x="235.3125" y="3088.1797"/><text fill="#000000" font-family="sans-serif" font-size="14" lengthAdjust="spacing" textLength="220.6572" x="245.3125" y="3111.1748">Handling Overlapping Bookings</text><rect fill="#F1F1F1" height="36.2969" rx="12.5" ry="12.5" style="stroke:#181818;stroke-width:1.5;" width="167.9912" x="525.9697" y="3003.7344"/><text fill="#000000" font-family="sans-serif" font-size="14" lengthAdjust="spacing" textLength="147.9912" x="535.9697" y="3026.7295">First request granted</text><path d="M475.9697,3106.3281 L485.9697,3106.3281 C500.9697,3106.3281 500.9697,3021.8828 515.9697,3021.8828 L525.9697,3021.8828" fill="none" style="stroke:#181818;stroke-width:1;"/><rect fill="#F1F1F1" height="36.2969" rx="12.5" ry="12.5" style="stroke:#181818;stroke-width:1.5;" width="203.1758" x="525.9697" y="3060.0313"/><text fill="#000000" font-family="sans-serif" font-size="14" lengthAdjust="spacing" textLength="183.1758" x="535.9697" y="3083.0264">UI updates for other users</text><path d="M475.9697,3106.3281 L485.9697,3106.3281 C500.9697,3106.3281 500.9697,3078.1797 515.9697,3078.1797 L525.9697,3078.1797" fill="none" style="stroke:#181818;stroke-width:1;"/><rect fill="#F1F1F1" height="36.2969" rx="12.5" ry="12.5" style="stroke:#181818;stroke-width:1.5;" width="209.9297" x="525.9697" y="3116.3281"/><text fill="#000000" font-family="sans-serif" font-size="14" lengthAdjust="spacing" textLength="189.9297" x="535.9697" y="3139.3232">Randomized search results</text><path d="M475.9697,3106.3281 L485.9697,3106.3281 C500.9697,3106.3281 500.9697,3134.4766 515.9697,3134.4766 L525.9697,3134.4766" fill="none" style="stroke:#181818;stroke-width:1;"/><rect fill="#F1F1F1" height="36.2969" rx="12.5" ry="12.5" style="stroke:#181818;stroke-width:1.5;" width="335.0889" x="525.9697" y="3172.625"/><text fill="#000000" font-family="sans-serif" font-size="14" lengthAdjust="spacing" textLength="315.0889" x="535.9697" y="3195.6201">Temporary room locking during booking flow</text><path d="M475.9697,3106.3281 L485.9697,3106.3281 C500.9697,3106.3281 500.9697,3190.7734 515.9697,3190.7734 L525.9697,3190.7734" fill="none" style="stroke:#181818;stroke-width:1;"/><path d="M185.3125,1895.9453 L195.3125,1895.9453 C210.3125,1895.9453 210.3125,3106.3281 225.3125,3106.3281 L235.3125,3106.3281" fill="none" style="stroke:#181818;stroke-width:1;"/><rect fill="#F1F1F1" height="36.2969" rx="12.5" ry="12.5" style="stroke:#181818;stroke-width:1.5;" width="234.3477" x="235.3125" y="3285.2188"/><text fill="#000000" font-family="sans-serif" font-size="14" lengthAdjust="spacing" textLength="214.3477" x="245.3125" y="3308.2139">Logging, Monitoring &amp; Alerting</text><rect fill="#F1F1F1" height="36.2969" rx="12.5" ry="12.5" style="stroke:#181818;stroke-width:1.5;" width="297.416" x="519.6602" y="3228.9219"/><text fill="#000000" font-family="sans-serif" font-size="14" lengthAdjust="spacing" textLength="277.416" x="529.6602" y="3251.917">Anomaly detection for bookings/listings</text><path d="M469.6602,3303.3672 L479.6602,3303.3672 C494.6602,3303.3672 494.6602,3247.0703 509.6602,3247.0703 L519.6602,3247.0703" fill="none" style="stroke:#181818;stroke-width:1;"/><rect fill="#F1F1F1" height="36.2969" rx="12.5" ry="12.5" style="stroke:#181818;stroke-width:1.5;" width="261.8008" x="519.6602" y="3285.2188"/><text fill="#000000" font-family="sans-serif" font-size="14" lengthAdjust="spacing" textLength="241.8008" x="529.6602" y="3308.2139">Funnel conversion rate monitoring</text><path d="M469.6602,3303.3672 L479.6602,3303.3672 C494.6602,3303.3672 494.6602,3303.3672 509.6602,3303.3672 L519.6602,3303.3672" fill="none" style="stroke:#181818;stroke-width:1;"/><rect fill="#F1F1F1" height="36.2969" rx="12.5" ry="12.5" style="stroke:#181818;stroke-width:1.5;" width="239.2422" x="519.6602" y="3341.5156"/><text fill="#000000" font-family="sans-serif" font-size="14" lengthAdjust="spacing" textLength="219.2422" x="529.6602" y="3364.5107">Resource utilization monitoring</text><path d="M469.6602,3303.3672 L479.6602,3303.3672 C494.6602,3303.3672 494.6602,3359.6641 509.6602,3359.6641 L519.6602,3359.6641" fill="none" style="stroke:#181818;stroke-width:1;"/><path d="M185.3125,1895.9453 L195.3125,1895.9453 C210.3125,1895.9453 210.3125,3303.3672 225.3125,3303.3672 L235.3125,3303.3672" fill="none" style="stroke:#181818;stroke-width:1;"/><rect fill="#F1F1F1" height="36.2969" rx="12.5" ry="12.5" style="stroke:#181818;stroke-width:1.5;" width="168.5449" x="235.3125" y="3566.7031"/><text fill="#000000" font-family="sans-serif" font-size="14" lengthAdjust="spacing" textLength="148.5449" x="245.3125" y="3589.6982">Other Considerations</text><rect fill="#F1F1F1" height="36.2969" rx="12.5" ry="12.5" style="stroke:#181818;stroke-width:1.5;" width="165.5645" x="453.8574" y="3397.8125"/><text fill="#000000" font-family="sans-serif" font-size="14" lengthAdjust="spacing" textLength="145.5645" x="463.8574" y="3420.8076">Handling regulations</text><path d="M403.8574,3584.8516 L413.8574,3584.8516 C428.8574,3584.8516 428.8574,3415.9609 443.8574,3415.9609 L453.8574,3415.9609" fill="none" style="stroke:#181818;stroke-width:1;"/><rect fill="#F1F1F1" height="36.2969" rx="12.5" ry="12.5" style="stroke:#181818;stroke-width:1.5;" width="136.792" x="453.8574" y="3454.1094"/><text fill="#000000" font-family="sans-serif" font-size="14" lengthAdjust="spacing" textLength="116.792" x="463.8574" y="3477.1045">Search flexibility</text><path d="M403.8574,3584.8516 L413.8574,3584.8516 C428.8574,3584.8516 428.8574,3472.2578 443.8574,3472.2578 L453.8574,3472.2578" fill="none" style="stroke:#181818;stroke-width:1;"/><rect fill="#F1F1F1" height="36.2969" rx="12.5" ry="12.5" style="stroke:#181818;stroke-width:1.5;" width="150.2861" x="453.8574" y="3510.4063"/><text fill="#000000" font-family="sans-serif" font-size="14" lengthAdjust="spacing" textLength="130.2861" x="463.8574" y="3533.4014">Feature expansion</text><path d="M403.8574,3584.8516 L413.8574,3584.8516 C428.8574,3584.8516 428.8574,3528.5547 443.8574,3528.5547 L453.8574,3528.5547" fill="none" style="stroke:#181818;stroke-width:1;"/><rect fill="#F1F1F1" height="36.2969" rx="12.5" ry="12.5" style="stroke:#181818;stroke-width:1.5;" width="145.9316" x="453.8574" y="3566.7031"/><text fill="#000000" font-family="sans-serif" font-size="14" lengthAdjust="spacing" textLength="125.9316" x="463.8574" y="3589.6982">Analytics systems</text><path d="M403.8574,3584.8516 L413.8574,3584.8516 C428.8574,3584.8516 428.8574,3584.8516 443.8574,3584.8516 L453.8574,3584.8516" fill="none" style="stroke:#181818;stroke-width:1;"/><rect fill="#F1F1F1" height="36.2969" rx="12.5" ry="12.5" style="stroke:#181818;stroke-width:1.5;" width="136.4229" x="453.8574" y="3623"/><text fill="#000000" font-family="sans-serif" font-size="14" lengthAdjust="spacing" textLength="116.4229" x="463.8574" y="3645.9951">Fraud protection</text><path d="M403.8574,3584.8516 L413.8574,3584.8516 C428.8574,3584.8516 428.8574,3641.1484 443.8574,3641.1484 L453.8574,3641.1484" fill="none" style="stroke:#181818;stroke-width:1;"/><rect fill="#F1F1F1" height="36.2969" rx="12.5" ry="12.5" style="stroke:#181818;stroke-width:1.5;" width="80.416" x="453.8574" y="3679.2969"/><text fill="#000000" font-family="sans-serif" font-size="14" lengthAdjust="spacing" textLength="60.416" x="463.8574" y="3702.292">UX flows</text><path d="M403.8574,3584.8516 L413.8574,3584.8516 C428.8574,3584.8516 428.8574,3697.4453 443.8574,3697.4453 L453.8574,3697.4453" fill="none" style="stroke:#181818;stroke-width:1;"/><rect fill="#F1F1F1" height="36.2969" rx="12.5" ry="12.5" style="stroke:#181818;stroke-width:1.5;" width="194.0361" x="453.8574" y="3735.5938"/><text fill="#000000" font-family="sans-serif" font-size="14" lengthAdjust="spacing" textLength="174.0361" x="463.8574" y="3758.5889">Data privacy compliance</text><path d="M403.8574,3584.8516 L413.8574,3584.8516 C428.8574,3584.8516 428.8574,3753.7422 443.8574,3753.7422 L453.8574,3753.7422" fill="none" style="stroke:#181818;stroke-width:1;"/><path d="M185.3125,1895.9453 L195.3125,1895.9453 C210.3125,1895.9453 210.3125,3584.8516 225.3125,3584.8516 L235.3125,3584.8516" fill="none" style="stroke:#181818;stroke-width:1;"/><!--SRC=[bLPTTnet47tdLynJ3-QO-AD9J-EdOAZj92Qc47pwAhHYKQsLjf8MX_pwNdqiB8wRS_faB8r6CtVklTeFpZFhAwcBYjMz0OsaNUaLBNREYuecmibIzmO3cej_6cb59RHt-7z0DutcNXhDr0zx0xeppjD3BImB8MbnGFSIgzQOoj6pz1kghK68by9Hdqk_EyMAvE8aXozhPLX1zSPuWuYc9c_eulo4c2veAmjnMBryDxrkZzrXMmbQ6VCaTOaGnhce_PaLVmlkswWnqroeVLHUVPJY-NYDRXlnMYyBmIpVn5BMKdbXSsEh7OLMuaR1lCZXryYP8_fy8_ZJKEgpzCCqFaQw_raQVJ5w-DCfB3XJR2LLgAT_SPtkFmM4vrFSADLkd-ya7_3Mw98usiIeXEOxMXlx0f0xMQBlBSxdt6bv9YnYgr0xzMVltvDP4wCrYdO22Gj7QGvifKHxdU2DRS72wBUCXsJnXk6zs0A44K2M7dDhR8Go0ebQSDPkmPLUowkNQwDEWSSRDMYt1LxTnJbAh81SWJaUhvUDIdC_Mf-nNS3vQ6qgFCCSMMUnAv8PP2R3RrIQEjbHAKnfMRsH61HPKMAtsv2ZMZ4k2f8wxo8iNi5nkR1X83Is0kGvMzQ1GtiePjPmuH9FReKFn_UDh9X3JgD96HwNOjIYMLNIaye9f8xJt6z_N2D795XnYebYO93T7alNmM7f18qduyYS0jciN3KU5thBj6Ey5T7hWrY6qg2XWzu81hLUfz6vu4OHU9VyATpnK7TZvc8RX5Ad_Y7-U8legfyILYvqqBOR69XftZRJYipBjUIv5fpOmDfY_QynyKTNo1UaP573xPK5-2ALwuBVLX2GXkiagkLEwaIvNiVYU3GATV0b6eF5ZGxbYkonHpheZYdbS3yVqN-9Q6QXJlWC5QPPTSms2O5fLYBp7jiNNX5Q2lRj23IgZKIUg-orO6gEHj8kTD24uK_x9SBmQsEPXOcbxV5yEG5keSCE7ei_xoawJWAZMqaKKiiv1szy3dg8y0TMmR9WJZPuO9AaO327uTeePPunLtPiJE1ThJ9DWerY06Kwk4169OOgdaU5-x2ipOC3m8-xmsYlSiVkacSOYyIJNRTsCfvyYMkGWfSyrEzRkaobbXM4nXbg3inhH60oxfL5Y5T29wz8f0WX3rjXLShU4Zq_-zA6HpmHb50xhYaIZ1-foS8ATHY_GR-DQnkO8xMfv7Tqvf9ACAr6vQ-9htcUk_X8xITHu7t0drONQm3IYrmeI_n_IbFOgJSnvXSQgV0naU4OQOEMTq5b8XBww2KxEv8bN5hZhG5awDg5s30_glR9ixCuqrWWttWGw7iQzL4CFSIUn-7vBBhV2mTSEpxSDOor4jzaHo4ty7GGYyIt6efioJA2_-ymN9VjBrTlMHEUJvCRJSFuAuAL8YQ1D_bzHPSLA1YSe_S1-ck__7epXL4kf_VKOd3nvlByyjsRNrTWtjl-KZzfywpZSGazULdX6U_VpkufmxBdBWwVz3v1QpHlT8Yx2dQkFqq-jmlqXzvAV6f4G_lqE3q4_FPsU2tJkmea7wUzYLWpi0Gdk2c0u1KjlzuCV-_TCrqsi9ahc4XlR93Nxh2t-1S0]--></g></svg>