<svg xmlns="http://www.w3.org/2000/svg" xmlns:xlink="http://www.w3.org/1999/xlink" contentStyleType="text/css" data-diagram-type="MINDMAP" height="1710px" preserveAspectRatio="none" style="width:1172px;height:1710px;background:#FFFFFF;" version="1.1" viewBox="0 0 1172 1710" width="1172px" zoomAndPan="magnify"><defs/><g><rect fill="#F1F1F1" height="36.2969" rx="12.5" ry="12.5" style="stroke:#181818;stroke-width:1.5;" width="309.9258" x="10" y="836.3047"/><text fill="#000000" font-family="sans-serif" font-size="14" lengthAdjust="spacing" textLength="289.9258" x="20" y="859.2998">Autocomplete/Typeahead System Design</text><rect fill="#F1F1F1" height="36.2969" rx="12.5" ry="12.5" style="stroke:#181818;stroke-width:1.5;" width="195.499" x="369.9258" y="188.8906"/><text fill="#000000" font-family="sans-serif" font-size="14" lengthAdjust="spacing" textLength="175.499" x="379.9258" y="211.8857">Functional Requirements</text><rect fill="#F1F1F1" height="36.2969" rx="12.5" ry="12.5" style="stroke:#181818;stroke-width:1.5;" width="118.3555" x="615.4248" y="48.1484"/><text fill="#000000" font-family="sans-serif" font-size="14" lengthAdjust="spacing" textLength="98.3555" x="625.4248" y="71.1436">Weighted Trie</text><rect fill="#F1F1F1" height="36.2969" rx="12.5" ry="12.5" style="stroke:#181818;stroke-width:1.5;" width="136.3818" x="783.7803" y="20"/><text fill="#000000" font-family="sans-serif" font-size="14" lengthAdjust="spacing" textLength="116.3818" x="793.7803" y="42.9951">Efficient Storage</text><path d="M733.7803,66.2969 L743.7803,66.2969 C758.7803,66.2969 758.7803,38.1484 773.7803,38.1484 L783.7803,38.1484 " fill="none" style="stroke:#181818;stroke-width:1;"/><rect fill="#F1F1F1" height="36.2969" rx="12.5" ry="12.5" style="stroke:#181818;stroke-width:1.5;" width="111.957" x="783.7803" y="76.2969"/><text fill="#000000" font-family="sans-serif" font-size="14" lengthAdjust="spacing" textLength="91.957" x="793.7803" y="99.292">Fast Lookups</text><path d="M733.7803,66.2969 L743.7803,66.2969 C758.7803,66.2969 758.7803,94.4453 773.7803,94.4453 L783.7803,94.4453 " fill="none" style="stroke:#181818;stroke-width:1;"/><path d="M565.4248,207.0391 L575.4248,207.0391 C590.4248,207.0391 590.4248,66.2969 605.4248,66.2969 L615.4248,66.2969 " fill="none" style="stroke:#181818;stroke-width:1;"/><rect fill="#F1F1F1" height="36.2969" rx="12.5" ry="12.5" style="stroke:#181818;stroke-width:1.5;" width="131.4326" x="615.4248" y="188.8906"/><text fill="#000000" font-family="sans-serif" font-size="14" lengthAdjust="spacing" textLength="111.4326" x="625.4248" y="211.8857">Multi-Use Cases</text><rect fill="#F1F1F1" height="36.2969" rx="12.5" ry="12.5" style="stroke:#181818;stroke-width:1.5;" width="187.7539" x="796.8574" y="132.5938"/><text fill="#000000" font-family="sans-serif" font-size="14" lengthAdjust="spacing" textLength="167.7539" x="806.8574" y="155.5889">General Search Engines</text><path d="M746.8574,207.0391 L756.8574,207.0391 C771.8574,207.0391 771.8574,150.7422 786.8574,150.7422 L796.8574,150.7422 " fill="none" style="stroke:#181818;stroke-width:1;"/><rect fill="#F1F1F1" height="36.2969" rx="12.5" ry="12.5" style="stroke:#181818;stroke-width:1.5;" width="136.7783" x="796.8574" y="188.8906"/><text fill="#000000" font-family="sans-serif" font-size="14" lengthAdjust="spacing" textLength="116.7783" x="806.8574" y="211.8857">Word Processors</text><path d="M746.8574,207.0391 L756.8574,207.0391 C771.8574,207.0391 771.8574,207.0391 786.8574,207.0391 L796.8574,207.0391 " fill="none" style="stroke:#181818;stroke-width:1;"/><rect fill="#F1F1F1" height="36.2969" rx="12.5" ry="12.5" style="stroke:#181818;stroke-width:1.5;" width="51.0488" x="796.8574" y="245.1875"/><text fill="#000000" font-family="sans-serif" font-size="14" lengthAdjust="spacing" textLength="31.0488" x="806.8574" y="268.1826">IDEs</text><path d="M746.8574,207.0391 L756.8574,207.0391 C771.8574,207.0391 771.8574,263.3359 786.8574,263.3359 L796.8574,263.3359 " fill="none" style="stroke:#181818;stroke-width:1;"/><path d="M565.4248,207.0391 L575.4248,207.0391 C590.4248,207.0391 590.4248,207.0391 605.4248,207.0391 L615.4248,207.0391 " fill="none" style="stroke:#181818;stroke-width:1;"/><rect fill="#F1F1F1" height="36.2969" rx="12.5" ry="12.5" style="stroke:#181818;stroke-width:1.5;" width="159.4258" x="615.4248" y="329.6328"/><text fill="#000000" font-family="sans-serif" font-size="14" lengthAdjust="spacing" textLength="139.4258" x="625.4248" y="352.6279">Content Moderation</text><rect fill="#F1F1F1" height="36.2969" rx="12.5" ry="12.5" style="stroke:#181818;stroke-width:1.5;" width="147.7637" x="824.8506" y="301.4844"/><text fill="#000000" font-family="sans-serif" font-size="14" lengthAdjust="spacing" textLength="127.7637" x="834.8506" y="324.4795">Word List Filtering</text><path d="M774.8506,347.7813 L784.8506,347.7813 C799.8506,347.7813 799.8506,319.6328 814.8506,319.6328 L824.8506,319.6328 " fill="none" style="stroke:#181818;stroke-width:1;"/><rect fill="#F1F1F1" height="36.2969" rx="12.5" ry="12.5" style="stroke:#181818;stroke-width:1.5;" width="233.4658" x="824.8506" y="357.7813"/><text fill="#000000" font-family="sans-serif" font-size="14" lengthAdjust="spacing" textLength="213.4658" x="834.8506" y="380.7764">Heuristics &amp; Machine Learning</text><path d="M774.8506,347.7813 L784.8506,347.7813 C799.8506,347.7813 799.8506,375.9297 814.8506,375.9297 L824.8506,375.9297 " fill="none" style="stroke:#181818;stroke-width:1;"/><path d="M565.4248,207.0391 L575.4248,207.0391 C590.4248,207.0391 590.4248,347.7813 605.4248,347.7813 L615.4248,347.7813 " fill="none" style="stroke:#181818;stroke-width:1;"/><path d="M319.9258,854.4531 L329.9258,854.4531 C344.9258,854.4531 344.9258,207.0391 359.9258,207.0391 L369.9258,207.0391 " fill="none" style="stroke:#181818;stroke-width:1;"/><rect fill="#F1F1F1" height="36.2969" rx="12.5" ry="12.5" style="stroke:#181818;stroke-width:1.5;" width="162.9668" x="369.9258" y="611.1172"/><text fill="#000000" font-family="sans-serif" font-size="14" lengthAdjust="spacing" textLength="142.9668" x="379.9258" y="634.1123">Architectural Design</text><rect fill="#F1F1F1" height="36.2969" rx="12.5" ry="12.5" style="stroke:#181818;stroke-width:1.5;" width="183.96" x="582.8926" y="470.375"/><text fill="#000000" font-family="sans-serif" font-size="14" lengthAdjust="spacing" textLength="163.96" x="592.8926" y="493.3701">Separation of Concerns</text><rect fill="#F1F1F1" height="36.2969" rx="12.5" ry="12.5" style="stroke:#181818;stroke-width:1.5;" width="84.6133" x="816.8525" y="414.0781"/><text fill="#000000" font-family="sans-serif" font-size="14" lengthAdjust="spacing" textLength="64.6133" x="826.8525" y="437.0732">Ingestion</text><path d="M766.8525,488.5234 L776.8525,488.5234 C791.8525,488.5234 791.8525,432.2266 806.8525,432.2266 L816.8525,432.2266 " fill="none" style="stroke:#181818;stroke-width:1;"/><rect fill="#F1F1F1" height="36.2969" rx="12.5" ry="12.5" style="stroke:#181818;stroke-width:1.5;" width="95.3115" x="816.8525" y="470.375"/><text fill="#000000" font-family="sans-serif" font-size="14" lengthAdjust="spacing" textLength="75.3115" x="826.8525" y="493.3701">Processing</text><path d="M766.8525,488.5234 L776.8525,488.5234 C791.8525,488.5234 791.8525,488.5234 806.8525,488.5234 L816.8525,488.5234 " fill="none" style="stroke:#181818;stroke-width:1;"/><rect fill="#F1F1F1" height="36.2969" rx="12.5" ry="12.5" style="stroke:#181818;stroke-width:1.5;" width="84.1963" x="816.8525" y="526.6719"/><text fill="#000000" font-family="sans-serif" font-size="14" lengthAdjust="spacing" textLength="64.1963" x="826.8525" y="549.667">Querying</text><path d="M766.8525,488.5234 L776.8525,488.5234 C791.8525,488.5234 791.8525,544.8203 806.8525,544.8203 L816.8525,544.8203 " fill="none" style="stroke:#181818;stroke-width:1;"/><path d="M532.8926,629.2656 L542.8926,629.2656 C557.8926,629.2656 557.8926,488.5234 572.8926,488.5234 L582.8926,488.5234 " fill="none" style="stroke:#181818;stroke-width:1;"/><rect fill="#F1F1F1" height="36.2969" rx="12.5" ry="12.5" style="stroke:#181818;stroke-width:1.5;" width="112.0391" x="582.8926" y="639.2656"/><text fill="#000000" font-family="sans-serif" font-size="14" lengthAdjust="spacing" textLength="92.0391" x="592.8926" y="662.2607">ETL Pipelines</text><rect fill="#F1F1F1" height="36.2969" rx="12.5" ry="12.5" style="stroke:#181818;stroke-width:1.5;" width="129.3477" x="744.9316" y="582.9688"/><text fill="#000000" font-family="sans-serif" font-size="14" lengthAdjust="spacing" textLength="109.3477" x="754.9316" y="605.9639">Data Extraction</text><path d="M694.9316,657.4141 L704.9316,657.4141 C719.9316,657.4141 719.9316,601.1172 734.9316,601.1172 L744.9316,601.1172 " fill="none" style="stroke:#181818;stroke-width:1;"/><rect fill="#F1F1F1" height="36.2969" rx="12.5" ry="12.5" style="stroke:#181818;stroke-width:1.5;" width="165.2158" x="744.9316" y="639.2656"/><text fill="#000000" font-family="sans-serif" font-size="14" lengthAdjust="spacing" textLength="145.2158" x="754.9316" y="662.2607">Data Transformation</text><path d="M694.9316,657.4141 L704.9316,657.4141 C719.9316,657.4141 719.9316,657.4141 734.9316,657.4141 L744.9316,657.4141 " fill="none" style="stroke:#181818;stroke-width:1;"/><rect fill="#F1F1F1" height="36.2969" rx="12.5" ry="12.5" style="stroke:#181818;stroke-width:1.5;" width="113.3584" x="744.9316" y="695.5625"/><text fill="#000000" font-family="sans-serif" font-size="14" lengthAdjust="spacing" textLength="93.3584" x="754.9316" y="718.5576">Data Loading</text><path d="M694.9316,657.4141 L704.9316,657.4141 C719.9316,657.4141 719.9316,713.7109 734.9316,713.7109 L744.9316,713.7109 " fill="none" style="stroke:#181818;stroke-width:1;"/><path d="M532.8926,629.2656 L542.8926,629.2656 C557.8926,629.2656 557.8926,657.4141 572.8926,657.4141 L582.8926,657.4141 " fill="none" style="stroke:#181818;stroke-width:1;"/><rect fill="#F1F1F1" height="36.2969" rx="12.5" ry="12.5" style="stroke:#181818;stroke-width:1.5;" width="85.5293" x="582.8926" y="780.0078"/><text fill="#000000" font-family="sans-serif" font-size="14" lengthAdjust="spacing" textLength="65.5293" x="592.8926" y="803.0029">Sampling</text><rect fill="#F1F1F1" height="36.2969" rx="12.5" ry="12.5" style="stroke:#181818;stroke-width:1.5;" width="128.4932" x="718.4219" y="751.8594"/><text fill="#000000" font-family="sans-serif" font-size="14" lengthAdjust="spacing" textLength="108.4932" x="728.4219" y="774.8545">Data Reduction</text><path d="M668.4219,798.1563 L678.4219,798.1563 C693.4219,798.1563 693.4219,770.0078 708.4219,770.0078 L718.4219,770.0078 " fill="none" style="stroke:#181818;stroke-width:1;"/><rect fill="#F1F1F1" height="36.2969" rx="12.5" ry="12.5" style="stroke:#181818;stroke-width:1.5;" width="176.29" x="718.4219" y="808.1563"/><text fill="#000000" font-family="sans-serif" font-size="14" lengthAdjust="spacing" textLength="156.29" x="728.4219" y="831.1514">Accuracy vs Efficiency</text><path d="M668.4219,798.1563 L678.4219,798.1563 C693.4219,798.1563 693.4219,826.3047 708.4219,826.3047 L718.4219,826.3047 " fill="none" style="stroke:#181818;stroke-width:1;"/><path d="M532.8926,629.2656 L542.8926,629.2656 C557.8926,629.2656 557.8926,798.1563 572.8926,798.1563 L582.8926,798.1563 " fill="none" style="stroke:#181818;stroke-width:1;"/><path d="M319.9258,854.4531 L329.9258,854.4531 C344.9258,854.4531 344.9258,629.2656 359.9258,629.2656 L369.9258,629.2656 " fill="none" style="stroke:#181818;stroke-width:1;"/><rect fill="#F1F1F1" height="36.2969" rx="12.5" ry="12.5" style="stroke:#181818;stroke-width:1.5;" width="109.5576" x="369.9258" y="977.0469"/><text fill="#000000" font-family="sans-serif" font-size="14" lengthAdjust="spacing" textLength="89.5576" x="379.9258" y="1000.042">Optimization</text><rect fill="#F1F1F1" height="36.2969" rx="12.5" ry="12.5" style="stroke:#181818;stroke-width:1.5;" width="97.1572" x="529.4834" y="892.6016"/><text fill="#000000" font-family="sans-serif" font-size="14" lengthAdjust="spacing" textLength="77.1572" x="539.4834" y="915.5967">Rollup Jobs</text><rect fill="#F1F1F1" height="36.2969" rx="12.5" ry="12.5" style="stroke:#181818;stroke-width:1.5;" width="265.6289" x="676.6406" y="864.4531"/><text fill="#000000" font-family="sans-serif" font-size="14" lengthAdjust="spacing" textLength="245.6289" x="686.6406" y="887.4482">Hourly, Daily, Monthly Aggregation</text><path d="M626.6406,910.75 L636.6406,910.75 C651.6406,910.75 651.6406,882.6016 666.6406,882.6016 L676.6406,882.6016 " fill="none" style="stroke:#181818;stroke-width:1;"/><rect fill="#F1F1F1" height="36.2969" rx="12.5" ry="12.5" style="stroke:#181818;stroke-width:1.5;" width="140.5244" x="676.6406" y="920.75"/><text fill="#000000" font-family="sans-serif" font-size="14" lengthAdjust="spacing" textLength="120.5244" x="686.6406" y="943.7451">Reduced Storage</text><path d="M626.6406,910.75 L636.6406,910.75 C651.6406,910.75 651.6406,938.8984 666.6406,938.8984 L676.6406,938.8984 " fill="none" style="stroke:#181818;stroke-width:1;"/><path d="M479.4834,995.1953 L489.4834,995.1953 C504.4834,995.1953 504.4834,910.75 519.4834,910.75 L529.4834,910.75 " fill="none" style="stroke:#181818;stroke-width:1;"/><rect fill="#F1F1F1" height="36.2969" rx="12.5" ry="12.5" style="stroke:#181818;stroke-width:1.5;" width="219.5137" x="529.4834" y="1005.1953"/><text fill="#000000" font-family="sans-serif" font-size="14" lengthAdjust="spacing" textLength="199.5137" x="539.4834" y="1028.1904">Batch &amp; Streaming Pipelines</text><rect fill="#F1F1F1" height="36.2969" rx="12.5" ry="12.5" style="stroke:#181818;stroke-width:1.5;" width="217.5244" x="798.9971" y="977.0469"/><text fill="#000000" font-family="sans-serif" font-size="14" lengthAdjust="spacing" textLength="197.5244" x="808.9971" y="1000.042">Daily Batch for Trie Updates</text><path d="M748.9971,1023.3438 L758.9971,1023.3438 C773.9971,1023.3438 773.9971,995.1953 788.9971,995.1953 L798.9971,995.1953 " fill="none" style="stroke:#181818;stroke-width:1;"/><rect fill="#F1F1F1" height="36.2969" rx="12.5" ry="12.5" style="stroke:#181818;stroke-width:1.5;" width="280.0938" x="798.9971" y="1033.3438"/><text fill="#000000" font-family="sans-serif" font-size="14" lengthAdjust="spacing" textLength="260.0938" x="808.9971" y="1056.3389">Streaming for Real-Time Adaptability</text><path d="M748.9971,1023.3438 L758.9971,1023.3438 C773.9971,1023.3438 773.9971,1051.4922 788.9971,1051.4922 L798.9971,1051.4922 " fill="none" style="stroke:#181818;stroke-width:1;"/><path d="M479.4834,995.1953 L489.4834,995.1953 C504.4834,995.1953 504.4834,1023.3438 519.4834,1023.3438 L529.4834,1023.3438 " fill="none" style="stroke:#181818;stroke-width:1;"/><rect fill="#F1F1F1" height="36.2969" rx="12.5" ry="12.5" style="stroke:#181818;stroke-width:1.5;" width="170.5342" x="529.4834" y="1089.6406"/><text fill="#000000" font-family="sans-serif" font-size="14" lengthAdjust="spacing" textLength="150.5342" x="539.4834" y="1112.6357">Graceful Degradation</text><rect fill="#F1F1F1" height="36.2969" rx="12.5" ry="12.5" style="stroke:#181818;stroke-width:1.5;" width="175.8389" x="750.0176" y="1089.6406"/><text fill="#000000" font-family="sans-serif" font-size="14" lengthAdjust="spacing" textLength="155.8389" x="760.0176" y="1112.6357">Outdated Suggestions</text><path d="M700.0176,1107.7891 L710.0176,1107.7891 C725.0176,1107.7891 725.0176,1107.7891 740.0176,1107.7891 L750.0176,1107.7891 " fill="none" style="stroke:#181818;stroke-width:1;"/><path d="M479.4834,995.1953 L489.4834,995.1953 C504.4834,995.1953 504.4834,1107.7891 519.4834,1107.7891 L529.4834,1107.7891 " fill="none" style="stroke:#181818;stroke-width:1;"/><path d="M319.9258,854.4531 L329.9258,854.4531 C344.9258,854.4531 344.9258,995.1953 359.9258,995.1953 L369.9258,995.1953 " fill="none" style="stroke:#181818;stroke-width:1;"/><rect fill="#F1F1F1" height="36.2969" rx="12.5" ry="12.5" style="stroke:#181818;stroke-width:1.5;" width="228.4619" x="369.9258" y="1258.5313"/><text fill="#000000" font-family="sans-serif" font-size="14" lengthAdjust="spacing" textLength="208.4619" x="379.9258" y="1281.5264">Non-Functional Requirements</text><rect fill="#F1F1F1" height="36.2969" rx="12.5" ry="12.5" style="stroke:#181818;stroke-width:1.5;" width="91.9619" x="648.3877" y="1174.0859"/><text fill="#000000" font-family="sans-serif" font-size="14" lengthAdjust="spacing" textLength="71.9619" x="658.3877" y="1197.0811">Scalability</text><rect fill="#F1F1F1" height="36.2969" rx="12.5" ry="12.5" style="stroke:#181818;stroke-width:1.5;" width="159.3574" x="790.3496" y="1145.9375"/><text fill="#000000" font-family="sans-serif" font-size="14" lengthAdjust="spacing" textLength="139.3574" x="800.3496" y="1168.9326">Billion-User Support</text><path d="M740.3496,1192.2344 L750.3496,1192.2344 C765.3496,1192.2344 765.3496,1164.0859 780.3496,1164.0859 L790.3496,1164.0859 " fill="none" style="stroke:#181818;stroke-width:1;"/><rect fill="#F1F1F1" height="36.2969" rx="12.5" ry="12.5" style="stroke:#181818;stroke-width:1.5;" width="269.71" x="790.3496" y="1202.2344"/><text fill="#000000" font-family="sans-serif" font-size="14" lengthAdjust="spacing" textLength="249.71" x="800.3496" y="1225.2295">Data Sources (Elasticsearch, Kafka)</text><path d="M740.3496,1192.2344 L750.3496,1192.2344 C765.3496,1192.2344 765.3496,1220.3828 780.3496,1220.3828 L790.3496,1220.3828 " fill="none" style="stroke:#181818;stroke-width:1;"/><path d="M598.3877,1276.6797 L608.3877,1276.6797 C623.3877,1276.6797 623.3877,1192.2344 638.3877,1192.2344 L648.3877,1192.2344 " fill="none" style="stroke:#181818;stroke-width:1;"/><rect fill="#F1F1F1" height="36.2969" rx="12.5" ry="12.5" style="stroke:#181818;stroke-width:1.5;" width="128.4727" x="648.3877" y="1286.6797"/><text fill="#000000" font-family="sans-serif" font-size="14" lengthAdjust="spacing" textLength="108.4727" x="658.3877" y="1309.6748">Fault Tolerance</text><rect fill="#F1F1F1" height="36.2969" rx="12.5" ry="12.5" style="stroke:#181818;stroke-width:1.5;" width="182.709" x="826.8604" y="1258.5313"/><text fill="#000000" font-family="sans-serif" font-size="14" lengthAdjust="spacing" textLength="162.709" x="836.8604" y="1281.5264">Consistency Trade-Offs</text><path d="M776.8604,1304.8281 L786.8604,1304.8281 C801.8604,1304.8281 801.8604,1276.6797 816.8604,1276.6797 L826.8604,1276.6797 " fill="none" style="stroke:#181818;stroke-width:1;"/><rect fill="#F1F1F1" height="36.2969" rx="12.5" ry="12.5" style="stroke:#181818;stroke-width:1.5;" width="154.2783" x="826.8604" y="1314.8281"/><text fill="#000000" font-family="sans-serif" font-size="14" lengthAdjust="spacing" textLength="134.2783" x="836.8604" y="1337.8232">Latency Relaxation</text><path d="M776.8604,1304.8281 L786.8604,1304.8281 C801.8604,1304.8281 801.8604,1332.9766 816.8604,1332.9766 L826.8604,1332.9766 " fill="none" style="stroke:#181818;stroke-width:1;"/><path d="M598.3877,1276.6797 L608.3877,1276.6797 C623.3877,1276.6797 623.3877,1304.8281 638.3877,1304.8281 L648.3877,1304.8281 " fill="none" style="stroke:#181818;stroke-width:1;"/><rect fill="#F1F1F1" height="36.2969" rx="12.5" ry="12.5" style="stroke:#181818;stroke-width:1.5;" width="75.3369" x="648.3877" y="1371.125"/><text fill="#000000" font-family="sans-serif" font-size="14" lengthAdjust="spacing" textLength="55.3369" x="658.3877" y="1394.1201">Latency</text><rect fill="#F1F1F1" height="36.2969" rx="12.5" ry="12.5" style="stroke:#181818;stroke-width:1.5;" width="110.0908" x="773.7246" y="1371.125"/><text fill="#000000" font-family="sans-serif" font-size="14" lengthAdjust="spacing" textLength="90.0908" x="783.7246" y="1394.1201">~100ms P99</text><path d="M723.7246,1389.2734 L733.7246,1389.2734 C748.7246,1389.2734 748.7246,1389.2734 763.7246,1389.2734 L773.7246,1389.2734 " fill="none" style="stroke:#181818;stroke-width:1;"/><path d="M598.3877,1276.6797 L608.3877,1276.6797 C623.3877,1276.6797 623.3877,1389.2734 638.3877,1389.2734 L648.3877,1389.2734 " fill="none" style="stroke:#181818;stroke-width:1;"/><path d="M319.9258,854.4531 L329.9258,854.4531 C344.9258,854.4531 344.9258,1276.6797 359.9258,1276.6797 L369.9258,1276.6797 " fill="none" style="stroke:#181818;stroke-width:1;"/><rect fill="#F1F1F1" height="36.2969" rx="12.5" ry="12.5" style="stroke:#181818;stroke-width:1.5;" width="194.877" x="369.9258" y="1540.0156"/><text fill="#000000" font-family="sans-serif" font-size="14" lengthAdjust="spacing" textLength="174.877" x="379.9258" y="1563.0107">Data Handling &amp; Storage</text><rect fill="#F1F1F1" height="36.2969" rx="12.5" ry="12.5" style="stroke:#181818;stroke-width:1.5;" width="142.3564" x="614.8027" y="1455.5703"/><text fill="#000000" font-family="sans-serif" font-size="14" lengthAdjust="spacing" textLength="122.3564" x="624.8027" y="1478.5654">Log Data Storage</text><rect fill="#F1F1F1" height="36.2969" rx="12.5" ry="12.5" style="stroke:#181818;stroke-width:1.5;" width="112.4971" x="807.1592" y="1427.4219"/><text fill="#000000" font-family="sans-serif" font-size="14" lengthAdjust="spacing" textLength="92.4971" x="817.1592" y="1450.417">Elasticsearch</text><path d="M757.1592,1473.7188 L767.1592,1473.7188 C782.1592,1473.7188 782.1592,1445.5703 797.1592,1445.5703 L807.1592,1445.5703 " fill="none" style="stroke:#181818;stroke-width:1;"/><rect fill="#F1F1F1" height="36.2969" rx="12.5" ry="12.5" style="stroke:#181818;stroke-width:1.5;" width="59.375" x="807.1592" y="1483.7188"/><text fill="#000000" font-family="sans-serif" font-size="14" lengthAdjust="spacing" textLength="39.375" x="817.1592" y="1506.7139">Kafka</text><path d="M757.1592,1473.7188 L767.1592,1473.7188 C782.1592,1473.7188 782.1592,1501.8672 797.1592,1501.8672 L807.1592,1501.8672 " fill="none" style="stroke:#181818;stroke-width:1;"/><path d="M564.8027,1558.1641 L574.8027,1558.1641 C589.8027,1558.1641 589.8027,1473.7188 604.8027,1473.7188 L614.8027,1473.7188 " fill="none" style="stroke:#181818;stroke-width:1;"/><rect fill="#F1F1F1" height="36.2969" rx="12.5" ry="12.5" style="stroke:#181818;stroke-width:1.5;" width="146.0479" x="614.8027" y="1540.0156"/><text fill="#000000" font-family="sans-serif" font-size="14" lengthAdjust="spacing" textLength="126.0479" x="624.8027" y="1563.0107">Word Count Table</text><rect fill="#F1F1F1" height="36.2969" rx="12.5" ry="12.5" style="stroke:#181818;stroke-width:1.5;" width="201.1318" x="810.8506" y="1540.0156"/><text fill="#000000" font-family="sans-serif" font-size="14" lengthAdjust="spacing" textLength="181.1318" x="820.8506" y="1563.0107">Aggregation &amp; Processing</text><path d="M760.8506,1558.1641 L770.8506,1558.1641 C785.8506,1558.1641 785.8506,1558.1641 800.8506,1558.1641 L810.8506,1558.1641 " fill="none" style="stroke:#181818;stroke-width:1;"/><path d="M564.8027,1558.1641 L574.8027,1558.1641 C589.8027,1558.1641 589.8027,1558.1641 604.8027,1558.1641 L614.8027,1558.1641 " fill="none" style="stroke:#181818;stroke-width:1;"/><rect fill="#F1F1F1" height="36.2969" rx="12.5" ry="12.5" style="stroke:#181818;stroke-width:1.5;" width="200.9063" x="614.8027" y="1624.4609"/><text fill="#000000" font-family="sans-serif" font-size="14" lengthAdjust="spacing" textLength="180.9063" x="624.8027" y="1647.4561">Weighted Trie Generation</text><rect fill="#F1F1F1" height="36.2969" rx="12.5" ry="12.5" style="stroke:#181818;stroke-width:1.5;" width="237.8408" x="865.709" y="1596.3125"/><text fill="#000000" font-family="sans-serif" font-size="14" lengthAdjust="spacing" textLength="217.8408" x="875.709" y="1619.3076">Storage in Shared Object Store</text><path d="M815.709,1642.6094 L825.709,1642.6094 C840.709,1642.6094 840.709,1614.4609 855.709,1614.4609 L865.709,1614.4609 " fill="none" style="stroke:#181818;stroke-width:1;"/><rect fill="#F1F1F1" height="36.2969" rx="12.5" ry="12.5" style="stroke:#181818;stroke-width:1.5;" width="295.0645" x="865.709" y="1652.6094"/><text fill="#000000" font-family="sans-serif" font-size="14" lengthAdjust="spacing" textLength="275.0645" x="875.709" y="1675.6045">S3 or DocumentDB for Backend Access</text><path d="M815.709,1642.6094 L825.709,1642.6094 C840.709,1642.6094 840.709,1670.7578 855.709,1670.7578 L865.709,1670.7578 " fill="none" style="stroke:#181818;stroke-width:1;"/><path d="M564.8027,1558.1641 L574.8027,1558.1641 C589.8027,1558.1641 589.8027,1642.6094 604.8027,1642.6094 L614.8027,1642.6094 " fill="none" style="stroke:#181818;stroke-width:1;"/><path d="M319.9258,854.4531 L329.9258,854.4531 C344.9258,854.4531 344.9258,1558.1641 359.9258,1558.1641 L369.9258,1558.1641 " fill="none" style="stroke:#181818;stroke-width:1;"/><!--SRC=[VLHDSzCm4BtxL-o9QJC4oiSmjAUcJTfI71hYf9mtyjeHbIMZZr9puBUpift4XHbESNPN-zxglTMvysXz9NLUOPsCO1Ay4QQg5NbwlMfgmYrX3bdZF5Km9ITBdOn6S1MqyD9eLB2a7q5QgaXxnwaHV2DPRZtbiBAIOcG4iwAGGd85PDvOBFlm5JeFgJ4FeUwEpeFoShns19Veo7LLrwJ9Cb16QCKMPhgKUfVxPcmE2si4EMTi7_mqdNNjBets4NHkSkuG-GvEfPB1hwJoPAKkkyGD1SjXAHoyW3cABID1ohYwAu49Cv2UX0-HqVu-HaoknWu2J1611LczuwDBSWVqdkuUz6iWs_J_OBPAOI5hKeSPf-WHPa_UeZWqQOChYzeLnbRuLo8rcEywPiXoxi7Qz9BoCEWr4OB74GqykhrIeedZtjLULlBNlZqiZLAXXbkpwSdTc61LyvBxolWpvnlVgWOcPMcf7D1g8TaJ0_tX0Zth-O9Zbf0zMFuxEJVjotZCrb2mhdFqkuh3qPXV4ghnIbO4annhZnkff6zQh6iUa8eGDIijvWDcTy77XamjbBrEiJbyCNhyFvjd0jK0WSUHId5jjA_bPdLjh1zSUiOtnRh3qKnXQx7MpY_XCnOFU9nq-y3-XvLHx5OsK7UOlUJOar6IA7XEuxkYwCTFiOilIU7JGQK-tDNyVdDoKZbOd9ucEoetgFDeYVRk3tgafkof3fVq6Tqkr59EzfjqQG8lsGetgZyoK9yXdllz-VFGB_T1ZHuQf8PiYvRBxZRVUT_QHDy-UmSizjI84DMONhJQNw1u89r7CpDOSixVksSjMIZKVZrFuP6iYwJUl7fxylRzgzCDUVnmjDOFslpK41y-gGZOytIS75qlKd2jQ92p05PkGkHvdDpY8-yGpynrPxmZf6-ddtS1VfyUfJKwKajkx-U7WW_lnnUI1o7BDE1-daofQ0MVQM7Ykfx1UdKr_fYagCl0bt06f9FsSct3kUmF]--></g></svg>