<svg xmlns="http://www.w3.org/2000/svg" xmlns:xlink="http://www.w3.org/1999/xlink" contentStyleType="text/css" height="2555px" preserveAspectRatio="none" style="width:1123px;height:2555px;background:#FFFFFF;" version="1.1" viewBox="0 0 1123 2555" width="1123px" zoomAndPan="magnify"><defs/><g><rect fill="#F1F1F1" height="36.2969" rx="12.5" ry="12.5" style="stroke:#181818;stroke-width:1.5;" width="257.4736" x="10" y="1258.5313"/><text fill="#000000" font-family="sans-serif" font-size="14" lengthAdjust="spacing" textLength="237.4736" x="20" y="1281.5264">Designing a Rate-Limiting Service</text><rect fill="#F1F1F1" height="36.2969" rx="12.5" ry="12.5" style="stroke:#181818;stroke-width:1.5;" width="221.2568" x="317.4736" y="48.1484"/><text fill="#000000" font-family="sans-serif" font-size="14" lengthAdjust="spacing" textLength="201.2568" x="327.4736" y="71.1436">Introduction to Rate Limiting</text><rect fill="#F1F1F1" height="36.2969" rx="12.5" ry="12.5" style="stroke:#181818;stroke-width:1.5;" width="522.9473" x="588.7305" y="20"/><text fill="#000000" font-family="sans-serif" font-size="14" lengthAdjust="spacing" textLength="502.9473" x="598.7305" y="42.9951">Purpose: Prevent service overuse and protect against malicious attacks</text><path d="M538.7305,66.2969 L548.7305,66.2969 C563.7305,66.2969 563.7305,38.1484 578.7305,38.1484 L588.7305,38.1484 " fill="none" style="stroke:#181818;stroke-width:1.0;"/><rect fill="#F1F1F1" height="36.2969" rx="12.5" ry="12.5" style="stroke:#181818;stroke-width:1.5;" width="330.5156" x="588.7305" y="76.2969"/><text fill="#000000" font-family="sans-serif" font-size="14" lengthAdjust="spacing" textLength="310.5156" x="598.7305" y="99.292">Defines request rate limits for API endpoints</text><path d="M538.7305,66.2969 L548.7305,66.2969 C563.7305,66.2969 563.7305,94.4453 578.7305,94.4453 L588.7305,94.4453 " fill="none" style="stroke:#181818;stroke-width:1.0;"/><path d="M267.4736,1276.6797 L277.4736,1276.6797 C292.4736,1276.6797 292.4736,66.2969 307.4736,66.2969 L317.4736,66.2969 " fill="none" style="stroke:#181818;stroke-width:1.0;"/><rect fill="#F1F1F1" height="36.2969" rx="12.5" ry="12.5" style="stroke:#181818;stroke-width:1.5;" width="229.9521" x="317.4736" y="245.1875"/><text fill="#000000" font-family="sans-serif" font-size="14" lengthAdjust="spacing" textLength="209.9521" x="327.4736" y="268.1826">Types of Overuse and Attacks</text><rect fill="#F1F1F1" height="36.2969" rx="12.5" ry="12.5" style="stroke:#181818;stroke-width:1.5;" width="164.4912" x="597.4258" y="160.7422"/><text fill="#000000" font-family="sans-serif" font-size="14" lengthAdjust="spacing" textLength="144.4912" x="607.4258" y="183.7373">Inadvertent Overuse</text><rect fill="#F1F1F1" height="36.2969" rx="12.5" ry="12.5" style="stroke:#181818;stroke-width:1.5;" width="284.1748" x="811.917" y="132.5938"/><text fill="#000000" font-family="sans-serif" font-size="14" lengthAdjust="spacing" textLength="264.1748" x="821.917" y="155.5889">Traffic spikes from legitimate sources</text><path d="M761.917,178.8906 L771.917,178.8906 C786.917,178.8906 786.917,150.7422 801.917,150.7422 L811.917,150.7422 " fill="none" style="stroke:#181818;stroke-width:1.0;"/><rect fill="#F1F1F1" height="36.2969" rx="12.5" ry="12.5" style="stroke:#181818;stroke-width:1.5;" width="188.6016" x="811.917" y="188.8906"/><text fill="#000000" font-family="sans-serif" font-size="14" lengthAdjust="spacing" textLength="168.6016" x="821.917" y="211.8857">Unintended load testing</text><path d="M761.917,178.8906 L771.917,178.8906 C786.917,178.8906 786.917,207.0391 801.917,207.0391 L811.917,207.0391 " fill="none" style="stroke:#181818;stroke-width:1.0;"/><path d="M547.4258,263.3359 L557.4258,263.3359 C572.4258,263.3359 572.4258,178.8906 587.4258,178.8906 L597.4258,178.8906 " fill="none" style="stroke:#181818;stroke-width:1.0;"/><rect fill="#F1F1F1" height="36.2969" rx="12.5" ry="12.5" style="stroke:#181818;stroke-width:1.5;" width="141.4404" x="597.4258" y="301.4844"/><text fill="#000000" font-family="sans-serif" font-size="14" lengthAdjust="spacing" textLength="121.4404" x="607.4258" y="324.4795">Malicious Attacks</text><rect fill="#F1F1F1" height="36.2969" rx="12.5" ry="12.5" style="stroke:#181818;stroke-width:1.5;" width="183.5703" x="788.8662" y="245.1875"/><text fill="#000000" font-family="sans-serif" font-size="14" lengthAdjust="spacing" textLength="163.5703" x="798.8662" y="268.1826">Denial-of-Service (DoS)</text><path d="M738.8662,319.6328 L748.8662,319.6328 C763.8662,319.6328 763.8662,263.3359 778.8662,263.3359 L788.8662,263.3359 " fill="none" style="stroke:#181818;stroke-width:1.0;"/><rect fill="#F1F1F1" height="36.2969" rx="12.5" ry="12.5" style="stroke:#181818;stroke-width:1.5;" width="154.0322" x="788.8662" y="301.4844"/><text fill="#000000" font-family="sans-serif" font-size="14" lengthAdjust="spacing" textLength="134.0322" x="798.8662" y="324.4795">Brute force attacks</text><path d="M738.8662,319.6328 L748.8662,319.6328 C763.8662,319.6328 763.8662,319.6328 778.8662,319.6328 L788.8662,319.6328 " fill="none" style="stroke:#181818;stroke-width:1.0;"/><rect fill="#F1F1F1" height="36.2969" rx="12.5" ry="12.5" style="stroke:#181818;stroke-width:1.5;" width="115.6553" x="788.8662" y="357.7813"/><text fill="#000000" font-family="sans-serif" font-size="14" lengthAdjust="spacing" textLength="95.6553" x="798.8662" y="380.7764">Web scraping</text><path d="M738.8662,319.6328 L748.8662,319.6328 C763.8662,319.6328 763.8662,375.9297 778.8662,375.9297 L788.8662,375.9297 " fill="none" style="stroke:#181818;stroke-width:1.0;"/><path d="M547.4258,263.3359 L557.4258,263.3359 C572.4258,263.3359 572.4258,319.6328 587.4258,319.6328 L597.4258,319.6328 " fill="none" style="stroke:#181818;stroke-width:1.0;"/><path d="M267.4736,1276.6797 L277.4736,1276.6797 C292.4736,1276.6797 292.4736,263.3359 307.4736,263.3359 L317.4736,263.3359 " fill="none" style="stroke:#181818;stroke-width:1.0;"/><rect fill="#F1F1F1" height="36.2969" rx="12.5" ry="12.5" style="stroke:#181818;stroke-width:1.5;" width="218.3447" x="317.4736" y="442.2266"/><text fill="#000000" font-family="sans-serif" font-size="14" lengthAdjust="spacing" textLength="198.3447" x="327.4736" y="465.2217">Implementation Approaches</text><rect fill="#F1F1F1" height="36.2969" rx="12.5" ry="12.5" style="stroke:#181818;stroke-width:1.5;" width="184.3291" x="585.8184" y="414.0781"/><text fill="#000000" font-family="sans-serif" font-size="14" lengthAdjust="spacing" textLength="164.3291" x="595.8184" y="437.0732">Library implementation</text><path d="M535.8184,460.375 L545.8184,460.375 C560.8184,460.375 560.8184,432.2266 575.8184,432.2266 L585.8184,432.2266 " fill="none" style="stroke:#181818;stroke-width:1.0;"/><rect fill="#F1F1F1" height="36.2969" rx="12.5" ry="12.5" style="stroke:#181818;stroke-width:1.5;" width="208.2754" x="585.8184" y="470.375"/><text fill="#000000" font-family="sans-serif" font-size="14" lengthAdjust="spacing" textLength="188.2754" x="595.8184" y="493.3701">Separate service approach</text><path d="M535.8184,460.375 L545.8184,460.375 C560.8184,460.375 560.8184,488.5234 575.8184,488.5234 L585.8184,488.5234 " fill="none" style="stroke:#181818;stroke-width:1.0;"/><path d="M267.4736,1276.6797 L277.4736,1276.6797 C292.4736,1276.6797 292.4736,460.375 307.4736,460.375 L317.4736,460.375 " fill="none" style="stroke:#181818;stroke-width:1.0;"/><rect fill="#F1F1F1" height="36.2969" rx="12.5" ry="12.5" style="stroke:#181818;stroke-width:1.5;" width="220.5186" x="317.4736" y="639.2656"/><text fill="#000000" font-family="sans-serif" font-size="14" lengthAdjust="spacing" textLength="200.5186" x="327.4736" y="662.2607">Alternatives to Rate Limiting</text><rect fill="#F1F1F1" height="36.2969" rx="12.5" ry="12.5" style="stroke:#181818;stroke-width:1.5;" width="100.5342" x="587.9922" y="554.8203"/><text fill="#000000" font-family="sans-serif" font-size="14" lengthAdjust="spacing" textLength="80.5342" x="597.9922" y="577.8154">Scaling Out</text><rect fill="#F1F1F1" height="36.2969" rx="12.5" ry="12.5" style="stroke:#181818;stroke-width:1.5;" width="151.9883" x="738.5264" y="526.6719"/><text fill="#000000" font-family="sans-serif" font-size="14" lengthAdjust="spacing" textLength="131.9883" x="748.5264" y="549.667">Adding more hosts</text><path d="M688.5264,572.9688 L698.5264,572.9688 C713.5264,572.9688 713.5264,544.8203 728.5264,544.8203 L738.5264,544.8203 " fill="none" style="stroke:#181818;stroke-width:1.0;"/><rect fill="#F1F1F1" height="36.2969" rx="12.5" ry="12.5" style="stroke:#181818;stroke-width:1.5;" width="142.8965" x="738.5264" y="582.9688"/><text fill="#000000" font-family="sans-serif" font-size="14" lengthAdjust="spacing" textLength="122.8965" x="748.5264" y="605.9639">Slow provisioning</text><path d="M688.5264,572.9688 L698.5264,572.9688 C713.5264,572.9688 713.5264,601.1172 728.5264,601.1172 L738.5264,601.1172 " fill="none" style="stroke:#181818;stroke-width:1.0;"/><path d="M537.9922,657.4141 L547.9922,657.4141 C562.9922,657.4141 562.9922,572.9688 577.9922,572.9688 L587.9922,572.9688 " fill="none" style="stroke:#181818;stroke-width:1.0;"/><rect fill="#F1F1F1" height="36.2969" rx="12.5" ry="12.5" style="stroke:#181818;stroke-width:1.5;" width="191.1445" x="587.9922" y="639.2656"/><text fill="#000000" font-family="sans-serif" font-size="14" lengthAdjust="spacing" textLength="171.1445" x="597.9922" y="662.2607">Load Balancer Approach</text><rect fill="#F1F1F1" height="36.2969" rx="12.5" ry="12.5" style="stroke:#181818;stroke-width:1.5;" width="189.6475" x="829.1367" y="639.2656"/><text fill="#000000" font-family="sans-serif" font-size="14" lengthAdjust="spacing" textLength="169.6475" x="839.1367" y="662.2607">Limits requests per host</text><path d="M779.1367,657.4141 L789.1367,657.4141 C804.1367,657.4141 804.1367,657.4141 819.1367,657.4141 L829.1367,657.4141 " fill="none" style="stroke:#181818;stroke-width:1.0;"/><path d="M537.9922,657.4141 L547.9922,657.4141 C562.9922,657.4141 562.9922,657.4141 577.9922,657.4141 L587.9922,657.4141 " fill="none" style="stroke:#181818;stroke-width:1.0;"/><rect fill="#F1F1F1" height="36.2969" rx="12.5" ry="12.5" style="stroke:#181818;stroke-width:1.5;" width="158.9199" x="587.9922" y="723.7109"/><text fill="#000000" font-family="sans-serif" font-size="14" lengthAdjust="spacing" textLength="138.9199" x="597.9922" y="746.7061">Host-Level Tracking</text><rect fill="#F1F1F1" height="36.2969" rx="12.5" ry="12.5" style="stroke:#181818;stroke-width:1.5;" width="201.3096" x="796.9121" y="695.5625"/><text fill="#000000" font-family="sans-serif" font-size="14" lengthAdjust="spacing" textLength="181.3096" x="806.9121" y="718.5576">Each host tracks requests</text><path d="M746.9121,741.8594 L756.9121,741.8594 C771.9121,741.8594 771.9121,713.7109 786.9121,713.7109 L796.9121,713.7109 " fill="none" style="stroke:#181818;stroke-width:1.0;"/><rect fill="#F1F1F1" height="36.2969" rx="12.5" ry="12.5" style="stroke:#181818;stroke-width:1.5;" width="298.4619" x="796.9121" y="751.8594"/><text fill="#000000" font-family="sans-serif" font-size="14" lengthAdjust="spacing" textLength="278.4619" x="806.9121" y="774.8545">Doesn't account for expensive requests</text><path d="M746.9121,741.8594 L756.9121,741.8594 C771.9121,741.8594 771.9121,770.0078 786.9121,770.0078 L796.9121,770.0078 " fill="none" style="stroke:#181818;stroke-width:1.0;"/><path d="M537.9922,657.4141 L547.9922,657.4141 C562.9922,657.4141 562.9922,741.8594 577.9922,741.8594 L587.9922,741.8594 " fill="none" style="stroke:#181818;stroke-width:1.0;"/><path d="M267.4736,1276.6797 L277.4736,1276.6797 C292.4736,1276.6797 292.4736,657.4141 307.4736,657.4141 L317.4736,657.4141 " fill="none" style="stroke:#181818;stroke-width:1.0;"/><rect fill="#F1F1F1" height="36.2969" rx="12.5" ry="12.5" style="stroke:#181818;stroke-width:1.5;" width="235.9541" x="317.4736" y="836.3047"/><text fill="#000000" font-family="sans-serif" font-size="14" lengthAdjust="spacing" textLength="215.9541" x="327.4736" y="859.2998">When Not to Use Rate Limiting</text><rect fill="#F1F1F1" height="36.2969" rx="12.5" ry="12.5" style="stroke:#181818;stroke-width:1.5;" width="391.1162" x="603.4277" y="808.1563"/><text fill="#000000" font-family="sans-serif" font-size="14" lengthAdjust="spacing" textLength="371.1162" x="613.4277" y="831.1514">Scenarios where it may lead to poor user experience</text><path d="M553.4277,854.4531 L563.4277,854.4531 C578.4277,854.4531 578.4277,826.3047 593.4277,826.3047 L603.4277,826.3047 " fill="none" style="stroke:#181818;stroke-width:1.0;"/><rect fill="#F1F1F1" height="36.2969" rx="12.5" ry="12.5" style="stroke:#181818;stroke-width:1.5;" width="276.6074" x="603.4277" y="864.4531"/><text fill="#000000" font-family="sans-serif" font-size="14" lengthAdjust="spacing" textLength="256.6074" x="613.4277" y="887.4482">Example: Social media subscriptions</text><path d="M553.4277,854.4531 L563.4277,854.4531 C578.4277,854.4531 578.4277,882.6016 593.4277,882.6016 L603.4277,882.6016 " fill="none" style="stroke:#181818;stroke-width:1.0;"/><path d="M267.4736,1276.6797 L277.4736,1276.6797 C292.4736,1276.6797 292.4736,854.4531 307.4736,854.4531 L317.4736,854.4531 " fill="none" style="stroke:#181818;stroke-width:1.0;"/><rect fill="#F1F1F1" height="36.2969" rx="12.5" ry="12.5" style="stroke:#181818;stroke-width:1.5;" width="195.499" x="317.4736" y="977.0469"/><text fill="#000000" font-family="sans-serif" font-size="14" lengthAdjust="spacing" textLength="175.499" x="327.4736" y="1000.042">Functional Requirements</text><rect fill="#F1F1F1" height="36.2969" rx="12.5" ry="12.5" style="stroke:#181818;stroke-width:1.5;" width="216.1367" x="562.9727" y="920.75"/><text fill="#000000" font-family="sans-serif" font-size="14" lengthAdjust="spacing" textLength="196.1367" x="572.9727" y="943.7451">Set maximum request rates</text><path d="M512.9727,995.1953 L522.9727,995.1953 C537.9727,995.1953 537.9727,938.8984 552.9727,938.8984 L562.9727,938.8984 " fill="none" style="stroke:#181818;stroke-width:1.0;"/><rect fill="#F1F1F1" height="36.2969" rx="12.5" ry="12.5" style="stroke:#181818;stroke-width:1.5;" width="306.624" x="562.9727" y="977.0469"/><text fill="#000000" font-family="sans-serif" font-size="14" lengthAdjust="spacing" textLength="286.624" x="572.9727" y="1000.042">Support multiple rate limits per endpoint</text><path d="M512.9727,995.1953 L522.9727,995.1953 C537.9727,995.1953 537.9727,995.1953 552.9727,995.1953 L562.9727,995.1953 " fill="none" style="stroke:#181818;stroke-width:1.0;"/><rect fill="#F1F1F1" height="36.2969" rx="12.5" ry="12.5" style="stroke:#181818;stroke-width:1.5;" width="324.5137" x="562.9727" y="1033.3438"/><text fill="#000000" font-family="sans-serif" font-size="14" lengthAdjust="spacing" textLength="304.5137" x="572.9727" y="1056.3389">Logging and visibility of rate-limited events</text><path d="M512.9727,995.1953 L522.9727,995.1953 C537.9727,995.1953 537.9727,1051.4922 552.9727,1051.4922 L562.9727,1051.4922 " fill="none" style="stroke:#181818;stroke-width:1.0;"/><path d="M267.4736,1276.6797 L277.4736,1276.6797 C292.4736,1276.6797 292.4736,995.1953 307.4736,995.1953 L317.4736,995.1953 " fill="none" style="stroke:#181818;stroke-width:1.0;"/><rect fill="#F1F1F1" height="36.2969" rx="12.5" ry="12.5" style="stroke:#181818;stroke-width:1.5;" width="228.4619" x="317.4736" y="1202.2344"/><text fill="#000000" font-family="sans-serif" font-size="14" lengthAdjust="spacing" textLength="208.4619" x="327.4736" y="1225.2295">Non-Functional Requirements</text><rect fill="#F1F1F1" height="36.2969" rx="12.5" ry="12.5" style="stroke:#181818;stroke-width:1.5;" width="287.3398" x="595.9355" y="1089.6406"/><text fill="#000000" font-family="sans-serif" font-size="14" lengthAdjust="spacing" textLength="267.3398" x="605.9355" y="1112.6357">Scalability: Handle billions of requests</text><path d="M545.9355,1220.3828 L555.9355,1220.3828 C570.9355,1220.3828 570.9355,1107.7891 585.9355,1107.7891 L595.9355,1107.7891 " fill="none" style="stroke:#181818;stroke-width:1.0;"/><rect fill="#F1F1F1" height="36.2969" rx="12.5" ry="12.5" style="stroke:#181818;stroke-width:1.5;" width="318.1289" x="595.9355" y="1145.9375"/><text fill="#000000" font-family="sans-serif" font-size="14" lengthAdjust="spacing" textLength="298.1289" x="605.9355" y="1168.9326">Performance: Low latency, quick decisions</text><path d="M545.9355,1220.3828 L555.9355,1220.3828 C570.9355,1220.3828 570.9355,1164.0859 585.9355,1164.0859 L595.9355,1164.0859 " fill="none" style="stroke:#181818;stroke-width:1.0;"/><rect fill="#F1F1F1" height="36.2969" rx="12.5" ry="12.5" style="stroke:#181818;stroke-width:1.5;" width="163.6641" x="595.9355" y="1202.2344"/><text fill="#000000" font-family="sans-serif" font-size="14" lengthAdjust="spacing" textLength="143.6641" x="605.9355" y="1225.2295">Security and Privacy</text><path d="M545.9355,1220.3828 L555.9355,1220.3828 C570.9355,1220.3828 570.9355,1220.3828 585.9355,1220.3828 L595.9355,1220.3828 " fill="none" style="stroke:#181818;stroke-width:1.0;"/><rect fill="#F1F1F1" height="36.2969" rx="12.5" ry="12.5" style="stroke:#181818;stroke-width:1.5;" width="241.4434" x="595.9355" y="1258.5313"/><text fill="#000000" font-family="sans-serif" font-size="14" lengthAdjust="spacing" textLength="221.4434" x="605.9355" y="1281.5264">Availability and Fault-Tolerance</text><path d="M545.9355,1220.3828 L555.9355,1220.3828 C570.9355,1220.3828 570.9355,1276.6797 585.9355,1276.6797 L595.9355,1276.6797 " fill="none" style="stroke:#181818;stroke-width:1.0;"/><rect fill="#F1F1F1" height="36.2969" rx="12.5" ry="12.5" style="stroke:#181818;stroke-width:1.5;" width="204.0508" x="595.9355" y="1314.8281"/><text fill="#000000" font-family="sans-serif" font-size="14" lengthAdjust="spacing" textLength="184.0508" x="605.9355" y="1337.8232">Accuracy and Consistency</text><path d="M545.9355,1220.3828 L555.9355,1220.3828 C570.9355,1220.3828 570.9355,1332.9766 585.9355,1332.9766 L595.9355,1332.9766 " fill="none" style="stroke:#181818;stroke-width:1.0;"/><path d="M267.4736,1276.6797 L277.4736,1276.6797 C292.4736,1276.6797 292.4736,1220.3828 307.4736,1220.3828 L317.4736,1220.3828 " fill="none" style="stroke:#181818;stroke-width:1.0;"/><rect fill="#F1F1F1" height="36.2969" rx="12.5" ry="12.5" style="stroke:#181818;stroke-width:1.5;" width="278.2275" x="317.4736" y="1483.7188"/><text fill="#000000" font-family="sans-serif" font-size="14" lengthAdjust="spacing" textLength="258.2275" x="327.4736" y="1506.7139">High-Level Architecture Components</text><rect fill="#F1F1F1" height="36.2969" rx="12.5" ry="12.5" style="stroke:#181818;stroke-width:1.5;" width="176.2695" x="645.7012" y="1371.125"/><text fill="#000000" font-family="sans-serif" font-size="14" lengthAdjust="spacing" textLength="156.2695" x="655.7012" y="1394.1201">Frontend/API Gateway</text><path d="M595.7012,1501.8672 L605.7012,1501.8672 C620.7012,1501.8672 620.7012,1389.2734 635.7012,1389.2734 L645.7012,1389.2734 " fill="none" style="stroke:#181818;stroke-width:1.0;"/><rect fill="#F1F1F1" height="36.2969" rx="12.5" ry="12.5" style="stroke:#181818;stroke-width:1.5;" width="136.5527" x="645.7012" y="1427.4219"/><text fill="#000000" font-family="sans-serif" font-size="14" lengthAdjust="spacing" textLength="116.5527" x="655.7012" y="1450.417">Backend Service</text><path d="M595.7012,1501.8672 L605.7012,1501.8672 C620.7012,1501.8672 620.7012,1445.5703 635.7012,1445.5703 L645.7012,1445.5703 " fill="none" style="stroke:#181818;stroke-width:1.0;"/><rect fill="#F1F1F1" height="36.2969" rx="12.5" ry="12.5" style="stroke:#181818;stroke-width:1.5;" width="114.5889" x="645.7012" y="1483.7188"/><text fill="#000000" font-family="sans-serif" font-size="14" lengthAdjust="spacing" textLength="94.5889" x="655.7012" y="1506.7139">Rules Service</text><path d="M595.7012,1501.8672 L605.7012,1501.8672 C620.7012,1501.8672 620.7012,1501.8672 635.7012,1501.8672 L645.7012,1501.8672 " fill="none" style="stroke:#181818;stroke-width:1.0;"/><rect fill="#F1F1F1" height="36.2969" rx="12.5" ry="12.5" style="stroke:#181818;stroke-width:1.5;" width="165.168" x="645.7012" y="1540.0156"/><text fill="#000000" font-family="sans-serif" font-size="14" lengthAdjust="spacing" textLength="145.168" x="655.7012" y="1563.0107">Storage (Redis, SQL)</text><path d="M595.7012,1501.8672 L605.7012,1501.8672 C620.7012,1501.8672 620.7012,1558.1641 635.7012,1558.1641 L645.7012,1558.1641 " fill="none" style="stroke:#181818;stroke-width:1.0;"/><rect fill="#F1F1F1" height="36.2969" rx="12.5" ry="12.5" style="stroke:#181818;stroke-width:1.5;" width="185.8945" x="645.7012" y="1596.3125"/><text fill="#000000" font-family="sans-serif" font-size="14" lengthAdjust="spacing" textLength="165.8945" x="655.7012" y="1619.3076">Logging and Monitoring</text><path d="M595.7012,1501.8672 L605.7012,1501.8672 C620.7012,1501.8672 620.7012,1614.4609 635.7012,1614.4609 L645.7012,1614.4609 " fill="none" style="stroke:#181818;stroke-width:1.0;"/><path d="M267.4736,1276.6797 L277.4736,1276.6797 C292.4736,1276.6797 292.4736,1501.8672 307.4736,1501.8672 L317.4736,1501.8672 " fill="none" style="stroke:#181818;stroke-width:1.0;"/><rect fill="#F1F1F1" height="36.2969" rx="12.5" ry="12.5" style="stroke:#181818;stroke-width:1.5;" width="255.0059" x="317.4736" y="1708.9063"/><text fill="#000000" font-family="sans-serif" font-size="14" lengthAdjust="spacing" textLength="235.0059" x="327.4736" y="1731.9014">Stateful vs. Stateless Approaches</text><rect fill="#F1F1F1" height="36.2969" rx="12.5" ry="12.5" style="stroke:#181818;stroke-width:1.5;" width="323.5156" x="622.4795" y="1652.6094"/><text fill="#000000" font-family="sans-serif" font-size="14" lengthAdjust="spacing" textLength="303.5156" x="632.4795" y="1675.6045">Stateless: Uses shared database for counts</text><path d="M572.4795,1727.0547 L582.4795,1727.0547 C597.4795,1727.0547 597.4795,1670.7578 612.4795,1670.7578 L622.4795,1670.7578 " fill="none" style="stroke:#181818;stroke-width:1.0;"/><rect fill="#F1F1F1" height="36.2969" rx="12.5" ry="12.5" style="stroke:#181818;stroke-width:1.5;" width="318.0879" x="622.4795" y="1708.9063"/><text fill="#000000" font-family="sans-serif" font-size="14" lengthAdjust="spacing" textLength="298.0879" x="632.4795" y="1731.9014">Stateful: Counts stored on individual hosts</text><path d="M572.4795,1727.0547 L582.4795,1727.0547 C597.4795,1727.0547 597.4795,1727.0547 612.4795,1727.0547 L622.4795,1727.0547 " fill="none" style="stroke:#181818;stroke-width:1.0;"/><rect fill="#F1F1F1" height="36.2969" rx="12.5" ry="12.5" style="stroke:#181818;stroke-width:1.5;" width="342.5332" x="622.4795" y="1765.2031"/><text fill="#000000" font-family="sans-serif" font-size="14" lengthAdjust="spacing" textLength="322.5332" x="632.4795" y="1788.1982">Hybrid: Aggregated counts stored on all hosts</text><path d="M572.4795,1727.0547 L582.4795,1727.0547 C597.4795,1727.0547 597.4795,1783.3516 612.4795,1783.3516 L622.4795,1783.3516 " fill="none" style="stroke:#181818;stroke-width:1.0;"/><path d="M267.4736,1276.6797 L277.4736,1276.6797 C292.4736,1276.6797 292.4736,1727.0547 307.4736,1727.0547 L317.4736,1727.0547 " fill="none" style="stroke:#181818;stroke-width:1.0;"/><rect fill="#F1F1F1" height="36.2969" rx="12.5" ry="12.5" style="stroke:#181818;stroke-width:1.5;" width="194.125" x="317.4736" y="1934.0938"/><text fill="#000000" font-family="sans-serif" font-size="14" lengthAdjust="spacing" textLength="174.125" x="327.4736" y="1957.0889">Rate-Limiting Algorithms</text><rect fill="#F1F1F1" height="36.2969" rx="12.5" ry="12.5" style="stroke:#181818;stroke-width:1.5;" width="115.5459" x="561.5986" y="1821.5"/><text fill="#000000" font-family="sans-serif" font-size="14" lengthAdjust="spacing" textLength="95.5459" x="571.5986" y="1844.4951">Token Bucket</text><path d="M511.5986,1952.2422 L521.5986,1952.2422 C536.5986,1952.2422 536.5986,1839.6484 551.5986,1839.6484 L561.5986,1839.6484 " fill="none" style="stroke:#181818;stroke-width:1.0;"/><rect fill="#F1F1F1" height="36.2969" rx="12.5" ry="12.5" style="stroke:#181818;stroke-width:1.5;" width="114.2197" x="561.5986" y="1877.7969"/><text fill="#000000" font-family="sans-serif" font-size="14" lengthAdjust="spacing" textLength="94.2197" x="571.5986" y="1900.792">Leaky Bucket</text><path d="M511.5986,1952.2422 L521.5986,1952.2422 C536.5986,1952.2422 536.5986,1895.9453 551.5986,1895.9453 L561.5986,1895.9453 " fill="none" style="stroke:#181818;stroke-width:1.0;"/><rect fill="#F1F1F1" height="36.2969" rx="12.5" ry="12.5" style="stroke:#181818;stroke-width:1.5;" width="178.0811" x="561.5986" y="1934.0938"/><text fill="#000000" font-family="sans-serif" font-size="14" lengthAdjust="spacing" textLength="158.0811" x="571.5986" y="1957.0889">Fixed Window Counter</text><path d="M511.5986,1952.2422 L521.5986,1952.2422 C536.5986,1952.2422 536.5986,1952.2422 551.5986,1952.2422 L561.5986,1952.2422 " fill="none" style="stroke:#181818;stroke-width:1.0;"/><rect fill="#F1F1F1" height="36.2969" rx="12.5" ry="12.5" style="stroke:#181818;stroke-width:1.5;" width="156.8623" x="561.5986" y="1990.3906"/><text fill="#000000" font-family="sans-serif" font-size="14" lengthAdjust="spacing" textLength="136.8623" x="571.5986" y="2013.3857">Sliding Window Log</text><path d="M511.5986,1952.2422 L521.5986,1952.2422 C536.5986,1952.2422 536.5986,2008.5391 551.5986,2008.5391 L561.5986,2008.5391 " fill="none" style="stroke:#181818;stroke-width:1.0;"/><rect fill="#F1F1F1" height="36.2969" rx="12.5" ry="12.5" style="stroke:#181818;stroke-width:1.5;" width="187.5557" x="561.5986" y="2046.6875"/><text fill="#000000" font-family="sans-serif" font-size="14" lengthAdjust="spacing" textLength="167.5557" x="571.5986" y="2069.6826">Sliding Window Counter</text><path d="M511.5986,1952.2422 L521.5986,1952.2422 C536.5986,1952.2422 536.5986,2064.8359 551.5986,2064.8359 L561.5986,2064.8359 " fill="none" style="stroke:#181818;stroke-width:1.0;"/><path d="M267.4736,1276.6797 L277.4736,1276.6797 C292.4736,1276.6797 292.4736,1952.2422 307.4736,1952.2422 L317.4736,1952.2422 " fill="none" style="stroke:#181818;stroke-width:1.0;"/><rect fill="#F1F1F1" height="36.2969" rx="12.5" ry="12.5" style="stroke:#181818;stroke-width:1.5;" width="295.9053" x="317.4736" y="2159.2813"/><text fill="#000000" font-family="sans-serif" font-size="14" lengthAdjust="spacing" textLength="275.9053" x="327.4736" y="2182.2764">Synchronization in Distributed Systems</text><rect fill="#F1F1F1" height="36.2969" rx="12.5" ry="12.5" style="stroke:#181818;stroke-width:1.5;" width="77.873" x="663.3789" y="2102.9844"/><text fill="#000000" font-family="sans-serif" font-size="14" lengthAdjust="spacing" textLength="57.873" x="673.3789" y="2125.9795">All-to-all</text><path d="M613.3789,2177.4297 L623.3789,2177.4297 C638.3789,2177.4297 638.3789,2121.1328 653.3789,2121.1328 L663.3789,2121.1328 " fill="none" style="stroke:#181818;stroke-width:1.0;"/><rect fill="#F1F1F1" height="36.2969" rx="12.5" ry="12.5" style="stroke:#181818;stroke-width:1.5;" width="128.6436" x="663.3789" y="2159.2813"/><text fill="#000000" font-family="sans-serif" font-size="14" lengthAdjust="spacing" textLength="108.6436" x="673.3789" y="2182.2764">Gossip protocol</text><path d="M613.3789,2177.4297 L623.3789,2177.4297 C638.3789,2177.4297 638.3789,2177.4297 653.3789,2177.4297 L663.3789,2177.4297 " fill="none" style="stroke:#181818;stroke-width:1.0;"/><rect fill="#F1F1F1" height="36.2969" rx="12.5" ry="12.5" style="stroke:#181818;stroke-width:1.5;" width="230.8613" x="663.3789" y="2215.5781"/><text fill="#000000" font-family="sans-serif" font-size="14" lengthAdjust="spacing" textLength="210.8613" x="673.3789" y="2238.5732">Leader-based synchronization</text><path d="M613.3789,2177.4297 L623.3789,2177.4297 C638.3789,2177.4297 638.3789,2233.7266 653.3789,2233.7266 L663.3789,2233.7266 " fill="none" style="stroke:#181818;stroke-width:1.0;"/><path d="M267.4736,1276.6797 L277.4736,1276.6797 C292.4736,1276.6797 292.4736,2177.4297 307.4736,2177.4297 L317.4736,2177.4297 " fill="none" style="stroke:#181818;stroke-width:1.0;"/><rect fill="#F1F1F1" height="36.2969" rx="12.5" ry="12.5" style="stroke:#181818;stroke-width:1.5;" width="254.2197" x="317.4736" y="2328.1719"/><text fill="#000000" font-family="sans-serif" font-size="14" lengthAdjust="spacing" textLength="234.2197" x="327.4736" y="2351.167">Logging, Monitoring, and Alerting</text><rect fill="#F1F1F1" height="36.2969" rx="12.5" ry="12.5" style="stroke:#181818;stroke-width:1.5;" width="200.6943" x="621.6934" y="2271.875"/><text fill="#000000" font-family="sans-serif" font-size="14" lengthAdjust="spacing" textLength="180.6943" x="631.6934" y="2294.8701">Track rate-limiting events</text><path d="M571.6934,2346.3203 L581.6934,2346.3203 C596.6934,2346.3203 596.6934,2290.0234 611.6934,2290.0234 L621.6934,2290.0234 " fill="none" style="stroke:#181818;stroke-width:1.0;"/><rect fill="#F1F1F1" height="36.2969" rx="12.5" ry="12.5" style="stroke:#181818;stroke-width:1.5;" width="195.1914" x="621.6934" y="2328.1719"/><text fill="#000000" font-family="sans-serif" font-size="14" lengthAdjust="spacing" textLength="175.1914" x="631.6934" y="2351.167">Detect attacks or misuse</text><path d="M571.6934,2346.3203 L581.6934,2346.3203 C596.6934,2346.3203 596.6934,2346.3203 611.6934,2346.3203 L621.6934,2346.3203 " fill="none" style="stroke:#181818;stroke-width:1.0;"/><rect fill="#F1F1F1" height="36.2969" rx="12.5" ry="12.5" style="stroke:#181818;stroke-width:1.5;" width="218.9668" x="621.6934" y="2384.4688"/><text fill="#000000" font-family="sans-serif" font-size="14" lengthAdjust="spacing" textLength="198.9668" x="631.6934" y="2407.4639">Alerts for abnormal patterns</text><path d="M571.6934,2346.3203 L581.6934,2346.3203 C596.6934,2346.3203 596.6934,2402.6172 611.6934,2402.6172 L621.6934,2402.6172 " fill="none" style="stroke:#181818;stroke-width:1.0;"/><path d="M267.4736,1276.6797 L277.4736,1276.6797 C292.4736,1276.6797 292.4736,2346.3203 307.4736,2346.3203 L317.4736,2346.3203 " fill="none" style="stroke:#181818;stroke-width:1.0;"/><rect fill="#F1F1F1" height="36.2969" rx="12.5" ry="12.5" style="stroke:#181818;stroke-width:1.5;" width="204.6523" x="317.4736" y="2468.9141"/><text fill="#000000" font-family="sans-serif" font-size="14" lengthAdjust="spacing" textLength="184.6523" x="327.4736" y="2491.9092">Client-Side Considerations</text><rect fill="#F1F1F1" height="36.2969" rx="12.5" ry="12.5" style="stroke:#181818;stroke-width:1.5;" width="312.9473" x="572.126" y="2440.7656"/><text fill="#000000" font-family="sans-serif" font-size="14" lengthAdjust="spacing" textLength="292.9473" x="582.126" y="2463.7607">Client libraries implementing rate limiting</text><path d="M522.126,2487.0625 L532.126,2487.0625 C547.126,2487.0625 547.126,2458.9141 562.126,2458.9141 L572.126,2458.9141 " fill="none" style="stroke:#181818;stroke-width:1.0;"/><rect fill="#F1F1F1" height="36.2969" rx="12.5" ry="12.5" style="stroke:#181818;stroke-width:1.5;" width="204.3379" x="572.126" y="2497.0625"/><text fill="#000000" font-family="sans-serif" font-size="14" lengthAdjust="spacing" textLength="184.3379" x="582.126" y="2520.0576">Reduce network overhead</text><path d="M522.126,2487.0625 L532.126,2487.0625 C547.126,2487.0625 547.126,2515.2109 562.126,2515.2109 L572.126,2515.2109 " fill="none" style="stroke:#181818;stroke-width:1.0;"/><path d="M267.4736,1276.6797 L277.4736,1276.6797 C292.4736,1276.6797 292.4736,2487.0625 307.4736,2487.0625 L317.4736,2487.0625 " fill="none" style="stroke:#181818;stroke-width:1.0;"/><!--SRC=[VLRRSk8u47tdA_fj4ohEPYwLck9fI9ZS5YPid4oUXIoC2bdoIZ89y_LxMhQ1P5FxXgM-dEvpkiNt48MFbRP59Uh1a2OgwD9gMvAW1n5LDjMLZloTAx_HKWs6GxgrqRkYaL4xIz4bG-eDOJ2aUUDh5zI8vbvjb8qKMczo6-MRe4ZOWchlefAHH2cq3P4gORJKhWaaOXHo7LAeYLfggm9vzK-ZOEKvcU5aWPREqtX-IyeMjTCsiWSzRckOkoNT7-GQ7qIyjQB0LMHSdGsVmzEBvL9B2hLU8yJIkugCAb5MnKc3QxnKeRLzGfCGeL056ISAYi3MLp_R5NAGbYknMfZCBREkbtGqSVbnUtdX6wH0GJWMXrxFQa51Ub6tqUcsgesgW5sazezhj578LOiBB2oyy5lIRwpILQvgaPhNSo4wLuuwDb5v2-CD2l-GqboYAkZWleaji75Hy7VblAAL2x73cnltmjHkT43ctdlAFReGHbYf_0vqwp5joUm83bJ3WWCcnnlyoAOGaM5wvBeBEAGVy4zc5FbyxzyrswbW_u2uf7GDY6QfgDTQsO0I3stfUQKi_NIHotw2N3ugNLdXjGlqibAeLhDMjv06y-weTeWD4RK9l5OsZGaWlWgcOKIvas2UAbLeGQ5PW4zTCp49m5LZqoZ1uW6uj4_4XOuqplMggwPwCm7TRLFNpiEYCL4ZqvlXu3RsWz5nK9PfiZ4FpCv26nstF2dibYKto3aDR0BsqzdiVy514gADCg8RX0K2V1ekB8KzO8JcoeE3YWKm0fGNCaXgvVQ445MkgL0oAQQlMpQUqJ7OkTSR8RVfOhmHka-QBgy4YiyUdL5Uz8qVItZ38nbS8gOEAHSNTQFBLIUeiPShpIke0QcNhggTtTLsvLsQxpzvlrm3weje0Ln0R3W_s8T3UcWCnkRm98_EYn8J_W3EmmdbVq-F_qF23FC1kswmSyogMZQ6Dk6q_K3Gy7x0TnSZ5ckWi18Uf1KYYeK8QODGKlo1EOAEK1yVKa12s6DpOEVhZIuQCBiRNxhPBhmkHZGkIwzAmNgGxns5sNkyUoJ6faGzSLMrqHuTMaKN3JhMIL29zVRmu4g_8kWpi40H2QBoBN2Zqthfhj2sZuxt7fHlhLo1DFsxNOpQqWIqUxrek8fy2mbqiCR6PD5bg2DzNhiGT9sU8oUTwO4MocVSqeB2sz23FOqd1noUj0yDTBXR76bZ7KmN8z-D5py8xVlNhdi2SvKEtMlK1cgVEB6mF3c6QfXYJQV6NneicfZbkb2jn85NnDq0jTVO1VmUQ0Xbzo8mYFsUwA52fmtU1AlYY_Fhz4wlq8F1TsYz_timc6D_nwVPb73BiqgVJZ-VVVvwUdwKYqXtqExPEPrz6NtwElhoZMQJH-Bhuy7HzNpQFPzKzAJ0_tXm9pRuem4ITOMrS8_zV3Vvgp-W7tQZqNT6FRZxDTiRd7_DBh25UUAmvNxD1lYNm7i07jAnG30TZrVPjy5KsBB188wm2WT9BHwxoZR6_0i0]--></g></svg>