<svg xmlns="http://www.w3.org/2000/svg" xmlns:xlink="http://www.w3.org/1999/xlink" contentStyleType="text/css" data-diagram-type="MINDMAP" height="2724px" preserveAspectRatio="none" style="width:1404px;height:2724px;background:#FFFFFF;" version="1.1" viewBox="0 0 1404 2724" width="1404px" zoomAndPan="magnify"><defs/><g><rect fill="#F1F1F1" height="36.2969" rx="12.5" ry="12.5" style="stroke:#181818;stroke-width:1.5;" width="198.3154" x="10" y="1342.9766"/><text fill="#000000" font-family="sans-serif" font-size="14" lengthAdjust="spacing" textLength="178.3154" x="20" y="1365.9717">Newsfeed System Design</text><rect fill="#F1F1F1" height="36.2969" rx="12.5" ry="12.5" style="stroke:#181818;stroke-width:1.5;" width="118.2666" x="258.3154" y="329.6328"/><text fill="#000000" font-family="sans-serif" font-size="14" lengthAdjust="spacing" textLength="98.2666" x="268.3154" y="352.6279">Requirements</text><rect fill="#F1F1F1" height="36.2969" rx="12.5" ry="12.5" style="stroke:#181818;stroke-width:1.5;" width="195.499" x="426.582" y="188.8906"/><text fill="#000000" font-family="sans-serif" font-size="14" lengthAdjust="spacing" textLength="175.499" x="436.582" y="211.8857">Functional Requirements</text><rect fill="#F1F1F1" height="36.2969" rx="12.5" ry="12.5" style="stroke:#181818;stroke-width:1.5;" width="291.3389" x="672.0811" y="20"/><text fill="#000000" font-family="sans-serif" font-size="14" lengthAdjust="spacing" textLength="271.3389" x="682.0811" y="42.9951">User can select topics (up to 100 tags)</text><path d="M622.0811,207.0391 L632.0811,207.0391 C647.0811,207.0391 647.0811,38.1484 662.0811,38.1484 L672.0811,38.1484" fill="none" style="stroke:#181818;stroke-width:1;"/><rect fill="#F1F1F1" height="36.2969" rx="12.5" ry="12.5" style="stroke:#181818;stroke-width:1.5;" width="328.8408" x="672.0811" y="76.2969"/><text fill="#000000" font-family="sans-serif" font-size="14" lengthAdjust="spacing" textLength="308.8408" x="682.0811" y="99.292">Fetch news items (10 at a time, up to 1000)</text><path d="M622.0811,207.0391 L632.0811,207.0391 C647.0811,207.0391 647.0811,94.4453 662.0811,94.4453 L672.0811,94.4453" fill="none" style="stroke:#181818;stroke-width:1;"/><rect fill="#F1F1F1" height="36.2969" rx="12.5" ry="12.5" style="stroke:#181818;stroke-width:1.5;" width="136.874" x="672.0811" y="132.5938"/><text fill="#000000" font-family="sans-serif" font-size="14" lengthAdjust="spacing" textLength="116.874" x="682.0811" y="155.5889">Archive all items</text><path d="M622.0811,207.0391 L632.0811,207.0391 C647.0811,207.0391 647.0811,150.7422 662.0811,150.7422 L672.0811,150.7422" fill="none" style="stroke:#181818;stroke-width:1;"/><rect fill="#F1F1F1" height="36.2969" rx="12.5" ry="12.5" style="stroke:#181818;stroke-width:1.5;" width="302.2354" x="672.0811" y="188.8906"/><text fill="#000000" font-family="sans-serif" font-size="14" lengthAdjust="spacing" textLength="282.2354" x="682.0811" y="211.8857">Latest news first (reverse chronological)</text><path d="M622.0811,207.0391 L632.0811,207.0391 C647.0811,207.0391 647.0811,207.0391 662.0811,207.0391 L672.0811,207.0391" fill="none" style="stroke:#181818;stroke-width:1;"/><rect fill="#F1F1F1" height="36.2969" rx="12.5" ry="12.5" style="stroke:#181818;stroke-width:1.5;" width="184.8555" x="672.0811" y="301.4844"/><text fill="#000000" font-family="sans-serif" font-size="14" lengthAdjust="spacing" textLength="164.8555" x="682.0811" y="324.4795">News item components</text><rect fill="#F1F1F1" height="36.2969" rx="12.5" ry="12.5" style="stroke:#181818;stroke-width:1.5;" width="185.9014" x="906.9365" y="245.1875"/><text fill="#000000" font-family="sans-serif" font-size="14" lengthAdjust="spacing" textLength="165.9014" x="916.9365" y="268.1826">Text (10,000 char limit)</text><path d="M856.9365,319.6328 L866.9365,319.6328 C881.9365,319.6328 881.9365,263.3359 896.9365,263.3359 L906.9365,263.3359" fill="none" style="stroke:#181818;stroke-width:1;"/><rect fill="#F1F1F1" height="36.2969" rx="12.5" ry="12.5" style="stroke:#181818;stroke-width:1.5;" width="98.5791" x="906.9365" y="301.4844"/><text fill="#000000" font-family="sans-serif" font-size="14" lengthAdjust="spacing" textLength="78.5791" x="916.9365" y="324.4795">Timestamp</text><path d="M856.9365,319.6328 L866.9365,319.6328 C881.9365,319.6328 881.9365,319.6328 896.9365,319.6328 L906.9365,319.6328" fill="none" style="stroke:#181818;stroke-width:1;"/><rect fill="#F1F1F1" height="36.2969" rx="12.5" ry="12.5" style="stroke:#181818;stroke-width:1.5;" width="236.7061" x="906.9365" y="357.7813"/><text fill="#000000" font-family="sans-serif" font-size="14" lengthAdjust="spacing" textLength="216.7061" x="916.9365" y="380.7764">Images (0-10, up to 1MB each)</text><path d="M856.9365,319.6328 L866.9365,319.6328 C881.9365,319.6328 881.9365,375.9297 896.9365,375.9297 L906.9365,375.9297" fill="none" style="stroke:#181818;stroke-width:1;"/><path d="M622.0811,207.0391 L632.0811,207.0391 C647.0811,207.0391 647.0811,319.6328 662.0811,319.6328 L672.0811,319.6328" fill="none" style="stroke:#181818;stroke-width:1;"/><path d="M376.582,347.7813 L386.582,347.7813 C401.582,347.7813 401.582,207.0391 416.582,207.0391 L426.582,207.0391" fill="none" style="stroke:#181818;stroke-width:1;"/><rect fill="#F1F1F1" height="36.2969" rx="12.5" ry="12.5" style="stroke:#181818;stroke-width:1.5;" width="228.4619" x="426.582" y="526.6719"/><text fill="#000000" font-family="sans-serif" font-size="14" lengthAdjust="spacing" textLength="208.4619" x="436.582" y="549.667">Non-Functional Requirements</text><rect fill="#F1F1F1" height="36.2969" rx="12.5" ry="12.5" style="stroke:#181818;stroke-width:1.5;" width="309.7617" x="705.0439" y="414.0781"/><text fill="#000000" font-family="sans-serif" font-size="14" lengthAdjust="spacing" textLength="289.7617" x="715.0439" y="437.0732">Scalable (100K DAU, 1M news items/day)</text><path d="M655.0439,544.8203 L665.0439,544.8203 C680.0439,544.8203 680.0439,432.2266 695.0439,432.2266 L705.0439,432.2266" fill="none" style="stroke:#181818;stroke-width:1;"/><rect fill="#F1F1F1" height="36.2969" rx="12.5" ry="12.5" style="stroke:#181818;stroke-width:1.5;" width="276.0947" x="705.0439" y="470.375"/><text fill="#000000" font-family="sans-serif" font-size="14" lengthAdjust="spacing" textLength="256.0947" x="715.0439" y="493.3701">High performance (1s P99 for reads)</text><path d="M655.0439,544.8203 L665.0439,544.8203 C680.0439,544.8203 680.0439,488.5234 695.0439,488.5234 L705.0439,488.5234" fill="none" style="stroke:#181818;stroke-width:1;"/><rect fill="#F1F1F1" height="36.2969" rx="12.5" ry="12.5" style="stroke:#181818;stroke-width:1.5;" width="143.7236" x="705.0439" y="526.6719"/><text fill="#000000" font-family="sans-serif" font-size="14" lengthAdjust="spacing" textLength="123.7236" x="715.0439" y="549.667">User data privacy</text><path d="M655.0439,544.8203 L665.0439,544.8203 C680.0439,544.8203 680.0439,544.8203 695.0439,544.8203 L705.0439,544.8203" fill="none" style="stroke:#181818;stroke-width:1;"/><rect fill="#F1F1F1" height="36.2969" rx="12.5" ry="12.5" style="stroke:#181818;stroke-width:1.5;" width="334.0293" x="705.0439" y="582.9688"/><text fill="#000000" font-family="sans-serif" font-size="14" lengthAdjust="spacing" textLength="314.0293" x="715.0439" y="605.9639">Eventual consistency (few hours acceptable)</text><path d="M655.0439,544.8203 L665.0439,544.8203 C680.0439,544.8203 680.0439,601.1172 695.0439,601.1172 L705.0439,601.1172" fill="none" style="stroke:#181818;stroke-width:1;"/><rect fill="#F1F1F1" height="36.2969" rx="12.5" ry="12.5" style="stroke:#181818;stroke-width:1.5;" width="203.4014" x="705.0439" y="639.2656"/><text fill="#000000" font-family="sans-serif" font-size="14" lengthAdjust="spacing" textLength="183.4014" x="715.0439" y="662.2607">High availability for writes</text><path d="M655.0439,544.8203 L665.0439,544.8203 C680.0439,544.8203 680.0439,657.4141 695.0439,657.4141 L705.0439,657.4141" fill="none" style="stroke:#181818;stroke-width:1;"/><path d="M376.582,347.7813 L386.582,347.7813 C401.582,347.7813 401.582,544.8203 416.582,544.8203 L426.582,544.8203" fill="none" style="stroke:#181818;stroke-width:1;"/><path d="M208.3154,1361.125 L218.3154,1361.125 C233.3154,1361.125 233.3154,347.7813 248.3154,347.7813 L258.3154,347.7813" fill="none" style="stroke:#181818;stroke-width:1;"/><rect fill="#F1F1F1" height="36.2969" rx="12.5" ry="12.5" style="stroke:#181818;stroke-width:1.5;" width="185.2041" x="258.3154" y="1314.8281"/><text fill="#000000" font-family="sans-serif" font-size="14" lengthAdjust="spacing" textLength="165.2041" x="268.3154" y="1337.8232">High-Level Architecture</text><rect fill="#F1F1F1" height="36.2969" rx="12.5" ry="12.5" style="stroke:#181818;stroke-width:1.5;" width="95.2568" x="493.5195" y="723.7109"/><text fill="#000000" font-family="sans-serif" font-size="14" lengthAdjust="spacing" textLength="75.2568" x="503.5195" y="746.7061">Client Side</text><rect fill="#F1F1F1" height="36.2969" rx="12.5" ry="12.5" style="stroke:#181818;stroke-width:1.5;" width="205.1514" x="638.7764" y="695.5625"/><text fill="#000000" font-family="sans-serif" font-size="14" lengthAdjust="spacing" textLength="185.1514" x="648.7764" y="718.5576">Sources (News Publishers)</text><path d="M588.7764,741.8594 L598.7764,741.8594 C613.7764,741.8594 613.7764,713.7109 628.7764,713.7109 L638.7764,713.7109" fill="none" style="stroke:#181818;stroke-width:1;"/><rect fill="#F1F1F1" height="36.2969" rx="12.5" ry="12.5" style="stroke:#181818;stroke-width:1.5;" width="90.2598" x="638.7764" y="751.8594"/><text fill="#000000" font-family="sans-serif" font-size="14" lengthAdjust="spacing" textLength="70.2598" x="648.7764" y="774.8545">End Users</text><path d="M588.7764,741.8594 L598.7764,741.8594 C613.7764,741.8594 613.7764,770.0078 628.7764,770.0078 L638.7764,770.0078" fill="none" style="stroke:#181818;stroke-width:1;"/><path d="M443.5195,1332.9766 L453.5195,1332.9766 C468.5195,1332.9766 468.5195,741.8594 483.5195,741.8594 L493.5195,741.8594" fill="none" style="stroke:#181818;stroke-width:1;"/><rect fill="#F1F1F1" height="36.2969" rx="12.5" ry="12.5" style="stroke:#181818;stroke-width:1.5;" width="100.6367" x="493.5195" y="1258.5313"/><text fill="#000000" font-family="sans-serif" font-size="14" lengthAdjust="spacing" textLength="80.6367" x="503.5195" y="1281.5264">Server Side</text><rect fill="#F1F1F1" height="36.2969" rx="12.5" ry="12.5" style="stroke:#181818;stroke-width:1.5;" width="120.4473" x="644.1563" y="1089.6406"/><text fill="#000000" font-family="sans-serif" font-size="14" lengthAdjust="spacing" textLength="100.4473" x="654.1563" y="1112.6357">Ingestion Path</text><rect fill="#F1F1F1" height="36.2969" rx="12.5" ry="12.5" style="stroke:#181818;stroke-width:1.5;" width="133.7979" x="814.6035" y="892.6016"/><text fill="#000000" font-family="sans-serif" font-size="14" lengthAdjust="spacing" textLength="113.7979" x="824.6035" y="915.5967">Ingestor Service</text><rect fill="#F1F1F1" height="36.2969" rx="12.5" ry="12.5" style="stroke:#181818;stroke-width:1.5;" width="131.4326" x="998.4014" y="892.6016"/><text fill="#000000" font-family="sans-serif" font-size="14" lengthAdjust="spacing" textLength="111.4326" x="1008.4014" y="915.5967">Validation tasks</text><rect fill="#F1F1F1" height="36.2969" rx="12.5" ry="12.5" style="stroke:#181818;stroke-width:1.5;" width="125.5537" x="1179.834" y="808.1563"/><text fill="#000000" font-family="sans-serif" font-size="14" lengthAdjust="spacing" textLength="105.5537" x="1189.834" y="831.1514">Sanitize values</text><path d="M1129.834,910.75 L1139.834,910.75 C1154.834,910.75 1154.834,826.3047 1169.834,826.3047 L1179.834,826.3047" fill="none" style="stroke:#181818;stroke-width:1;"/><rect fill="#F1F1F1" height="36.2969" rx="12.5" ry="12.5" style="stroke:#181818;stroke-width:1.5;" width="212.8418" x="1179.834" y="864.4531"/><text fill="#000000" font-family="sans-serif" font-size="14" lengthAdjust="spacing" textLength="192.8418" x="1189.834" y="887.4482">Filter inappropriate content</text><path d="M1129.834,910.75 L1139.834,910.75 C1154.834,910.75 1154.834,882.6016 1169.834,882.6016 L1179.834,882.6016" fill="none" style="stroke:#181818;stroke-width:1;"/><rect fill="#F1F1F1" height="36.2969" rx="12.5" ry="12.5" style="stroke:#181818;stroke-width:1.5;" width="180.7061" x="1179.834" y="920.75"/><text fill="#000000" font-family="sans-serif" font-size="14" lengthAdjust="spacing" textLength="160.7061" x="1189.834" y="943.7451">Check blocked sources</text><path d="M1129.834,910.75 L1139.834,910.75 C1154.834,910.75 1154.834,938.8984 1169.834,938.8984 L1179.834,938.8984" fill="none" style="stroke:#181818;stroke-width:1;"/><rect fill="#F1F1F1" height="36.2969" rx="12.5" ry="12.5" style="stroke:#181818;stroke-width:1.5;" width="168.5313" x="1179.834" y="977.0469"/><text fill="#000000" font-family="sans-serif" font-size="14" lengthAdjust="spacing" textLength="148.5313" x="1189.834" y="1000.042">Validate field lengths</text><path d="M1129.834,910.75 L1139.834,910.75 C1154.834,910.75 1154.834,995.1953 1169.834,995.1953 L1179.834,995.1953" fill="none" style="stroke:#181818;stroke-width:1;"/><path d="M948.4014,910.75 L958.4014,910.75 C973.4014,910.75 973.4014,910.75 988.4014,910.75 L998.4014,910.75" fill="none" style="stroke:#181818;stroke-width:1;"/><path d="M764.6035,1107.7891 L774.6035,1107.7891 C789.6035,1107.7891 789.6035,910.75 804.6035,910.75 L814.6035,910.75" fill="none" style="stroke:#181818;stroke-width:1;"/><rect fill="#F1F1F1" height="36.2969" rx="12.5" ry="12.5" style="stroke:#181818;stroke-width:1.5;" width="187.7813" x="814.6035" y="1033.3438"/><text fill="#000000" font-family="sans-serif" font-size="14" lengthAdjust="spacing" textLength="167.7813" x="824.6035" y="1056.3389">Kafka Queue (Producer)</text><path d="M764.6035,1107.7891 L774.6035,1107.7891 C789.6035,1107.7891 789.6035,1051.4922 804.6035,1051.4922 L814.6035,1051.4922" fill="none" style="stroke:#181818;stroke-width:1;"/><rect fill="#F1F1F1" height="36.2969" rx="12.5" ry="12.5" style="stroke:#181818;stroke-width:1.5;" width="91.3877" x="814.6035" y="1089.6406"/><text fill="#000000" font-family="sans-serif" font-size="14" lengthAdjust="spacing" textLength="71.3877" x="824.6035" y="1112.6357">Consumer</text><path d="M764.6035,1107.7891 L774.6035,1107.7891 C789.6035,1107.7891 789.6035,1107.7891 804.6035,1107.7891 L814.6035,1107.7891" fill="none" style="stroke:#181818;stroke-width:1;"/><rect fill="#F1F1F1" height="36.2969" rx="12.5" ry="12.5" style="stroke:#181818;stroke-width:1.5;" width="117.4736" x="814.6035" y="1145.9375"/><text fill="#000000" font-family="sans-serif" font-size="14" lengthAdjust="spacing" textLength="97.4736" x="824.6035" y="1168.9326">HDFS Storage</text><rect fill="#F1F1F1" height="36.2969" rx="12.5" ry="12.5" style="stroke:#181818;stroke-width:1.5;" width="130.3457" x="982.0771" y="1089.6406"/><text fill="#000000" font-family="sans-serif" font-size="14" lengthAdjust="spacing" textLength="110.3457" x="992.0771" y="1112.6357">Raw news table</text><path d="M932.0771,1164.0859 L942.0771,1164.0859 C957.0771,1164.0859 957.0771,1107.7891 972.0771,1107.7891 L982.0771,1107.7891" fill="none" style="stroke:#181818;stroke-width:1;"/><rect fill="#F1F1F1" height="36.2969" rx="12.5" ry="12.5" style="stroke:#181818;stroke-width:1.5;" width="166.9795" x="982.0771" y="1145.9375"/><text fill="#000000" font-family="sans-serif" font-size="14" lengthAdjust="spacing" textLength="146.9795" x="992.0771" y="1168.9326">Validated news table</text><path d="M932.0771,1164.0859 L942.0771,1164.0859 C957.0771,1164.0859 957.0771,1164.0859 972.0771,1164.0859 L982.0771,1164.0859" fill="none" style="stroke:#181818;stroke-width:1;"/><rect fill="#F1F1F1" height="36.2969" rx="12.5" ry="12.5" style="stroke:#181818;stroke-width:1.5;" width="161.8389" x="982.0771" y="1202.2344"/><text fill="#000000" font-family="sans-serif" font-size="14" lengthAdjust="spacing" textLength="141.8389" x="992.0771" y="1225.2295">Manual review table</text><path d="M932.0771,1164.0859 L942.0771,1164.0859 C957.0771,1164.0859 957.0771,1220.3828 972.0771,1220.3828 L982.0771,1220.3828" fill="none" style="stroke:#181818;stroke-width:1;"/><path d="M764.6035,1107.7891 L774.6035,1107.7891 C789.6035,1107.7891 789.6035,1164.0859 804.6035,1164.0859 L814.6035,1164.0859" fill="none" style="stroke:#181818;stroke-width:1;"/><rect fill="#F1F1F1" height="36.2969" rx="12.5" ry="12.5" style="stroke:#181818;stroke-width:1.5;" width="78.5225" x="814.6035" y="1314.8281"/><text fill="#000000" font-family="sans-serif" font-size="14" lengthAdjust="spacing" textLength="58.5225" x="824.6035" y="1337.8232">ETL Jobs</text><rect fill="#F1F1F1" height="36.2969" rx="12.5" ry="12.5" style="stroke:#181818;stroke-width:1.5;" width="131.4326" x="943.126" y="1286.6797"/><text fill="#000000" font-family="sans-serif" font-size="14" lengthAdjust="spacing" textLength="111.4326" x="953.126" y="1309.6748">Validation tasks</text><rect fill="#F1F1F1" height="36.2969" rx="12.5" ry="12.5" style="stroke:#181818;stroke-width:1.5;" width="126.251" x="1124.5586" y="1258.5313"/><text fill="#000000" font-family="sans-serif" font-size="14" lengthAdjust="spacing" textLength="106.251" x="1134.5586" y="1281.5264">Find duplicates</text><path d="M1074.5586,1304.8281 L1084.5586,1304.8281 C1099.5586,1304.8281 1099.5586,1276.6797 1114.5586,1276.6797 L1124.5586,1276.6797" fill="none" style="stroke:#181818;stroke-width:1;"/><rect fill="#F1F1F1" height="36.2969" rx="12.5" ry="12.5" style="stroke:#181818;stroke-width:1.5;" width="138.4941" x="1124.5586" y="1314.8281"/><text fill="#000000" font-family="sans-serif" font-size="14" lengthAdjust="spacing" textLength="118.4941" x="1134.5586" y="1337.8232">Check rate limits</text><path d="M1074.5586,1304.8281 L1084.5586,1304.8281 C1099.5586,1304.8281 1099.5586,1332.9766 1114.5586,1332.9766 L1124.5586,1332.9766" fill="none" style="stroke:#181818;stroke-width:1;"/><path d="M893.126,1332.9766 L903.126,1332.9766 C918.126,1332.9766 918.126,1304.8281 933.126,1304.8281 L943.126,1304.8281" fill="none" style="stroke:#181818;stroke-width:1;"/><rect fill="#F1F1F1" height="36.2969" rx="12.5" ry="12.5" style="stroke:#181818;stroke-width:1.5;" width="159.3506" x="943.126" y="1371.125"/><text fill="#000000" font-family="sans-serif" font-size="14" lengthAdjust="spacing" textLength="139.3506" x="953.126" y="1394.1201">Notification triggers</text><path d="M893.126,1332.9766 L903.126,1332.9766 C918.126,1332.9766 918.126,1389.2734 933.126,1389.2734 L943.126,1389.2734" fill="none" style="stroke:#181818;stroke-width:1;"/><path d="M764.6035,1107.7891 L774.6035,1107.7891 C789.6035,1107.7891 789.6035,1332.9766 804.6035,1332.9766 L814.6035,1332.9766" fill="none" style="stroke:#181818;stroke-width:1;"/><path d="M594.1563,1276.6797 L604.1563,1276.6797 C619.1563,1276.6797 619.1563,1107.7891 634.1563,1107.7891 L644.1563,1107.7891" fill="none" style="stroke:#181818;stroke-width:1;"/><rect fill="#F1F1F1" height="36.2969" rx="12.5" ry="12.5" style="stroke:#181818;stroke-width:1.5;" width="109.0244" x="644.1563" y="1568.1641"/><text fill="#000000" font-family="sans-serif" font-size="14" lengthAdjust="spacing" textLength="89.0244" x="654.1563" y="1591.1592">Serving Path</text><rect fill="#F1F1F1" height="36.2969" rx="12.5" ry="12.5" style="stroke:#181818;stroke-width:1.5;" width="108.4434" x="803.1807" y="1427.4219"/><text fill="#000000" font-family="sans-serif" font-size="14" lengthAdjust="spacing" textLength="88.4434" x="813.1807" y="1450.417">API Gateway</text><path d="M753.1807,1586.3125 L763.1807,1586.3125 C778.1807,1586.3125 778.1807,1445.5703 793.1807,1445.5703 L803.1807,1445.5703" fill="none" style="stroke:#181818;stroke-width:1;"/><rect fill="#F1F1F1" height="36.2969" rx="12.5" ry="12.5" style="stroke:#181818;stroke-width:1.5;" width="142.4863" x="803.1807" y="1483.7188"/><text fill="#000000" font-family="sans-serif" font-size="14" lengthAdjust="spacing" textLength="122.4863" x="813.1807" y="1506.7139">Metadata Service</text><path d="M753.1807,1586.3125 L763.1807,1586.3125 C778.1807,1586.3125 778.1807,1501.8672 793.1807,1501.8672 L803.1807,1501.8672" fill="none" style="stroke:#181818;stroke-width:1;"/><rect fill="#F1F1F1" height="36.2969" rx="12.5" ry="12.5" style="stroke:#181818;stroke-width:1.5;" width="152.6377" x="803.1807" y="1540.0156"/><text fill="#000000" font-family="sans-serif" font-size="14" lengthAdjust="spacing" textLength="132.6377" x="813.1807" y="1563.0107">News Feed Service</text><path d="M753.1807,1586.3125 L763.1807,1586.3125 C778.1807,1586.3125 778.1807,1558.1641 793.1807,1558.1641 L803.1807,1558.1641" fill="none" style="stroke:#181818;stroke-width:1;"/><rect fill="#F1F1F1" height="36.2969" rx="12.5" ry="12.5" style="stroke:#181818;stroke-width:1.5;" width="136.5527" x="803.1807" y="1596.3125"/><text fill="#000000" font-family="sans-serif" font-size="14" lengthAdjust="spacing" textLength="116.5527" x="813.1807" y="1619.3076">Backend Service</text><path d="M753.1807,1586.3125 L763.1807,1586.3125 C778.1807,1586.3125 778.1807,1614.4609 793.1807,1614.4609 L803.1807,1614.4609" fill="none" style="stroke:#181818;stroke-width:1;"/><rect fill="#F1F1F1" height="36.2969" rx="12.5" ry="12.5" style="stroke:#181818;stroke-width:1.5;" width="106.3994" x="803.1807" y="1652.6094"/><text fill="#000000" font-family="sans-serif" font-size="14" lengthAdjust="spacing" textLength="86.3994" x="813.1807" y="1675.6045">Redis Cache</text><path d="M753.1807,1586.3125 L763.1807,1586.3125 C778.1807,1586.3125 778.1807,1670.7578 793.1807,1670.7578 L803.1807,1670.7578" fill="none" style="stroke:#181818;stroke-width:1;"/><rect fill="#F1F1F1" height="36.2969" rx="12.5" ry="12.5" style="stroke:#181818;stroke-width:1.5;" width="249.7354" x="803.1807" y="1708.9063"/><text fill="#000000" font-family="sans-serif" font-size="14" lengthAdjust="spacing" textLength="229.7354" x="813.1807" y="1731.9014">SQL Service (for prepared feeds)</text><rect fill="#F1F1F1" height="36.2969" rx="12.5" ry="12.5" style="stroke:#181818;stroke-width:1.5;" width="244.3691" x="1102.916" y="1708.9063"/><text fill="#000000" font-family="sans-serif" font-size="14" lengthAdjust="spacing" textLength="224.3691" x="1112.916" y="1731.9014">SQL clusters sharded by user ID</text><path d="M1052.916,1727.0547 L1062.916,1727.0547 C1077.916,1727.0547 1077.916,1727.0547 1092.916,1727.0547 L1102.916,1727.0547" fill="none" style="stroke:#181818;stroke-width:1;"/><path d="M753.1807,1586.3125 L763.1807,1586.3125 C778.1807,1586.3125 778.1807,1727.0547 793.1807,1727.0547 L803.1807,1727.0547" fill="none" style="stroke:#181818;stroke-width:1;"/><path d="M594.1563,1276.6797 L604.1563,1276.6797 C619.1563,1276.6797 619.1563,1586.3125 634.1563,1586.3125 L644.1563,1586.3125" fill="none" style="stroke:#181818;stroke-width:1;"/><path d="M443.5195,1332.9766 L453.5195,1332.9766 C468.5195,1332.9766 468.5195,1276.6797 483.5195,1276.6797 L493.5195,1276.6797" fill="none" style="stroke:#181818;stroke-width:1;"/><rect fill="#F1F1F1" height="36.2969" rx="12.5" ry="12.5" style="stroke:#181818;stroke-width:1.5;" width="172.2158" x="493.5195" y="1849.6484"/><text fill="#000000" font-family="sans-serif" font-size="14" lengthAdjust="spacing" textLength="152.2158" x="503.5195" y="1872.6436">Optional Components</text><rect fill="#F1F1F1" height="36.2969" rx="12.5" ry="12.5" style="stroke:#181818;stroke-width:1.5;" width="138.6172" x="715.7354" y="1765.2031"/><text fill="#000000" font-family="sans-serif" font-size="14" lengthAdjust="spacing" textLength="118.6172" x="725.7354" y="1788.1982">Approval Service</text><path d="M665.7354,1867.7969 L675.7354,1867.7969 C690.7354,1867.7969 690.7354,1783.3516 705.7354,1783.3516 L715.7354,1783.3516" fill="none" style="stroke:#181818;stroke-width:1;"/><rect fill="#F1F1F1" height="36.2969" rx="12.5" ry="12.5" style="stroke:#181818;stroke-width:1.5;" width="155.4883" x="715.7354" y="1821.5"/><text fill="#000000" font-family="sans-serif" font-size="14" lengthAdjust="spacing" textLength="135.4883" x="725.7354" y="1844.4951">Moderation Service</text><rect fill="#F1F1F1" height="36.2969" rx="12.5" ry="12.5" style="stroke:#181818;stroke-width:1.5;" width="231.1758" x="921.2236" y="1821.5"/><text fill="#000000" font-family="sans-serif" font-size="14" lengthAdjust="spacing" textLength="211.1758" x="931.2236" y="1844.4951">Execute moderation decisions</text><path d="M871.2236,1839.6484 L881.2236,1839.6484 C896.2236,1839.6484 896.2236,1839.6484 911.2236,1839.6484 L921.2236,1839.6484" fill="none" style="stroke:#181818;stroke-width:1;"/><path d="M665.7354,1867.7969 L675.7354,1867.7969 C690.7354,1867.7969 690.7354,1839.6484 705.7354,1839.6484 L715.7354,1839.6484" fill="none" style="stroke:#181818;stroke-width:1;"/><rect fill="#F1F1F1" height="36.2969" rx="12.5" ry="12.5" style="stroke:#181818;stroke-width:1.5;" width="118.2393" x="715.7354" y="1905.9453"/><text fill="#000000" font-family="sans-serif" font-size="14" lengthAdjust="spacing" textLength="98.2393" x="725.7354" y="1928.9404">Media Service</text><rect fill="#F1F1F1" height="36.2969" rx="12.5" ry="12.5" style="stroke:#181818;stroke-width:1.5;" width="138.4326" x="883.9746" y="1877.7969"/><text fill="#000000" font-family="sans-serif" font-size="14" lengthAdjust="spacing" textLength="118.4326" x="893.9746" y="1900.792">Store media files</text><path d="M833.9746,1924.0938 L843.9746,1924.0938 C858.9746,1924.0938 858.9746,1895.9453 873.9746,1895.9453 L883.9746,1895.9453" fill="none" style="stroke:#181818;stroke-width:1;"/><rect fill="#F1F1F1" height="36.2969" rx="12.5" ry="12.5" style="stroke:#181818;stroke-width:1.5;" width="163.623" x="883.9746" y="1934.0938"/><text fill="#000000" font-family="sans-serif" font-size="14" lengthAdjust="spacing" textLength="143.623" x="893.9746" y="1957.0889">Deduplicate uploads</text><path d="M833.9746,1924.0938 L843.9746,1924.0938 C858.9746,1924.0938 858.9746,1952.2422 873.9746,1952.2422 L883.9746,1952.2422" fill="none" style="stroke:#181818;stroke-width:1;"/><path d="M665.7354,1867.7969 L675.7354,1867.7969 C690.7354,1867.7969 690.7354,1924.0938 705.7354,1924.0938 L715.7354,1924.0938" fill="none" style="stroke:#181818;stroke-width:1;"/><path d="M443.5195,1332.9766 L453.5195,1332.9766 C468.5195,1332.9766 468.5195,1867.7969 483.5195,1867.7969 L493.5195,1867.7969" fill="none" style="stroke:#181818;stroke-width:1;"/><path d="M208.3154,1361.125 L218.3154,1361.125 C233.3154,1361.125 233.3154,1332.9766 248.3154,1332.9766 L258.3154,1332.9766" fill="none" style="stroke:#181818;stroke-width:1;"/><rect fill="#F1F1F1" height="36.2969" rx="12.5" ry="12.5" style="stroke:#181818;stroke-width:1.5;" width="155.1191" x="258.3154" y="2215.5781"/><text fill="#000000" font-family="sans-serif" font-size="14" lengthAdjust="spacing" textLength="135.1191" x="268.3154" y="2238.5732">Advanced Features</text><rect fill="#F1F1F1" height="36.2969" rx="12.5" ry="12.5" style="stroke:#181818;stroke-width:1.5;" width="140.0459" x="463.4346" y="2018.5391"/><text fill="#000000" font-family="sans-serif" font-size="14" lengthAdjust="spacing" textLength="120.0459" x="473.4346" y="2041.5342">Feed Preparation</text><rect fill="#F1F1F1" height="36.2969" rx="12.5" ry="12.5" style="stroke:#181818;stroke-width:1.5;" width="296.7939" x="653.4805" y="1990.3906"/><text fill="#000000" font-family="sans-serif" font-size="14" lengthAdjust="spacing" textLength="276.7939" x="663.4805" y="2013.3857">Consistent hashing for user distribution</text><path d="M603.4805,2036.6875 L613.4805,2036.6875 C628.4805,2036.6875 628.4805,2008.5391 643.4805,2008.5391 L653.4805,2008.5391" fill="none" style="stroke:#181818;stroke-width:1;"/><rect fill="#F1F1F1" height="36.2969" rx="12.5" ry="12.5" style="stroke:#181818;stroke-width:1.5;" width="270.3799" x="653.4805" y="2046.6875"/><text fill="#000000" font-family="sans-serif" font-size="14" lengthAdjust="spacing" textLength="250.3799" x="663.4805" y="2069.6826">ZooKeeper for cluster management</text><path d="M603.4805,2036.6875 L613.4805,2036.6875 C628.4805,2036.6875 628.4805,2064.8359 643.4805,2064.8359 L653.4805,2064.8359" fill="none" style="stroke:#181818;stroke-width:1;"/><path d="M413.4346,2233.7266 L423.4346,2233.7266 C438.4346,2233.7266 438.4346,2036.6875 453.4346,2036.6875 L463.4346,2036.6875" fill="none" style="stroke:#181818;stroke-width:1;"/><rect fill="#F1F1F1" height="36.2969" rx="12.5" ry="12.5" style="stroke:#181818;stroke-width:1.5;" width="159.4258" x="463.4346" y="2187.4297"/><text fill="#000000" font-family="sans-serif" font-size="14" lengthAdjust="spacing" textLength="139.4258" x="473.4346" y="2210.4248">Content Moderation</text><rect fill="#F1F1F1" height="36.2969" rx="12.5" ry="12.5" style="stroke:#181818;stroke-width:1.5;" width="107.7324" x="672.8604" y="2131.1328"/><text fill="#000000" font-family="sans-serif" font-size="14" lengthAdjust="spacing" textLength="87.7324" x="682.8604" y="2154.1279">Post tagging</text><rect fill="#F1F1F1" height="36.2969" rx="12.5" ry="12.5" style="stroke:#181818;stroke-width:1.5;" width="234.8877" x="830.5928" y="2102.9844"/><text fill="#000000" font-family="sans-serif" font-size="14" lengthAdjust="spacing" textLength="214.8877" x="840.5928" y="2125.9795">Interest tags (user-configured)</text><path d="M780.5928,2149.2813 L790.5928,2149.2813 C805.5928,2149.2813 805.5928,2121.1328 820.5928,2121.1328 L830.5928,2121.1328" fill="none" style="stroke:#181818;stroke-width:1;"/><rect fill="#F1F1F1" height="36.2969" rx="12.5" ry="12.5" style="stroke:#181818;stroke-width:1.5;" width="231.6543" x="830.5928" y="2159.2813"/><text fill="#000000" font-family="sans-serif" font-size="14" lengthAdjust="spacing" textLength="211.6543" x="840.5928" y="2182.2764">Filter tags (system-controlled)</text><path d="M780.5928,2149.2813 L790.5928,2149.2813 C805.5928,2149.2813 805.5928,2177.4297 820.5928,2177.4297 L830.5928,2177.4297" fill="none" style="stroke:#181818;stroke-width:1;"/><path d="M622.8604,2205.5781 L632.8604,2205.5781 C647.8604,2205.5781 647.8604,2149.2813 662.8604,2149.2813 L672.8604,2149.2813" fill="none" style="stroke:#181818;stroke-width:1;"/><rect fill="#F1F1F1" height="36.2969" rx="12.5" ry="12.5" style="stroke:#181818;stroke-width:1.5;" width="141.1328" x="672.8604" y="2243.7266"/><text fill="#000000" font-family="sans-serif" font-size="14" lengthAdjust="spacing" textLength="121.1328" x="682.8604" y="2266.7217">Post modification</text><rect fill="#F1F1F1" height="36.2969" rx="12.5" ry="12.5" style="stroke:#181818;stroke-width:1.5;" width="117.9863" x="863.9932" y="2215.5781"/><text fill="#000000" font-family="sans-serif" font-size="14" lengthAdjust="spacing" textLength="97.9863" x="873.9932" y="2238.5732">Replace posts</text><path d="M813.9932,2261.875 L823.9932,2261.875 C838.9932,2261.875 838.9932,2233.7266 853.9932,2233.7266 L863.9932,2233.7266" fill="none" style="stroke:#181818;stroke-width:1;"/><rect fill="#F1F1F1" height="36.2969" rx="12.5" ry="12.5" style="stroke:#181818;stroke-width:1.5;" width="107.9785" x="863.9932" y="2271.875"/><text fill="#000000" font-family="sans-serif" font-size="14" lengthAdjust="spacing" textLength="87.9785" x="873.9932" y="2294.8701">Delete posts</text><path d="M813.9932,2261.875 L823.9932,2261.875 C838.9932,2261.875 838.9932,2290.0234 853.9932,2290.0234 L863.9932,2290.0234" fill="none" style="stroke:#181818;stroke-width:1;"/><path d="M622.8604,2205.5781 L632.8604,2205.5781 C647.8604,2205.5781 647.8604,2261.875 662.8604,2261.875 L672.8604,2261.875" fill="none" style="stroke:#181818;stroke-width:1;"/><path d="M413.4346,2233.7266 L423.4346,2233.7266 C438.4346,2233.7266 438.4346,2205.5781 453.4346,2205.5781 L463.4346,2205.5781" fill="none" style="stroke:#181818;stroke-width:1;"/><rect fill="#F1F1F1" height="36.2969" rx="12.5" ry="12.5" style="stroke:#181818;stroke-width:1.5;" width="128.9033" x="463.4346" y="2384.4688"/><text fill="#000000" font-family="sans-serif" font-size="14" lengthAdjust="spacing" textLength="108.9033" x="473.4346" y="2407.4639">Media Handling</text><rect fill="#F1F1F1" height="36.2969" rx="12.5" ry="12.5" style="stroke:#181818;stroke-width:1.5;" width="181.3418" x="642.3379" y="2328.1719"/><text fill="#000000" font-family="sans-serif" font-size="14" lengthAdjust="spacing" textLength="161.3418" x="652.3379" y="2351.167">Media upload workflow</text><path d="M592.3379,2402.6172 L602.3379,2402.6172 C617.3379,2402.6172 617.3379,2346.3203 632.3379,2346.3203 L642.3379,2346.3203" fill="none" style="stroke:#181818;stroke-width:1;"/><rect fill="#F1F1F1" height="36.2969" rx="12.5" ry="12.5" style="stroke:#181818;stroke-width:1.5;" width="132.3828" x="642.3379" y="2384.4688"/><text fill="#000000" font-family="sans-serif" font-size="14" lengthAdjust="spacing" textLength="112.3828" x="652.3379" y="2407.4639">CDN integration</text><path d="M592.3379,2402.6172 L602.3379,2402.6172 C617.3379,2402.6172 617.3379,2402.6172 632.3379,2402.6172 L642.3379,2402.6172" fill="none" style="stroke:#181818;stroke-width:1;"/><rect fill="#F1F1F1" height="36.2969" rx="12.5" ry="12.5" style="stroke:#181818;stroke-width:1.5;" width="135.4248" x="642.3379" y="2440.7656"/><text fill="#000000" font-family="sans-serif" font-size="14" lengthAdjust="spacing" textLength="115.4248" x="652.3379" y="2463.7607">Media validation</text><path d="M592.3379,2402.6172 L602.3379,2402.6172 C617.3379,2402.6172 617.3379,2458.9141 632.3379,2458.9141 L642.3379,2458.9141" fill="none" style="stroke:#181818;stroke-width:1;"/><path d="M413.4346,2233.7266 L423.4346,2233.7266 C438.4346,2233.7266 438.4346,2402.6172 453.4346,2402.6172 L463.4346,2402.6172" fill="none" style="stroke:#181818;stroke-width:1;"/><path d="M208.3154,1361.125 L218.3154,1361.125 C233.3154,1361.125 233.3154,2233.7266 248.3154,2233.7266 L258.3154,2233.7266" fill="none" style="stroke:#181818;stroke-width:1;"/><rect fill="#F1F1F1" height="36.2969" rx="12.5" ry="12.5" style="stroke:#181818;stroke-width:1.5;" width="191.6504" x="258.3154" y="2581.5078"/><text fill="#000000" font-family="sans-serif" font-size="14" lengthAdjust="spacing" textLength="171.6504" x="268.3154" y="2604.5029">Monitoring &amp; Operations</text><rect fill="#F1F1F1" height="36.2969" rx="12.5" ry="12.5" style="stroke:#181818;stroke-width:1.5;" width="75.7881" x="499.9658" y="2525.2109"/><text fill="#000000" font-family="sans-serif" font-size="14" lengthAdjust="spacing" textLength="55.7881" x="509.9658" y="2548.2061">Logging</text><path d="M449.9658,2599.6563 L459.9658,2599.6563 C474.9658,2599.6563 474.9658,2543.3594 489.9658,2543.3594 L499.9658,2543.3594" fill="none" style="stroke:#181818;stroke-width:1;"/><rect fill="#F1F1F1" height="36.2969" rx="12.5" ry="12.5" style="stroke:#181818;stroke-width:1.5;" width="94.8672" x="499.9658" y="2581.5078"/><text fill="#000000" font-family="sans-serif" font-size="14" lengthAdjust="spacing" textLength="74.8672" x="509.9658" y="2604.5029">Monitoring</text><rect fill="#F1F1F1" height="36.2969" rx="12.5" ry="12.5" style="stroke:#181818;stroke-width:1.5;" width="177.3838" x="644.833" y="2497.0625"/><text fill="#000000" font-family="sans-serif" font-size="14" lengthAdjust="spacing" textLength="157.3838" x="654.833" y="2520.0576">Traffic rates by source</text><path d="M594.833,2599.6563 L604.833,2599.6563 C619.833,2599.6563 619.833,2515.2109 634.833,2515.2109 L644.833,2515.2109" fill="none" style="stroke:#181818;stroke-width:1;"/><rect fill="#F1F1F1" height="36.2969" rx="12.5" ry="12.5" style="stroke:#181818;stroke-width:1.5;" width="179.3799" x="644.833" y="2553.3594"/><text fill="#000000" font-family="sans-serif" font-size="14" lengthAdjust="spacing" textLength="159.3799" x="654.833" y="2576.3545">Validation failure rates</text><path d="M594.833,2599.6563 L604.833,2599.6563 C619.833,2599.6563 619.833,2571.5078 634.833,2571.5078 L644.833,2571.5078" fill="none" style="stroke:#181818;stroke-width:1;"/><rect fill="#F1F1F1" height="36.2969" rx="12.5" ry="12.5" style="stroke:#181818;stroke-width:1.5;" width="121.1172" x="644.833" y="2609.6563"/><text fill="#000000" font-family="sans-serif" font-size="14" lengthAdjust="spacing" textLength="101.1172" x="654.833" y="2632.6514">User reactions</text><path d="M594.833,2599.6563 L604.833,2599.6563 C619.833,2599.6563 619.833,2627.8047 634.833,2627.8047 L644.833,2627.8047" fill="none" style="stroke:#181818;stroke-width:1;"/><rect fill="#F1F1F1" height="36.2969" rx="12.5" ry="12.5" style="stroke:#181818;stroke-width:1.5;" width="131.3916" x="644.833" y="2665.9531"/><text fill="#000000" font-family="sans-serif" font-size="14" lengthAdjust="spacing" textLength="111.3916" x="654.833" y="2688.9482">Processing time</text><path d="M594.833,2599.6563 L604.833,2599.6563 C619.833,2599.6563 619.833,2684.1016 634.833,2684.1016 L644.833,2684.1016" fill="none" style="stroke:#181818;stroke-width:1;"/><path d="M449.9658,2599.6563 L459.9658,2599.6563 C474.9658,2599.6563 474.9658,2599.6563 489.9658,2599.6563 L499.9658,2599.6563" fill="none" style="stroke:#181818;stroke-width:1;"/><rect fill="#F1F1F1" height="36.2969" rx="12.5" ry="12.5" style="stroke:#181818;stroke-width:1.5;" width="74.9746" x="499.9658" y="2637.8047"/><text fill="#000000" font-family="sans-serif" font-size="14" lengthAdjust="spacing" textLength="54.9746" x="509.9658" y="2660.7998">Alerting</text><path d="M449.9658,2599.6563 L459.9658,2599.6563 C474.9658,2599.6563 474.9658,2655.9531 489.9658,2655.9531 L499.9658,2655.9531" fill="none" style="stroke:#181818;stroke-width:1;"/><path d="M208.3154,1361.125 L218.3154,1361.125 C233.3154,1361.125 233.3154,2599.6563 248.3154,2599.6563 L258.3154,2599.6563" fill="none" style="stroke:#181818;stroke-width:1;"/><!--SRC=[XLPBSzis4BxhL-ofOskiL4wJJkDJPCcA7vAhMBOFlK7Wai8O15W0bAB- -du0IJsScVOcBlRvxRUx-kg3SA5K9Yj5rUlJ8szzpfpHSkS3bpHXhmhJw_VfYV-kbUEIJV3uxjEqDZ8eQuJ-wQrFBvuTIM78isOPADXAIKzdTOMVT3aSKX25Fs-KfnpacWn2aq9Gg5qEIGGI55J95xGt6hO68oVNQiCaj6ui6l5C1FQXSPGhXvzdZZViF9DSEskijeMIGhTU7hk096rPMRFFla_F_2F4B2uG4xR2aLQb2kVTCz82S6NLVj-Lec2aFHp0f4jtVaqiv3hPqACrW_y4R8cyn4fpZ3fyeCdevG8kZa3vDHExDl5RLQofOfTRLmeZeusdnPSl104v5ba7REf29eAWogcDaBj6VBD1t1ffI6kyGf-DtD5PpbjQszfv4b9o5M8snm75HYYagBGAknHfwv1OJ3-z3sQ0MZUj2MXvxJXLFjOAqMYfCcuhHGmPqKhuB-gLLdwD9hMnRaoMycv8jcI71XvPtnaW7L6aXGZh3lyaH4fHNSb65V9NeHNAZzf1-BUskz6jC2geVvWsGjTya4-L3WYdZAWgPm4Q61LH0aHXhpHUitoZbRRo3OFYctBshsrC1WDPPwJP567TyUf1v6-2ljTSesaBPxDQikjODKOtwf9T-taxcIvfYQh0hQwW9x5jA96wywvC9FFpsroOs6dCWK9_Zvxevdb6ztRb_nUiARO3PNMbCJlXgD861nThJTEnz_HeWygZSlBbL56qxMpwgKnntBpHuew-mSbMx5h9d8D8h3rfPpElqxISJkJN0eqmxwLFd2bFOqnW9rb-dtKwO3lOKZckX8E_kF5Q_hLwKjUO2yo2n_1dK5djg8xJT3T9lFopQYTvVBewQ1I90rQTP4Dpcx5hy3ZDykO7one0bWU5ZANo-D4wdAEEzqX4Li0clUHATpt1jjwt2Lj8Mso2E9wZR1FNH0RmH9pBTdz791S9WXIujoTXMWc1riAlOwyYLAbs08fkhkg3zb_MFZ1Z5IMb5ZJ2KW9dotPceilaxm12OxomsD0u0mM2x0SPzjo8uxL0r076BrS5qiwwGMcdjD7nwL15hU2irfrMunsmxfcuvqMb1HXGuVs0c-Pm96f1lnKcqrrohQo1bRRMlUNQRblG9e_O6O6Bu_8Q_Sr-gdg91zWxraLKVm67MZYQc3ExH-98h_7rx4IEEjAm-SZ5PklqtWzkZXKDf1gzenk0eo33WLFOF5XPFgOHBsmAETBiGWpu5RFK_I7eBRGmuMK-etX6OuJB3n-77pz_-6s56VrqzcBUZDsQT431m-Jjl7VsRJ5hCppXp7dl7aU4dceJzQuY0EP-yj09iFet2cSw4UV-TNvG-FtJu5g5xXYypdiJpaMj0omaEcoAAtfvdWx-wCs4AMfmxuhOzCOMVjqERyj_0G00]--></g></svg>