<svg xmlns="http://www.w3.org/2000/svg" xmlns:xlink="http://www.w3.org/1999/xlink" contentStyleType="text/css" height="2949px" preserveAspectRatio="none" style="width:1232px;height:2949px;background:#FFFFFF;" version="1.1" viewBox="0 0 1232 2949" width="1232px" zoomAndPan="magnify"><defs/><g><rect fill="#F1F1F1" height="36.2969" rx="12.5" ry="12.5" style="stroke:#181818;stroke-width:1.5;" width="250.501" x="10" y="1455.5703"/><text fill="#000000" font-family="sans-serif" font-size="14" lengthAdjust="spacing" textLength="230.501" x="20" y="1478.5654">Database Batch Auditing Service</text><rect fill="#F1F1F1" height="36.2969" rx="12.5" ry="12.5" style="stroke:#181818;stroke-width:1.5;" width="105.0869" x="310.501" y="217.0391"/><text fill="#000000" font-family="sans-serif" font-size="14" lengthAdjust="spacing" textLength="85.0869" x="320.501" y="240.0342">Introduction</text><rect fill="#F1F1F1" height="36.2969" rx="12.5" ry="12.5" style="stroke:#181818;stroke-width:1.5;" width="139.2461" x="465.5879" y="48.1484"/><text fill="#000000" font-family="sans-serif" font-size="14" lengthAdjust="spacing" textLength="119.2461" x="475.5879" y="71.1436">Auditing Purpose</text><rect fill="#F1F1F1" height="36.2969" rx="12.5" ry="12.5" style="stroke:#181818;stroke-width:1.5;" width="262.9902" x="654.834" y="20"/><text fill="#000000" font-family="sans-serif" font-size="14" lengthAdjust="spacing" textLength="242.9902" x="664.834" y="42.9951">Maintain data quality and integrity</text><path d="M604.834,66.2969 L614.834,66.2969 C629.834,66.2969 629.834,38.1484 644.834,38.1484 L654.834,38.1484 " fill="none" style="stroke:#181818;stroke-width:1;"/><rect fill="#F1F1F1" height="36.2969" rx="12.5" ry="12.5" style="stroke:#181818;stroke-width:1.5;" width="279.3418" x="654.834" y="76.2969"/><text fill="#000000" font-family="sans-serif" font-size="14" lengthAdjust="spacing" textLength="259.3418" x="664.834" y="99.292">Validate database tables periodically</text><path d="M604.834,66.2969 L614.834,66.2969 C629.834,66.2969 629.834,94.4453 644.834,94.4453 L654.834,94.4453 " fill="none" style="stroke:#181818;stroke-width:1;"/><path d="M415.5879,235.1875 L425.5879,235.1875 C440.5879,235.1875 440.5879,66.2969 455.5879,66.2969 L465.5879,66.2969 " fill="none" style="stroke:#181818;stroke-width:1;"/><rect fill="#F1F1F1" height="36.2969" rx="12.5" ry="12.5" style="stroke:#181818;stroke-width:1.5;" width="212.0078" x="465.5879" y="273.3359"/><text fill="#000000" font-family="sans-serif" font-size="14" lengthAdjust="spacing" textLength="192.0078" x="475.5879" y="296.3311">Dimensions of Data Quality</text><rect fill="#F1F1F1" height="36.2969" rx="12.5" ry="12.5" style="stroke:#181818;stroke-width:1.5;" width="84.1621" x="727.5957" y="132.5938"/><text fill="#000000" font-family="sans-serif" font-size="14" lengthAdjust="spacing" textLength="64.1621" x="737.5957" y="155.5889">Accuracy</text><path d="M677.5957,291.4844 L687.5957,291.4844 C702.5957,291.4844 702.5957,150.7422 717.5957,150.7422 L727.5957,150.7422 " fill="none" style="stroke:#181818;stroke-width:1;"/><rect fill="#F1F1F1" height="36.2969" rx="12.5" ry="12.5" style="stroke:#181818;stroke-width:1.5;" width="119.5449" x="727.5957" y="188.8906"/><text fill="#000000" font-family="sans-serif" font-size="14" lengthAdjust="spacing" textLength="99.5449" x="737.5957" y="211.8857">Completeness</text><path d="M677.5957,291.4844 L687.5957,291.4844 C702.5957,291.4844 702.5957,207.0391 717.5957,207.0391 L727.5957,207.0391 " fill="none" style="stroke:#181818;stroke-width:1;"/><rect fill="#F1F1F1" height="36.2969" rx="12.5" ry="12.5" style="stroke:#181818;stroke-width:1.5;" width="104.6494" x="727.5957" y="245.1875"/><text fill="#000000" font-family="sans-serif" font-size="14" lengthAdjust="spacing" textLength="84.6494" x="737.5957" y="268.1826">Consistency</text><path d="M677.5957,291.4844 L687.5957,291.4844 C702.5957,291.4844 702.5957,263.3359 717.5957,263.3359 L727.5957,263.3359 " fill="none" style="stroke:#181818;stroke-width:1;"/><rect fill="#F1F1F1" height="36.2969" rx="12.5" ry="12.5" style="stroke:#181818;stroke-width:1.5;" width="72.4863" x="727.5957" y="301.4844"/><text fill="#000000" font-family="sans-serif" font-size="14" lengthAdjust="spacing" textLength="52.4863" x="737.5957" y="324.4795">Validity</text><path d="M677.5957,291.4844 L687.5957,291.4844 C702.5957,291.4844 702.5957,319.6328 717.5957,319.6328 L727.5957,319.6328 " fill="none" style="stroke:#181818;stroke-width:1;"/><rect fill="#F1F1F1" height="36.2969" rx="12.5" ry="12.5" style="stroke:#181818;stroke-width:1.5;" width="101.457" x="727.5957" y="357.7813"/><text fill="#000000" font-family="sans-serif" font-size="14" lengthAdjust="spacing" textLength="81.457" x="737.5957" y="380.7764">Uniqueness</text><path d="M677.5957,291.4844 L687.5957,291.4844 C702.5957,291.4844 702.5957,375.9297 717.5957,375.9297 L727.5957,375.9297 " fill="none" style="stroke:#181818;stroke-width:1;"/><rect fill="#F1F1F1" height="36.2969" rx="12.5" ry="12.5" style="stroke:#181818;stroke-width:1.5;" width="94.5459" x="727.5957" y="414.0781"/><text fill="#000000" font-family="sans-serif" font-size="14" lengthAdjust="spacing" textLength="74.5459" x="737.5957" y="437.0732">Timeliness</text><path d="M677.5957,291.4844 L687.5957,291.4844 C702.5957,291.4844 702.5957,432.2266 717.5957,432.2266 L727.5957,432.2266 " fill="none" style="stroke:#181818;stroke-width:1;"/><path d="M415.5879,235.1875 L425.5879,235.1875 C440.5879,235.1875 440.5879,291.4844 455.5879,291.4844 L465.5879,291.4844 " fill="none" style="stroke:#181818;stroke-width:1;"/><path d="M260.501,1473.7188 L270.501,1473.7188 C285.501,1473.7188 285.501,235.1875 300.501,235.1875 L310.501,235.1875 " fill="none" style="stroke:#181818;stroke-width:1;"/><rect fill="#F1F1F1" height="36.2969" rx="12.5" ry="12.5" style="stroke:#181818;stroke-width:1.5;" width="206.5049" x="310.501" y="611.1172"/><text fill="#000000" font-family="sans-serif" font-size="14" lengthAdjust="spacing" textLength="186.5049" x="320.501" y="634.1123">Why Auditing is Necessary</text><rect fill="#F1F1F1" height="36.2969" rx="12.5" ry="12.5" style="stroke:#181818;stroke-width:1.5;" width="147.3535" x="567.0059" y="498.5234"/><text fill="#000000" font-family="sans-serif" font-size="14" lengthAdjust="spacing" textLength="127.3535" x="577.0059" y="521.5186">Prevent Data Loss</text><rect fill="#F1F1F1" height="36.2969" rx="12.5" ry="12.5" style="stroke:#181818;stroke-width:1.5;" width="288.0371" x="764.3594" y="470.375"/><text fill="#000000" font-family="sans-serif" font-size="14" lengthAdjust="spacing" textLength="268.0371" x="774.3594" y="493.3701">Quorum consistency (e.g., Cassandra)</text><path d="M714.3594,516.6719 L724.3594,516.6719 C739.3594,516.6719 739.3594,488.5234 754.3594,488.5234 L764.3594,488.5234 " fill="none" style="stroke:#181818;stroke-width:1;"/><rect fill="#F1F1F1" height="36.2969" rx="12.5" ry="12.5" style="stroke:#181818;stroke-width:1.5;" width="177.7598" x="764.3594" y="526.6719"/><text fill="#000000" font-family="sans-serif" font-size="14" lengthAdjust="spacing" textLength="157.7598" x="774.3594" y="549.667">Replication challenges</text><path d="M714.3594,516.6719 L724.3594,516.6719 C739.3594,516.6719 739.3594,544.8203 754.3594,544.8203 L764.3594,544.8203 " fill="none" style="stroke:#181818;stroke-width:1;"/><path d="M517.0059,629.2656 L527.0059,629.2656 C542.0059,629.2656 542.0059,516.6719 557.0059,516.6719 L567.0059,516.6719 " fill="none" style="stroke:#181818;stroke-width:1;"/><rect fill="#F1F1F1" height="36.2969" rx="12.5" ry="12.5" style="stroke:#181818;stroke-width:1.5;" width="169.6934" x="567.0059" y="611.1172"/><text fill="#000000" font-family="sans-serif" font-size="14" lengthAdjust="spacing" textLength="149.6934" x="577.0059" y="634.1123">Validate Legacy Data</text><rect fill="#F1F1F1" height="36.2969" rx="12.5" ry="12.5" style="stroke:#181818;stroke-width:1.5;" width="155.3721" x="786.6992" y="582.9688"/><text fill="#000000" font-family="sans-serif" font-size="14" lengthAdjust="spacing" textLength="135.3721" x="796.6992" y="605.9639">Detect silent errors</text><path d="M736.6992,629.2656 L746.6992,629.2656 C761.6992,629.2656 761.6992,601.1172 776.6992,601.1172 L786.6992,601.1172 " fill="none" style="stroke:#181818;stroke-width:1;"/><rect fill="#F1F1F1" height="36.2969" rx="12.5" ry="12.5" style="stroke:#181818;stroke-width:1.5;" width="377.916" x="786.6992" y="639.2656"/><text fill="#000000" font-family="sans-serif" font-size="14" lengthAdjust="spacing" textLength="357.916" x="796.6992" y="662.2607">Identify anomalies (e.g., duplicate or missing data)</text><path d="M736.6992,629.2656 L746.6992,629.2656 C761.6992,629.2656 761.6992,657.4141 776.6992,657.4141 L786.6992,657.4141 " fill="none" style="stroke:#181818;stroke-width:1;"/><path d="M517.0059,629.2656 L527.0059,629.2656 C542.0059,629.2656 542.0059,629.2656 557.0059,629.2656 L567.0059,629.2656 " fill="none" style="stroke:#181818;stroke-width:1;"/><rect fill="#F1F1F1" height="36.2969" rx="12.5" ry="12.5" style="stroke:#181818;stroke-width:1.5;" width="265.5605" x="567.0059" y="723.7109"/><text fill="#000000" font-family="sans-serif" font-size="14" lengthAdjust="spacing" textLength="245.5605" x="577.0059" y="746.7061">Complement Database Constraints</text><rect fill="#F1F1F1" height="36.2969" rx="12.5" ry="12.5" style="stroke:#181818;stroke-width:1.5;" width="304.0469" x="882.5664" y="695.5625"/><text fill="#000000" font-family="sans-serif" font-size="14" lengthAdjust="spacing" textLength="284.0469" x="892.5664" y="718.5576">Limitations of schema-based constraints</text><path d="M832.5664,741.8594 L842.5664,741.8594 C857.5664,741.8594 857.5664,713.7109 872.5664,713.7109 L882.5664,713.7109 " fill="none" style="stroke:#181818;stroke-width:1;"/><rect fill="#F1F1F1" height="36.2969" rx="12.5" ry="12.5" style="stroke:#181818;stroke-width:1.5;" width="337.7139" x="882.5664" y="751.8594"/><text fill="#000000" font-family="sans-serif" font-size="14" lengthAdjust="spacing" textLength="317.7139" x="892.5664" y="774.8545">Enhances flexibility for changing applications</text><path d="M832.5664,741.8594 L842.5664,741.8594 C857.5664,741.8594 857.5664,770.0078 872.5664,770.0078 L882.5664,770.0078 " fill="none" style="stroke:#181818;stroke-width:1;"/><path d="M517.0059,629.2656 L527.0059,629.2656 C542.0059,629.2656 542.0059,741.8594 557.0059,741.8594 L567.0059,741.8594 " fill="none" style="stroke:#181818;stroke-width:1;"/><path d="M260.501,1473.7188 L270.501,1473.7188 C285.501,1473.7188 285.501,629.2656 300.501,629.2656 L310.501,629.2656 " fill="none" style="stroke:#181818;stroke-width:1;"/><rect fill="#F1F1F1" height="36.2969" rx="12.5" ry="12.5" style="stroke:#181818;stroke-width:1.5;" width="161.5381" x="310.501" y="948.8984"/><text fill="#000000" font-family="sans-serif" font-size="14" lengthAdjust="spacing" textLength="141.5381" x="320.501" y="971.8936">Types of Validations</text><rect fill="#F1F1F1" height="36.2969" rx="12.5" ry="12.5" style="stroke:#181818;stroke-width:1.5;" width="201.0566" x="522.0391" y="808.1563"/><text fill="#000000" font-family="sans-serif" font-size="14" lengthAdjust="spacing" textLength="181.0566" x="532.0391" y="831.1514">Individual Column Checks</text><rect fill="#F1F1F1" height="36.2969" rx="12.5" ry="12.5" style="stroke:#181818;stroke-width:1.5;" width="283.8262" x="773.0957" y="808.1563"/><text fill="#000000" font-family="sans-serif" font-size="14" lengthAdjust="spacing" textLength="263.8262" x="783.0957" y="831.1514">Example: Timestamps &lt; 24 hours old</text><path d="M723.0957,826.3047 L733.0957,826.3047 C748.0957,826.3047 748.0957,826.3047 763.0957,826.3047 L773.0957,826.3047 " fill="none" style="stroke:#181818;stroke-width:1;"/><path d="M472.0391,967.0469 L482.0391,967.0469 C497.0391,967.0469 497.0391,826.3047 512.0391,826.3047 L522.0391,826.3047 " fill="none" style="stroke:#181818;stroke-width:1;"/><rect fill="#F1F1F1" height="36.2969" rx="12.5" ry="12.5" style="stroke:#181818;stroke-width:1.5;" width="242.2021" x="522.0391" y="864.4531"/><text fill="#000000" font-family="sans-serif" font-size="14" lengthAdjust="spacing" textLength="222.2021" x="532.0391" y="887.4482">Aggregated Column Validations</text><rect fill="#F1F1F1" height="36.2969" rx="12.5" ry="12.5" style="stroke:#181818;stroke-width:1.5;" width="272.6494" x="814.2412" y="864.4531"/><text fill="#000000" font-family="sans-serif" font-size="14" lengthAdjust="spacing" textLength="252.6494" x="824.2412" y="887.4482">Example: User transactions/day &#8804; 5</text><path d="M764.2412,882.6016 L774.2412,882.6016 C789.2412,882.6016 789.2412,882.6016 804.2412,882.6016 L814.2412,882.6016 " fill="none" style="stroke:#181818;stroke-width:1;"/><path d="M472.0391,967.0469 L482.0391,967.0469 C497.0391,967.0469 497.0391,882.6016 512.0391,882.6016 L522.0391,882.6016 " fill="none" style="stroke:#181818;stroke-width:1;"/><rect fill="#F1F1F1" height="36.2969" rx="12.5" ry="12.5" style="stroke:#181818;stroke-width:1.5;" width="179.7559" x="522.0391" y="920.75"/><text fill="#000000" font-family="sans-serif" font-size="14" lengthAdjust="spacing" textLength="159.7559" x="532.0391" y="943.7451">Multi-Table Validations</text><rect fill="#F1F1F1" height="36.2969" rx="12.5" ry="12.5" style="stroke:#181818;stroke-width:1.5;" width="266.8525" x="751.7949" y="920.75"/><text fill="#000000" font-family="sans-serif" font-size="14" lengthAdjust="spacing" textLength="246.8525" x="761.7949" y="943.7451">Example: Ensure valid foreign keys</text><path d="M701.7949,938.8984 L711.7949,938.8984 C726.7949,938.8984 726.7949,938.8984 741.7949,938.8984 L751.7949,938.8984 " fill="none" style="stroke:#181818;stroke-width:1;"/><path d="M472.0391,967.0469 L482.0391,967.0469 C497.0391,967.0469 497.0391,938.8984 512.0391,938.8984 L522.0391,938.8984 " fill="none" style="stroke:#181818;stroke-width:1;"/><rect fill="#F1F1F1" height="36.2969" rx="12.5" ry="12.5" style="stroke:#181818;stroke-width:1.5;" width="183.7822" x="522.0391" y="977.0469"/><text fill="#000000" font-family="sans-serif" font-size="14" lengthAdjust="spacing" textLength="163.7822" x="532.0391" y="1000.042">Multi-Query Validations</text><rect fill="#F1F1F1" height="36.2969" rx="12.5" ry="12.5" style="stroke:#181818;stroke-width:1.5;" width="313.1797" x="755.8213" y="977.0469"/><text fill="#000000" font-family="sans-serif" font-size="14" lengthAdjust="spacing" textLength="293.1797" x="765.8213" y="1000.042">Example: Compare week-over-week sales</text><path d="M705.8213,995.1953 L715.8213,995.1953 C730.8213,995.1953 730.8213,995.1953 745.8213,995.1953 L755.8213,995.1953 " fill="none" style="stroke:#181818;stroke-width:1;"/><path d="M472.0391,967.0469 L482.0391,967.0469 C497.0391,967.0469 497.0391,995.1953 512.0391,995.1953 L522.0391,995.1953 " fill="none" style="stroke:#181818;stroke-width:1;"/><rect fill="#F1F1F1" height="36.2969" rx="12.5" ry="12.5" style="stroke:#181818;stroke-width:1.5;" width="141.7139" x="522.0391" y="1061.4922"/><text fill="#000000" font-family="sans-serif" font-size="14" lengthAdjust="spacing" textLength="121.7139" x="532.0391" y="1084.4873">Other Validations</text><rect fill="#F1F1F1" height="36.2969" rx="12.5" ry="12.5" style="stroke:#181818;stroke-width:1.5;" width="226.9648" x="713.7529" y="1033.3438"/><text fill="#000000" font-family="sans-serif" font-size="14" lengthAdjust="spacing" textLength="206.9648" x="723.7529" y="1056.3389">String length or regex checks</text><path d="M663.7529,1079.6406 L673.7529,1079.6406 C688.7529,1079.6406 688.7529,1051.4922 703.7529,1051.4922 L713.7529,1051.4922 " fill="none" style="stroke:#181818;stroke-width:1;"/><rect fill="#F1F1F1" height="36.2969" rx="12.5" ry="12.5" style="stroke:#181818;stroke-width:1.5;" width="251.0137" x="713.7529" y="1089.6406"/><text fill="#000000" font-family="sans-serif" font-size="14" lengthAdjust="spacing" textLength="231.0137" x="723.7529" y="1112.6357">Non-negative integer constraints</text><path d="M663.7529,1079.6406 L673.7529,1079.6406 C688.7529,1079.6406 688.7529,1107.7891 703.7529,1107.7891 L713.7529,1107.7891 " fill="none" style="stroke:#181818;stroke-width:1;"/><path d="M472.0391,967.0469 L482.0391,967.0469 C497.0391,967.0469 497.0391,1079.6406 512.0391,1079.6406 L522.0391,1079.6406 " fill="none" style="stroke:#181818;stroke-width:1;"/><path d="M260.501,1473.7188 L270.501,1473.7188 C285.501,1473.7188 285.501,967.0469 300.501,967.0469 L310.501,967.0469 " fill="none" style="stroke:#181818;stroke-width:1;"/><rect fill="#F1F1F1" height="36.2969" rx="12.5" ry="12.5" style="stroke:#181818;stroke-width:1.5;" width="174.9229" x="310.501" y="1314.8281"/><text fill="#000000" font-family="sans-serif" font-size="14" lengthAdjust="spacing" textLength="154.9229" x="320.501" y="1337.8232">System Requirements</text><rect fill="#F1F1F1" height="36.2969" rx="12.5" ry="12.5" style="stroke:#181818;stroke-width:1.5;" width="92.7822" x="535.4238" y="1230.3828"/><text fill="#000000" font-family="sans-serif" font-size="14" lengthAdjust="spacing" textLength="72.7822" x="545.4238" y="1253.3779">Functional</text><rect fill="#F1F1F1" height="36.2969" rx="12.5" ry="12.5" style="stroke:#181818;stroke-width:1.5;" width="133.7842" x="678.2061" y="1145.9375"/><text fill="#000000" font-family="sans-serif" font-size="14" lengthAdjust="spacing" textLength="113.7842" x="688.2061" y="1168.9326">CRUD audit jobs</text><path d="M628.2061,1248.5313 L638.2061,1248.5313 C653.2061,1248.5313 653.2061,1164.0859 668.2061,1164.0859 L678.2061,1164.0859 " fill="none" style="stroke:#181818;stroke-width:1;"/><rect fill="#F1F1F1" height="36.2969" rx="12.5" ry="12.5" style="stroke:#181818;stroke-width:1.5;" width="166.5693" x="678.2061" y="1202.2344"/><text fill="#000000" font-family="sans-serif" font-size="14" lengthAdjust="spacing" textLength="146.5693" x="688.2061" y="1225.2295">Scheduled execution</text><path d="M628.2061,1248.5313 L638.2061,1248.5313 C653.2061,1248.5313 653.2061,1220.3828 668.2061,1220.3828 L678.2061,1220.3828 " fill="none" style="stroke:#181818;stroke-width:1;"/><rect fill="#F1F1F1" height="36.2969" rx="12.5" ry="12.5" style="stroke:#181818;stroke-width:1.5;" width="140.5928" x="678.2061" y="1258.5313"/><text fill="#000000" font-family="sans-serif" font-size="14" lengthAdjust="spacing" textLength="120.5928" x="688.2061" y="1281.5264">Alerts for failures</text><path d="M628.2061,1248.5313 L638.2061,1248.5313 C653.2061,1248.5313 653.2061,1276.6797 668.2061,1276.6797 L678.2061,1276.6797 " fill="none" style="stroke:#181818;stroke-width:1;"/><rect fill="#F1F1F1" height="36.2969" rx="12.5" ry="12.5" style="stroke:#181818;stroke-width:1.5;" width="165.4141" x="678.2061" y="1314.8281"/><text fill="#000000" font-family="sans-serif" font-size="14" lengthAdjust="spacing" textLength="145.4141" x="688.2061" y="1337.8232">Logs for job statuses</text><path d="M628.2061,1248.5313 L638.2061,1248.5313 C653.2061,1248.5313 653.2061,1332.9766 668.2061,1332.9766 L678.2061,1332.9766 " fill="none" style="stroke:#181818;stroke-width:1;"/><path d="M485.4238,1332.9766 L495.4238,1332.9766 C510.4238,1332.9766 510.4238,1248.5313 525.4238,1248.5313 L535.4238,1248.5313 " fill="none" style="stroke:#181818;stroke-width:1;"/><rect fill="#F1F1F1" height="36.2969" rx="12.5" ry="12.5" style="stroke:#181818;stroke-width:1.5;" width="125.7451" x="535.4238" y="1427.4219"/><text fill="#000000" font-family="sans-serif" font-size="14" lengthAdjust="spacing" textLength="105.7451" x="545.4238" y="1450.417">Non-Functional</text><rect fill="#F1F1F1" height="36.2969" rx="12.5" ry="12.5" style="stroke:#181818;stroke-width:1.5;" width="225.29" x="711.1689" y="1371.125"/><text fill="#000000" font-family="sans-serif" font-size="14" lengthAdjust="spacing" textLength="205.29" x="721.1689" y="1394.1201">Scalability: Up to 10,000 jobs</text><path d="M661.1689,1445.5703 L671.1689,1445.5703 C686.1689,1445.5703 686.1689,1389.2734 701.1689,1389.2734 L711.1689,1389.2734 " fill="none" style="stroke:#181818;stroke-width:1;"/><rect fill="#F1F1F1" height="36.2969" rx="12.5" ry="12.5" style="stroke:#181818;stroke-width:1.5;" width="172.8789" x="711.1689" y="1427.4219"/><text fill="#000000" font-family="sans-serif" font-size="14" lengthAdjust="spacing" textLength="152.8789" x="721.1689" y="1450.417">Availability: Moderate</text><path d="M661.1689,1445.5703 L671.1689,1445.5703 C686.1689,1445.5703 686.1689,1445.5703 701.1689,1445.5703 L711.1689,1445.5703 " fill="none" style="stroke:#181818;stroke-width:1;"/><rect fill="#F1F1F1" height="36.2969" rx="12.5" ry="12.5" style="stroke:#181818;stroke-width:1.5;" width="216.3896" x="711.1689" y="1483.7188"/><text fill="#000000" font-family="sans-serif" font-size="14" lengthAdjust="spacing" textLength="196.3896" x="721.1689" y="1506.7139">Security: Role-based access</text><path d="M661.1689,1445.5703 L671.1689,1445.5703 C686.1689,1445.5703 686.1689,1501.8672 701.1689,1501.8672 L711.1689,1501.8672 " fill="none" style="stroke:#181818;stroke-width:1;"/><path d="M485.4238,1332.9766 L495.4238,1332.9766 C510.4238,1332.9766 510.4238,1445.5703 525.4238,1445.5703 L535.4238,1445.5703 " fill="none" style="stroke:#181818;stroke-width:1;"/><path d="M260.501,1473.7188 L270.501,1473.7188 C285.501,1473.7188 285.501,1332.9766 300.501,1332.9766 L310.501,1332.9766 " fill="none" style="stroke:#181818;stroke-width:1;"/><rect fill="#F1F1F1" height="36.2969" rx="12.5" ry="12.5" style="stroke:#181818;stroke-width:1.5;" width="185.2041" x="310.501" y="1737.0547"/><text fill="#000000" font-family="sans-serif" font-size="14" lengthAdjust="spacing" textLength="165.2041" x="320.501" y="1760.0498">High-Level Architecture</text><rect fill="#F1F1F1" height="36.2969" rx="12.5" ry="12.5" style="stroke:#181818;stroke-width:1.5;" width="136.5527" x="545.7051" y="1568.1641"/><text fill="#000000" font-family="sans-serif" font-size="14" lengthAdjust="spacing" textLength="116.5527" x="555.7051" y="1591.1592">Backend Service</text><rect fill="#F1F1F1" height="36.2969" rx="12.5" ry="12.5" style="stroke:#181818;stroke-width:1.5;" width="293.3896" x="732.2578" y="1540.0156"/><text fill="#000000" font-family="sans-serif" font-size="14" lengthAdjust="spacing" textLength="273.3896" x="742.2578" y="1563.0107">Handles job creation and management</text><path d="M682.2578,1586.3125 L692.2578,1586.3125 C707.2578,1586.3125 707.2578,1558.1641 722.2578,1558.1641 L732.2578,1558.1641 " fill="none" style="stroke:#181818;stroke-width:1;"/><rect fill="#F1F1F1" height="36.2969" rx="12.5" ry="12.5" style="stroke:#181818;stroke-width:1.5;" width="317.6504" x="732.2578" y="1596.3125"/><text fill="#000000" font-family="sans-serif" font-size="14" lengthAdjust="spacing" textLength="297.6504" x="742.2578" y="1619.3076">Generates Python templates for execution</text><path d="M682.2578,1586.3125 L692.2578,1586.3125 C707.2578,1586.3125 707.2578,1614.4609 722.2578,1614.4609 L732.2578,1614.4609 " fill="none" style="stroke:#181818;stroke-width:1;"/><path d="M495.7051,1755.2031 L505.7051,1755.2031 C520.7051,1755.2031 520.7051,1586.3125 535.7051,1586.3125 L545.7051,1586.3125 " fill="none" style="stroke:#181818;stroke-width:1;"/><rect fill="#F1F1F1" height="36.2969" rx="12.5" ry="12.5" style="stroke:#181818;stroke-width:1.5;" width="146.082" x="545.7051" y="1680.7578"/><text fill="#000000" font-family="sans-serif" font-size="14" lengthAdjust="spacing" textLength="126.082" x="555.7051" y="1703.7529">Batch ETL Service</text><rect fill="#F1F1F1" height="36.2969" rx="12.5" ry="12.5" style="stroke:#181818;stroke-width:1.5;" width="172.2432" x="741.7871" y="1652.6094"/><text fill="#000000" font-family="sans-serif" font-size="14" lengthAdjust="spacing" textLength="152.2432" x="751.7871" y="1675.6045">Executes SQL queries</text><path d="M691.7871,1698.9063 L701.7871,1698.9063 C716.7871,1698.9063 716.7871,1670.7578 731.7871,1670.7578 L741.7871,1670.7578 " fill="none" style="stroke:#181818;stroke-width:1;"/><rect fill="#F1F1F1" height="36.2969" rx="12.5" ry="12.5" style="stroke:#181818;stroke-width:1.5;" width="278.2891" x="741.7871" y="1708.9063"/><text fill="#000000" font-family="sans-serif" font-size="14" lengthAdjust="spacing" textLength="258.2891" x="751.7871" y="1731.9014">Processes results and logs outcomes</text><path d="M691.7871,1698.9063 L701.7871,1698.9063 C716.7871,1698.9063 716.7871,1727.0547 731.7871,1727.0547 L741.7871,1727.0547 " fill="none" style="stroke:#181818;stroke-width:1;"/><path d="M495.7051,1755.2031 L505.7051,1755.2031 C520.7051,1755.2031 520.7051,1698.9063 535.7051,1698.9063 L545.7051,1698.9063 " fill="none" style="stroke:#181818;stroke-width:1;"/><rect fill="#F1F1F1" height="36.2969" rx="12.5" ry="12.5" style="stroke:#181818;stroke-width:1.5;" width="131.166" x="545.7051" y="1793.3516"/><text fill="#000000" font-family="sans-serif" font-size="14" lengthAdjust="spacing" textLength="111.166" x="555.7051" y="1816.3467">Alerting Service</text><rect fill="#F1F1F1" height="36.2969" rx="12.5" ry="12.5" style="stroke:#181818;stroke-width:1.5;" width="248.0811" x="726.8711" y="1765.2031"/><text fill="#000000" font-family="sans-serif" font-size="14" lengthAdjust="spacing" textLength="228.0811" x="736.8711" y="1788.1982">Triggers notifications for failures</text><path d="M676.8711,1811.5 L686.8711,1811.5 C701.8711,1811.5 701.8711,1783.3516 716.8711,1783.3516 L726.8711,1783.3516 " fill="none" style="stroke:#181818;stroke-width:1;"/><rect fill="#F1F1F1" height="36.2969" rx="12.5" ry="12.5" style="stroke:#181818;stroke-width:1.5;" width="251.5742" x="726.8711" y="1821.5"/><text fill="#000000" font-family="sans-serif" font-size="14" lengthAdjust="spacing" textLength="231.5742" x="736.8711" y="1844.4951">Maintains alert logs and statuses</text><path d="M676.8711,1811.5 L686.8711,1811.5 C701.8711,1811.5 701.8711,1839.6484 716.8711,1839.6484 L726.8711,1839.6484 " fill="none" style="stroke:#181818;stroke-width:1;"/><path d="M495.7051,1755.2031 L505.7051,1755.2031 C520.7051,1755.2031 520.7051,1811.5 535.7051,1811.5 L545.7051,1811.5 " fill="none" style="stroke:#181818;stroke-width:1;"/><rect fill="#F1F1F1" height="36.2969" rx="12.5" ry="12.5" style="stroke:#181818;stroke-width:1.5;" width="146.4785" x="545.7051" y="1905.9453"/><text fill="#000000" font-family="sans-serif" font-size="14" lengthAdjust="spacing" textLength="126.4785" x="555.7051" y="1928.9404">Shared Resources</text><rect fill="#F1F1F1" height="36.2969" rx="12.5" ry="12.5" style="stroke:#181818;stroke-width:1.5;" width="302.8643" x="742.1836" y="1877.7969"/><text fill="#000000" font-family="sans-serif" font-size="14" lengthAdjust="spacing" textLength="282.8643" x="752.1836" y="1900.792">Distributed systems: Hive, Spark, Presto</text><path d="M692.1836,1924.0938 L702.1836,1924.0938 C717.1836,1924.0938 717.1836,1895.9453 732.1836,1895.9453 L742.1836,1895.9453 " fill="none" style="stroke:#181818;stroke-width:1;"/><rect fill="#F1F1F1" height="36.2969" rx="12.5" ry="12.5" style="stroke:#181818;stroke-width:1.5;" width="242.1406" x="742.1836" y="1934.0938"/><text fill="#000000" font-family="sans-serif" font-size="14" lengthAdjust="spacing" textLength="222.1406" x="752.1836" y="1957.0889">Airflow or similar for scheduling</text><path d="M692.1836,1924.0938 L702.1836,1924.0938 C717.1836,1924.0938 717.1836,1952.2422 732.1836,1952.2422 L742.1836,1952.2422 " fill="none" style="stroke:#181818;stroke-width:1;"/><path d="M495.7051,1755.2031 L505.7051,1755.2031 C520.7051,1755.2031 520.7051,1924.0938 535.7051,1924.0938 L545.7051,1924.0938 " fill="none" style="stroke:#181818;stroke-width:1;"/><path d="M260.501,1473.7188 L270.501,1473.7188 C285.501,1473.7188 285.501,1755.2031 300.501,1755.2031 L310.501,1755.2031 " fill="none" style="stroke:#181818;stroke-width:1;"/><rect fill="#F1F1F1" height="36.2969" rx="12.5" ry="12.5" style="stroke:#181818;stroke-width:1.5;" width="224.6748" x="310.501" y="2131.1328"/><text fill="#000000" font-family="sans-serif" font-size="14" lengthAdjust="spacing" textLength="204.6748" x="320.501" y="2154.1279">Constraints and Optimization</text><rect fill="#F1F1F1" height="36.2969" rx="12.5" ry="12.5" style="stroke:#181818;stroke-width:1.5;" width="148.1396" x="585.1758" y="2018.5391"/><text fill="#000000" font-family="sans-serif" font-size="14" lengthAdjust="spacing" textLength="128.1396" x="595.1758" y="2041.5342">Query Time Limits</text><rect fill="#F1F1F1" height="36.2969" rx="12.5" ry="12.5" style="stroke:#181818;stroke-width:1.5;" width="274.4199" x="783.3154" y="1990.3906"/><text fill="#000000" font-family="sans-serif" font-size="14" lengthAdjust="spacing" textLength="254.4199" x="793.3154" y="2013.3857">10-minute limit during configuration</text><path d="M733.3154,2036.6875 L743.3154,2036.6875 C758.3154,2036.6875 758.3154,2008.5391 773.3154,2008.5391 L783.3154,2008.5391 " fill="none" style="stroke:#181818;stroke-width:1;"/><rect fill="#F1F1F1" height="36.2969" rx="12.5" ry="12.5" style="stroke:#181818;stroke-width:1.5;" width="222.5146" x="783.3154" y="2046.6875"/><text fill="#000000" font-family="sans-serif" font-size="14" lengthAdjust="spacing" textLength="202.5146" x="793.3154" y="2069.6826">15-minute runtime threshold</text><path d="M733.3154,2036.6875 L743.3154,2036.6875 C758.3154,2036.6875 758.3154,2064.8359 773.3154,2064.8359 L783.3154,2064.8359 " fill="none" style="stroke:#181818;stroke-width:1;"/><path d="M535.1758,2149.2813 L545.1758,2149.2813 C560.1758,2149.2813 560.1758,2036.6875 575.1758,2036.6875 L585.1758,2036.6875 " fill="none" style="stroke:#181818;stroke-width:1;"/><rect fill="#F1F1F1" height="36.2969" rx="12.5" ry="12.5" style="stroke:#181818;stroke-width:1.5;" width="149.5752" x="585.1758" y="2131.1328"/><text fill="#000000" font-family="sans-serif" font-size="14" lengthAdjust="spacing" textLength="129.5752" x="595.1758" y="2154.1279">Query Restrictions</text><rect fill="#F1F1F1" height="36.2969" rx="12.5" ry="12.5" style="stroke:#181818;stroke-width:1.5;" width="280.7021" x="784.751" y="2102.9844"/><text fill="#000000" font-family="sans-serif" font-size="14" lengthAdjust="spacing" textLength="260.7021" x="794.751" y="2125.9795">No full table scans or expensive joins</text><path d="M734.751,2149.2813 L744.751,2149.2813 C759.751,2149.2813 759.751,2121.1328 774.751,2121.1328 L784.751,2121.1328 " fill="none" style="stroke:#181818;stroke-width:1;"/><rect fill="#F1F1F1" height="36.2969" rx="12.5" ry="12.5" style="stroke:#181818;stroke-width:1.5;" width="195.8135" x="784.751" y="2159.2813"/><text fill="#000000" font-family="sans-serif" font-size="14" lengthAdjust="spacing" textLength="175.8135" x="794.751" y="2182.2764">Enforce partition filtering</text><path d="M734.751,2149.2813 L744.751,2149.2813 C759.751,2149.2813 759.751,2177.4297 774.751,2177.4297 L784.751,2177.4297 " fill="none" style="stroke:#181818;stroke-width:1;"/><path d="M535.1758,2149.2813 L545.1758,2149.2813 C560.1758,2149.2813 560.1758,2149.2813 575.1758,2149.2813 L585.1758,2149.2813 " fill="none" style="stroke:#181818;stroke-width:1;"/><rect fill="#F1F1F1" height="36.2969" rx="12.5" ry="12.5" style="stroke:#181818;stroke-width:1.5;" width="205.4385" x="585.1758" y="2243.7266"/><text fill="#000000" font-family="sans-serif" font-size="14" lengthAdjust="spacing" textLength="185.4385" x="595.1758" y="2266.7217">Concurrency Management</text><rect fill="#F1F1F1" height="36.2969" rx="12.5" ry="12.5" style="stroke:#181818;stroke-width:1.5;" width="319.3594" x="840.6143" y="2215.5781"/><text fill="#000000" font-family="sans-serif" font-size="14" lengthAdjust="spacing" textLength="299.3594" x="850.6143" y="2238.5732">Thread pools to limit simultaneous queries</text><path d="M790.6143,2261.875 L800.6143,2261.875 C815.6143,2261.875 815.6143,2233.7266 830.6143,2233.7266 L840.6143,2233.7266 " fill="none" style="stroke:#181818;stroke-width:1;"/><rect fill="#F1F1F1" height="36.2969" rx="12.5" ry="12.5" style="stroke:#181818;stroke-width:1.5;" width="343.4834" x="840.6143" y="2271.875"/><text fill="#000000" font-family="sans-serif" font-size="14" lengthAdjust="spacing" textLength="323.4834" x="850.6143" y="2294.8701">Alert if query waiting times exceed thresholds</text><path d="M790.6143,2261.875 L800.6143,2261.875 C815.6143,2261.875 815.6143,2290.0234 830.6143,2290.0234 L840.6143,2290.0234 " fill="none" style="stroke:#181818;stroke-width:1;"/><path d="M535.1758,2149.2813 L545.1758,2149.2813 C560.1758,2149.2813 560.1758,2261.875 575.1758,2261.875 L585.1758,2261.875 " fill="none" style="stroke:#181818;stroke-width:1;"/><path d="M260.501,1473.7188 L270.501,1473.7188 C285.501,1473.7188 285.501,2149.2813 300.501,2149.2813 L310.501,2149.2813 " fill="none" style="stroke:#181818;stroke-width:1;"/><rect fill="#F1F1F1" height="36.2969" rx="12.5" ry="12.5" style="stroke:#181818;stroke-width:1.5;" width="239.8643" x="310.501" y="2468.9141"/><text fill="#000000" font-family="sans-serif" font-size="14" lengthAdjust="spacing" textLength="219.8643" x="320.501" y="2491.9092">Logging, Monitoring, and Alerts</text><rect fill="#F1F1F1" height="36.2969" rx="12.5" ry="12.5" style="stroke:#181818;stroke-width:1.5;" width="75.7881" x="600.3652" y="2356.3203"/><text fill="#000000" font-family="sans-serif" font-size="14" lengthAdjust="spacing" textLength="55.7881" x="610.3652" y="2379.3154">Logging</text><rect fill="#F1F1F1" height="36.2969" rx="12.5" ry="12.5" style="stroke:#181818;stroke-width:1.5;" width="302.2012" x="726.1533" y="2328.1719"/><text fill="#000000" font-family="sans-serif" font-size="14" lengthAdjust="spacing" textLength="282.2012" x="736.1533" y="2351.167">Job statuses (started, succeeded, failed)</text><path d="M676.1533,2374.4688 L686.1533,2374.4688 C701.1533,2374.4688 701.1533,2346.3203 716.1533,2346.3203 L726.1533,2346.3203 " fill="none" style="stroke:#181818;stroke-width:1;"/><rect fill="#F1F1F1" height="36.2969" rx="12.5" ry="12.5" style="stroke:#181818;stroke-width:1.5;" width="206.5527" x="726.1533" y="2384.4688"/><text fill="#000000" font-family="sans-serif" font-size="14" lengthAdjust="spacing" textLength="186.5527" x="736.1533" y="2407.4639">Query execution durations</text><path d="M676.1533,2374.4688 L686.1533,2374.4688 C701.1533,2374.4688 701.1533,2402.6172 716.1533,2402.6172 L726.1533,2402.6172 " fill="none" style="stroke:#181818;stroke-width:1;"/><path d="M550.3652,2487.0625 L560.3652,2487.0625 C575.3652,2487.0625 575.3652,2374.4688 590.3652,2374.4688 L600.3652,2374.4688 " fill="none" style="stroke:#181818;stroke-width:1;"/><rect fill="#F1F1F1" height="36.2969" rx="12.5" ry="12.5" style="stroke:#181818;stroke-width:1.5;" width="94.8672" x="600.3652" y="2468.9141"/><text fill="#000000" font-family="sans-serif" font-size="14" lengthAdjust="spacing" textLength="74.8672" x="610.3652" y="2491.9092">Monitoring</text><rect fill="#F1F1F1" height="36.2969" rx="12.5" ry="12.5" style="stroke:#181818;stroke-width:1.5;" width="248.6416" x="745.2324" y="2440.7656"/><text fill="#000000" font-family="sans-serif" font-size="14" lengthAdjust="spacing" textLength="228.6416" x="755.2324" y="2463.7607">CPU, memory, and I/O utilization</text><path d="M695.2324,2487.0625 L705.2324,2487.0625 C720.2324,2487.0625 720.2324,2458.9141 735.2324,2458.9141 L745.2324,2458.9141 " fill="none" style="stroke:#181818;stroke-width:1;"/><rect fill="#F1F1F1" height="36.2969" rx="12.5" ry="12.5" style="stroke:#181818;stroke-width:1.5;" width="170.5684" x="745.2324" y="2497.0625"/><text fill="#000000" font-family="sans-serif" font-size="14" lengthAdjust="spacing" textLength="150.5684" x="755.2324" y="2520.0576">Upstream job failures</text><path d="M695.2324,2487.0625 L705.2324,2487.0625 C720.2324,2487.0625 720.2324,2515.2109 735.2324,2515.2109 L745.2324,2515.2109 " fill="none" style="stroke:#181818;stroke-width:1;"/><path d="M550.3652,2487.0625 L560.3652,2487.0625 C575.3652,2487.0625 575.3652,2487.0625 590.3652,2487.0625 L600.3652,2487.0625 " fill="none" style="stroke:#181818;stroke-width:1;"/><rect fill="#F1F1F1" height="36.2969" rx="12.5" ry="12.5" style="stroke:#181818;stroke-width:1.5;" width="60.6191" x="600.3652" y="2581.5078"/><text fill="#000000" font-family="sans-serif" font-size="14" lengthAdjust="spacing" textLength="40.6191" x="610.3652" y="2604.5029">Alerts</text><rect fill="#F1F1F1" height="36.2969" rx="12.5" ry="12.5" style="stroke:#181818;stroke-width:1.5;" width="226.4316" x="710.9844" y="2553.3594"/><text fill="#000000" font-family="sans-serif" font-size="14" lengthAdjust="spacing" textLength="206.4316" x="720.9844" y="2576.3545">Low-urgency for minor issues</text><path d="M660.9844,2599.6563 L670.9844,2599.6563 C685.9844,2599.6563 685.9844,2571.5078 700.9844,2571.5078 L710.9844,2571.5078 " fill="none" style="stroke:#181818;stroke-width:1;"/><rect fill="#F1F1F1" height="36.2969" rx="12.5" ry="12.5" style="stroke:#181818;stroke-width:1.5;" width="245.5244" x="710.9844" y="2609.6563"/><text fill="#000000" font-family="sans-serif" font-size="14" lengthAdjust="spacing" textLength="225.5244" x="720.9844" y="2632.6514">High-urgency for critical failures</text><path d="M660.9844,2599.6563 L670.9844,2599.6563 C685.9844,2599.6563 685.9844,2627.8047 700.9844,2627.8047 L710.9844,2627.8047 " fill="none" style="stroke:#181818;stroke-width:1;"/><path d="M550.3652,2487.0625 L560.3652,2487.0625 C575.3652,2487.0625 575.3652,2599.6563 590.3652,2599.6563 L600.3652,2599.6563 " fill="none" style="stroke:#181818;stroke-width:1;"/><path d="M260.501,1473.7188 L270.501,1473.7188 C285.501,1473.7188 285.501,2487.0625 300.501,2487.0625 L310.501,2487.0625 " fill="none" style="stroke:#181818;stroke-width:1;"/><rect fill="#F1F1F1" height="36.2969" rx="12.5" ry="12.5" style="stroke:#181818;stroke-width:1.5;" width="155.1191" x="310.501" y="2778.5469"/><text fill="#000000" font-family="sans-serif" font-size="14" lengthAdjust="spacing" textLength="135.1191" x="320.501" y="2801.542">Advanced Features</text><rect fill="#F1F1F1" height="36.2969" rx="12.5" ry="12.5" style="stroke:#181818;stroke-width:1.5;" width="196.5928" x="515.6201" y="2665.9531"/><text fill="#000000" font-family="sans-serif" font-size="14" lengthAdjust="spacing" textLength="176.5928" x="525.6201" y="2688.9482">Cross Data Center Audits</text><rect fill="#F1F1F1" height="36.2969" rx="12.5" ry="12.5" style="stroke:#181818;stroke-width:1.5;" width="315.5107" x="762.2129" y="2665.9531"/><text fill="#000000" font-family="sans-serif" font-size="14" lengthAdjust="spacing" textLength="295.5107" x="772.2129" y="2688.9482">Compare data consistency across replicas</text><path d="M712.2129,2684.1016 L722.2129,2684.1016 C737.2129,2684.1016 737.2129,2684.1016 752.2129,2684.1016 L762.2129,2684.1016 " fill="none" style="stroke:#181818;stroke-width:1;"/><path d="M465.6201,2796.6953 L475.6201,2796.6953 C490.6201,2796.6953 490.6201,2684.1016 505.6201,2684.1016 L515.6201,2684.1016 " fill="none" style="stroke:#181818;stroke-width:1;"/><rect fill="#F1F1F1" height="36.2969" rx="12.5" ry="12.5" style="stroke:#181818;stroke-width:1.5;" width="156.6914" x="515.6201" y="2750.3984"/><text fill="#000000" font-family="sans-serif" font-size="14" lengthAdjust="spacing" textLength="136.6914" x="525.6201" y="2773.3936">Pipeline Integration</text><rect fill="#F1F1F1" height="36.2969" rx="12.5" ry="12.5" style="stroke:#181818;stroke-width:1.5;" width="267.4814" x="722.3115" y="2722.25"/><text fill="#000000" font-family="sans-serif" font-size="14" lengthAdjust="spacing" textLength="247.4814" x="732.3115" y="2745.2451">Disable downstream jobs on failure</text><path d="M672.3115,2768.5469 L682.3115,2768.5469 C697.3115,2768.5469 697.3115,2740.3984 712.3115,2740.3984 L722.3115,2740.3984 " fill="none" style="stroke:#181818;stroke-width:1;"/><rect fill="#F1F1F1" height="36.2969" rx="12.5" ry="12.5" style="stroke:#181818;stroke-width:1.5;" width="156.042" x="722.3115" y="2778.5469"/><text fill="#000000" font-family="sans-serif" font-size="14" lengthAdjust="spacing" textLength="136.042" x="732.3115" y="2801.542">Notify stakeholders</text><path d="M672.3115,2768.5469 L682.3115,2768.5469 C697.3115,2768.5469 697.3115,2796.6953 712.3115,2796.6953 L722.3115,2796.6953 " fill="none" style="stroke:#181818;stroke-width:1;"/><path d="M465.6201,2796.6953 L475.6201,2796.6953 C490.6201,2796.6953 490.6201,2768.5469 505.6201,2768.5469 L515.6201,2768.5469 " fill="none" style="stroke:#181818;stroke-width:1;"/><rect fill="#F1F1F1" height="36.2969" rx="12.5" ry="12.5" style="stroke:#181818;stroke-width:1.5;" width="160.8955" x="515.6201" y="2862.9922"/><text fill="#000000" font-family="sans-serif" font-size="14" lengthAdjust="spacing" textLength="140.8955" x="525.6201" y="2885.9873">Metadata Utilization</text><rect fill="#F1F1F1" height="36.2969" rx="12.5" ry="12.5" style="stroke:#181818;stroke-width:1.5;" width="243.4053" x="726.5156" y="2834.8438"/><text fill="#000000" font-family="sans-serif" font-size="14" lengthAdjust="spacing" textLength="223.4053" x="736.5156" y="2857.8389">Schema-based query templates</text><path d="M676.5156,2881.1406 L686.5156,2881.1406 C701.5156,2881.1406 701.5156,2852.9922 716.5156,2852.9922 L726.5156,2852.9922 " fill="none" style="stroke:#181818;stroke-width:1;"/><rect fill="#F1F1F1" height="36.2969" rx="12.5" ry="12.5" style="stroke:#181818;stroke-width:1.5;" width="304.8945" x="726.5156" y="2891.1406"/><text fill="#000000" font-family="sans-serif" font-size="14" lengthAdjust="spacing" textLength="284.8945" x="736.5156" y="2914.1357">Automated updates for schema changes</text><path d="M676.5156,2881.1406 L686.5156,2881.1406 C701.5156,2881.1406 701.5156,2909.2891 716.5156,2909.2891 L726.5156,2909.2891 " fill="none" style="stroke:#181818;stroke-width:1;"/><path d="M465.6201,2796.6953 L475.6201,2796.6953 C490.6201,2796.6953 490.6201,2881.1406 505.6201,2881.1406 L515.6201,2881.1406 " fill="none" style="stroke:#181818;stroke-width:1;"/><path d="M260.501,1473.7188 L270.501,1473.7188 C285.501,1473.7188 285.501,2796.6953 300.501,2796.6953 L310.501,2796.6953 " fill="none" style="stroke:#181818;stroke-width:1;"/><!--SRC=[VLRRLXit57ttLvn7O642MIJDOlKXX4kQr2G6G_eiDFACWaQQw69m_w3_qI_hbtGVQSOUQ5SUGcpvw5pttaVlGnG-jjfMhUWcUtGkehWNGT474ML3fwdIKTkQ5iglj5IJlJtwPADtLP9HEullUrkZUVAT2so4qokXRSG_gk2IVYHXT5oJi1NXNDKUtuhXD_m26vKDSspyPrIWJddjAYs5CTcKpdMhR43OG6wPKwNhuhTuEfKoUI7xRsUkxOoAogeGXXFS3ZYHuz2RwtTM_qWZyrk4Cxh_JdyqwssbEj0N9V6By2MrkLShPMD9QkO65zV9-TIIt0Qc7NLG7-pJcS1bMtcnMonlL6TGAZULP8EIbQrLzh9jq4pLg2x7A9VEKPwC5BJXsCfxv_l0dogSw2KttBMuZtRsWQjK0YbodbeT0jV3hS-9z5rhXrhoFBXlqVCyU-yptUgOSysJ2B9HhPYoRPLhVMPyOHjXqIjQ6lMaxtN6mHB1KQQjERheDhNdLj-kEvKTzvNtvmozIgzqXPaZ9vDQIsUDaWz3e2V1kP_amG7NRHVeLtfzJ8rB7lvCLU1QrnwDZCYrT_8YpCZJNL2UK8qD8kCzlAh4clxvwszwatrT9HFrz9Rn-XCl5pOahsZ51bovqhMb1xKE8n_NIVdrJtpmN0ISF2hrC7KhvQVyYO8mFKg-nWQv_iV18dfkCSCfDZnorAwUqFjjtxuuExNS4RrIXPnmz7oCj5W3lYrG-YDfd-5HebuccniZJ4-ncxjp4amJ-kxkXnmGhKe63LTFIgP1E30AetmC6GnBeGsQD03CrUKOJWYZZ2dqPNAoBuCk816Y00iZwoWwEZhSFpmy7ELmkaA0ZT6LgvG71FhxIChdynjdL8zZ8MNF_DzqtKnduBUXKoyRpPn3gZcT3q8-A6ZQLX_v0eZD0iR9IwyAgLdvMc55dRjN33z2RJYDGFDrR6247dSc7t3npxhLA_B5xUnvi8jiX1kBwnba5fevD77k7PU0dz1NW2pa70otrgKeNTktD4_XkSWp2Rsk0OH0ra581dh-pwm6eOTxTbG2SAHdSriqG6y500MGKGvtpw6ANjyd9cF840idwFTAxTC2S7_OPs4DqVKpr7vft2EZE421ZF0vdL3WXGeclSZtmCrPVEqYRFyKcpuMfh5651thKpawd68D8XCoV0gTpCG13vQwnbhPelRepM3f4qGMVcA3B9j1O4e0L8hIv8YANnmjap5blI5hmUh9K-vugu5xtvtUyDwYCga8JOWwusUfJLI-59ch16PztYXNBr1rYsn4HPrp9Z0NIZte630Wh78fFCT9dZ_fPJvTqwCeEuuh2yXEAWndKs5c1EZ9mhqF7baTdS-VkTc5q9EzhKq9yNb4Ozh9RmvLxLD8ahtpHyQKgdQ7jSc9RE3FinXjWMtGNdFcT_lKgjRvTSdYqwklX8jcD7LizmxpKABDh1mZU9GqP_quJRxEVLtc1Mdn5rio3TtAQZ0saP0EVgICdT9fjUAbLz4bwB-9TERnCYXlX3EC2pARNnHX-s1XYSyFfl6JGSXypvSdGd4rrrr-dF1p3A-fKQ7WL0POvHxjjcH0pGuP3d3C3mGCuq7nP9NlswkYo2dSlMpXOhpd2rWsWjL3AKKyDvZDgQisEbRU1sNVm_8z17DuSKxcHjXuTpKZh3H-sj7HmUl3ryS7xtOklKQEAz2DZduvEJu-ENvBTxTdn3_lJdO-pcTKj8IgGKLmVtVoMQm4tHHcde3-odu-_tqu0B5MsZkRsVBvszNMuEtnz0DemXh8U_HgSgwM0ep13ObNgAsnMculf-ycCrIHGBWJKdPovk3NyzfP_0i0]--></g></svg>