<svg xmlns="http://www.w3.org/2000/svg" xmlns:xlink="http://www.w3.org/1999/xlink" contentStyleType="text/css" data-diagram-type="MINDMAP" height="3625px" preserveAspectRatio="none" style="width:1239px;height:3625px;background:#FFFFFF;" version="1.1" viewBox="0 0 1239 3625" width="1239px" zoomAndPan="magnify"><defs/><g><rect fill="#F1F1F1" height="36.2969" rx="12.5" ry="12.5" style="stroke:#181818;stroke-width:1.5;" width="267.1602" x="10" y="1793.3516"/><text fill="#000000" font-family="sans-serif" font-size="14" lengthAdjust="spacing" textLength="247.1602" x="20" y="1816.3467">Top 10 Products Dashboard Design</text><rect fill="#F1F1F1" height="36.2969" rx="12.5" ry="12.5" style="stroke:#181818;stroke-width:1.5;" width="118.2666" x="327.1602" y="273.3359"/><text fill="#000000" font-family="sans-serif" font-size="14" lengthAdjust="spacing" textLength="98.2666" x="337.1602" y="296.3311">Requirements</text><rect fill="#F1F1F1" height="36.2969" rx="12.5" ry="12.5" style="stroke:#181818;stroke-width:1.5;" width="92.7822" x="495.4268" y="132.5938"/><text fill="#000000" font-family="sans-serif" font-size="14" lengthAdjust="spacing" textLength="72.7822" x="505.4268" y="155.5889">Functional</text><rect fill="#F1F1F1" height="36.2969" rx="12.5" ry="12.5" style="stroke:#181818;stroke-width:1.5;" width="305.2158" x="638.209" y="20"/><text fill="#000000" font-family="sans-serif" font-size="14" lengthAdjust="spacing" textLength="285.2158" x="648.209" y="42.9951">Display top 10 products by sales volume</text><path d="M588.209,150.7422 L598.209,150.7422 C613.209,150.7422 613.209,38.1484 628.209,38.1484 L638.209,38.1484" fill="none" style="stroke:#181818;stroke-width:1;"/><rect fill="#F1F1F1" height="36.2969" rx="12.5" ry="12.5" style="stroke:#181818;stroke-width:1.5;" width="398.793" x="638.209" y="76.2969"/><text fill="#000000" font-family="sans-serif" font-size="14" lengthAdjust="spacing" textLength="378.793" x="648.209" y="99.292">Support time intervals (hour, day, week, month, year)</text><path d="M588.209,150.7422 L598.209,150.7422 C613.209,150.7422 613.209,94.4453 628.209,94.4453 L638.209,94.4453" fill="none" style="stroke:#181818;stroke-width:1;"/><rect fill="#F1F1F1" height="36.2969" rx="12.5" ry="12.5" style="stroke:#181818;stroke-width:1.5;" width="240.7803" x="638.209" y="132.5938"/><text fill="#000000" font-family="sans-serif" font-size="14" lengthAdjust="spacing" textLength="220.7803" x="648.209" y="155.5889">Show both rankings and counts</text><path d="M588.209,150.7422 L598.209,150.7422 C613.209,150.7422 613.209,150.7422 628.209,150.7422 L638.209,150.7422" fill="none" style="stroke:#181818;stroke-width:1;"/><rect fill="#F1F1F1" height="36.2969" rx="12.5" ry="12.5" style="stroke:#181818;stroke-width:1.5;" width="326.0586" x="638.209" y="188.8906"/><text fill="#000000" font-family="sans-serif" font-size="14" lengthAdjust="spacing" textLength="306.0586" x="648.209" y="211.8857">Display approximate results for recent data</text><path d="M588.209,150.7422 L598.209,150.7422 C613.209,150.7422 613.209,207.0391 628.209,207.0391 L638.209,207.0391" fill="none" style="stroke:#181818;stroke-width:1;"/><rect fill="#F1F1F1" height="36.2969" rx="12.5" ry="12.5" style="stroke:#181818;stroke-width:1.5;" width="288.8438" x="638.209" y="245.1875"/><text fill="#000000" font-family="sans-serif" font-size="14" lengthAdjust="spacing" textLength="268.8438" x="648.209" y="268.1826">Display accurate results for older data</text><path d="M588.209,150.7422 L598.209,150.7422 C613.209,150.7422 613.209,263.3359 628.209,263.3359 L638.209,263.3359" fill="none" style="stroke:#181818;stroke-width:1;"/><path d="M445.4268,291.4844 L455.4268,291.4844 C470.4268,291.4844 470.4268,150.7422 485.4268,150.7422 L495.4268,150.7422" fill="none" style="stroke:#181818;stroke-width:1;"/><rect fill="#F1F1F1" height="36.2969" rx="12.5" ry="12.5" style="stroke:#181818;stroke-width:1.5;" width="125.7451" x="495.4268" y="414.0781"/><text fill="#000000" font-family="sans-serif" font-size="14" lengthAdjust="spacing" textLength="105.7451" x="505.4268" y="437.0732">Non-Functional</text><rect fill="#F1F1F1" height="36.2969" rx="12.5" ry="12.5" style="stroke:#181818;stroke-width:1.5;" width="287.6133" x="671.1719" y="301.4844"/><text fill="#000000" font-family="sans-serif" font-size="14" lengthAdjust="spacing" textLength="267.6133" x="681.1719" y="324.4795">Handle 10 billion sales events per day</text><path d="M621.1719,432.2266 L631.1719,432.2266 C646.1719,432.2266 646.1719,319.6328 661.1719,319.6328 L671.1719,319.6328" fill="none" style="stroke:#181818;stroke-width:1;"/><rect fill="#F1F1F1" height="36.2969" rx="12.5" ry="12.5" style="stroke:#181818;stroke-width:1.5;" width="270.4619" x="671.1719" y="357.7813"/><text fill="#000000" font-family="sans-serif" font-size="14" lengthAdjust="spacing" textLength="250.4619" x="681.1719" y="380.7764">Low request rate (employee facing)</text><path d="M621.1719,432.2266 L631.1719,432.2266 C646.1719,432.2266 646.1719,375.9297 661.1719,375.9297 L671.1719,375.9297" fill="none" style="stroke:#181818;stroke-width:1;"/><rect fill="#F1F1F1" height="36.2969" rx="12.5" ry="12.5" style="stroke:#181818;stroke-width:1.5;" width="191.9648" x="671.1719" y="414.0781"/><text fill="#000000" font-family="sans-serif" font-size="14" lengthAdjust="spacing" textLength="171.9648" x="681.1719" y="437.0732">~1M products in catalog</text><path d="M621.1719,432.2266 L631.1719,432.2266 C646.1719,432.2266 646.1719,432.2266 661.1719,432.2266 L671.1719,432.2266" fill="none" style="stroke:#181818;stroke-width:1;"/><rect fill="#F1F1F1" height="36.2969" rx="12.5" ry="12.5" style="stroke:#181818;stroke-width:1.5;" width="251.1299" x="671.1719" y="470.375"/><text fill="#000000" font-family="sans-serif" font-size="14" lengthAdjust="spacing" textLength="231.1299" x="681.1719" y="493.3701">Accuracy prioritized over latency</text><path d="M621.1719,432.2266 L631.1719,432.2266 C646.1719,432.2266 646.1719,488.5234 661.1719,488.5234 L671.1719,488.5234" fill="none" style="stroke:#181818;stroke-width:1;"/><rect fill="#F1F1F1" height="36.2969" rx="12.5" ry="12.5" style="stroke:#181818;stroke-width:1.5;" width="217.7295" x="671.1719" y="526.6719"/><text fill="#000000" font-family="sans-serif" font-size="14" lengthAdjust="spacing" textLength="197.7295" x="681.1719" y="549.667">No need for high availability</text><path d="M621.1719,432.2266 L631.1719,432.2266 C646.1719,432.2266 646.1719,544.8203 661.1719,544.8203 L671.1719,544.8203" fill="none" style="stroke:#181818;stroke-width:1;"/><path d="M445.4268,291.4844 L455.4268,291.4844 C470.4268,291.4844 470.4268,432.2266 485.4268,432.2266 L495.4268,432.2266" fill="none" style="stroke:#181818;stroke-width:1;"/><path d="M277.1602,1811.5 L287.1602,1811.5 C302.1602,1811.5 302.1602,291.4844 317.1602,291.4844 L327.1602,291.4844" fill="none" style="stroke:#181818;stroke-width:1;"/><rect fill="#F1F1F1" height="36.2969" rx="12.5" ry="12.5" style="stroke:#181818;stroke-width:1.5;" width="113.6182" x="327.1602" y="1033.3438"/><text fill="#000000" font-family="sans-serif" font-size="14" lengthAdjust="spacing" textLength="93.6182" x="337.1602" y="1056.3389">Architectures</text><rect fill="#F1F1F1" height="36.2969" rx="12.5" ry="12.5" style="stroke:#181818;stroke-width:1.5;" width="167.1436" x="490.7783" y="808.1563"/><text fill="#000000" font-family="sans-serif" font-size="14" lengthAdjust="spacing" textLength="147.1436" x="500.7783" y="831.1514">Lambda Architecture</text><rect fill="#F1F1F1" height="36.2969" rx="12.5" ry="12.5" style="stroke:#181818;stroke-width:1.5;" width="103.7266" x="707.9219" y="667.4141"/><text fill="#000000" font-family="sans-serif" font-size="14" lengthAdjust="spacing" textLength="83.7266" x="717.9219" y="690.4092">Batch Layer</text><rect fill="#F1F1F1" height="36.2969" rx="12.5" ry="12.5" style="stroke:#181818;stroke-width:1.5;" width="255.9287" x="861.6484" y="582.9688"/><text fill="#000000" font-family="sans-serif" font-size="14" lengthAdjust="spacing" textLength="235.9287" x="871.6484" y="605.9639">Process historical data accurately</text><path d="M811.6484,685.5625 L821.6484,685.5625 C836.6484,685.5625 836.6484,601.1172 851.6484,601.1172 L861.6484,601.1172" fill="none" style="stroke:#181818;stroke-width:1;"/><rect fill="#F1F1F1" height="36.2969" rx="12.5" ry="12.5" style="stroke:#181818;stroke-width:1.5;" width="117.2207" x="861.6484" y="639.2656"/><text fill="#000000" font-family="sans-serif" font-size="14" lengthAdjust="spacing" textLength="97.2207" x="871.6484" y="662.2607">Store in HDFS</text><path d="M811.6484,685.5625 L821.6484,685.5625 C836.6484,685.5625 836.6484,657.4141 851.6484,657.4141 L861.6484,657.4141" fill="none" style="stroke:#181818;stroke-width:1;"/><rect fill="#F1F1F1" height="36.2969" rx="12.5" ry="12.5" style="stroke:#181818;stroke-width:1.5;" width="210.1484" x="861.6484" y="695.5625"/><text fill="#000000" font-family="sans-serif" font-size="14" lengthAdjust="spacing" textLength="190.1484" x="871.6484" y="718.5576">Run rollup jobs periodically</text><path d="M811.6484,685.5625 L821.6484,685.5625 C836.6484,685.5625 836.6484,713.7109 851.6484,713.7109 L861.6484,713.7109" fill="none" style="stroke:#181818;stroke-width:1;"/><rect fill="#F1F1F1" height="36.2969" rx="12.5" ry="12.5" style="stroke:#181818;stroke-width:1.5;" width="214.1885" x="861.6484" y="751.8594"/><text fill="#000000" font-family="sans-serif" font-size="14" lengthAdjust="spacing" textLength="194.1885" x="871.6484" y="774.8545">Write results to batch_table</text><path d="M811.6484,685.5625 L821.6484,685.5625 C836.6484,685.5625 836.6484,770.0078 851.6484,770.0078 L861.6484,770.0078" fill="none" style="stroke:#181818;stroke-width:1;"/><path d="M657.9219,826.3047 L667.9219,826.3047 C682.9219,826.3047 682.9219,685.5625 697.9219,685.5625 L707.9219,685.5625" fill="none" style="stroke:#181818;stroke-width:1;"/><rect fill="#F1F1F1" height="36.2969" rx="12.5" ry="12.5" style="stroke:#181818;stroke-width:1.5;" width="136.0947" x="707.9219" y="864.4531"/><text fill="#000000" font-family="sans-serif" font-size="14" lengthAdjust="spacing" textLength="116.0947" x="717.9219" y="887.4482">Streaming Layer</text><rect fill="#F1F1F1" height="36.2969" rx="12.5" ry="12.5" style="stroke:#181818;stroke-width:1.5;" width="231.6953" x="894.0166" y="808.1563"/><text fill="#000000" font-family="sans-serif" font-size="14" lengthAdjust="spacing" textLength="211.6953" x="904.0166" y="831.1514">Process real-time data quickly</text><path d="M844.0166,882.6016 L854.0166,882.6016 C869.0166,882.6016 869.0166,826.3047 884.0166,826.3047 L894.0166,826.3047" fill="none" style="stroke:#181818;stroke-width:1;"/><rect fill="#F1F1F1" height="36.2969" rx="12.5" ry="12.5" style="stroke:#181818;stroke-width:1.5;" width="161.8252" x="894.0166" y="864.4531"/><text fill="#000000" font-family="sans-serif" font-size="14" lengthAdjust="spacing" textLength="141.8252" x="904.0166" y="887.4482">Approximate results</text><path d="M844.0166,882.6016 L854.0166,882.6016 C869.0166,882.6016 869.0166,882.6016 884.0166,882.6016 L894.0166,882.6016" fill="none" style="stroke:#181818;stroke-width:1;"/><rect fill="#F1F1F1" height="36.2969" rx="12.5" ry="12.5" style="stroke:#181818;stroke-width:1.5;" width="165.2979" x="894.0166" y="920.75"/><text fill="#000000" font-family="sans-serif" font-size="14" lengthAdjust="spacing" textLength="145.2979" x="904.0166" y="943.7451">Write to speed_table</text><path d="M844.0166,882.6016 L854.0166,882.6016 C869.0166,882.6016 869.0166,938.8984 884.0166,938.8984 L894.0166,938.8984" fill="none" style="stroke:#181818;stroke-width:1;"/><path d="M657.9219,826.3047 L667.9219,826.3047 C682.9219,826.3047 682.9219,882.6016 697.9219,882.6016 L707.9219,882.6016" fill="none" style="stroke:#181818;stroke-width:1;"/><rect fill="#F1F1F1" height="36.2969" rx="12.5" ry="12.5" style="stroke:#181818;stroke-width:1.5;" width="116.6738" x="707.9219" y="1005.1953"/><text fill="#000000" font-family="sans-serif" font-size="14" lengthAdjust="spacing" textLength="96.6738" x="717.9219" y="1028.1904">Serving Layer</text><rect fill="#F1F1F1" height="36.2969" rx="12.5" ry="12.5" style="stroke:#181818;stroke-width:1.5;" width="352.6641" x="874.5957" y="977.0469"/><text fill="#000000" font-family="sans-serif" font-size="14" lengthAdjust="spacing" textLength="332.6641" x="884.5957" y="1000.042">Combine data from batch and streaming layers</text><path d="M824.5957,1023.3438 L834.5957,1023.3438 C849.5957,1023.3438 849.5957,995.1953 864.5957,995.1953 L874.5957,995.1953" fill="none" style="stroke:#181818;stroke-width:1;"/><rect fill="#F1F1F1" height="36.2969" rx="12.5" ry="12.5" style="stroke:#181818;stroke-width:1.5;" width="332.3682" x="874.5957" y="1033.3438"/><text fill="#000000" font-family="sans-serif" font-size="14" lengthAdjust="spacing" textLength="312.3682" x="884.5957" y="1056.3389">Create top_1000 view for dashboard queries</text><path d="M824.5957,1023.3438 L834.5957,1023.3438 C849.5957,1023.3438 849.5957,1051.4922 864.5957,1051.4922 L874.5957,1051.4922" fill="none" style="stroke:#181818;stroke-width:1;"/><path d="M657.9219,826.3047 L667.9219,826.3047 C682.9219,826.3047 682.9219,1023.3438 697.9219,1023.3438 L707.9219,1023.3438" fill="none" style="stroke:#181818;stroke-width:1;"/><path d="M440.7783,1051.4922 L450.7783,1051.4922 C465.7783,1051.4922 465.7783,826.3047 480.7783,826.3047 L490.7783,826.3047" fill="none" style="stroke:#181818;stroke-width:1;"/><rect fill="#F1F1F1" height="36.2969" rx="12.5" ry="12.5" style="stroke:#181818;stroke-width:1.5;" width="154.8867" x="490.7783" y="1286.6797"/><text fill="#000000" font-family="sans-serif" font-size="14" lengthAdjust="spacing" textLength="134.8867" x="500.7783" y="1309.6748">Kappa Architecture</text><rect fill="#F1F1F1" height="36.2969" rx="12.5" ry="12.5" style="stroke:#181818;stroke-width:1.5;" width="223.0889" x="695.665" y="1089.6406"/><text fill="#000000" font-family="sans-serif" font-size="14" lengthAdjust="spacing" textLength="203.0889" x="705.665" y="1112.6357">Single processing framework</text><path d="M645.665,1304.8281 L655.665,1304.8281 C670.665,1304.8281 670.665,1107.7891 685.665,1107.7891 L695.665,1107.7891" fill="none" style="stroke:#181818;stroke-width:1;"/><rect fill="#F1F1F1" height="36.2969" rx="12.5" ry="12.5" style="stroke:#181818;stroke-width:1.5;" width="325.6826" x="695.665" y="1145.9375"/><text fill="#000000" font-family="sans-serif" font-size="14" lengthAdjust="spacing" textLength="305.6826" x="705.665" y="1168.9326">Process all data through streaming pipeline</text><path d="M645.665,1304.8281 L655.665,1304.8281 C670.665,1304.8281 670.665,1164.0859 685.665,1164.0859 L695.665,1164.0859" fill="none" style="stroke:#181818;stroke-width:1;"/><rect fill="#F1F1F1" height="36.2969" rx="12.5" ry="12.5" style="stroke:#181818;stroke-width:1.5;" width="188.8477" x="695.665" y="1202.2344"/><text fill="#000000" font-family="sans-serif" font-size="14" lengthAdjust="spacing" textLength="168.8477" x="705.665" y="1225.2295">No separate batch layer</text><path d="M645.665,1304.8281 L655.665,1304.8281 C670.665,1304.8281 670.665,1220.3828 685.665,1220.3828 L695.665,1220.3828" fill="none" style="stroke:#181818;stroke-width:1;"/><rect fill="#F1F1F1" height="36.2969" rx="12.5" ry="12.5" style="stroke:#181818;stroke-width:1.5;" width="50.0576" x="695.665" y="1314.8281"/><text fill="#000000" font-family="sans-serif" font-size="14" lengthAdjust="spacing" textLength="30.0576" x="705.665" y="1337.8232">Pros</text><rect fill="#F1F1F1" height="36.2969" rx="12.5" ry="12.5" style="stroke:#181818;stroke-width:1.5;" width="163.3359" x="795.7227" y="1258.5313"/><text fill="#000000" font-family="sans-serif" font-size="14" lengthAdjust="spacing" textLength="143.3359" x="805.7227" y="1281.5264">Simpler architecture</text><path d="M745.7227,1332.9766 L755.7227,1332.9766 C770.7227,1332.9766 770.7227,1276.6797 785.7227,1276.6797 L795.7227,1276.6797" fill="none" style="stroke:#181818;stroke-width:1;"/><rect fill="#F1F1F1" height="36.2969" rx="12.5" ry="12.5" style="stroke:#181818;stroke-width:1.5;" width="207.0313" x="795.7227" y="1314.8281"/><text fill="#000000" font-family="sans-serif" font-size="14" lengthAdjust="spacing" textLength="187.0313" x="805.7227" y="1337.8232">Single codebase and stack</text><path d="M745.7227,1332.9766 L755.7227,1332.9766 C770.7227,1332.9766 770.7227,1332.9766 785.7227,1332.9766 L795.7227,1332.9766" fill="none" style="stroke:#181818;stroke-width:1;"/><rect fill="#F1F1F1" height="36.2969" rx="12.5" ry="12.5" style="stroke:#181818;stroke-width:1.5;" width="311.8604" x="795.7227" y="1371.125"/><text fill="#000000" font-family="sans-serif" font-size="14" lengthAdjust="spacing" textLength="291.8604" x="805.7227" y="1394.1201">Faster error recovery (only affected data)</text><path d="M745.7227,1332.9766 L755.7227,1332.9766 C770.7227,1332.9766 770.7227,1389.2734 785.7227,1389.2734 L795.7227,1389.2734" fill="none" style="stroke:#181818;stroke-width:1;"/><path d="M645.665,1304.8281 L655.665,1304.8281 C670.665,1304.8281 670.665,1332.9766 685.665,1332.9766 L695.665,1332.9766" fill="none" style="stroke:#181818;stroke-width:1;"/><rect fill="#F1F1F1" height="36.2969" rx="12.5" ry="12.5" style="stroke:#181818;stroke-width:1.5;" width="54.5078" x="695.665" y="1455.5703"/><text fill="#000000" font-family="sans-serif" font-size="14" lengthAdjust="spacing" textLength="34.5078" x="705.665" y="1478.5654">Cons</text><rect fill="#F1F1F1" height="36.2969" rx="12.5" ry="12.5" style="stroke:#181818;stroke-width:1.5;" width="253.3379" x="800.1729" y="1427.4219"/><text fill="#000000" font-family="sans-serif" font-size="14" lengthAdjust="spacing" textLength="233.3379" x="810.1729" y="1450.417">Costlier for large data processing</text><path d="M750.1729,1473.7188 L760.1729,1473.7188 C775.1729,1473.7188 775.1729,1445.5703 790.1729,1445.5703 L800.1729,1445.5703" fill="none" style="stroke:#181818;stroke-width:1;"/><rect fill="#F1F1F1" height="36.2969" rx="12.5" ry="12.5" style="stroke:#181818;stroke-width:1.5;" width="230.6904" x="800.1729" y="1483.7188"/><text fill="#000000" font-family="sans-serif" font-size="14" lengthAdjust="spacing" textLength="210.6904" x="810.1729" y="1506.7139">Storage limitations with Kafka</text><path d="M750.1729,1473.7188 L760.1729,1473.7188 C775.1729,1473.7188 775.1729,1501.8672 790.1729,1501.8672 L800.1729,1501.8672" fill="none" style="stroke:#181818;stroke-width:1;"/><path d="M645.665,1304.8281 L655.665,1304.8281 C670.665,1304.8281 670.665,1473.7188 685.665,1473.7188 L695.665,1473.7188" fill="none" style="stroke:#181818;stroke-width:1;"/><path d="M440.7783,1051.4922 L450.7783,1051.4922 C465.7783,1051.4922 465.7783,1304.8281 480.7783,1304.8281 L490.7783,1304.8281" fill="none" style="stroke:#181818;stroke-width:1;"/><path d="M277.1602,1811.5 L287.1602,1811.5 C302.1602,1811.5 302.1602,1051.4922 317.1602,1051.4922 L327.1602,1051.4922" fill="none" style="stroke:#181818;stroke-width:1;"/><rect fill="#F1F1F1" height="36.2969" rx="12.5" ry="12.5" style="stroke:#181818;stroke-width:1.5;" width="182.8594" x="327.1602" y="2187.4297"/><text fill="#000000" font-family="sans-serif" font-size="14" lengthAdjust="spacing" textLength="162.8594" x="337.1602" y="2210.4248">Data Flow Components</text><rect fill="#F1F1F1" height="36.2969" rx="12.5" ry="12.5" style="stroke:#181818;stroke-width:1.5;" width="122.0742" x="560.0195" y="1568.1641"/><text fill="#000000" font-family="sans-serif" font-size="14" lengthAdjust="spacing" textLength="102.0742" x="570.0195" y="1591.1592">Sales Backend</text><rect fill="#F1F1F1" height="36.2969" rx="12.5" ry="12.5" style="stroke:#181818;stroke-width:1.5;" width="177.124" x="732.0938" y="1540.0156"/><text fill="#000000" font-family="sans-serif" font-size="14" lengthAdjust="spacing" textLength="157.124" x="742.0938" y="1563.0107">Generate sales events</text><path d="M682.0938,1586.3125 L692.0938,1586.3125 C707.0938,1586.3125 707.0938,1558.1641 722.0938,1558.1641 L732.0938,1558.1641" fill="none" style="stroke:#181818;stroke-width:1;"/><rect fill="#F1F1F1" height="36.2969" rx="12.5" ry="12.5" style="stroke:#181818;stroke-width:1.5;" width="237.1436" x="732.0938" y="1596.3125"/><text fill="#000000" font-family="sans-serif" font-size="14" lengthAdjust="spacing" textLength="217.1436" x="742.0938" y="1619.3076">Send to shared logging service</text><path d="M682.0938,1586.3125 L692.0938,1586.3125 C707.0938,1586.3125 707.0938,1614.4609 722.0938,1614.4609 L732.0938,1614.4609" fill="none" style="stroke:#181818;stroke-width:1;"/><path d="M510.0195,2205.5781 L520.0195,2205.5781 C535.0195,2205.5781 535.0195,1586.3125 550.0195,1586.3125 L560.0195,1586.3125" fill="none" style="stroke:#181818;stroke-width:1;"/><rect fill="#F1F1F1" height="36.2969" rx="12.5" ry="12.5" style="stroke:#181818;stroke-width:1.5;" width="162.1943" x="560.0195" y="1765.2031"/><text fill="#000000" font-family="sans-serif" font-size="14" lengthAdjust="spacing" textLength="142.1943" x="570.0195" y="1788.1982">Aggregation Service</text><rect fill="#F1F1F1" height="36.2969" rx="12.5" ry="12.5" style="stroke:#181818;stroke-width:1.5;" width="190.0918" x="772.2139" y="1652.6094"/><text fill="#000000" font-family="sans-serif" font-size="14" lengthAdjust="spacing" textLength="170.0918" x="782.2139" y="1675.6045">Subscribe to Kafka topic</text><path d="M722.2139,1783.3516 L732.2139,1783.3516 C747.2139,1783.3516 747.2139,1670.7578 762.2139,1670.7578 L772.2139,1670.7578" fill="none" style="stroke:#181818;stroke-width:1;"/><rect fill="#F1F1F1" height="36.2969" rx="12.5" ry="12.5" style="stroke:#181818;stroke-width:1.5;" width="192.874" x="772.2139" y="1708.9063"/><text fill="#000000" font-family="sans-serif" font-size="14" lengthAdjust="spacing" textLength="172.874" x="782.2139" y="1731.9014">Aggregate by product ID</text><path d="M722.2139,1783.3516 L732.2139,1783.3516 C747.2139,1783.3516 747.2139,1727.0547 762.2139,1727.0547 L772.2139,1727.0547" fill="none" style="stroke:#181818;stroke-width:1;"/><rect fill="#F1F1F1" height="36.2969" rx="12.5" ry="12.5" style="stroke:#181818;stroke-width:1.5;" width="227.8057" x="772.2139" y="1765.2031"/><text fill="#000000" font-family="sans-serif" font-size="14" lengthAdjust="spacing" textLength="207.8057" x="782.2139" y="1788.1982">Match host IDs to product IDs</text><path d="M722.2139,1783.3516 L732.2139,1783.3516 C747.2139,1783.3516 747.2139,1783.3516 762.2139,1783.3516 L772.2139,1783.3516" fill="none" style="stroke:#181818;stroke-width:1;"/><rect fill="#F1F1F1" height="36.2969" rx="12.5" ry="12.5" style="stroke:#181818;stroke-width:1.5;" width="263.8721" x="772.2139" y="1821.5"/><text fill="#000000" font-family="sans-serif" font-size="14" lengthAdjust="spacing" textLength="243.8721" x="782.2139" y="1844.4951">Flush aggregated data periodically</text><path d="M722.2139,1783.3516 L732.2139,1783.3516 C747.2139,1783.3516 747.2139,1839.6484 762.2139,1839.6484 L772.2139,1839.6484" fill="none" style="stroke:#181818;stroke-width:1;"/><rect fill="#F1F1F1" height="36.2969" rx="12.5" ry="12.5" style="stroke:#181818;stroke-width:1.5;" width="207.3936" x="772.2139" y="1877.7969"/><text fill="#000000" font-family="sans-serif" font-size="14" lengthAdjust="spacing" textLength="187.3936" x="782.2139" y="1900.792">Write checkpoints to Redis</text><path d="M722.2139,1783.3516 L732.2139,1783.3516 C747.2139,1783.3516 747.2139,1895.9453 762.2139,1895.9453 L772.2139,1895.9453" fill="none" style="stroke:#181818;stroke-width:1;"/><path d="M510.0195,2205.5781 L520.0195,2205.5781 C535.0195,2205.5781 535.0195,1783.3516 550.0195,1783.3516 L560.0195,1783.3516" fill="none" style="stroke:#181818;stroke-width:1;"/><rect fill="#F1F1F1" height="36.2969" rx="12.5" ry="12.5" style="stroke:#181818;stroke-width:1.5;" width="119.791" x="560.0195" y="2159.2813"/><text fill="#000000" font-family="sans-serif" font-size="14" lengthAdjust="spacing" textLength="99.791" x="570.0195" y="2182.2764">Batch Pipeline</text><rect fill="#F1F1F1" height="36.2969" rx="12.5" ry="12.5" style="stroke:#181818;stroke-width:1.5;" width="263.4551" x="729.8105" y="2046.6875"/><text fill="#000000" font-family="sans-serif" font-size="14" lengthAdjust="spacing" textLength="243.4551" x="739.8105" y="2069.6826">Rollup by increasing time intervals</text><rect fill="#F1F1F1" height="36.2969" rx="12.5" ry="12.5" style="stroke:#181818;stroke-width:1.5;" width="110.207" x="1043.2656" y="1934.0938"/><text fill="#000000" font-family="sans-serif" font-size="14" lengthAdjust="spacing" textLength="90.207" x="1053.2656" y="1957.0889">Hourly rollup</text><path d="M993.2656,2064.8359 L1003.2656,2064.8359 C1018.2656,2064.8359 1018.2656,1952.2422 1033.2656,1952.2422 L1043.2656,1952.2422" fill="none" style="stroke:#181818;stroke-width:1;"/><rect fill="#F1F1F1" height="36.2969" rx="12.5" ry="12.5" style="stroke:#181818;stroke-width:1.5;" width="99.7344" x="1043.2656" y="1990.3906"/><text fill="#000000" font-family="sans-serif" font-size="14" lengthAdjust="spacing" textLength="79.7344" x="1053.2656" y="2013.3857">Daily rollup</text><path d="M993.2656,2064.8359 L1003.2656,2064.8359 C1018.2656,2064.8359 1018.2656,2008.5391 1033.2656,2008.5391 L1043.2656,2008.5391" fill="none" style="stroke:#181818;stroke-width:1;"/><rect fill="#F1F1F1" height="36.2969" rx="12.5" ry="12.5" style="stroke:#181818;stroke-width:1.5;" width="115.6621" x="1043.2656" y="2046.6875"/><text fill="#000000" font-family="sans-serif" font-size="14" lengthAdjust="spacing" textLength="95.6621" x="1053.2656" y="2069.6826">Weekly rollup</text><path d="M993.2656,2064.8359 L1003.2656,2064.8359 C1018.2656,2064.8359 1018.2656,2064.8359 1033.2656,2064.8359 L1043.2656,2064.8359" fill="none" style="stroke:#181818;stroke-width:1;"/><rect fill="#F1F1F1" height="36.2969" rx="12.5" ry="12.5" style="stroke:#181818;stroke-width:1.5;" width="120.3652" x="1043.2656" y="2102.9844"/><text fill="#000000" font-family="sans-serif" font-size="14" lengthAdjust="spacing" textLength="100.3652" x="1053.2656" y="2125.9795">Monthly rollup</text><path d="M993.2656,2064.8359 L1003.2656,2064.8359 C1018.2656,2064.8359 1018.2656,2121.1328 1033.2656,2121.1328 L1043.2656,2121.1328" fill="none" style="stroke:#181818;stroke-width:1;"/><rect fill="#F1F1F1" height="36.2969" rx="12.5" ry="12.5" style="stroke:#181818;stroke-width:1.5;" width="107.9854" x="1043.2656" y="2159.2813"/><text fill="#000000" font-family="sans-serif" font-size="14" lengthAdjust="spacing" textLength="87.9854" x="1053.2656" y="2182.2764">Yearly rollup</text><path d="M993.2656,2064.8359 L1003.2656,2064.8359 C1018.2656,2064.8359 1018.2656,2177.4297 1033.2656,2177.4297 L1043.2656,2177.4297" fill="none" style="stroke:#181818;stroke-width:1;"/><path d="M679.8105,2177.4297 L689.8105,2177.4297 C704.8105,2177.4297 704.8105,2064.8359 719.8105,2064.8359 L729.8105,2064.8359" fill="none" style="stroke:#181818;stroke-width:1;"/><rect fill="#F1F1F1" height="36.2969" rx="12.5" ry="12.5" style="stroke:#181818;stroke-width:1.5;" width="122.0674" x="729.8105" y="2271.875"/><text fill="#000000" font-family="sans-serif" font-size="14" lengthAdjust="spacing" textLength="102.0674" x="739.8105" y="2294.8701">ETL DAG tasks</text><rect fill="#F1F1F1" height="36.2969" rx="12.5" ry="12.5" style="stroke:#181818;stroke-width:1.5;" width="192.8398" x="901.8779" y="2215.5781"/><text fill="#000000" font-family="sans-serif" font-size="14" lengthAdjust="spacing" textLength="172.8398" x="911.8779" y="2238.5732">Verify dependent rollups</text><path d="M851.8779,2290.0234 L861.8779,2290.0234 C876.8779,2290.0234 876.8779,2233.7266 891.8779,2233.7266 L901.8779,2233.7266" fill="none" style="stroke:#181818;stroke-width:1;"/><rect fill="#F1F1F1" height="36.2969" rx="12.5" ry="12.5" style="stroke:#181818;stroke-width:1.5;" width="169.4473" x="901.8779" y="2271.875"/><text fill="#000000" font-family="sans-serif" font-size="14" lengthAdjust="spacing" textLength="149.4473" x="911.8779" y="2294.8701">Run counting queries</text><path d="M851.8779,2290.0234 L861.8779,2290.0234 C876.8779,2290.0234 876.8779,2290.0234 891.8779,2290.0234 L901.8779,2290.0234" fill="none" style="stroke:#181818;stroke-width:1;"/><rect fill="#F1F1F1" height="36.2969" rx="12.5" ry="12.5" style="stroke:#181818;stroke-width:1.5;" width="161.7773" x="901.8779" y="2328.1719"/><text fill="#000000" font-family="sans-serif" font-size="14" lengthAdjust="spacing" textLength="141.7773" x="911.8779" y="2351.167">Generate Top K lists</text><path d="M851.8779,2290.0234 L861.8779,2290.0234 C876.8779,2290.0234 876.8779,2346.3203 891.8779,2346.3203 L901.8779,2346.3203" fill="none" style="stroke:#181818;stroke-width:1;"/><path d="M679.8105,2177.4297 L689.8105,2177.4297 C704.8105,2177.4297 704.8105,2290.0234 719.8105,2290.0234 L729.8105,2290.0234" fill="none" style="stroke:#181818;stroke-width:1;"/><rect fill="#F1F1F1" height="36.2969" rx="12.5" ry="12.5" style="stroke:#181818;stroke-width:1.5;" width="162.5293" x="729.8105" y="2384.4688"/><text fill="#000000" font-family="sans-serif" font-size="14" lengthAdjust="spacing" textLength="142.5293" x="739.8105" y="2407.4639">Write to batch_table</text><path d="M679.8105,2177.4297 L689.8105,2177.4297 C704.8105,2177.4297 704.8105,2402.6172 719.8105,2402.6172 L729.8105,2402.6172" fill="none" style="stroke:#181818;stroke-width:1;"/><path d="M510.0195,2205.5781 L520.0195,2205.5781 C535.0195,2205.5781 535.0195,2177.4297 550.0195,2177.4297 L560.0195,2177.4297" fill="none" style="stroke:#181818;stroke-width:1;"/><rect fill="#F1F1F1" height="36.2969" rx="12.5" ry="12.5" style="stroke:#181818;stroke-width:1.5;" width="152.1592" x="560.0195" y="2525.2109"/><text fill="#000000" font-family="sans-serif" font-size="14" lengthAdjust="spacing" textLength="132.1592" x="570.0195" y="2548.2061">Streaming Pipeline</text><rect fill="#F1F1F1" height="36.2969" rx="12.5" ry="12.5" style="stroke:#181818;stroke-width:1.5;" width="262.4092" x="762.1787" y="2440.7656"/><text fill="#000000" font-family="sans-serif" font-size="14" lengthAdjust="spacing" textLength="242.4092" x="772.1787" y="2463.7607">Provide faster approximate counts</text><path d="M712.1787,2543.3594 L722.1787,2543.3594 C737.1787,2543.3594 737.1787,2458.9141 752.1787,2458.9141 L762.1787,2458.9141" fill="none" style="stroke:#181818;stroke-width:1;"/><rect fill="#F1F1F1" height="36.2969" rx="12.5" ry="12.5" style="stroke:#181818;stroke-width:1.5;" width="172.4756" x="762.1787" y="2497.0625"/><text fill="#000000" font-family="sans-serif" font-size="14" lengthAdjust="spacing" textLength="152.4756" x="772.1787" y="2520.0576">Multi-tier aggregation</text><path d="M712.1787,2543.3594 L722.1787,2543.3594 C737.1787,2543.3594 737.1787,2515.2109 752.1787,2515.2109 L762.1787,2515.2109" fill="none" style="stroke:#181818;stroke-width:1;"/><rect fill="#F1F1F1" height="36.2969" rx="12.5" ry="12.5" style="stroke:#181818;stroke-width:1.5;" width="394.8555" x="762.1787" y="2553.3594"/><text fill="#000000" font-family="sans-serif" font-size="14" lengthAdjust="spacing" textLength="374.8555" x="772.1787" y="2576.3545">Handle the combination of product ID and timestamp</text><path d="M712.1787,2543.3594 L722.1787,2543.3594 C737.1787,2543.3594 737.1787,2571.5078 752.1787,2571.5078 L762.1787,2571.5078" fill="none" style="stroke:#181818;stroke-width:1;"/><rect fill="#F1F1F1" height="36.2969" rx="12.5" ry="12.5" style="stroke:#181818;stroke-width:1.5;" width="301.8047" x="762.1787" y="2609.6563"/><text fill="#000000" font-family="sans-serif" font-size="14" lengthAdjust="spacing" textLength="281.8047" x="772.1787" y="2632.6514">Use Hash table and max-heap approach</text><path d="M712.1787,2543.3594 L722.1787,2543.3594 C737.1787,2543.3594 737.1787,2627.8047 752.1787,2627.8047 L762.1787,2627.8047" fill="none" style="stroke:#181818;stroke-width:1;"/><path d="M510.0195,2205.5781 L520.0195,2205.5781 C535.0195,2205.5781 535.0195,2543.3594 550.0195,2543.3594 L560.0195,2543.3594" fill="none" style="stroke:#181818;stroke-width:1;"/><rect fill="#F1F1F1" height="36.2969" rx="12.5" ry="12.5" style="stroke:#181818;stroke-width:1.5;" width="96.2002" x="560.0195" y="2750.3984"/><text fill="#000000" font-family="sans-serif" font-size="14" lengthAdjust="spacing" textLength="76.2002" x="570.0195" y="2773.3936">Dashboard</text><rect fill="#F1F1F1" height="36.2969" rx="12.5" ry="12.5" style="stroke:#181818;stroke-width:1.5;" width="107.8418" x="706.2197" y="2665.9531"/><text fill="#000000" font-family="sans-serif" font-size="14" lengthAdjust="spacing" textLength="87.8418" x="716.2197" y="2688.9482">Browser app</text><path d="M656.2197,2768.5469 L666.2197,2768.5469 C681.2197,2768.5469 681.2197,2684.1016 696.2197,2684.1016 L706.2197,2684.1016" fill="none" style="stroke:#181818;stroke-width:1;"/><rect fill="#F1F1F1" height="36.2969" rx="12.5" ry="12.5" style="stroke:#181818;stroke-width:1.5;" width="134.96" x="706.2197" y="2722.25"/><text fill="#000000" font-family="sans-serif" font-size="14" lengthAdjust="spacing" textLength="114.96" x="716.2197" y="2745.2451">Backend service</text><path d="M656.2197,2768.5469 L666.2197,2768.5469 C681.2197,2768.5469 681.2197,2740.3984 696.2197,2740.3984 L706.2197,2740.3984" fill="none" style="stroke:#181818;stroke-width:1;"/><rect fill="#F1F1F1" height="36.2969" rx="12.5" ry="12.5" style="stroke:#181818;stroke-width:1.5;" width="200.749" x="706.2197" y="2778.5469"/><text fill="#000000" font-family="sans-serif" font-size="14" lengthAdjust="spacing" textLength="180.749" x="716.2197" y="2801.542">Query SQL database view</text><path d="M656.2197,2768.5469 L666.2197,2768.5469 C681.2197,2768.5469 681.2197,2796.6953 696.2197,2796.6953 L706.2197,2796.6953" fill="none" style="stroke:#181818;stroke-width:1;"/><rect fill="#F1F1F1" height="36.2969" rx="12.5" ry="12.5" style="stroke:#181818;stroke-width:1.5;" width="218.3447" x="706.2197" y="2834.8438"/><text fill="#000000" font-family="sans-serif" font-size="14" lengthAdjust="spacing" textLength="198.3447" x="716.2197" y="2857.8389">Display rankings and counts</text><path d="M656.2197,2768.5469 L666.2197,2768.5469 C681.2197,2768.5469 681.2197,2852.9922 696.2197,2852.9922 L706.2197,2852.9922" fill="none" style="stroke:#181818;stroke-width:1;"/><path d="M510.0195,2205.5781 L520.0195,2205.5781 C535.0195,2205.5781 535.0195,2768.5469 550.0195,2768.5469 L560.0195,2768.5469" fill="none" style="stroke:#181818;stroke-width:1;"/><path d="M277.1602,1811.5 L287.1602,1811.5 C302.1602,1811.5 302.1602,2205.5781 317.1602,2205.5781 L327.1602,2205.5781" fill="none" style="stroke:#181818;stroke-width:1;"/><rect fill="#F1F1F1" height="36.2969" rx="12.5" ry="12.5" style="stroke:#181818;stroke-width:1.5;" width="194.1729" x="327.1602" y="3003.7344"/><text fill="#000000" font-family="sans-serif" font-size="14" lengthAdjust="spacing" textLength="174.1729" x="337.1602" y="3026.7295">Optimization Techniques</text><rect fill="#F1F1F1" height="36.2969" rx="12.5" ry="12.5" style="stroke:#181818;stroke-width:1.5;" width="187.1318" x="571.333" y="2919.2891"/><text fill="#000000" font-family="sans-serif" font-size="14" lengthAdjust="spacing" textLength="167.1318" x="581.333" y="2942.2842">Approximation Methods</text><rect fill="#F1F1F1" height="36.2969" rx="12.5" ry="12.5" style="stroke:#181818;stroke-width:1.5;" width="143.5527" x="808.4648" y="2891.1406"/><text fill="#000000" font-family="sans-serif" font-size="14" lengthAdjust="spacing" textLength="123.5527" x="818.4648" y="2914.1357">Count-min sketch</text><path d="M758.4648,2937.4375 L768.4648,2937.4375 C783.4648,2937.4375 783.4648,2909.2891 798.4648,2909.2891 L808.4648,2909.2891" fill="none" style="stroke:#181818;stroke-width:1;"/><rect fill="#F1F1F1" height="36.2969" rx="12.5" ry="12.5" style="stroke:#181818;stroke-width:1.5;" width="88.9473" x="808.4648" y="2947.4375"/><text fill="#000000" font-family="sans-serif" font-size="14" lengthAdjust="spacing" textLength="68.9473" x="818.4648" y="2970.4326">Max-heap</text><path d="M758.4648,2937.4375 L768.4648,2937.4375 C783.4648,2937.4375 783.4648,2965.5859 798.4648,2965.5859 L808.4648,2965.5859" fill="none" style="stroke:#181818;stroke-width:1;"/><path d="M521.333,3021.8828 L531.333,3021.8828 C546.333,3021.8828 546.333,2937.4375 561.333,2937.4375 L571.333,2937.4375" fill="none" style="stroke:#181818;stroke-width:1;"/><rect fill="#F1F1F1" height="36.2969" rx="12.5" ry="12.5" style="stroke:#181818;stroke-width:1.5;" width="173.4736" x="571.333" y="3060.0313"/><text fill="#000000" font-family="sans-serif" font-size="14" lengthAdjust="spacing" textLength="153.4736" x="581.333" y="3083.0264">Multi-tier Aggregation</text><rect fill="#F1F1F1" height="36.2969" rx="12.5" ry="12.5" style="stroke:#181818;stroke-width:1.5;" width="145.043" x="794.8066" y="3003.7344"/><text fill="#000000" font-family="sans-serif" font-size="14" lengthAdjust="spacing" textLength="125.043" x="804.8066" y="3026.7295">Horizontal scaling</text><path d="M744.8066,3078.1797 L754.8066,3078.1797 C769.8066,3078.1797 769.8066,3021.8828 784.8066,3021.8828 L794.8066,3021.8828" fill="none" style="stroke:#181818;stroke-width:1;"/><rect fill="#F1F1F1" height="36.2969" rx="12.5" ry="12.5" style="stroke:#181818;stroke-width:1.5;" width="178.5596" x="794.8066" y="3060.0313"/><text fill="#000000" font-family="sans-serif" font-size="14" lengthAdjust="spacing" textLength="158.5596" x="804.8066" y="3083.0264">Partition by product ID</text><path d="M744.8066,3078.1797 L754.8066,3078.1797 C769.8066,3078.1797 769.8066,3078.1797 784.8066,3078.1797 L794.8066,3078.1797" fill="none" style="stroke:#181818;stroke-width:1;"/><rect fill="#F1F1F1" height="36.2969" rx="12.5" ry="12.5" style="stroke:#181818;stroke-width:1.5;" width="308.5176" x="794.8066" y="3116.3281"/><text fill="#000000" font-family="sans-serif" font-size="14" lengthAdjust="spacing" textLength="288.5176" x="804.8066" y="3139.3232">Additional aggregation tiers for high load</text><path d="M744.8066,3078.1797 L754.8066,3078.1797 C769.8066,3078.1797 769.8066,3134.4766 784.8066,3134.4766 L794.8066,3134.4766" fill="none" style="stroke:#181818;stroke-width:1;"/><path d="M521.333,3021.8828 L531.333,3021.8828 C546.333,3021.8828 546.333,3078.1797 561.333,3078.1797 L571.333,3078.1797" fill="none" style="stroke:#181818;stroke-width:1;"/><path d="M277.1602,1811.5 L287.1602,1811.5 C302.1602,1811.5 302.1602,3021.8828 317.1602,3021.8828 L327.1602,3021.8828" fill="none" style="stroke:#181818;stroke-width:1;"/><rect fill="#F1F1F1" height="36.2969" rx="12.5" ry="12.5" style="stroke:#181818;stroke-width:1.5;" width="191.6504" x="327.1602" y="3369.6641"/><text fill="#000000" font-family="sans-serif" font-size="14" lengthAdjust="spacing" textLength="171.6504" x="337.1602" y="3392.6592">Monitoring &amp; Operations</text><rect fill="#F1F1F1" height="36.2969" rx="12.5" ry="12.5" style="stroke:#181818;stroke-width:1.5;" width="75.7881" x="568.8105" y="3200.7734"/><text fill="#000000" font-family="sans-serif" font-size="14" lengthAdjust="spacing" textLength="55.7881" x="578.8105" y="3223.7686">Logging</text><rect fill="#F1F1F1" height="36.2969" rx="12.5" ry="12.5" style="stroke:#181818;stroke-width:1.5;" width="189.3809" x="694.5986" y="3172.625"/><text fill="#000000" font-family="sans-serif" font-size="14" lengthAdjust="spacing" textLength="169.3809" x="704.5986" y="3195.6201">Track errors in pipelines</text><path d="M644.5986,3218.9219 L654.5986,3218.9219 C669.5986,3218.9219 669.5986,3190.7734 684.5986,3190.7734 L694.5986,3190.7734" fill="none" style="stroke:#181818;stroke-width:1;"/><rect fill="#F1F1F1" height="36.2969" rx="12.5" ry="12.5" style="stroke:#181818;stroke-width:1.5;" width="203.6338" x="694.5986" y="3228.9219"/><text fill="#000000" font-family="sans-serif" font-size="14" lengthAdjust="spacing" textLength="183.6338" x="704.5986" y="3251.917">Monitor critical error rates</text><path d="M644.5986,3218.9219 L654.5986,3218.9219 C669.5986,3218.9219 669.5986,3247.0703 684.5986,3247.0703 L694.5986,3247.0703" fill="none" style="stroke:#181818;stroke-width:1;"/><path d="M518.8105,3387.8125 L528.8105,3387.8125 C543.8105,3387.8125 543.8105,3218.9219 558.8105,3218.9219 L568.8105,3218.9219" fill="none" style="stroke:#181818;stroke-width:1;"/><rect fill="#F1F1F1" height="36.2969" rx="12.5" ry="12.5" style="stroke:#181818;stroke-width:1.5;" width="94.8672" x="568.8105" y="3341.5156"/><text fill="#000000" font-family="sans-serif" font-size="14" lengthAdjust="spacing" textLength="74.8672" x="578.8105" y="3364.5107">Monitoring</text><rect fill="#F1F1F1" height="36.2969" rx="12.5" ry="12.5" style="stroke:#181818;stroke-width:1.5;" width="142.3154" x="713.6777" y="3285.2188"/><text fill="#000000" font-family="sans-serif" font-size="14" lengthAdjust="spacing" textLength="122.3154" x="723.6777" y="3308.2139">ETL job run times</text><path d="M663.6777,3359.6641 L673.6777,3359.6641 C688.6777,3359.6641 688.6777,3303.3672 703.6777,3303.3672 L713.6777,3303.3672" fill="none" style="stroke:#181818;stroke-width:1;"/><rect fill="#F1F1F1" height="36.2969" rx="12.5" ry="12.5" style="stroke:#181818;stroke-width:1.5;" width="105.7705" x="713.6777" y="3341.5156"/><text fill="#000000" font-family="sans-serif" font-size="14" lengthAdjust="spacing" textLength="85.7705" x="723.6777" y="3364.5107">Data quality</text><path d="M663.6777,3359.6641 L673.6777,3359.6641 C688.6777,3359.6641 688.6777,3359.6641 703.6777,3359.6641 L713.6777,3359.6641" fill="none" style="stroke:#181818;stroke-width:1;"/><rect fill="#F1F1F1" height="36.2969" rx="12.5" ry="12.5" style="stroke:#181818;stroke-width:1.5;" width="260.3516" x="713.6777" y="3397.8125"/><text fill="#000000" font-family="sans-serif" font-size="14" lengthAdjust="spacing" textLength="240.3516" x="723.6777" y="3420.8076">Aggregation pipeline performance</text><path d="M663.6777,3359.6641 L673.6777,3359.6641 C688.6777,3359.6641 688.6777,3415.9609 703.6777,3415.9609 L713.6777,3415.9609" fill="none" style="stroke:#181818;stroke-width:1;"/><path d="M518.8105,3387.8125 L528.8105,3387.8125 C543.8105,3387.8125 543.8105,3359.6641 558.8105,3359.6641 L568.8105,3359.6641" fill="none" style="stroke:#181818;stroke-width:1;"/><rect fill="#F1F1F1" height="36.2969" rx="12.5" ry="12.5" style="stroke:#181818;stroke-width:1.5;" width="74.9746" x="568.8105" y="3510.4063"/><text fill="#000000" font-family="sans-serif" font-size="14" lengthAdjust="spacing" textLength="54.9746" x="578.8105" y="3533.4014">Alerting</text><rect fill="#F1F1F1" height="36.2969" rx="12.5" ry="12.5" style="stroke:#181818;stroke-width:1.5;" width="190.3447" x="693.7852" y="3454.1094"/><text fill="#000000" font-family="sans-serif" font-size="14" lengthAdjust="spacing" textLength="170.3447" x="703.7852" y="3477.1045">Unusually long runtimes</text><path d="M643.7852,3528.5547 L653.7852,3528.5547 C668.7852,3528.5547 668.7852,3472.2578 683.7852,3472.2578 L693.7852,3472.2578" fill="none" style="stroke:#181818;stroke-width:1;"/><rect fill="#F1F1F1" height="36.2969" rx="12.5" ry="12.5" style="stroke:#181818;stroke-width:1.5;" width="97.8545" x="693.7852" y="3510.4063"/><text fill="#000000" font-family="sans-serif" font-size="14" lengthAdjust="spacing" textLength="77.8545" x="703.7852" y="3533.4014">Job failures</text><path d="M643.7852,3528.5547 L653.7852,3528.5547 C668.7852,3528.5547 668.7852,3528.5547 683.7852,3528.5547 L693.7852,3528.5547" fill="none" style="stroke:#181818;stroke-width:1;"/><rect fill="#F1F1F1" height="36.2969" rx="12.5" ry="12.5" style="stroke:#181818;stroke-width:1.5;" width="153.4785" x="693.7852" y="3566.7031"/><text fill="#000000" font-family="sans-serif" font-size="14" lengthAdjust="spacing" textLength="133.4785" x="703.7852" y="3589.6982">Data quality issues</text><path d="M643.7852,3528.5547 L653.7852,3528.5547 C668.7852,3528.5547 668.7852,3584.8516 683.7852,3584.8516 L693.7852,3584.8516" fill="none" style="stroke:#181818;stroke-width:1;"/><path d="M518.8105,3387.8125 L528.8105,3387.8125 C543.8105,3387.8125 543.8105,3528.5547 558.8105,3528.5547 L568.8105,3528.5547" fill="none" style="stroke:#181818;stroke-width:1;"/><path d="M277.1602,1811.5 L287.1602,1811.5 C302.1602,1811.5 302.1602,3387.8125 317.1602,3387.8125 L327.1602,3387.8125" fill="none" style="stroke:#181818;stroke-width:1;"/><!--SRC=[RLPDSzis4BthL-ofusZiZ9scdKvEKQ8uhYsbZcKdqrC60Y4H5GYm02X5EVItzor0KgBYcuIlVRlxtbk-3L7uM6bRLA8UZUdHrNHrIVVU5OsCWQOYb4idV45J5VJQZiPZUb3_DjghIjaOy7zCrusLKJih3FyTqrI7seWznVnOtJsst5CGHWNQEjDKAXzUD7NjVAIeAqNQHkMtmWGwArtZpwaG-tFQARKvfyhPM9xJNWd_ehrQkXqjNIp92xlHTXr8s8AaQrfa1oYY1ehlkX9HaLUXCO2pSXw_9T90c2XEBaZP-DFJpXJAzuVfaxCNfxdV085HdFPI6uEDDcMrvN9HdUxlyzaPu7iKKuL8ATQPgchZzahHIaZaq-RvtzNyK4HjIGA0SUkyEKb0vHudjFCwwX-g8BT578CdhMnZVN9a5NOuZLAlIn9ReOq0I1tt8sxhnCjIHoLZWvHJVZDHBGinsCYFlHDHbjZUAvyMnamOgKB0qo42XHGcbQalezct1nVOvZxJpVHwqQuzD9QyCwQfwH-tJ4NIhk17-cjVaTcX5z7HaY5yYs9fEXv5hmI8l7uM5_RCHQ9OWWK2oqt_-EHdSWp28boeKRn1EF3qDDXxLosrRKEilAiooaJAqCCpVACBy1whAKBzxUhoyfAsMkrIZufUUE27r-X8QiaTYFnSHnPu6RIhSxeSPkL5fNRERqQ3Gg2c6LyilMl0WmEmMjVA07zFcA1gaNYPqp1zglnQby52WxDWcpZ5r8EIhb1B4LHR1o4txVwr290xAU-p4fcrUpfpra1_gnNU0c4PRAk3zyxsTNCX6etBN2iZ_Bgj-g40HtmJs3Mwqb6mKWFjD2pZJgms8X5_oXUl3SI81jREzhwsICfz1y3A5Xd2HsLLAicngZj683scIYayS4EWQwvgOA98bTitMQ-zMYSOcK6oTy5ba5ul4zaIDEQ4bgt6sskABRHr0lfpcZVdgJab2eAbf8t3YHRQjMa2QDYzKhIrEfLPItTPAhcfdRPPQG-gq2txikxl1pnvoC85C6qbg9J8DpJpjXKtS7HqDYkzNPl2X4wMliBjJzVcxFsdYtzZ4WpNwCFZZAQJZnH5s7HXlo3DrPuALQD1RFRvGZWodpGn67UdjV6msJmLxq2XqFMwzuLZ6neDRMXO9YXcgmisziJvutbqFA_cC1yDe-8Z1wuCHaii-GexJUQHMnqrF6cCgm-TLMrHdY2z6zW99PZfH2M-NvHAr1c7a6K6tq_xrkQzsuKCjlFz98MUqsdnSyEgNNoU9LObeREB3SVfSmEQjVTN3R3wHyxaKSdIQfw7ew4jy-PSnT8LeNC2l721CbFOA7IWKqBEAYTpLCh9JwN4ZFe1Jc5C1V2_imkwnyUGJk6U4TgaA7GUzSUz8OuG3dFLE56arC1PpRCGLFW5UJAJT6jWcFp97FAxZnZVc-o2QRntFjnH8hz3aeSx3zRMBq6T_DWXq444cAFa6vkfqBOY3pwH1lxur8sweEmAoAKIDlUN9Z3tsB_zP9lGi64WJoJcMJTzX5i4NK7GtGV4C2Rf4BYrRy6WxeDpT6-4ZK_p6S7w0-EuUldgyjLlBtzTgYXUdptPZNKx5cXLQ-O-WhqOdNsydr60cqYuFaG9tsmuYHUZMtpLiABvt1ikkhsTtdKBzC5kjNUMFrn7jr_cXmE_lxvufsDoPB3botmqLIi1-k06XXUIVqDFZzSNVuncmguRZ9CtfEmeaT3liRVu7m00]--></g></svg>