<svg xmlns="http://www.w3.org/2000/svg" xmlns:xlink="http://www.w3.org/1999/xlink" contentStyleType="text/css" data-diagram-type="MINDMAP" height="2048px" preserveAspectRatio="none" style="width:1084px;height:2048px;background:#FFFFFF;" version="1.1" viewBox="0 0 1084 2048" width="1084px" zoomAndPan="magnify"><defs/><g><rect fill="#F1F1F1" height="36.2969" rx="12.5" ry="12.5" style="stroke:#181818;stroke-width:1.5;" width="160.4717" x="10" y="1005.1953"/><text fill="#000000" font-family="sans-serif" font-size="14" lengthAdjust="spacing" textLength="140.4717" x="20" y="1028.1904">CDN System Design</text><rect fill="#F1F1F1" height="36.2969" rx="12.5" ry="12.5" style="stroke:#181818;stroke-width:1.5;" width="103.0635" x="220.4717" y="188.8906"/><text fill="#000000" font-family="sans-serif" font-size="14" lengthAdjust="spacing" textLength="83.0635" x="230.4717" y="211.8857">Advantages</text><rect fill="#F1F1F1" height="36.2969" rx="12.5" ry="12.5" style="stroke:#181818;stroke-width:1.5;" width="121.9717" x="373.5352" y="48.1484"/><text fill="#000000" font-family="sans-serif" font-size="14" lengthAdjust="spacing" textLength="101.9717" x="383.5352" y="71.1436">Lower Latency</text><rect fill="#F1F1F1" height="36.2969" rx="12.5" ry="12.5" style="stroke:#181818;stroke-width:1.5;" width="285.9863" x="545.5068" y="20"/><text fill="#000000" font-family="sans-serif" font-size="14" lengthAdjust="spacing" textLength="265.9863" x="555.5068" y="42.9951">Serve users from nearby data centers</text><path d="M495.5068,66.2969 L505.5068,66.2969 C520.5068,66.2969 520.5068,38.1484 535.5068,38.1484 L545.5068,38.1484 " fill="#FFFFFF" fill-opacity="0.00000" style="stroke:#181818;stroke-width:1;"/><rect fill="#F1F1F1" height="36.2969" rx="12.5" ry="12.5" style="stroke:#181818;stroke-width:1.5;" width="294.7637" x="545.5068" y="76.2969"/><text fill="#000000" font-family="sans-serif" font-size="14" lengthAdjust="spacing" textLength="274.7637" x="555.5068" y="99.292">Improve SEO by reducing bounce rates</text><path d="M495.5068,66.2969 L505.5068,66.2969 C520.5068,66.2969 520.5068,94.4453 535.5068,94.4453 L545.5068,94.4453 " fill="#FFFFFF" fill-opacity="0.00000" style="stroke:#181818;stroke-width:1;"/><path d="M323.5352,207.0391 L333.5352,207.0391 C348.5352,207.0391 348.5352,66.2969 363.5352,66.2969 L373.5352,66.2969 " fill="#FFFFFF" fill-opacity="0.00000" style="stroke:#181818;stroke-width:1;"/><rect fill="#F1F1F1" height="36.2969" rx="12.5" ry="12.5" style="stroke:#181818;stroke-width:1.5;" width="91.9619" x="373.5352" y="132.5938"/><text fill="#000000" font-family="sans-serif" font-size="14" lengthAdjust="spacing" textLength="71.9619" x="383.5352" y="155.5889">Scalability</text><rect fill="#F1F1F1" height="36.2969" rx="12.5" ry="12.5" style="stroke:#181818;stroke-width:1.5;" width="274.1123" x="515.4971" y="132.5938"/><text fill="#000000" font-family="sans-serif" font-size="14" lengthAdjust="spacing" textLength="254.1123" x="525.4971" y="155.5889">Third-party providers handle scaling</text><path d="M465.4971,150.7422 L475.4971,150.7422 C490.4971,150.7422 490.4971,150.7422 505.4971,150.7422 L515.4971,150.7422 " fill="#FFFFFF" fill-opacity="0.00000" style="stroke:#181818;stroke-width:1;"/><path d="M323.5352,207.0391 L333.5352,207.0391 C348.5352,207.0391 348.5352,150.7422 363.5352,150.7422 L373.5352,150.7422 " fill="#FFFFFF" fill-opacity="0.00000" style="stroke:#181818;stroke-width:1;"/><rect fill="#F1F1F1" height="36.2969" rx="12.5" ry="12.5" style="stroke:#181818;stroke-width:1.5;" width="138.002" x="373.5352" y="188.8906"/><text fill="#000000" font-family="sans-serif" font-size="14" lengthAdjust="spacing" textLength="118.002" x="383.5352" y="211.8857">Lower Unit Costs</text><rect fill="#F1F1F1" height="36.2969" rx="12.5" ry="12.5" style="stroke:#181818;stroke-width:1.5;" width="248.1289" x="561.5371" y="188.8906"/><text fill="#000000" font-family="sans-serif" font-size="14" lengthAdjust="spacing" textLength="228.1289" x="571.5371" y="211.8857">Economies of scale reduce costs</text><path d="M511.5371,207.0391 L521.5371,207.0391 C536.5371,207.0391 536.5371,207.0391 551.5371,207.0391 L561.5371,207.0391 " fill="#FFFFFF" fill-opacity="0.00000" style="stroke:#181818;stroke-width:1;"/><path d="M323.5352,207.0391 L333.5352,207.0391 C348.5352,207.0391 348.5352,207.0391 363.5352,207.0391 L373.5352,207.0391 " fill="#FFFFFF" fill-opacity="0.00000" style="stroke:#181818;stroke-width:1;"/><rect fill="#F1F1F1" height="36.2969" rx="12.5" ry="12.5" style="stroke:#181818;stroke-width:1.5;" width="152.624" x="373.5352" y="245.1875"/><text fill="#000000" font-family="sans-serif" font-size="14" lengthAdjust="spacing" textLength="132.624" x="383.5352" y="268.1826">Higher Throughput</text><rect fill="#F1F1F1" height="36.2969" rx="12.5" ry="12.5" style="stroke:#181818;stroke-width:1.5;" width="271.3984" x="576.1592" y="245.1875"/><text fill="#000000" font-family="sans-serif" font-size="14" lengthAdjust="spacing" textLength="251.3984" x="586.1592" y="268.1826">Additional hosts handle more traffic</text><path d="M526.1592,263.3359 L536.1592,263.3359 C551.1592,263.3359 551.1592,263.3359 566.1592,263.3359 L576.1592,263.3359 " fill="#FFFFFF" fill-opacity="0.00000" style="stroke:#181818;stroke-width:1;"/><path d="M323.5352,207.0391 L333.5352,207.0391 C348.5352,207.0391 348.5352,263.3359 363.5352,263.3359 L373.5352,263.3359 " fill="#FFFFFF" fill-opacity="0.00000" style="stroke:#181818;stroke-width:1;"/><rect fill="#F1F1F1" height="36.2969" rx="12.5" ry="12.5" style="stroke:#181818;stroke-width:1.5;" width="148.126" x="373.5352" y="329.6328"/><text fill="#000000" font-family="sans-serif" font-size="14" lengthAdjust="spacing" textLength="128.126" x="383.5352" y="352.6279">Higher Availability</text><rect fill="#F1F1F1" height="36.2969" rx="12.5" ry="12.5" style="stroke:#181818;stroke-width:1.5;" width="298.4141" x="571.6611" y="301.4844"/><text fill="#000000" font-family="sans-serif" font-size="14" lengthAdjust="spacing" textLength="278.4141" x="581.6611" y="324.4795">Geographically distributed data centers</text><path d="M521.6611,347.7813 L531.6611,347.7813 C546.6611,347.7813 546.6611,319.6328 561.6611,319.6328 L571.6611,319.6328 " fill="#FFFFFF" fill-opacity="0.00000" style="stroke:#181818;stroke-width:1;"/><rect fill="#F1F1F1" height="36.2969" rx="12.5" ry="12.5" style="stroke:#181818;stroke-width:1.5;" width="303.083" x="571.6611" y="357.7813"/><text fill="#000000" font-family="sans-serif" font-size="14" lengthAdjust="spacing" textLength="283.083" x="581.6611" y="380.7764">Fault tolerance during outages or spikes</text><path d="M521.6611,347.7813 L531.6611,347.7813 C546.6611,347.7813 546.6611,375.9297 561.6611,375.9297 L571.6611,375.9297 " fill="#FFFFFF" fill-opacity="0.00000" style="stroke:#181818;stroke-width:1;"/><path d="M323.5352,207.0391 L333.5352,207.0391 C348.5352,207.0391 348.5352,347.7813 363.5352,347.7813 L373.5352,347.7813 " fill="#FFFFFF" fill-opacity="0.00000" style="stroke:#181818;stroke-width:1;"/><path d="M170.4717,1023.3438 L180.4717,1023.3438 C195.4717,1023.3438 195.4717,207.0391 210.4717,207.0391 L220.4717,207.0391 " fill="#FFFFFF" fill-opacity="0.00000" style="stroke:#181818;stroke-width:1;"/><rect fill="#F1F1F1" height="36.2969" rx="12.5" ry="12.5" style="stroke:#181818;stroke-width:1.5;" width="124.0293" x="220.4717" y="582.9688"/><text fill="#000000" font-family="sans-serif" font-size="14" lengthAdjust="spacing" textLength="104.0293" x="230.4717" y="605.9639">Disadvantages</text><rect fill="#F1F1F1" height="36.2969" rx="12.5" ry="12.5" style="stroke:#181818;stroke-width:1.5;" width="99.3174" x="394.501" y="442.2266"/><text fill="#000000" font-family="sans-serif" font-size="14" lengthAdjust="spacing" textLength="79.3174" x="404.501" y="465.2217">Complexity</text><rect fill="#F1F1F1" height="36.2969" rx="12.5" ry="12.5" style="stroke:#181818;stroke-width:1.5;" width="183.748" x="543.8184" y="414.0781"/><text fill="#000000" font-family="sans-serif" font-size="14" lengthAdjust="spacing" textLength="163.748" x="553.8184" y="437.0732">Additional DNS lookups</text><path d="M493.8184,460.375 L503.8184,460.375 C518.8184,460.375 518.8184,432.2266 533.8184,432.2266 L543.8184,432.2266 " fill="#FFFFFF" fill-opacity="0.00000" style="stroke:#181818;stroke-width:1;"/><rect fill="#F1F1F1" height="36.2969" rx="12.5" ry="12.5" style="stroke:#181818;stroke-width:1.5;" width="204.8984" x="543.8184" y="470.375"/><text fill="#000000" font-family="sans-serif" font-size="14" lengthAdjust="spacing" textLength="184.8984" x="553.8184" y="493.3701">Additional points of failure</text><path d="M493.8184,460.375 L503.8184,460.375 C518.8184,460.375 518.8184,488.5234 533.8184,488.5234 L543.8184,488.5234 " fill="#FFFFFF" fill-opacity="0.00000" style="stroke:#181818;stroke-width:1;"/><path d="M344.501,601.1172 L354.501,601.1172 C369.501,601.1172 369.501,460.375 384.501,460.375 L394.501,460.375 " fill="#FFFFFF" fill-opacity="0.00000" style="stroke:#181818;stroke-width:1;"/><rect fill="#F1F1F1" height="36.2969" rx="12.5" ry="12.5" style="stroke:#181818;stroke-width:1.5;" width="199.792" x="394.501" y="526.6719"/><text fill="#000000" font-family="sans-serif" font-size="14" lengthAdjust="spacing" textLength="179.792" x="404.501" y="549.667">High Costs for Low Traffic</text><rect fill="#F1F1F1" height="36.2969" rx="12.5" ry="12.5" style="stroke:#181818;stroke-width:1.5;" width="322.251" x="644.293" y="526.6719"/><text fill="#000000" font-family="sans-serif" font-size="14" lengthAdjust="spacing" textLength="302.251" x="654.293" y="549.667">Hidden costs like per-GB data transfer fees</text><path d="M594.293,544.8203 L604.293,544.8203 C619.293,544.8203 619.293,544.8203 634.293,544.8203 L644.293,544.8203 " fill="#FFFFFF" fill-opacity="0.00000" style="stroke:#181818;stroke-width:1;"/><path d="M344.501,601.1172 L354.501,601.1172 C369.501,601.1172 369.501,544.8203 384.501,544.8203 L394.501,544.8203 " fill="#FFFFFF" fill-opacity="0.00000" style="stroke:#181818;stroke-width:1;"/><rect fill="#F1F1F1" height="36.2969" rx="12.5" ry="12.5" style="stroke:#181818;stroke-width:1.5;" width="167.7451" x="394.501" y="582.9688"/><text fill="#000000" font-family="sans-serif" font-size="14" lengthAdjust="spacing" textLength="147.7451" x="404.501" y="605.9639">Migration Challenges</text><rect fill="#F1F1F1" height="36.2969" rx="12.5" ry="12.5" style="stroke:#181818;stroke-width:1.5;" width="349.8408" x="612.2461" y="582.9688"/><text fill="#000000" font-family="sans-serif" font-size="14" lengthAdjust="spacing" textLength="329.8408" x="622.2461" y="605.9639">Costly and time-consuming to switch providers</text><path d="M562.2461,601.1172 L572.2461,601.1172 C587.2461,601.1172 587.2461,601.1172 602.2461,601.1172 L612.2461,601.1172 " fill="#FFFFFF" fill-opacity="0.00000" style="stroke:#181818;stroke-width:1;"/><path d="M344.501,601.1172 L354.501,601.1172 C369.501,601.1172 369.501,601.1172 384.501,601.1172 L394.501,601.1172 " fill="#FFFFFF" fill-opacity="0.00000" style="stroke:#181818;stroke-width:1;"/><rect fill="#F1F1F1" height="36.2969" rx="12.5" ry="12.5" style="stroke:#181818;stroke-width:1.5;" width="189.832" x="394.501" y="639.2656"/><text fill="#000000" font-family="sans-serif" font-size="14" lengthAdjust="spacing" textLength="169.832" x="404.501" y="662.2607">Geopolitical Restrictions</text><rect fill="#F1F1F1" height="36.2969" rx="12.5" ry="12.5" style="stroke:#181818;stroke-width:1.5;" width="294.9414" x="634.333" y="639.2656"/><text fill="#000000" font-family="sans-serif" font-size="14" lengthAdjust="spacing" textLength="274.9414" x="644.333" y="662.2607">Blocked IP addresses in certain regions</text><path d="M584.333,657.4141 L594.333,657.4141 C609.333,657.4141 609.333,657.4141 624.333,657.4141 L634.333,657.4141 " fill="#FFFFFF" fill-opacity="0.00000" style="stroke:#181818;stroke-width:1;"/><path d="M344.501,601.1172 L354.501,601.1172 C369.501,601.1172 369.501,657.4141 384.501,657.4141 L394.501,657.4141 " fill="#FFFFFF" fill-opacity="0.00000" style="stroke:#181818;stroke-width:1;"/><rect fill="#F1F1F1" height="36.2969" rx="12.5" ry="12.5" style="stroke:#181818;stroke-width:1.5;" width="147.3877" x="394.501" y="723.7109"/><text fill="#000000" font-family="sans-serif" font-size="14" lengthAdjust="spacing" textLength="127.3877" x="404.501" y="746.7061">Security Concerns</text><rect fill="#F1F1F1" height="36.2969" rx="12.5" ry="12.5" style="stroke:#181818;stroke-width:1.5;" width="317.2266" x="591.8887" y="695.5625"/><text fill="#000000" font-family="sans-serif" font-size="14" lengthAdjust="spacing" textLength="297.2266" x="601.8887" y="718.5576">Data privacy risks with third-party storage</text><path d="M541.8887,741.8594 L551.8887,741.8594 C566.8887,741.8594 566.8887,713.7109 581.8887,713.7109 L591.8887,713.7109 " fill="#FFFFFF" fill-opacity="0.00000" style="stroke:#181818;stroke-width:1;"/><rect fill="#F1F1F1" height="36.2969" rx="12.5" ry="12.5" style="stroke:#181818;stroke-width:1.5;" width="203.8799" x="591.8887" y="751.8594"/><text fill="#000000" font-family="sans-serif" font-size="14" lengthAdjust="spacing" textLength="183.8799" x="601.8887" y="774.8545">Encryption adds overhead</text><path d="M541.8887,741.8594 L551.8887,741.8594 C566.8887,741.8594 566.8887,770.0078 581.8887,770.0078 L591.8887,770.0078 " fill="#FFFFFF" fill-opacity="0.00000" style="stroke:#181818;stroke-width:1;"/><path d="M344.501,601.1172 L354.501,601.1172 C369.501,601.1172 369.501,741.8594 384.501,741.8594 L394.501,741.8594 " fill="#FFFFFF" fill-opacity="0.00000" style="stroke:#181818;stroke-width:1;"/><path d="M170.4717,1023.3438 L180.4717,1023.3438 C195.4717,1023.3438 195.4717,601.1172 210.4717,601.1172 L220.4717,601.1172 " fill="#FFFFFF" fill-opacity="0.00000" style="stroke:#181818;stroke-width:1;"/><rect fill="#F1F1F1" height="36.2969" rx="12.5" ry="12.5" style="stroke:#181818;stroke-width:1.5;" width="118.2666" x="220.4717" y="977.0469"/><text fill="#000000" font-family="sans-serif" font-size="14" lengthAdjust="spacing" textLength="98.2666" x="230.4717" y="1000.042">Requirements</text><rect fill="#F1F1F1" height="36.2969" rx="12.5" ry="12.5" style="stroke:#181818;stroke-width:1.5;" width="92.7822" x="388.7383" y="836.3047"/><text fill="#000000" font-family="sans-serif" font-size="14" lengthAdjust="spacing" textLength="72.7822" x="398.7383" y="859.2998">Functional</text><rect fill="#F1F1F1" height="36.2969" rx="12.5" ry="12.5" style="stroke:#181818;stroke-width:1.5;" width="307.7861" x="531.5205" y="808.1563"/><text fill="#000000" font-family="sans-serif" font-size="14" lengthAdjust="spacing" textLength="287.7861" x="541.5205" y="831.1514">Create directories, upload/download files</text><path d="M481.5205,854.4531 L491.5205,854.4531 C506.5205,854.4531 506.5205,826.3047 521.5205,826.3047 L531.5205,826.3047 " fill="#FFFFFF" fill-opacity="0.00000" style="stroke:#181818;stroke-width:1;"/><rect fill="#F1F1F1" height="36.2969" rx="12.5" ry="12.5" style="stroke:#181818;stroke-width:1.5;" width="181.1094" x="531.5205" y="864.4531"/><text fill="#000000" font-family="sans-serif" font-size="14" lengthAdjust="spacing" textLength="161.1094" x="541.5205" y="887.4482">File size limit (~10 GB)</text><path d="M481.5205,854.4531 L491.5205,854.4531 C506.5205,854.4531 506.5205,882.6016 521.5205,882.6016 L531.5205,882.6016 " fill="#FFFFFF" fill-opacity="0.00000" style="stroke:#181818;stroke-width:1;"/><path d="M338.7383,995.1953 L348.7383,995.1953 C363.7383,995.1953 363.7383,854.4531 378.7383,854.4531 L388.7383,854.4531 " fill="#FFFFFF" fill-opacity="0.00000" style="stroke:#181818;stroke-width:1;"/><rect fill="#F1F1F1" height="36.2969" rx="12.5" ry="12.5" style="stroke:#181818;stroke-width:1.5;" width="125.7451" x="388.7383" y="1033.3438"/><text fill="#000000" font-family="sans-serif" font-size="14" lengthAdjust="spacing" textLength="105.7451" x="398.7383" y="1056.3389">Non-Functional</text><rect fill="#F1F1F1" height="36.2969" rx="12.5" ry="12.5" style="stroke:#181818;stroke-width:1.5;" width="253.0508" x="564.4834" y="920.75"/><text fill="#000000" font-family="sans-serif" font-size="14" lengthAdjust="spacing" textLength="233.0508" x="574.4834" y="943.7451">Scalability (petabytes of storage)</text><path d="M514.4834,1051.4922 L524.4834,1051.4922 C539.4834,1051.4922 539.4834,938.8984 554.4834,938.8984 L564.4834,938.8984 " fill="#FFFFFF" fill-opacity="0.00000" style="stroke:#181818;stroke-width:1;"/><rect fill="#F1F1F1" height="36.2969" rx="12.5" ry="12.5" style="stroke:#181818;stroke-width:1.5;" width="286" x="564.4834" y="977.0469"/><text fill="#000000" font-family="sans-serif" font-size="14" lengthAdjust="spacing" textLength="266" x="574.4834" y="1000.042">High Availability (4 or 5 nines uptime)</text><path d="M514.4834,1051.4922 L524.4834,1051.4922 C539.4834,1051.4922 539.4834,995.1953 554.4834,995.1953 L564.4834,995.1953 " fill="#FFFFFF" fill-opacity="0.00000" style="stroke:#181818;stroke-width:1;"/><rect fill="#F1F1F1" height="36.2969" rx="12.5" ry="12.5" style="stroke:#181818;stroke-width:1.5;" width="267.1943" x="564.4834" y="1033.3438"/><text fill="#000000" font-family="sans-serif" font-size="14" lengthAdjust="spacing" textLength="247.1943" x="574.4834" y="1056.3389">High Performance (fast downloads)</text><path d="M514.4834,1051.4922 L524.4834,1051.4922 C539.4834,1051.4922 539.4834,1051.4922 554.4834,1051.4922 L564.4834,1051.4922 " fill="#FFFFFF" fill-opacity="0.00000" style="stroke:#181818;stroke-width:1;"/><rect fill="#F1F1F1" height="36.2969" rx="12.5" ry="12.5" style="stroke:#181818;stroke-width:1.5;" width="223.7041" x="564.4834" y="1089.6406"/><text fill="#000000" font-family="sans-serif" font-size="14" lengthAdjust="spacing" textLength="203.7041" x="574.4834" y="1112.6357">Durability (no file corruption)</text><path d="M514.4834,1051.4922 L524.4834,1051.4922 C539.4834,1051.4922 539.4834,1107.7891 554.4834,1107.7891 L564.4834,1107.7891 " fill="#FFFFFF" fill-opacity="0.00000" style="stroke:#181818;stroke-width:1;"/><rect fill="#F1F1F1" height="36.2969" rx="12.5" ry="12.5" style="stroke:#181818;stroke-width:1.5;" width="253.4268" x="564.4834" y="1145.9375"/><text fill="#000000" font-family="sans-serif" font-size="14" lengthAdjust="spacing" textLength="233.4268" x="574.4834" y="1168.9326">Security (authorized access only)</text><path d="M514.4834,1051.4922 L524.4834,1051.4922 C539.4834,1051.4922 539.4834,1164.0859 554.4834,1164.0859 L564.4834,1164.0859 " fill="#FFFFFF" fill-opacity="0.00000" style="stroke:#181818;stroke-width:1;"/><path d="M338.7383,995.1953 L348.7383,995.1953 C363.7383,995.1953 363.7383,1051.4922 378.7383,1051.4922 L388.7383,1051.4922 " fill="#FFFFFF" fill-opacity="0.00000" style="stroke:#181818;stroke-width:1;"/><path d="M170.4717,1023.3438 L180.4717,1023.3438 C195.4717,1023.3438 195.4717,995.1953 210.4717,995.1953 L220.4717,995.1953 " fill="#FFFFFF" fill-opacity="0.00000" style="stroke:#181818;stroke-width:1;"/><rect fill="#F1F1F1" height="36.2969" rx="12.5" ry="12.5" style="stroke:#181818;stroke-width:1.5;" width="251.7793" x="220.4717" y="1230.3828"/><text fill="#000000" font-family="sans-serif" font-size="14" lengthAdjust="spacing" textLength="231.7793" x="230.4717" y="1253.3779">Authentication and Authorization</text><rect fill="#F1F1F1" height="36.2969" rx="12.5" ry="12.5" style="stroke:#181818;stroke-width:1.5;" width="217.9619" x="522.251" y="1202.2344"/><text fill="#000000" font-family="sans-serif" font-size="14" lengthAdjust="spacing" textLength="197.9619" x="532.251" y="1225.2295">Token-Based Authentication</text><rect fill="#F1F1F1" height="36.2969" rx="12.5" ry="12.5" style="stroke:#181818;stroke-width:1.5;" width="189.7842" x="790.2129" y="1202.2344"/><text fill="#000000" font-family="sans-serif" font-size="14" lengthAdjust="spacing" textLength="169.7842" x="800.2129" y="1225.2295">Key rotation for security</text><path d="M740.2129,1220.3828 L750.2129,1220.3828 C765.2129,1220.3828 765.2129,1220.3828 780.2129,1220.3828 L790.2129,1220.3828 " fill="#FFFFFF" fill-opacity="0.00000" style="stroke:#181818;stroke-width:1;"/><path d="M472.251,1248.5313 L482.251,1248.5313 C497.251,1248.5313 497.251,1220.3828 512.251,1220.3828 L522.251,1220.3828 " fill="#FFFFFF" fill-opacity="0.00000" style="stroke:#181818;stroke-width:1;"/><rect fill="#F1F1F1" height="36.2969" rx="12.5" ry="12.5" style="stroke:#181818;stroke-width:1.5;" width="197.8848" x="522.251" y="1258.5313"/><text fill="#000000" font-family="sans-serif" font-size="14" lengthAdjust="spacing" textLength="177.8848" x="532.251" y="1281.5264">Access Token Generation</text><rect fill="#F1F1F1" height="36.2969" rx="12.5" ry="12.5" style="stroke:#181818;stroke-width:1.5;" width="302.0303" x="770.1357" y="1258.5313"/><text fill="#000000" font-family="sans-serif" font-size="14" lengthAdjust="spacing" textLength="282.0303" x="780.1357" y="1281.5264">SDK generates tokens for secure access</text><path d="M720.1357,1276.6797 L730.1357,1276.6797 C745.1357,1276.6797 745.1357,1276.6797 760.1357,1276.6797 L770.1357,1276.6797 " fill="#FFFFFF" fill-opacity="0.00000" style="stroke:#181818;stroke-width:1;"/><path d="M472.251,1248.5313 L482.251,1248.5313 C497.251,1248.5313 497.251,1276.6797 512.251,1276.6797 L522.251,1276.6797 " fill="#FFFFFF" fill-opacity="0.00000" style="stroke:#181818;stroke-width:1;"/><path d="M170.4717,1023.3438 L180.4717,1023.3438 C195.4717,1023.3438 195.4717,1248.5313 210.4717,1248.5313 L220.4717,1248.5313 " fill="#FFFFFF" fill-opacity="0.00000" style="stroke:#181818;stroke-width:1;"/><rect fill="#F1F1F1" height="36.2969" rx="12.5" ry="12.5" style="stroke:#181818;stroke-width:1.5;" width="185.2041" x="220.4717" y="1371.125"/><text fill="#000000" font-family="sans-serif" font-size="14" lengthAdjust="spacing" textLength="165.2041" x="230.4717" y="1394.1201">High-Level Architecture</text><rect fill="#F1F1F1" height="36.2969" rx="12.5" ry="12.5" style="stroke:#181818;stroke-width:1.5;" width="108.4434" x="455.6758" y="1314.8281"/><text fill="#000000" font-family="sans-serif" font-size="14" lengthAdjust="spacing" textLength="88.4434" x="465.6758" y="1337.8232">API Gateway</text><rect fill="#F1F1F1" height="36.2969" rx="12.5" ry="12.5" style="stroke:#181818;stroke-width:1.5;" width="388.5186" x="614.1191" y="1314.8281"/><text fill="#000000" font-family="sans-serif" font-size="14" lengthAdjust="spacing" textLength="368.5186" x="624.1191" y="1337.8232">Handles SSL termination, auth, rate limiting, logging</text><path d="M564.1191,1332.9766 L574.1191,1332.9766 C589.1191,1332.9766 589.1191,1332.9766 604.1191,1332.9766 L614.1191,1332.9766 " fill="#FFFFFF" fill-opacity="0.00000" style="stroke:#181818;stroke-width:1;"/><path d="M405.6758,1389.2734 L415.6758,1389.2734 C430.6758,1389.2734 430.6758,1332.9766 445.6758,1332.9766 L455.6758,1332.9766 " fill="#FFFFFF" fill-opacity="0.00000" style="stroke:#181818;stroke-width:1;"/><rect fill="#F1F1F1" height="36.2969" rx="12.5" ry="12.5" style="stroke:#181818;stroke-width:1.5;" width="142.4863" x="455.6758" y="1371.125"/><text fill="#000000" font-family="sans-serif" font-size="14" lengthAdjust="spacing" textLength="122.4863" x="465.6758" y="1394.1201">Metadata Service</text><rect fill="#F1F1F1" height="36.2969" rx="12.5" ry="12.5" style="stroke:#181818;stroke-width:1.5;" width="388.8193" x="648.1621" y="1371.125"/><text fill="#000000" font-family="sans-serif" font-size="14" lengthAdjust="spacing" textLength="368.8193" x="658.1621" y="1394.1201">Tracks storage locations, file details, health statuses</text><path d="M598.1621,1389.2734 L608.1621,1389.2734 C623.1621,1389.2734 623.1621,1389.2734 638.1621,1389.2734 L648.1621,1389.2734 " fill="#FFFFFF" fill-opacity="0.00000" style="stroke:#181818;stroke-width:1;"/><path d="M405.6758,1389.2734 L415.6758,1389.2734 C430.6758,1389.2734 430.6758,1389.2734 445.6758,1389.2734 L455.6758,1389.2734 " fill="#FFFFFF" fill-opacity="0.00000" style="stroke:#181818;stroke-width:1;"/><rect fill="#F1F1F1" height="36.2969" rx="12.5" ry="12.5" style="stroke:#181818;stroke-width:1.5;" width="130.9678" x="455.6758" y="1427.4219"/><text fill="#000000" font-family="sans-serif" font-size="14" lengthAdjust="spacing" textLength="110.9678" x="465.6758" y="1450.417">Storage Service</text><rect fill="#F1F1F1" height="36.2969" rx="12.5" ry="12.5" style="stroke:#181818;stroke-width:1.5;" width="292.084" x="636.6436" y="1427.4219"/><text fill="#000000" font-family="sans-serif" font-size="14" lengthAdjust="spacing" textLength="272.084" x="646.6436" y="1450.417">Hosts/nodes store files with replication</text><path d="M586.6436,1445.5703 L596.6436,1445.5703 C611.6436,1445.5703 611.6436,1445.5703 626.6436,1445.5703 L636.6436,1445.5703 " fill="#FFFFFF" fill-opacity="0.00000" style="stroke:#181818;stroke-width:1;"/><path d="M405.6758,1389.2734 L415.6758,1389.2734 C430.6758,1389.2734 430.6758,1445.5703 445.6758,1445.5703 L455.6758,1445.5703 " fill="#FFFFFF" fill-opacity="0.00000" style="stroke:#181818;stroke-width:1;"/><path d="M170.4717,1023.3438 L180.4717,1023.3438 C195.4717,1023.3438 195.4717,1389.2734 210.4717,1389.2734 L220.4717,1389.2734 " fill="#FFFFFF" fill-opacity="0.00000" style="stroke:#181818;stroke-width:1;"/><rect fill="#F1F1F1" height="36.2969" rx="12.5" ry="12.5" style="stroke:#181818;stroke-width:1.5;" width="164.4707" x="220.4717" y="1596.3125"/><text fill="#000000" font-family="sans-serif" font-size="14" lengthAdjust="spacing" textLength="144.4707" x="230.4717" y="1619.3076">Common Operations</text><rect fill="#F1F1F1" height="36.2969" rx="12.5" ry="12.5" style="stroke:#181818;stroke-width:1.5;" width="155.3584" x="434.9424" y="1511.8672"/><text fill="#000000" font-family="sans-serif" font-size="14" lengthAdjust="spacing" textLength="135.3584" x="444.9424" y="1534.8623">Reads (Downloads)</text><rect fill="#F1F1F1" height="36.2969" rx="12.5" ry="12.5" style="stroke:#181818;stroke-width:1.5;" width="308.2441" x="640.3008" y="1483.7188"/><text fill="#000000" font-family="sans-serif" font-size="14" lengthAdjust="spacing" textLength="288.2441" x="650.3008" y="1506.7139">Query metadata for optimal storage host</text><path d="M590.3008,1530.0156 L600.3008,1530.0156 C615.3008,1530.0156 615.3008,1501.8672 630.3008,1501.8672 L640.3008,1501.8672 " fill="#FFFFFF" fill-opacity="0.00000" style="stroke:#181818;stroke-width:1;"/><rect fill="#F1F1F1" height="36.2969" rx="12.5" ry="12.5" style="stroke:#181818;stroke-width:1.5;" width="158.1406" x="640.3008" y="1540.0156"/><text fill="#000000" font-family="sans-serif" font-size="14" lengthAdjust="spacing" textLength="138.1406" x="650.3008" y="1563.0107">Stream file to client</text><path d="M590.3008,1530.0156 L600.3008,1530.0156 C615.3008,1530.0156 615.3008,1558.1641 630.3008,1558.1641 L640.3008,1558.1641 " fill="#FFFFFF" fill-opacity="0.00000" style="stroke:#181818;stroke-width:1;"/><path d="M384.9424,1614.4609 L394.9424,1614.4609 C409.9424,1614.4609 409.9424,1530.0156 424.9424,1530.0156 L434.9424,1530.0156 " fill="#FFFFFF" fill-opacity="0.00000" style="stroke:#181818;stroke-width:1;"/><rect fill="#F1F1F1" height="36.2969" rx="12.5" ry="12.5" style="stroke:#181818;stroke-width:1.5;" width="207.332" x="434.9424" y="1652.6094"/><text fill="#000000" font-family="sans-serif" font-size="14" lengthAdjust="spacing" textLength="187.332" x="444.9424" y="1675.6045">Writes (Uploads/Deletions)</text><rect fill="#F1F1F1" height="36.2969" rx="12.5" ry="12.5" style="stroke:#181818;stroke-width:1.5;" width="239.2969" x="692.2744" y="1596.3125"/><text fill="#000000" font-family="sans-serif" font-size="14" lengthAdjust="spacing" textLength="219.2969" x="702.2744" y="1619.3076">Multipart uploads for large files</text><path d="M642.2744,1670.7578 L652.2744,1670.7578 C667.2744,1670.7578 667.2744,1614.4609 682.2744,1614.4609 L692.2744,1614.4609 " fill="#FFFFFF" fill-opacity="0.00000" style="stroke:#181818;stroke-width:1;"/><rect fill="#F1F1F1" height="36.2969" rx="12.5" ry="12.5" style="stroke:#181818;stroke-width:1.5;" width="280.627" x="692.2744" y="1652.6094"/><text fill="#000000" font-family="sans-serif" font-size="14" lengthAdjust="spacing" textLength="260.627" x="702.2744" y="1675.6045">Chunked transfers improve reliability</text><path d="M642.2744,1670.7578 L652.2744,1670.7578 C667.2744,1670.7578 667.2744,1670.7578 682.2744,1670.7578 L692.2744,1670.7578 " fill="#FFFFFF" fill-opacity="0.00000" style="stroke:#181818;stroke-width:1;"/><rect fill="#F1F1F1" height="36.2969" rx="12.5" ry="12.5" style="stroke:#181818;stroke-width:1.5;" width="340.9883" x="692.2744" y="1708.9063"/><text fill="#000000" font-family="sans-serif" font-size="14" lengthAdjust="spacing" textLength="320.9883" x="702.2744" y="1731.9014">Encryption at rest using secrets management</text><path d="M642.2744,1670.7578 L652.2744,1670.7578 C667.2744,1670.7578 667.2744,1727.0547 682.2744,1727.0547 L692.2744,1727.0547 " fill="#FFFFFF" fill-opacity="0.00000" style="stroke:#181818;stroke-width:1;"/><path d="M384.9424,1614.4609 L394.9424,1614.4609 C409.9424,1614.4609 409.9424,1670.7578 424.9424,1670.7578 L434.9424,1670.7578 " fill="#FFFFFF" fill-opacity="0.00000" style="stroke:#181818;stroke-width:1;"/><path d="M170.4717,1023.3438 L180.4717,1023.3438 C195.4717,1023.3438 195.4717,1614.4609 210.4717,1614.4609 L220.4717,1614.4609 " fill="#FFFFFF" fill-opacity="0.00000" style="stroke:#181818;stroke-width:1;"/><rect fill="#F1F1F1" height="36.2969" rx="12.5" ry="12.5" style="stroke:#181818;stroke-width:1.5;" width="149.917" x="220.4717" y="1793.3516"/><text fill="#000000" font-family="sans-serif" font-size="14" lengthAdjust="spacing" textLength="129.917" x="230.4717" y="1816.3467">Cache Invalidation</text><rect fill="#F1F1F1" height="36.2969" rx="12.5" ry="12.5" style="stroke:#181818;stroke-width:1.5;" width="349.875" x="420.3887" y="1765.2031"/><text fill="#000000" font-family="sans-serif" font-size="14" lengthAdjust="spacing" textLength="329.875" x="430.3887" y="1788.1982">Fingerprinting files prevents stale cache issues</text><path d="M370.3887,1811.5 L380.3887,1811.5 C395.3887,1811.5 395.3887,1783.3516 410.3887,1783.3516 L420.3887,1783.3516 " fill="#FFFFFF" fill-opacity="0.00000" style="stroke:#181818;stroke-width:1;"/><rect fill="#F1F1F1" height="36.2969" rx="12.5" ry="12.5" style="stroke:#181818;stroke-width:1.5;" width="162.1055" x="420.3887" y="1821.5"/><text fill="#000000" font-family="sans-serif" font-size="14" lengthAdjust="spacing" textLength="142.1055" x="430.3887" y="1844.4951">Stale file monitoring</text><path d="M370.3887,1811.5 L380.3887,1811.5 C395.3887,1811.5 395.3887,1839.6484 410.3887,1839.6484 L420.3887,1839.6484 " fill="#FFFFFF" fill-opacity="0.00000" style="stroke:#181818;stroke-width:1;"/><path d="M170.4717,1023.3438 L180.4717,1023.3438 C195.4717,1023.3438 195.4717,1811.5 210.4717,1811.5 L220.4717,1811.5 " fill="#FFFFFF" fill-opacity="0.00000" style="stroke:#181818;stroke-width:1;"/><rect fill="#F1F1F1" height="36.2969" rx="12.5" ry="12.5" style="stroke:#181818;stroke-width:1.5;" width="254.2197" x="220.4717" y="1905.9453"/><text fill="#000000" font-family="sans-serif" font-size="14" lengthAdjust="spacing" textLength="234.2197" x="230.4717" y="1928.9404">Logging, Monitoring, and Alerting</text><rect fill="#F1F1F1" height="36.2969" rx="12.5" ry="12.5" style="stroke:#181818;stroke-width:1.5;" width="353.04" x="524.6914" y="1877.7969"/><text fill="#000000" font-family="sans-serif" font-size="14" lengthAdjust="spacing" textLength="333.04" x="534.6914" y="1900.792">Track upload states, CDN misses, request rates</text><path d="M474.6914,1924.0938 L484.6914,1924.0938 C499.6914,1924.0938 499.6914,1895.9453 514.6914,1895.9453 L524.6914,1895.9453 " fill="#FFFFFF" fill-opacity="0.00000" style="stroke:#181818;stroke-width:1;"/><rect fill="#F1F1F1" height="36.2969" rx="12.5" ry="12.5" style="stroke:#181818;stroke-width:1.5;" width="182.4424" x="524.6914" y="1934.0938"/><text fill="#000000" font-family="sans-serif" font-size="14" lengthAdjust="spacing" textLength="162.4424" x="534.6914" y="1957.0889">Detect unusual activity</text><path d="M474.6914,1924.0938 L484.6914,1924.0938 C499.6914,1924.0938 499.6914,1952.2422 514.6914,1952.2422 L524.6914,1952.2422 " fill="#FFFFFF" fill-opacity="0.00000" style="stroke:#181818;stroke-width:1;"/><path d="M170.4717,1023.3438 L180.4717,1023.3438 C195.4717,1023.3438 195.4717,1924.0938 210.4717,1924.0938 L220.4717,1924.0938 " fill="#FFFFFF" fill-opacity="0.00000" style="stroke:#181818;stroke-width:1;"/><rect fill="#F1F1F1" height="36.2969" rx="12.5" ry="12.5" style="stroke:#181818;stroke-width:1.5;" width="145.9453" x="220.4717" y="1990.3906"/><text fill="#000000" font-family="sans-serif" font-size="14" lengthAdjust="spacing" textLength="125.9453" x="230.4717" y="2013.3857">Other Discussions</text><rect fill="#F1F1F1" height="36.2969" rx="12.5" ry="12.5" style="stroke:#181818;stroke-width:1.5;" width="131.542" x="416.417" y="1990.3906"/><text fill="#000000" font-family="sans-serif" font-size="14" lengthAdjust="spacing" textLength="111.542" x="426.417" y="2013.3857">Partial Playback</text><rect fill="#F1F1F1" height="36.2969" rx="12.5" ry="12.5" style="stroke:#181818;stroke-width:1.5;" width="332.874" x="597.959" y="1990.3906"/><text fill="#000000" font-family="sans-serif" font-size="14" lengthAdjust="spacing" textLength="312.874" x="607.959" y="2013.3857">Sequential downloads enable early playback</text><path d="M547.959,2008.5391 L557.959,2008.5391 C572.959,2008.5391 572.959,2008.5391 587.959,2008.5391 L597.959,2008.5391 " fill="#FFFFFF" fill-opacity="0.00000" style="stroke:#181818;stroke-width:1;"/><path d="M366.417,2008.5391 L376.417,2008.5391 C391.417,2008.5391 391.417,2008.5391 406.417,2008.5391 L416.417,2008.5391 " fill="#FFFFFF" fill-opacity="0.00000" style="stroke:#181818;stroke-width:1;"/><path d="M170.4717,1023.3438 L180.4717,1023.3438 C195.4717,1023.3438 195.4717,2008.5391 210.4717,2008.5391 L220.4717,2008.5391 " fill="#FFFFFF" fill-opacity="0.00000" style="stroke:#181818;stroke-width:1;"/><!--SRC=[RLRBSY974Bpp5NL41AnMYbs7GwT5i7ejI5X8wtCpKp0Tp7IF-u7C7lpjpduC8DadYPdgUcHcPSytwuHnZLHb8zhUW2RJHrhkhUE6fcpbHlK60ngNEw6SsB35hm7Dz1iRcWd7gjY79mDQijanUSl6qjheXXGBizfJAPoWWfN3YnHvtxH68tRv_OaGOBZqXLGRMccl2YQ3hAdAiX2rMCbQkbpZfPAc7BLeTqyXXon3jKgeicQoY4QQa_vUbNGqqTRbmjyBhNGZsP9Unt1EnPcABeZkvAR2qPVAQB-fMk_IqN5PIYUr4ZLL8ROhscZ3v8nOhsLnUdwy4_9zxxUiDqQqbKJT6h18wunSUSVb_q1q8tpjoEcQZGYObDu4XBIF590sP5kvZJ3HL5hndfs9RjgQ_pwKFcb- -hYaMkkjR-r_thLQAXUnMQDvR_WmK0AHrgWBPEdbE6zuNvQi4e9KeobgsOnkhzDKW4RPDG1PSsvkBW53g4YJ2aYmobqFOX4W0s39oOP7OClw9ipjDDatwOhgo7elOzfgG1mmfMSEY1OXTKvuNUjY2tpl5oJAqh2rm4wYLpPEuA_XJHSC-HR06BgQQ01kkXJJC4Hhv4uKKAgqMqjef29teaJhj07sMMEgCFispeUQG7F7fc9H1gQU-Iyl3JTWEXMzWU0J-1a1mn0_j66uG58eTKY-hRKepqlzfi8_j9Pr1zYD3BANlnYuDv1w_v-BptHxVHPpFser-fZ_PA6etx8JgxtBsv1cEEiu1UUd4gR-bo2whwIamW7V1e9EWnTie8ucYhM_5jPHrx3DOLDl3icKZcD0DCRu2DPPPoAPXRxmhW82lq2VA0fGHrhL-xFeHNW5245wWXbw6UVe-2IE_wAth4RNmdBvuK2gz8F1ftOfHH2spQNZwN4g6PD0POhDoT7bz0TjqZDWuKACFQRWt6ylGpEQyOvh6fkYaWwqTdirNjpJBJAyYRobTz5HB2sNCu8JGFYnvf025CDeYubdRCGGIxpPT6ut1vDnsu87oo8h4LjQGAwPMHn8uqDI4ViIXsIDNr1d3KNZ5d1mxxmD-T2xX7TXnS-LBZbbvQJ5j126s_e8SB2W1i0-jHcvbFOPYs2fF_qWZJyycpqrtHG1IXqKXgNkkW-ccz5tM98cpG1VA6e9QcFsFq4Vskc_nesnvrEkETREPURmL1bMDkzK8gqMPiEdMpMfl0gkqLaNB2DVM8Ph-SxJJvVTuJLaxsqmB2Z1CFmG2u7kczGXJKHHCTsh7IwgyYZL6vnW0vDHWTeCQciWcs37u2LiIZmghVK7XiBZY0A0bi4jeXfWq54OGveV7W_JZk0oSPraeZWo3f7wO3NXvczaS4d83LuLvZdUnbCEyYMllFLWHi1PTWa9UdBXpiD5L7Xh3sml0BL4vA8M-nNATIkEn2g-E5W4iH8hJ88l1bm0RHV_ZV5DahzBUiYYtEjyHZ3KK8CkFbr-llpwwN85tLpqNzLM8HqifMcZDA91zMyNCxBQct27TZTkj9i7iHFqx5M8kmewLGzOw_m0nEwaqIeIz_1pVWpuxSle6auRFtOC_PptfhoETpMae4kWUqMlBpUZttipeJOUt5zXjju4NpRExF5k-Iy0]--></g></svg>