<svg xmlns="http://www.w3.org/2000/svg" xmlns:xlink="http://www.w3.org/1999/xlink" contentStyleType="text/css" height="3174px" preserveAspectRatio="none" style="width:1066px;height:3174px;background:#FFFFFF;" version="1.1" viewBox="0 0 1066 3174" width="1066px" zoomAndPan="magnify"><defs/><g><rect fill="#F1F1F1" height="36.2969" rx="12.5" ry="12.5" style="stroke:#181818;stroke-width:1.5;" width="269.4639" x="10" y="1568.1641"/><text fill="#000000" font-family="sans-serif" font-size="14" lengthAdjust="spacing" textLength="249.4639" x="20" y="1591.1592">Notification/Alerting System Design</text><rect fill="#F1F1F1" height="36.2969" rx="12.5" ry="12.5" style="stroke:#181818;stroke-width:1.5;" width="195.499" x="329.4639" y="611.1172"/><text fill="#000000" font-family="sans-serif" font-size="14" lengthAdjust="spacing" textLength="175.499" x="339.4639" y="634.1123">Functional Requirements</text><rect fill="#F1F1F1" height="36.2969" rx="12.5" ry="12.5" style="stroke:#181818;stroke-width:1.5;" width="134.8916" x="574.9629" y="76.2969"/><text fill="#000000" font-family="sans-serif" font-size="14" lengthAdjust="spacing" textLength="114.8916" x="584.9629" y="99.292">Scope Definition</text><rect fill="#F1F1F1" height="36.2969" rx="12.5" ry="12.5" style="stroke:#181818;stroke-width:1.5;" width="183.4678" x="759.8545" y="20"/><text fill="#000000" font-family="sans-serif" font-size="14" lengthAdjust="spacing" textLength="163.4678" x="769.8545" y="42.9951">Use cases and features</text><path d="M709.8545,94.4453 L719.8545,94.4453 C734.8545,94.4453 734.8545,38.1484 749.8545,38.1484 L759.8545,38.1484 " fill="none" style="stroke:#181818;stroke-width:1.0;"/><rect fill="#F1F1F1" height="36.2969" rx="12.5" ry="12.5" style="stroke:#181818;stroke-width:1.5;" width="100.9922" x="759.8545" y="76.2969"/><text fill="#000000" font-family="sans-serif" font-size="14" lengthAdjust="spacing" textLength="80.9922" x="769.8545" y="99.292">MVP design</text><path d="M709.8545,94.4453 L719.8545,94.4453 C734.8545,94.4453 734.8545,94.4453 749.8545,94.4453 L759.8545,94.4453 " fill="none" style="stroke:#181818;stroke-width:1.0;"/><rect fill="#F1F1F1" height="36.2969" rx="12.5" ry="12.5" style="stroke:#181818;stroke-width:1.5;" width="191.4863" x="759.8545" y="132.5938"/><text fill="#000000" font-family="sans-serif" font-size="14" lengthAdjust="spacing" textLength="171.4863" x="769.8545" y="155.5889">Centralized functionality</text><path d="M709.8545,94.4453 L719.8545,94.4453 C734.8545,94.4453 734.8545,150.7422 749.8545,150.7422 L759.8545,150.7422 " fill="none" style="stroke:#181818;stroke-width:1.0;"/><path d="M524.9629,629.2656 L534.9629,629.2656 C549.9629,629.2656 549.9629,94.4453 564.9629,94.4453 L574.9629,94.4453 " fill="none" style="stroke:#181818;stroke-width:1.0;"/><rect fill="#F1F1F1" height="36.2969" rx="12.5" ry="12.5" style="stroke:#181818;stroke-width:1.5;" width="59.2041" x="574.9629" y="245.1875"/><text fill="#000000" font-family="sans-serif" font-size="14" lengthAdjust="spacing" textLength="39.2041" x="584.9629" y="268.1826">Users</text><rect fill="#F1F1F1" height="36.2969" rx="12.5" ry="12.5" style="stroke:#181818;stroke-width:1.5;" width="74.0791" x="684.167" y="188.8906"/><text fill="#000000" font-family="sans-serif" font-size="14" lengthAdjust="spacing" textLength="49.6289" x="694.167" y="211.8857">Sender</text><path d="M634.167,263.3359 L644.167,263.3359 C659.167,263.3359 659.167,207.0391 674.167,207.0391 L684.167,207.0391 " fill="none" style="stroke:#181818;stroke-width:1.0;"/><rect fill="#F1F1F1" height="36.2969" rx="12.5" ry="12.5" style="stroke:#181818;stroke-width:1.5;" width="85.6797" x="684.167" y="245.1875"/><text fill="#000000" font-family="sans-serif" font-size="14" lengthAdjust="spacing" textLength="65.6797" x="694.167" y="268.1826">Recipient</text><path d="M634.167,263.3359 L644.167,263.3359 C659.167,263.3359 659.167,263.3359 674.167,263.3359 L684.167,263.3359 " fill="none" style="stroke:#181818;stroke-width:1.0;"/><rect fill="#F1F1F1" height="36.2969" rx="12.5" ry="12.5" style="stroke:#181818;stroke-width:1.5;" width="64.8643" x="684.167" y="301.4844"/><text fill="#000000" font-family="sans-serif" font-size="14" lengthAdjust="spacing" textLength="44.8643" x="694.167" y="324.4795">Admin</text><path d="M634.167,263.3359 L644.167,263.3359 C659.167,263.3359 659.167,319.6328 674.167,319.6328 L684.167,319.6328 " fill="none" style="stroke:#181818;stroke-width:1.0;"/><path d="M524.9629,629.2656 L534.9629,629.2656 C549.9629,629.2656 549.9629,263.3359 564.9629,263.3359 L574.9629,263.3359 " fill="none" style="stroke:#181818;stroke-width:1.0;"/><rect fill="#F1F1F1" height="36.2969" rx="12.5" ry="12.5" style="stroke:#181818;stroke-width:1.5;" width="154.9004" x="574.9629" y="470.375"/><text fill="#000000" font-family="sans-serif" font-size="14" lengthAdjust="spacing" textLength="134.9004" x="584.9629" y="493.3701">Recipient Channels</text><rect fill="#F1F1F1" height="36.2969" rx="12.5" ry="12.5" style="stroke:#181818;stroke-width:1.5;" width="167.5127" x="779.8633" y="357.7813"/><text fill="#000000" font-family="sans-serif" font-size="14" lengthAdjust="spacing" textLength="147.5127" x="789.8633" y="380.7764">Browser notifications</text><path d="M729.8633,488.5234 L739.8633,488.5234 C754.8633,488.5234 754.8633,375.9297 769.8633,375.9297 L779.8633,375.9297 " fill="none" style="stroke:#181818;stroke-width:1.0;"/><rect fill="#F1F1F1" height="36.2969" rx="12.5" ry="12.5" style="stroke:#181818;stroke-width:1.5;" width="58.8418" x="779.8633" y="414.0781"/><text fill="#000000" font-family="sans-serif" font-size="14" lengthAdjust="spacing" textLength="38.8418" x="789.8633" y="437.0732">Email</text><path d="M729.8633,488.5234 L739.8633,488.5234 C754.8633,488.5234 754.8633,432.2266 769.8633,432.2266 L779.8633,432.2266 " fill="none" style="stroke:#181818;stroke-width:1.0;"/><rect fill="#F1F1F1" height="36.2969" rx="12.5" ry="12.5" style="stroke:#181818;stroke-width:1.5;" width="49.8525" x="779.8633" y="470.375"/><text fill="#000000" font-family="sans-serif" font-size="14" lengthAdjust="spacing" textLength="29.8525" x="789.8633" y="493.3701">SMS</text><path d="M729.8633,488.5234 L739.8633,488.5234 C754.8633,488.5234 754.8633,488.5234 769.8633,488.5234 L779.8633,488.5234 " fill="none" style="stroke:#181818;stroke-width:1.0;"/><rect fill="#F1F1F1" height="36.2969" rx="12.5" ry="12.5" style="stroke:#181818;stroke-width:1.5;" width="194.7744" x="779.8633" y="526.6719"/><text fill="#000000" font-family="sans-serif" font-size="14" lengthAdjust="spacing" textLength="174.7744" x="789.8633" y="549.667">Mobile push notifications</text><path d="M729.8633,488.5234 L739.8633,488.5234 C754.8633,488.5234 754.8633,544.8203 769.8633,544.8203 L779.8633,544.8203 " fill="none" style="stroke:#181818;stroke-width:1.0;"/><rect fill="#F1F1F1" height="36.2969" rx="12.5" ry="12.5" style="stroke:#181818;stroke-width:1.5;" width="155.8779" x="779.8633" y="582.9688"/><text fill="#000000" font-family="sans-serif" font-size="14" lengthAdjust="spacing" textLength="135.8779" x="789.8633" y="605.9639">In-App notifications</text><path d="M729.8633,488.5234 L739.8633,488.5234 C754.8633,488.5234 754.8633,601.1172 769.8633,601.1172 L779.8633,601.1172 " fill="none" style="stroke:#181818;stroke-width:1.0;"/><path d="M524.9629,629.2656 L534.9629,629.2656 C549.9629,629.2656 549.9629,488.5234 564.9629,488.5234 L574.9629,488.5234 " fill="none" style="stroke:#181818;stroke-width:1.0;"/><rect fill="#F1F1F1" height="36.2969" rx="12.5" ry="12.5" style="stroke:#181818;stroke-width:1.5;" width="93.5547" x="574.9629" y="667.4141"/><text fill="#000000" font-family="sans-serif" font-size="14" lengthAdjust="spacing" textLength="73.5547" x="584.9629" y="690.4092">Templates</text><rect fill="#F1F1F1" height="36.2969" rx="12.5" ry="12.5" style="stroke:#181818;stroke-width:1.5;" width="232.6455" x="718.5176" y="639.2656"/><text fill="#000000" font-family="sans-serif" font-size="14" lengthAdjust="spacing" textLength="212.6455" x="728.5176" y="662.2607">Reusable versioned templates</text><path d="M668.5176,685.5625 L678.5176,685.5625 C693.5176,685.5625 693.5176,657.4141 708.5176,657.4141 L718.5176,657.4141 " fill="none" style="stroke:#181818;stroke-width:1.0;"/><rect fill="#F1F1F1" height="36.2969" rx="12.5" ry="12.5" style="stroke:#181818;stroke-width:1.5;" width="220.6416" x="718.5176" y="695.5625"/><text fill="#000000" font-family="sans-serif" font-size="14" lengthAdjust="spacing" textLength="200.6416" x="728.5176" y="718.5576">Personalization placeholders</text><path d="M668.5176,685.5625 L678.5176,685.5625 C693.5176,685.5625 693.5176,713.7109 708.5176,713.7109 L718.5176,713.7109 " fill="none" style="stroke:#181818;stroke-width:1.0;"/><path d="M524.9629,629.2656 L534.9629,629.2656 C549.9629,629.2656 549.9629,685.5625 564.9629,685.5625 L574.9629,685.5625 " fill="none" style="stroke:#181818;stroke-width:1.0;"/><rect fill="#F1F1F1" height="36.2969" rx="12.5" ry="12.5" style="stroke:#181818;stroke-width:1.5;" width="148.8916" x="574.9629" y="808.1563"/><text fill="#000000" font-family="sans-serif" font-size="14" lengthAdjust="spacing" textLength="128.8916" x="584.9629" y="831.1514">Trigger Conditions</text><rect fill="#F1F1F1" height="36.2969" rx="12.5" ry="12.5" style="stroke:#181818;stroke-width:1.5;" width="144.25" x="773.8545" y="751.8594"/><text fill="#000000" font-family="sans-serif" font-size="14" lengthAdjust="spacing" textLength="124.25" x="783.8545" y="774.8545">Manual triggering</text><path d="M723.8545,826.3047 L733.8545,826.3047 C748.8545,826.3047 748.8545,770.0078 763.8545,770.0078 L773.8545,770.0078 " fill="none" style="stroke:#181818;stroke-width:1.0;"/><rect fill="#F1F1F1" height="36.2969" rx="12.5" ry="12.5" style="stroke:#181818;stroke-width:1.5;" width="192.293" x="773.8545" y="808.1563"/><text fill="#000000" font-family="sans-serif" font-size="14" lengthAdjust="spacing" textLength="172.293" x="783.8545" y="831.1514">Programmatic triggering</text><path d="M723.8545,826.3047 L733.8545,826.3047 C748.8545,826.3047 748.8545,826.3047 763.8545,826.3047 L773.8545,826.3047 " fill="none" style="stroke:#181818;stroke-width:1.0;"/><rect fill="#F1F1F1" height="36.2969" rx="12.5" ry="12.5" style="stroke:#181818;stroke-width:1.5;" width="183.6934" x="773.8545" y="864.4531"/><text fill="#000000" font-family="sans-serif" font-size="14" lengthAdjust="spacing" textLength="163.6934" x="783.8545" y="887.4482">Scheduled notifications</text><path d="M723.8545,826.3047 L733.8545,826.3047 C748.8545,826.3047 748.8545,882.6016 763.8545,882.6016 L773.8545,882.6016 " fill="none" style="stroke:#181818;stroke-width:1.0;"/><path d="M524.9629,629.2656 L534.9629,629.2656 C549.9629,629.2656 549.9629,826.3047 564.9629,826.3047 L574.9629,826.3047 " fill="none" style="stroke:#181818;stroke-width:1.0;"/><rect fill="#F1F1F1" height="36.2969" rx="12.5" ry="12.5" style="stroke:#181818;stroke-width:1.5;" width="226.7529" x="574.9629" y="948.8984"/><text fill="#000000" font-family="sans-serif" font-size="14" lengthAdjust="spacing" textLength="206.7529" x="584.9629" y="971.8936">User and Group Management</text><rect fill="#F1F1F1" height="36.2969" rx="12.5" ry="12.5" style="stroke:#181818;stroke-width:1.5;" width="203.0186" x="851.7158" y="920.75"/><text fill="#000000" font-family="sans-serif" font-size="14" lengthAdjust="spacing" textLength="183.0186" x="861.7158" y="943.7451">Role-based access control</text><path d="M801.7158,967.0469 L811.7158,967.0469 C826.7158,967.0469 826.7158,938.8984 841.7158,938.8984 L851.7158,938.8984 " fill="none" style="stroke:#181818;stroke-width:1.0;"/><rect fill="#F1F1F1" height="36.2969" rx="12.5" ry="12.5" style="stroke:#181818;stroke-width:1.5;" width="121.3018" x="851.7158" y="977.0469"/><text fill="#000000" font-family="sans-serif" font-size="14" lengthAdjust="spacing" textLength="101.3018" x="861.7158" y="1000.042">Opt-in/Opt-out</text><path d="M801.7158,967.0469 L811.7158,967.0469 C826.7158,967.0469 826.7158,995.1953 841.7158,995.1953 L851.7158,995.1953 " fill="none" style="stroke:#181818;stroke-width:1.0;"/><path d="M524.9629,629.2656 L534.9629,629.2656 C549.9629,629.2656 549.9629,967.0469 564.9629,967.0469 L574.9629,967.0469 " fill="none" style="stroke:#181818;stroke-width:1.0;"/><rect fill="#F1F1F1" height="36.2969" rx="12.5" ry="12.5" style="stroke:#181818;stroke-width:1.5;" width="156.2471" x="574.9629" y="1089.6406"/><text fill="#000000" font-family="sans-serif" font-size="14" lengthAdjust="spacing" textLength="136.2471" x="584.9629" y="1112.6357">Additional Features</text><rect fill="#F1F1F1" height="36.2969" rx="12.5" ry="12.5" style="stroke:#181818;stroke-width:1.5;" width="116.9131" x="781.21" y="1033.3438"/><text fill="#000000" font-family="sans-serif" font-size="14" lengthAdjust="spacing" textLength="96.9131" x="791.21" y="1056.3389">Deduplication</text><path d="M731.21,1107.7891 L741.21,1107.7891 C756.21,1107.7891 756.21,1051.4922 771.21,1051.4922 L781.21,1051.4922 " fill="none" style="stroke:#181818;stroke-width:1.0;"/><rect fill="#F1F1F1" height="36.2969" rx="12.5" ry="12.5" style="stroke:#181818;stroke-width:1.5;" width="152.9316" x="781.21" y="1089.6406"/><text fill="#000000" font-family="sans-serif" font-size="14" lengthAdjust="spacing" textLength="132.9316" x="791.21" y="1112.6357">Notification history</text><path d="M731.21,1107.7891 L741.21,1107.7891 C756.21,1107.7891 756.21,1107.7891 771.21,1107.7891 L781.21,1107.7891 " fill="none" style="stroke:#181818;stroke-width:1.0;"/><rect fill="#F1F1F1" height="36.2969" rx="12.5" ry="12.5" style="stroke:#181818;stroke-width:1.5;" width="115.1084" x="781.21" y="1145.9375"/><text fill="#000000" font-family="sans-serif" font-size="14" lengthAdjust="spacing" textLength="95.1084" x="791.21" y="1168.9326">Priority levels</text><path d="M731.21,1107.7891 L741.21,1107.7891 C756.21,1107.7891 756.21,1164.0859 771.21,1164.0859 L781.21,1164.0859 " fill="none" style="stroke:#181818;stroke-width:1.0;"/><path d="M524.9629,629.2656 L534.9629,629.2656 C549.9629,629.2656 549.9629,1107.7891 564.9629,1107.7891 L574.9629,1107.7891 " fill="none" style="stroke:#181818;stroke-width:1.0;"/><rect fill="#F1F1F1" height="36.2969" rx="12.5" ry="12.5" style="stroke:#181818;stroke-width:1.5;" width="83.5742" x="574.9629" y="1202.2344"/><text fill="#000000" font-family="sans-serif" font-size="14" lengthAdjust="spacing" textLength="63.5742" x="584.9629" y="1225.2295">Analytics</text><rect fill="#F1F1F1" height="36.2969" rx="12.5" ry="12.5" style="stroke:#181818;stroke-width:1.5;" width="208.9932" x="708.5371" y="1202.2344"/><text fill="#000000" font-family="sans-serif" font-size="14" lengthAdjust="spacing" textLength="188.9932" x="718.5371" y="1225.2295">Requirements for analytics</text><path d="M658.5371,1220.3828 L668.5371,1220.3828 C683.5371,1220.3828 683.5371,1220.3828 698.5371,1220.3828 L708.5371,1220.3828 " fill="none" style="stroke:#181818;stroke-width:1.0;"/><path d="M524.9629,629.2656 L534.9629,629.2656 C549.9629,629.2656 549.9629,1220.3828 564.9629,1220.3828 L574.9629,1220.3828 " fill="none" style="stroke:#181818;stroke-width:1.0;"/><path d="M279.4639,1586.3125 L289.4639,1586.3125 C304.4639,1586.3125 304.4639,629.2656 319.4639,629.2656 L329.4639,629.2656 " fill="none" style="stroke:#181818;stroke-width:1.0;"/><rect fill="#F1F1F1" height="36.2969" rx="12.5" ry="12.5" style="stroke:#181818;stroke-width:1.5;" width="228.4619" x="329.4639" y="1399.2734"/><text fill="#000000" font-family="sans-serif" font-size="14" lengthAdjust="spacing" textLength="208.4619" x="339.4639" y="1422.2686">Non-Functional Requirements</text><rect fill="#F1F1F1" height="36.2969" rx="12.5" ry="12.5" style="stroke:#181818;stroke-width:1.5;" width="91.9619" x="607.9258" y="1258.5313"/><text fill="#000000" font-family="sans-serif" font-size="14" lengthAdjust="spacing" textLength="71.9619" x="617.9258" y="1281.5264">Scalability</text><path d="M557.9258,1417.4219 L567.9258,1417.4219 C582.9258,1417.4219 582.9258,1276.6797 597.9258,1276.6797 L607.9258,1276.6797 " fill="none" style="stroke:#181818;stroke-width:1.0;"/><rect fill="#F1F1F1" height="36.2969" rx="12.5" ry="12.5" style="stroke:#181818;stroke-width:1.5;" width="109.4619" x="607.9258" y="1314.8281"/><text fill="#000000" font-family="sans-serif" font-size="14" lengthAdjust="spacing" textLength="89.4619" x="617.9258" y="1337.8232">Performance</text><path d="M557.9258,1417.4219 L567.9258,1417.4219 C582.9258,1417.4219 582.9258,1332.9766 597.9258,1332.9766 L607.9258,1332.9766 " fill="none" style="stroke:#181818;stroke-width:1.0;"/><rect fill="#F1F1F1" height="36.2969" rx="12.5" ry="12.5" style="stroke:#181818;stroke-width:1.5;" width="133.7568" x="607.9258" y="1371.125"/><text fill="#000000" font-family="sans-serif" font-size="14" lengthAdjust="spacing" textLength="113.7568" x="617.9258" y="1394.1201">High Availability</text><path d="M557.9258,1417.4219 L567.9258,1417.4219 C582.9258,1417.4219 582.9258,1389.2734 597.9258,1389.2734 L607.9258,1389.2734 " fill="none" style="stroke:#181818;stroke-width:1.0;"/><rect fill="#F1F1F1" height="36.2969" rx="12.5" ry="12.5" style="stroke:#181818;stroke-width:1.5;" width="128.4727" x="607.9258" y="1427.4219"/><text fill="#000000" font-family="sans-serif" font-size="14" lengthAdjust="spacing" textLength="108.4727" x="617.9258" y="1450.417">Fault Tolerance</text><path d="M557.9258,1417.4219 L567.9258,1417.4219 C582.9258,1417.4219 582.9258,1445.5703 597.9258,1445.5703 L607.9258,1445.5703 " fill="none" style="stroke:#181818;stroke-width:1.0;"/><rect fill="#F1F1F1" height="36.2969" rx="12.5" ry="12.5" style="stroke:#181818;stroke-width:1.5;" width="77.4902" x="607.9258" y="1483.7188"/><text fill="#000000" font-family="sans-serif" font-size="14" lengthAdjust="spacing" textLength="57.4902" x="617.9258" y="1506.7139">Security</text><path d="M557.9258,1417.4219 L567.9258,1417.4219 C582.9258,1417.4219 582.9258,1501.8672 597.9258,1501.8672 L607.9258,1501.8672 " fill="none" style="stroke:#181818;stroke-width:1.0;"/><rect fill="#F1F1F1" height="36.2969" rx="12.5" ry="12.5" style="stroke:#181818;stroke-width:1.5;" width="70.9346" x="607.9258" y="1540.0156"/><text fill="#000000" font-family="sans-serif" font-size="14" lengthAdjust="spacing" textLength="50.9346" x="617.9258" y="1563.0107">Privacy</text><path d="M557.9258,1417.4219 L567.9258,1417.4219 C582.9258,1417.4219 582.9258,1558.1641 597.9258,1558.1641 L607.9258,1558.1641 " fill="none" style="stroke:#181818;stroke-width:1.0;"/><path d="M279.4639,1586.3125 L289.4639,1586.3125 C304.4639,1586.3125 304.4639,1417.4219 319.4639,1417.4219 L329.4639,1417.4219 " fill="none" style="stroke:#181818;stroke-width:1.0;"/><rect fill="#F1F1F1" height="36.2969" rx="12.5" ry="12.5" style="stroke:#181818;stroke-width:1.5;" width="185.2041" x="329.4639" y="1765.2031"/><text fill="#000000" font-family="sans-serif" font-size="14" lengthAdjust="spacing" textLength="165.2041" x="339.4639" y="1788.1982">High-Level Architecture</text><rect fill="#F1F1F1" height="36.2969" rx="12.5" ry="12.5" style="stroke:#181818;stroke-width:1.5;" width="174.041" x="564.668" y="1596.3125"/><text fill="#000000" font-family="sans-serif" font-size="14" lengthAdjust="spacing" textLength="154.041" x="574.668" y="1619.3076">Frontend API gateway</text><path d="M514.668,1783.3516 L524.668,1783.3516 C539.668,1783.3516 539.668,1614.4609 554.668,1614.4609 L564.668,1614.4609 " fill="none" style="stroke:#181818;stroke-width:1.0;"/><rect fill="#F1F1F1" height="36.2969" rx="12.5" ry="12.5" style="stroke:#181818;stroke-width:1.5;" width="134.96" x="564.668" y="1652.6094"/><text fill="#000000" font-family="sans-serif" font-size="14" lengthAdjust="spacing" textLength="114.96" x="574.668" y="1675.6045">Backend service</text><path d="M514.668,1783.3516 L524.668,1783.3516 C539.668,1783.3516 539.668,1670.7578 554.668,1670.7578 L564.668,1670.7578 " fill="none" style="stroke:#181818;stroke-width:1.0;"/><rect fill="#F1F1F1" height="36.2969" rx="12.5" ry="12.5" style="stroke:#181818;stroke-width:1.5;" width="197.3174" x="564.668" y="1708.9063"/><text fill="#000000" font-family="sans-serif" font-size="14" lengthAdjust="spacing" textLength="177.3174" x="574.668" y="1731.9014">Channel-specific services</text><path d="M514.668,1783.3516 L524.668,1783.3516 C539.668,1783.3516 539.668,1727.0547 554.668,1727.0547 L564.668,1727.0547 " fill="none" style="stroke:#181818;stroke-width:1.0;"/><rect fill="#F1F1F1" height="36.2969" rx="12.5" ry="12.5" style="stroke:#181818;stroke-width:1.5;" width="136.9629" x="564.668" y="1765.2031"/><text fill="#000000" font-family="sans-serif" font-size="14" lengthAdjust="spacing" textLength="116.9629" x="574.668" y="1788.1982">Message queues</text><path d="M514.668,1783.3516 L524.668,1783.3516 C539.668,1783.3516 539.668,1783.3516 554.668,1783.3516 L564.668,1783.3516 " fill="none" style="stroke:#181818;stroke-width:1.0;"/><rect fill="#F1F1F1" height="36.2969" rx="12.5" ry="12.5" style="stroke:#181818;stroke-width:1.5;" width="140.8594" x="564.668" y="1821.5"/><text fill="#000000" font-family="sans-serif" font-size="14" lengthAdjust="spacing" textLength="120.8594" x="574.668" y="1844.4951">Template service</text><path d="M514.668,1783.3516 L524.668,1783.3516 C539.668,1783.3516 539.668,1839.6484 554.668,1839.6484 L564.668,1839.6484 " fill="none" style="stroke:#181818;stroke-width:1.0;"/><rect fill="#F1F1F1" height="36.2969" rx="12.5" ry="12.5" style="stroke:#181818;stroke-width:1.5;" width="105.7637" x="564.668" y="1877.7969"/><text fill="#000000" font-family="sans-serif" font-size="14" lengthAdjust="spacing" textLength="85.7637" x="574.668" y="1900.792">Object store</text><path d="M514.668,1783.3516 L524.668,1783.3516 C539.668,1783.3516 539.668,1895.9453 554.668,1895.9453 L564.668,1895.9453 " fill="none" style="stroke:#181818;stroke-width:1.0;"/><rect fill="#F1F1F1" height="36.2969" rx="12.5" ry="12.5" style="stroke:#181818;stroke-width:1.5;" width="130.3867" x="564.668" y="1934.0938"/><text fill="#000000" font-family="sans-serif" font-size="14" lengthAdjust="spacing" textLength="110.3867" x="574.668" y="1957.0889">Logging service</text><path d="M514.668,1783.3516 L524.668,1783.3516 C539.668,1783.3516 539.668,1952.2422 554.668,1952.2422 L564.668,1952.2422 " fill="none" style="stroke:#181818;stroke-width:1.0;"/><path d="M279.4639,1586.3125 L289.4639,1586.3125 C304.4639,1586.3125 304.4639,1783.3516 319.4639,1783.3516 L329.4639,1783.3516 " fill="none" style="stroke:#181818;stroke-width:1.0;"/><rect fill="#F1F1F1" height="36.2969" rx="12.5" ry="12.5" style="stroke:#181818;stroke-width:1.5;" width="107.3564" x="329.4639" y="2018.5391"/><text fill="#000000" font-family="sans-serif" font-size="14" lengthAdjust="spacing" textLength="87.3564" x="339.4639" y="2041.5342">Object Store</text><rect fill="#F1F1F1" height="36.2969" rx="12.5" ry="12.5" style="stroke:#181818;stroke-width:1.5;" width="177.3906" x="486.8203" y="1990.3906"/><text fill="#000000" font-family="sans-serif" font-size="14" lengthAdjust="spacing" textLength="157.3906" x="496.8203" y="2013.3857">Large payload storage</text><path d="M436.8203,2036.6875 L446.8203,2036.6875 C461.8203,2036.6875 461.8203,2008.5391 476.8203,2008.5391 L486.8203,2008.5391 " fill="none" style="stroke:#181818;stroke-width:1.0;"/><rect fill="#F1F1F1" height="36.2969" rx="12.5" ry="12.5" style="stroke:#181818;stroke-width:1.5;" width="197.6592" x="486.8203" y="2046.6875"/><text fill="#000000" font-family="sans-serif" font-size="14" lengthAdjust="spacing" textLength="177.6592" x="496.8203" y="2069.6826">Reduces data duplication</text><path d="M436.8203,2036.6875 L446.8203,2036.6875 C461.8203,2036.6875 461.8203,2064.8359 476.8203,2064.8359 L486.8203,2064.8359 " fill="none" style="stroke:#181818;stroke-width:1.0;"/><path d="M279.4639,1586.3125 L289.4639,1586.3125 C304.4639,1586.3125 304.4639,2036.6875 319.4639,2036.6875 L329.4639,2036.6875 " fill="none" style="stroke:#181818;stroke-width:1.0;"/><rect fill="#F1F1F1" height="36.2969" rx="12.5" ry="12.5" style="stroke:#181818;stroke-width:1.5;" width="178.334" x="329.4639" y="2159.2813"/><text fill="#000000" font-family="sans-serif" font-size="14" lengthAdjust="spacing" textLength="158.334" x="339.4639" y="2182.2764">Notification Templates</text><rect fill="#F1F1F1" height="36.2969" rx="12.5" ry="12.5" style="stroke:#181818;stroke-width:1.5;" width="239.0918" x="557.7979" y="2102.9844"/><text fill="#000000" font-family="sans-serif" font-size="14" lengthAdjust="spacing" textLength="219.0918" x="567.7979" y="2125.9795">Template service management</text><path d="M507.7979,2177.4297 L517.7979,2177.4297 C532.7979,2177.4297 532.7979,2121.1328 547.7979,2121.1328 L557.7979,2121.1328 " fill="none" style="stroke:#181818;stroke-width:1.0;"/><rect fill="#F1F1F1" height="36.2969" rx="12.5" ry="12.5" style="stroke:#181818;stroke-width:1.5;" width="125.8545" x="557.7979" y="2159.2813"/><text fill="#000000" font-family="sans-serif" font-size="14" lengthAdjust="spacing" textLength="105.8545" x="567.7979" y="2182.2764">Version control</text><path d="M507.7979,2177.4297 L517.7979,2177.4297 C532.7979,2177.4297 532.7979,2177.4297 547.7979,2177.4297 L557.7979,2177.4297 " fill="none" style="stroke:#181818;stroke-width:1.0;"/><rect fill="#F1F1F1" height="36.2969" rx="12.5" ry="12.5" style="stroke:#181818;stroke-width:1.5;" width="139.793" x="557.7979" y="2215.5781"/><text fill="#000000" font-family="sans-serif" font-size="14" lengthAdjust="spacing" textLength="119.793" x="567.7979" y="2238.5732">Dynamic content</text><path d="M507.7979,2177.4297 L517.7979,2177.4297 C532.7979,2177.4297 532.7979,2233.7266 547.7979,2233.7266 L557.7979,2233.7266 " fill="none" style="stroke:#181818;stroke-width:1.0;"/><path d="M279.4639,1586.3125 L289.4639,1586.3125 C304.4639,1586.3125 304.4639,2177.4297 319.4639,2177.4297 L329.4639,2177.4297 " fill="none" style="stroke:#181818;stroke-width:1.0;"/><rect fill="#F1F1F1" height="36.2969" rx="12.5" ry="12.5" style="stroke:#181818;stroke-width:1.5;" width="185.293" x="329.4639" y="2271.875"/><text fill="#000000" font-family="sans-serif" font-size="14" lengthAdjust="spacing" textLength="165.293" x="339.4639" y="2294.8701">Scheduled Notifications</text><rect fill="#F1F1F1" height="36.2969" rx="12.5" ry="12.5" style="stroke:#181818;stroke-width:1.5;" width="195.8818" x="564.7568" y="2271.875"/><text fill="#000000" font-family="sans-serif" font-size="14" lengthAdjust="spacing" textLength="175.8818" x="574.7568" y="2294.8701">Job scheduler integration</text><path d="M514.7568,2290.0234 L524.7568,2290.0234 C539.7568,2290.0234 539.7568,2290.0234 554.7568,2290.0234 L564.7568,2290.0234 " fill="none" style="stroke:#181818;stroke-width:1.0;"/><path d="M279.4639,1586.3125 L289.4639,1586.3125 C304.4639,1586.3125 304.4639,2290.0234 319.4639,2290.0234 L329.4639,2290.0234 " fill="none" style="stroke:#181818;stroke-width:1.0;"/><rect fill="#F1F1F1" height="36.2969" rx="12.5" ry="12.5" style="stroke:#181818;stroke-width:1.5;" width="232.9873" x="329.4639" y="2356.3203"/><text fill="#000000" font-family="sans-serif" font-size="14" lengthAdjust="spacing" textLength="212.9873" x="339.4639" y="2379.3154">Notification Addressee Groups</text><rect fill="#F1F1F1" height="36.2969" rx="12.5" ry="12.5" style="stroke:#181818;stroke-width:1.5;" width="203.3467" x="612.4512" y="2328.1719"/><text fill="#000000" font-family="sans-serif" font-size="14" lengthAdjust="spacing" textLength="183.3467" x="622.4512" y="2351.167">Reusable recipient groups</text><path d="M562.4512,2374.4688 L572.4512,2374.4688 C587.4512,2374.4688 587.4512,2346.3203 602.4512,2346.3203 L612.4512,2346.3203 " fill="none" style="stroke:#181818;stroke-width:1.0;"/><rect fill="#F1F1F1" height="36.2969" rx="12.5" ry="12.5" style="stroke:#181818;stroke-width:1.5;" width="171.375" x="612.4512" y="2384.4688"/><text fill="#000000" font-family="sans-serif" font-size="14" lengthAdjust="spacing" textLength="151.375" x="622.4512" y="2407.4639">APIs for management</text><path d="M562.4512,2374.4688 L572.4512,2374.4688 C587.4512,2374.4688 587.4512,2402.6172 602.4512,2402.6172 L612.4512,2402.6172 " fill="none" style="stroke:#181818;stroke-width:1.0;"/><path d="M279.4639,1586.3125 L289.4639,1586.3125 C304.4639,1586.3125 304.4639,2374.4688 319.4639,2374.4688 L329.4639,2374.4688 " fill="none" style="stroke:#181818;stroke-width:1.0;"/><rect fill="#F1F1F1" height="36.2969" rx="12.5" ry="12.5" style="stroke:#181818;stroke-width:1.5;" width="173.166" x="329.4639" y="2440.7656"/><text fill="#000000" font-family="sans-serif" font-size="14" lengthAdjust="spacing" textLength="153.166" x="339.4639" y="2463.7607">Unsubscribe Handling</text><rect fill="#F1F1F1" height="36.2969" rx="12.5" ry="12.5" style="stroke:#181818;stroke-width:1.5;" width="162.3242" x="552.6299" y="2440.7656"/><text fill="#000000" font-family="sans-serif" font-size="14" lengthAdjust="spacing" textLength="142.3242" x="562.6299" y="2463.7607">Unsubscribe options</text><path d="M502.6299,2458.9141 L512.6299,2458.9141 C527.6299,2458.9141 527.6299,2458.9141 542.6299,2458.9141 L552.6299,2458.9141 " fill="none" style="stroke:#181818;stroke-width:1.0;"/><path d="M279.4639,1586.3125 L289.4639,1586.3125 C304.4639,1586.3125 304.4639,2458.9141 319.4639,2458.9141 L329.4639,2458.9141 " fill="none" style="stroke:#181818;stroke-width:1.0;"/><rect fill="#F1F1F1" height="36.2969" rx="12.5" ry="12.5" style="stroke:#181818;stroke-width:1.5;" width="202.8408" x="329.4639" y="2553.3594"/><text fill="#000000" font-family="sans-serif" font-size="14" lengthAdjust="spacing" textLength="182.8408" x="339.4639" y="2576.3545">Handling Failed Deliveries</text><rect fill="#F1F1F1" height="36.2969" rx="12.5" ry="12.5" style="stroke:#181818;stroke-width:1.5;" width="95.25" x="582.3047" y="2497.0625"/><text fill="#000000" font-family="sans-serif" font-size="14" lengthAdjust="spacing" textLength="75.25" x="592.3047" y="2520.0576">Retry logic</text><path d="M532.3047,2571.5078 L542.3047,2571.5078 C557.3047,2571.5078 557.3047,2515.2109 572.3047,2515.2109 L582.3047,2515.2109 " fill="none" style="stroke:#181818;stroke-width:1.0;"/><rect fill="#F1F1F1" height="36.2969" rx="12.5" ry="12.5" style="stroke:#181818;stroke-width:1.5;" width="154.7637" x="582.3047" y="2553.3594"/><text fill="#000000" font-family="sans-serif" font-size="14" lengthAdjust="spacing" textLength="134.7637" x="592.3047" y="2576.3545">Dead letter queues</text><path d="M532.3047,2571.5078 L542.3047,2571.5078 C557.3047,2571.5078 557.3047,2571.5078 572.3047,2571.5078 L582.3047,2571.5078 " fill="none" style="stroke:#181818;stroke-width:1.0;"/><rect fill="#F1F1F1" height="36.2969" rx="12.5" ry="12.5" style="stroke:#181818;stroke-width:1.5;" width="222.0361" x="582.3047" y="2609.6563"/><text fill="#000000" font-family="sans-serif" font-size="14" lengthAdjust="spacing" textLength="202.0361" x="592.3047" y="2632.6514">Request missed notifications</text><path d="M532.3047,2571.5078 L542.3047,2571.5078 C557.3047,2571.5078 557.3047,2627.8047 572.3047,2627.8047 L582.3047,2627.8047 " fill="none" style="stroke:#181818;stroke-width:1.0;"/><path d="M279.4639,1586.3125 L289.4639,1586.3125 C304.4639,1586.3125 304.4639,2571.5078 319.4639,2571.5078 L329.4639,2571.5078 " fill="none" style="stroke:#181818;stroke-width:1.0;"/><rect fill="#F1F1F1" height="36.2969" rx="12.5" ry="12.5" style="stroke:#181818;stroke-width:1.5;" width="197.2217" x="329.4639" y="2665.9531"/><text fill="#000000" font-family="sans-serif" font-size="14" lengthAdjust="spacing" textLength="177.2217" x="339.4639" y="2688.9482">Client-Side Deduplication</text><rect fill="#F1F1F1" height="36.2969" rx="12.5" ry="12.5" style="stroke:#181818;stroke-width:1.5;" width="161.8662" x="576.6855" y="2665.9531"/><text fill="#000000" font-family="sans-serif" font-size="14" lengthAdjust="spacing" textLength="141.8662" x="586.6855" y="2688.9482">Local history checks</text><path d="M526.6855,2684.1016 L536.6855,2684.1016 C551.6855,2684.1016 551.6855,2684.1016 566.6855,2684.1016 L576.6855,2684.1016 " fill="none" style="stroke:#181818;stroke-width:1.0;"/><path d="M279.4639,1586.3125 L289.4639,1586.3125 C304.4639,1586.3125 304.4639,2684.1016 319.4639,2684.1016 L329.4639,2684.1016 " fill="none" style="stroke:#181818;stroke-width:1.0;"/><rect fill="#F1F1F1" height="36.2969" rx="12.5" ry="12.5" style="stroke:#181818;stroke-width:1.5;" width="154.8525" x="329.4639" y="2750.3984"/><text fill="#000000" font-family="sans-serif" font-size="14" lengthAdjust="spacing" textLength="134.8525" x="339.4639" y="2773.3936">Notification Priority</text><rect fill="#F1F1F1" height="36.2969" rx="12.5" ry="12.5" style="stroke:#181818;stroke-width:1.5;" width="175.6133" x="534.3164" y="2722.25"/><text fill="#000000" font-family="sans-serif" font-size="14" lengthAdjust="spacing" textLength="155.6133" x="544.3164" y="2745.2451">Multiple priority levels</text><path d="M484.3164,2768.5469 L494.3164,2768.5469 C509.3164,2768.5469 509.3164,2740.3984 524.3164,2740.3984 L534.3164,2740.3984 " fill="none" style="stroke:#181818;stroke-width:1.0;"/><rect fill="#F1F1F1" height="36.2969" rx="12.5" ry="12.5" style="stroke:#181818;stroke-width:1.5;" width="139.0068" x="534.3164" y="2778.5469"/><text fill="#000000" font-family="sans-serif" font-size="14" lengthAdjust="spacing" textLength="119.0068" x="544.3164" y="2801.542">Separate queues</text><path d="M484.3164,2768.5469 L494.3164,2768.5469 C509.3164,2768.5469 509.3164,2796.6953 524.3164,2796.6953 L534.3164,2796.6953 " fill="none" style="stroke:#181818;stroke-width:1.0;"/><path d="M279.4639,1586.3125 L289.4639,1586.3125 C304.4639,1586.3125 304.4639,2768.5469 319.4639,2768.5469 L329.4639,2768.5469 " fill="none" style="stroke:#181818;stroke-width:1.0;"/><rect fill="#F1F1F1" height="36.2969" rx="12.5" ry="12.5" style="stroke:#181818;stroke-width:1.5;" width="163.3018" x="329.4639" y="2834.8438"/><text fill="#000000" font-family="sans-serif" font-size="14" lengthAdjust="spacing" textLength="143.3018" x="339.4639" y="2857.8389">Search Functionality</text><rect fill="#F1F1F1" height="36.2969" rx="12.5" ry="12.5" style="stroke:#181818;stroke-width:1.5;" width="238.8799" x="542.7656" y="2834.8438"/><text fill="#000000" font-family="sans-serif" font-size="14" lengthAdjust="spacing" textLength="218.8799" x="552.7656" y="2857.8389">Indexing templates and groups</text><path d="M492.7656,2852.9922 L502.7656,2852.9922 C517.7656,2852.9922 517.7656,2852.9922 532.7656,2852.9922 L542.7656,2852.9922 " fill="none" style="stroke:#181818;stroke-width:1.0;"/><path d="M279.4639,1586.3125 L289.4639,1586.3125 C304.4639,1586.3125 304.4639,2852.9922 319.4639,2852.9922 L329.4639,2852.9922 " fill="none" style="stroke:#181818;stroke-width:1.0;"/><rect fill="#F1F1F1" height="36.2969" rx="12.5" ry="12.5" style="stroke:#181818;stroke-width:1.5;" width="185.0811" x="329.4639" y="2919.2891"/><text fill="#000000" font-family="sans-serif" font-size="14" lengthAdjust="spacing" textLength="165.0811" x="339.4639" y="2942.2842">Monitoring and Alerting</text><rect fill="#F1F1F1" height="36.2969" rx="12.5" ry="12.5" style="stroke:#181818;stroke-width:1.5;" width="205.2471" x="564.5449" y="2891.1406"/><text fill="#000000" font-family="sans-serif" font-size="14" lengthAdjust="spacing" textLength="185.2471" x="574.5449" y="2914.1357">Track notification statuses</text><path d="M514.5449,2937.4375 L524.5449,2937.4375 C539.5449,2937.4375 539.5449,2909.2891 554.5449,2909.2891 L564.5449,2909.2891 " fill="none" style="stroke:#181818;stroke-width:1.0;"/><rect fill="#F1F1F1" height="36.2969" rx="12.5" ry="12.5" style="stroke:#181818;stroke-width:1.5;" width="179.2021" x="564.5449" y="2947.4375"/><text fill="#000000" font-family="sans-serif" font-size="14" lengthAdjust="spacing" textLength="159.2021" x="574.5449" y="2970.4326">Measure success rates</text><path d="M514.5449,2937.4375 L524.5449,2937.4375 C539.5449,2937.4375 539.5449,2965.5859 554.5449,2965.5859 L564.5449,2965.5859 " fill="none" style="stroke:#181818;stroke-width:1.0;"/><path d="M279.4639,1586.3125 L289.4639,1586.3125 C304.4639,1586.3125 304.4639,2937.4375 319.4639,2937.4375 L329.4639,2937.4375 " fill="none" style="stroke:#181818;stroke-width:1.0;"/><rect fill="#F1F1F1" height="36.2969" rx="12.5" ry="12.5" style="stroke:#181818;stroke-width:1.5;" width="199.3203" x="329.4639" y="3060.0313"/><text fill="#000000" font-family="sans-serif" font-size="14" lengthAdjust="spacing" textLength="179.3203" x="339.4639" y="3083.0264">Additional Considerations</text><rect fill="#F1F1F1" height="36.2969" rx="12.5" ry="12.5" style="stroke:#181818;stroke-width:1.5;" width="106.666" x="578.7842" y="3003.7344"/><text fill="#000000" font-family="sans-serif" font-size="14" lengthAdjust="spacing" textLength="86.666" x="588.7842" y="3026.7295">Auto-scaling</text><path d="M528.7842,3078.1797 L538.7842,3078.1797 C553.7842,3078.1797 553.7842,3021.8828 568.7842,3021.8828 L578.7842,3021.8828 " fill="none" style="stroke:#181818;stroke-width:1.0;"/><rect fill="#F1F1F1" height="36.2969" rx="12.5" ry="12.5" style="stroke:#181818;stroke-width:1.5;" width="109.3047" x="578.7842" y="3060.0313"/><text fill="#000000" font-family="sans-serif" font-size="14" lengthAdjust="spacing" textLength="89.3047" x="588.7842" y="3083.0264">Rate limiting</text><path d="M528.7842,3078.1797 L538.7842,3078.1797 C553.7842,3078.1797 553.7842,3078.1797 568.7842,3078.1797 L578.7842,3078.1797 " fill="none" style="stroke:#181818;stroke-width:1.0;"/><rect fill="#F1F1F1" height="36.2969" rx="12.5" ry="12.5" style="stroke:#181818;stroke-width:1.5;" width="96.8838" x="578.7842" y="3116.3281"/><text fill="#000000" font-family="sans-serif" font-size="14" lengthAdjust="spacing" textLength="76.8838" x="588.7842" y="3139.3232">A/B testing</text><path d="M528.7842,3078.1797 L538.7842,3078.1797 C553.7842,3078.1797 553.7842,3134.4766 568.7842,3134.4766 L578.7842,3134.4766 " fill="none" style="stroke:#181818;stroke-width:1.0;"/><path d="M279.4639,1586.3125 L289.4639,1586.3125 C304.4639,1586.3125 304.4639,3078.1797 319.4639,3078.1797 L329.4639,3078.1797 " fill="none" style="stroke:#181818;stroke-width:1.0;"/><!--SRC=[VLLDSzDA4BphLymHKcKI89MYVCA94qXU32xBoNszciWBgrsn7-QPNq-llcoLKvniQMPdUwQxHvzz42vKoXILgBCp-cQ3Ub5I16ND-Kop2ygKbEzzu8hcx5LfihCpkej6fXIXQSM_ed9SiGaUeJFAfQqPkI_Ag9IJNfxHasUImhCdOGfwOH6YOz_65izBAlhQUBv1BIUq-iF876vIOPzrbLntC6TJiAFsOSLIrGf7syTPWQwoKO1kji8OrjtfQsT_enQPevwxq6qbbExkMEGTIhjHcgcEVllQaNipcTNrQOJMNDLQXBxP5KSlDYYqGnj8GezXdB54e6duJrE549EyjRhe-gQrKsK9u3VM5Ee8maAO24P26mPnNJrdIoUg2jNaIJ2NMowY1efJv6dI3LrVd8rrAY_AXkYk4wjviW6d1GafsNkI5iJPRd3Vwp1HvZpzsDWS0ISjNe2y6obW3WorxYvlNnqhaRRA1-lsVJ_AEgY1DEywCcc6cdlqDmpv84fwiQcBGnobpUJV2XPQWEnUSI04DIfX93VFNrMvfTaE4ZdEkXDH1rfZA6x8p5b6DvHnQYTa-jzKc3mc-3HpSgi2opIDjex3525icYtlgOGiVels_BMGFzDxiB9JtGMTeYU-XiWnhZxODh80AQ2CVaMEF5RZgChtpGy0e3JZziMZBSja_4DIdvCVSeH3wLhijHL5SnPNTOOh8Y1G8OAWCR5ZMaVME856rKXmzDmQvbXbDDyRKQ5jsSmivHqf-jk9eX_iXdmNTwHm1ivu5Hga2dLwvbRyFXjvrmqhfJn4mLShjX5kUZ8-RhnqQiFq5MxIdVT60Llt88SS24gbBkQi5NQ5uXv3S92-BPLi9y2OlkOGqD0HpqdKx0DLoljNp4qtEi6VvAhWK_U1VrYWTnrXOFAdFnbHxyDMQX2_gjD-VCMTETV29MO7W7Wb8FoZ3qbVw1uh_V_K_h0LcnKqp1bx6DyLcpPO4-W_KjrcX4T6pKAOM3H-C8Jmy1dvs2uirudlU3DXgtfCnHt9PXQ3dNYCfBzdbPhHgbB3pRFpQo3spVDdkBJ_f6PBBKnuMZps-vxUl_jmyU7otTMRN0HwY9ekhkZYu_JzvVJZ9rhCrvJ2RxCtNvQFv6rqC4818Y2Jc12zpHx4Jj0gcg0gdcBDidcO_zU_e5kpKzWWZVeUdXU7XAlBoRM2WM4kIELvaU4JtQoiMoDj0TnJUbhVJJvbZyAK4GAU4flingAksq_9HAt_0W00]--></g></svg>